/* XPM */
static char * c_du_xpm[] = {
"64 64 561 2",
"  	c #292627",
". 	c #323234",
"+ 	c #D0D0D2",
"@ 	c #EBEBED",
"# 	c #FFFFFF",
"$ 	c #444444",
"% 	c #020202",
"& 	c #000000",
"* 	c #010101",
"= 	c #AEE6D6",
"- 	c #C2F5E7",
"; 	c #DAF5ED",
"> 	c #D7EAE5",
", 	c #95AEA8",
"' 	c #B3D9CF",
") 	c #BFF5E6",
"! 	c #DAF2EC",
"~ 	c #EAF1F0",
"{ 	c #F9F9F9",
"] 	c #040404",
"^ 	c #272425",
"/ 	c #86908D",
"( 	c #DDDDDD",
"_ 	c #F5F5F5",
": 	c #E7F5F1",
"< 	c #B1D6CC",
"[ 	c #C4E1D8",
"} 	c #EBF5F2",
"| 	c #F2F5F4",
"1 	c #E8F5F2",
"2 	c #CAF0E6",
"3 	c #9DDFCC",
"4 	c #C7F5E8",
"5 	c #C6F5E8",
"6 	c #CAF7EA",
"7 	c #060707",
"8 	c #D1ECE4",
"9 	c #73B6A3",
"0 	c #8ECBBA",
"a 	c #EDF5F3",
"b 	c #EBF4F1",
"c 	c #A3E5D2",
"d 	c #A4E6D3",
"e 	c #ACEBD9",
"f 	c #BCF5E5",
"g 	c #000101",
"h 	c #90D2C0",
"i 	c #96C7B9",
"j 	c #C4DED7",
"k 	c #DEEAE7",
"l 	c #A7CFC4",
"m 	c #69B59F",
"n 	c #99CEBF",
"o 	c #CFF5EA",
"p 	c #ECF5F3",
"q 	c #F0F5F4",
"r 	c #70C2AA",
"s 	c #66BAA2",
"t 	c #6CBEA7",
"u 	c #85C6B3",
"v 	c #9CDAC8",
"w 	c #75C1AB",
"x 	c #3E9E82",
"y 	c #79B9A7",
"z 	c #F1F3F3",
"A 	c #F0F3F2",
"B 	c #8BC9B7",
"C 	c #ADECDA",
"D 	c #BAF5E4",
"E 	c #C1F5E6",
"F 	c #C4F4E5",
"G 	c #B0EAD8",
"H 	c #4FAA90",
"I 	c #87D2BC",
"J 	c #DAF5EE",
"K 	c #CEDFDA",
"L 	c #010100",
"M 	c #020201",
"N 	c #040403",
"O 	c #5D7770",
"P 	c #9BBBB3",
"Q 	c #D9E7E1",
"R 	c #E6DAC8",
"S 	c #DFCDAF",
"T 	c #7BB08F",
"U 	c #83BF9C",
"V 	c #A0D4B6",
"W 	c #98C6B0",
"X 	c #DFC880",
"Y 	c #BCB572",
"Z 	c #809B5E",
"` 	c #94C5A3",
" .	c #9FD3B6",
"..	c #B9DBC0",
"+.	c #6B645C",
"@.	c #6A655E",
"#.	c #A89781",
"$.	c #E8B368",
"%.	c #E6A649",
"&.	c #DFB05B",
"*.	c #D9A03E",
"=.	c #E0AF56",
"-.	c #A98D59",
";.	c #F7AE46",
">.	c #F4B55C",
",.	c #EE9E2E",
"'.	c #EEC480",
").	c #DAAB56",
"!.	c #E1A643",
"~.	c #6A655D",
"{.	c #6B645A",
"].	c #030303",
"^.	c #F6BA66",
"/.	c #F7AF4C",
"(.	c #F3B258",
"_.	c #EEA135",
":.	c #F6B251",
"<.	c #E7AF5F",
"[.	c #FAC67E",
"}.	c #F0AE51",
"|.	c #F1A336",
"1.	c #040301",
"2.	c #070707",
"3.	c #F7BC6A",
"4.	c #EEA235",
"5.	c #F8B95F",
"6.	c #F5B862",
"7.	c #F7AE47",
"8.	c #FDFDFC",
"9.	c #FEFEFE",
"0.	c #0B0A0A",
"a.	c #6A655C",
"b.	c #F5B861",
"c.	c #F4B45A",
"d.	c #F1A73E",
"e.	c #FBC170",
"f.	c #EAAE5A",
"g.	c #F7B85F",
"h.	c #030201",
"i.	c #F6B862",
"j.	c #F3AC4B",
"k.	c #EEB25D",
"l.	c #F7B150",
"m.	c #FABE6B",
"n.	c #F0BD75",
"o.	c #F7BD6B",
"p.	c #F7C681",
"q.	c #A26D26",
"r.	c #F6B760",
"s.	c #ECA746",
"t.	c #F1A234",
"u.	c #2A2727",
"v.	c #050402",
"w.	c #040303",
"x.	c #F8BB64",
"y.	c #EBA441",
"z.	c #D28C2A",
"A.	c #E79C34",
"B.	c #F0A031",
"C.	c #6A6359",
"D.	c #080808",
"E.	c #E39B35",
"F.	c #EC9F32",
"G.	c #EE9E2F",
"H.	c #F5B760",
"I.	c #D29238",
"J.	c #DB9535",
"K.	c #2B2727",
"L.	c #373533",
"M.	c #F8BA62",
"N.	c #F3C17A",
"O.	c #F7AF4B",
"P.	c #EEA238",
"Q.	c #E49B35",
"R.	c #ED9F32",
"S.	c #0E0D0D",
"T.	c #F7B04F",
"U.	c #F5BA65",
"V.	c #F6B14F",
"W.	c #EBA442",
"X.	c #F6B354",
"Y.	c #E79A2D",
"Z.	c #E79D34",
"`.	c #F7BD6C",
" +	c #F4B359",
".+	c #F0A53B",
"++	c #F3B35A",
"@+	c #F7AF4A",
"#+	c #E2901C",
"$+	c #EEAA4A",
"%+	c #F1A335",
"&+	c #040302",
"*+	c #F4BD6E",
"=+	c #F0A63F",
"-+	c #EEA236",
";+	c #F9BB65",
">+	c #E38F1A",
",+	c #F7BB67",
"'+	c #F1B053",
")+	c #F1A439",
"!+	c #030301",
"~+	c #12110E",
"{+	c #302A27",
"]+	c #E0AC62",
"^+	c #EFA236",
"/+	c #F5AE4B",
"(+	c #F3A63B",
"_+	c #F7AC43",
":+	c #EFA846",
"<+	c #F7AC42",
"[+	c #F4AB44",
"}+	c #C88A35",
"|+	c #FDFDFD",
"1+	c #DD9B41",
"2+	c #EAA23B",
"3+	c #E49E3A",
"4+	c #DEAA5F",
"5+	c #C78B38",
"6+	c #C68830",
"7+	c #B97B26",
"8+	c #E6982A",
"9+	c #F3A73D",
"0+	c #D89536",
"a+	c #D09544",
"b+	c #020101",
"c+	c #FCFCFC",
"d+	c #E2E2E2",
"e+	c #D3D3D3",
"f+	c #C7C7C7",
"g+	c #AAAAAB",
"h+	c #A9A9A9",
"i+	c #989898",
"j+	c #858587",
"k+	c #717279",
"l+	c #001A42",
"m+	c #3D3857",
"n+	c #24356A",
"o+	c #11397B",
"p+	c #003C85",
"q+	c #004292",
"r+	c #00479B",
"s+	c #75554D",
"t+	c #6C4917",
"u+	c #5A3C12",
"v+	c #000619",
"w+	c #272325",
"x+	c #282526",
"y+	c #303032",
"z+	c #EDEDED",
"A+	c #DDDDDE",
"B+	c #5F6A8D",
"C+	c #003C86",
"D+	c #004EA9",
"E+	c #0055B7",
"F+	c #0059BE",
"G+	c #005FC9",
"H+	c #0065D8",
"I+	c #006BE3",
"J+	c #006DE7",
"K+	c #006FEB",
"L+	c #0072F0",
"M+	c #0073F3",
"N+	c #0071EE",
"O+	c #0071F0",
"P+	c #005CC5",
"Q+	c #005FCB",
"R+	c #0066D9",
"S+	c #0058BD",
"T+	c #072D66",
"U+	c #101322",
"V+	c #242122",
"W+	c #313133",
"X+	c #414141",
"Y+	c #2E2E30",
"Z+	c #212B48",
"`+	c #3B4970",
" @	c #264686",
".@	c #0064D4",
"+@	c #006EE9",
"@@	c #0078FC",
"#@	c #0079FE",
"$@	c #0077FC",
"%@	c #0078FD",
"&@	c #0078FE",
"*@	c #0079FF",
"=@	c #0073F2",
"-@	c #0075F8",
";@	c #0063D4",
">@	c #09418D",
",@	c #272A34",
"'@	c #2C2C2E",
")@	c #2F2F2F",
"!@	c #111422",
"~@	c #151D37",
"{@	c #045BC0",
"]@	c #0072F1",
"^@	c #0076F9",
"/@	c #0077FB",
"(@	c #0074F5",
"_@	c #0168DC",
":@	c #044097",
"<@	c #020B6D",
"[@	c #20235A",
"}@	c #1D1D1E",
"|@	c #004DA7",
"1@	c #0067DA",
"2@	c #006DE5",
"3@	c #0077FD",
"4@	c #0257F4",
"5@	c #042DF1",
"6@	c #0220AF",
"7@	c #2D2D2D",
"8@	c #434343",
"9@	c #28282A",
"0@	c #143E81",
"a@	c #0066DA",
"b@	c #0076F8",
"c@	c #007AFF",
"d@	c #0265FF",
"e@	c #0434FF",
"f@	c #0433FF",
"g@	c #0225C6",
"h@	c #282828",
"i@	c #303033",
"j@	c #E7E7E7",
"k@	c #A5A5A6",
"l@	c #7A7BA2",
"m@	c #0151D2",
"n@	c #0076FA",
"o@	c #0078FF",
"p@	c #0264FF",
"q@	c #0431FF",
"r@	c #032BDC",
"s@	c #6F719D",
"t@	c #D7D7D7",
"u@	c #FBFBFB",
"v@	c #F0F0F0",
"w@	c #8F90AD",
"x@	c #021FAF",
"y@	c #0326D0",
"z@	c #2346F8",
"A@	c #025EFE",
"B@	c #0172FF",
"C@	c #0256FF",
"D@	c #0350FF",
"E@	c #034AFF",
"F@	c #0344FF",
"G@	c #043BFF",
"H@	c #0432FD",
"I@	c #0431F9",
"J@	c #0431F8",
"K@	c #0329D6",
"L@	c #686871",
"M@	c #CACACC",
"N@	c #011584",
"O@	c #032EEA",
"P@	c #1735F0",
"Q@	c #2C41FF",
"R@	c #034DFD",
"S@	c #0076FF",
"T@	c #0074FF",
"U@	c #0171FF",
"V@	c #0170FF",
"W@	c #0079FC",
"X@	c #0077FE",
"Y@	c #0077FF",
"Z@	c #0075FF",
"`@	c #016FFF",
" #	c #016BFF",
".#	c #0167FF",
"+#	c #0262FF",
"@#	c #0355FF",
"##	c #0432FF",
"$#	c #032DE8",
"%#	c #000D64",
"&#	c #69696A",
"*#	c #DEDEE0",
"=#	c #E5E5E7",
"-#	c #BCBCBF",
";#	c #162391",
">#	c #032DE6",
",#	c #0F31ED",
"'#	c #1538FE",
")#	c #0438FE",
"!#	c #043FFF",
"~#	c #043AFF",
"{#	c #0436FF",
"]#	c #0342FD",
"^#	c #0165FA",
"/#	c #0261FB",
"(#	c #0259FF",
"_#	c #0353FF",
":#	c #034DFF",
"<#	c #0347FF",
"[#	c #0341FF",
"}#	c #043CFF",
"|#	c #0438FF",
"1#	c #0435FF",
"2#	c #0430FF",
"3#	c #0430F3",
"4#	c #01137E",
"5#	c #545459",
"6#	c #EEEEEE",
"7#	c #2A2C46",
"8#	c #011B9C",
"9#	c #1735F1",
"0#	c #1536F8",
"a#	c #0431F7",
"b#	c #01188F",
"c#	c #494954",
"d#	c #EAEAEA",
"e#	c #F4F4F4",
"f#	c #4B4B54",
"g#	c #01178A",
"h#	c #1536F9",
"i#	c #1839FF",
"j#	c #0432FE",
"k#	c #011CA0",
"l#	c #35364C",
"m#	c #E5E5E5",
"n#	c #F8F8F8",
"o#	c #606065",
"p#	c #011789",
"q#	c #1033F4",
"r#	c #1036FF",
"s#	c #021EAA",
"t#	c #1C1E45",
"u#	c #DBDBDB",
"v#	c #6B6B6E",
"w#	c #011686",
"x#	c #0F32F0",
"y#	c #0432FC",
"z#	c #0433FE",
"A#	c #0222B7",
"B#	c #000748",
"C#	c #D1D1D1",
"D#	c #888888",
"E#	c #011582",
"F#	c #0224C1",
"G#	c #00094F",
"H#	c #C5C5C5",
"I#	c #9A9A9A",
"J#	c #010E66",
"K#	c #032BDE",
"L#	c #0432FA",
"M#	c #0430F2",
"N#	c #032EEF",
"O#	c #0222B9",
"P#	c #000951",
"Q#	c #B8B8B8",
"R#	c #ABABAB",
"S#	c #010748",
"T#	c #0328D1",
"U#	c #0431FB",
"V#	c #032ADD",
"W#	c #0221B7",
"X#	c #0221B8",
"Y#	c #011A98",
"Z#	c #000645",
"`#	c #BBBBBB",
" $	c #00053D",
".$	c #0223BD",
"+$	c #032FF2",
"@$	c #0440FF",
"#$	c #0346FF",
"$$	c #034CFF",
"%$	c #032DE9",
"&$	c #0222BC",
"*$	c #011A9C",
"=$	c #000438",
"-$	c #9E9E9E",
";$	c #C8C8C8",
">$	c #00032D",
",$	c #011FAF",
"'$	c #0430F5",
")$	c #016EFF",
"!$	c #0168FF",
"~$	c #032EE9",
"{$	c #0220B5",
"]$	c #021FB0",
"^$	c #021DA5",
"/$	c #011B9F",
"($	c #001183",
"_$	c #62626C",
":$	c #D5D5D5",
"<$	c #000110",
"[$	c #032EEE",
"}$	c #042FF1",
"|$	c #034FFF",
"1$	c #016DFF",
"2$	c #0432F9",
"3$	c #032ADA",
"4$	c #0328D4",
"5$	c #0326CD",
"6$	c #0222BB",
"7$	c #021CA2",
"8$	c #011278",
"9$	c #000118",
"0$	c #0A0600",
"a$	c #443216",
"b$	c #A49486",
"c$	c #F6F6F6",
"d$	c #DFDFDF",
"e$	c #011279",
"f$	c #032BE2",
"g$	c #032DEA",
"h$	c #0433FD",
"i$	c #0432FB",
"j$	c #0349FF",
"k$	c #0075FB",
"l$	c #0073F7",
"m$	c #0070F3",
"n$	c #006CED",
"o$	c #015FE5",
"p$	c #032CDC",
"q$	c #0226CA",
"r$	c #011995",
"s$	c #011583",
"t$	c #0E1871",
"u$	c #0D1665",
"v$	c #0D124C",
"w$	c #000334",
"x$	c #00011A",
"y$	c #110B05",
"z$	c #624A30",
"A$	c #CBA784",
"B$	c #EAE8E7",
"C$	c #9C9C9C",
"D$	c #1C1C50",
"E$	c #001998",
"F$	c #01178E",
"G$	c #011891",
"H$	c #021CA1",
"I$	c #011FAC",
"J$	c #011EA8",
"K$	c #032DE7",
"L$	c #032CE2",
"M$	c #032BDD",
"N$	c #0329D4",
"O$	c #0227CF",
"P$	c #022FCB",
"Q$	c #0148C7",
"R$	c #0241C0",
"S$	c #023ABE",
"T$	c #0232B8",
"U$	c #0229A8",
"V$	c #02229F",
"W$	c #01198F",
"X$	c #01117D",
"Y$	c #011071",
"Z$	c #000F6A",
"`$	c #000C5F",
" %	c #000436",
".%	c #00011C",
"+%	c #000115",
"@%	c #000002",
"#%	c #000001",
"$%	c #493622",
"%%	c #D2A77D",
"&%	c #EDEAE8",
"*%	c #EAEAEC",
"                          .     + + + @ @ @ @ @ # # @ # # # # @                           .     + + + @ @ @ @ @ # # @ # # # # @ ",
"                        .       + + @ @ @ @ @ # # @ # # # # @ #                         .       + + @ @ @ @ @ # # @ # # # # @ # ",
"                      .         + @ @ @ @ @ # # @ # # # # @ # #                       .         + @ @ @ @ @ # # @ # # # # @ # # ",
"                    .           @ @ @ @ @ # # @ # # # # @ # # #                     .           @ @ @ @ @ # # @ # # # # @ # # # ",
"                  .           . @ @ @ @ # # @ # # # # @ # # # #                   .           . @ @ @ @ # # @ # # # # @ # # # # ",
"                .           . . @ @ @ # # @ # # # # @ # # # # #                 .           . . @ @ @ # # @ # # # # @ # # # # # ",
"              .           . . . @ @ # # @ # # # # @ # # # # # #               .           . . . @ @ # # @ # # # # @ # # # # # # ",
"            .           . . . . @ # # @ # # # # @ # # # # # # #             .           . . . . @ # # @ # # # # @ # # # # # # # ",
"          .           . . . . . # # @ # # # # @ # # # # # # # #           .           . . . . . # # @ # # # # @ # # # # # # # # ",
"        .           . . . . . $ # @ # # # # @ # # # # # # # # #         .           . . . . . $ # @ # # # # @ # # # # # # # # # ",
"      .           . . . . . $ $ @ # # # # @ # # # # # # # # # #       .           . . . . . $ $ @ # # # # @ # # # # # # # # # # ",
"    .           . . . . . $ $ . # # # # @ # # # # # # # # # # #     .           . . . . . $ $ . # # # # @ # # # # # # # # # # # ",
"  .           . . . . . $ $ . $ # # # @ # # # # # # # # # # # #   .           . . . . . $ $ . $ # # # @ # # # # # # # # # # # # ",
".           . . . . . $ $ . $ $ # # @ # # # # # # # # # # # # # .           . . . . . $ $ . $ $ # # @ # # # # # # # # # # # # # ",
"          . . . . . $ $ . $ $ $ # @ # # # # # # # # # # # # # @           . . . . . $ $ . $ $ $ # @ # # # # # # # # # # # # # @ ",
"        . . . . . $ $ . $ $ $ $ @ # # # # # # # # # # # # # @ #         . . . . . $ $ . $ $ $ $ @ # # # # # # # # # # # # # @ # ",
"+ + + @ @ @ @ @ # # @ # # # # @                           .     + + + @ @ @ @ @ # # @ # # # # @                           .     ",
"+ + @ @ @ @ @ # # @ # # # # @ #                         .       + + @ @ @ @ @ # # @ # # # # @ #                         .       ",
"+ @ @ @ @ @ # # @ # # # # @ # #                       .         + @ @ @ @ @ # # @ # # # # @ # #                       .         ",
"@ @ @ @ @ # # @ # # # # @ # # #                     .           @ @ @ @ @ # # @ # # # # @ # # #                     .           ",
"@ @ @ @ # # @ # # # # @ # # # #                   . % & & & & & % % % & & # @ # # # # @ # # # #                   .           . ",
"@ @ @ # # @ # # # # @ # # # # #             & & & * = - ; > , ' ) ! ~ { { ] # # # # @ # # # # #                 .           . . ",
"@ @ # # @ # # # # @ # # # # # #         ^ * / ( _ _ : < [ } | 1 2 3 4 5 - 6 7 # # @ # # # # # #               .           . . . ",
"@ # # @ # # # # @ # # # # # # #         ^ & 8 _ _ _ _ 9 0 a _ _ b c d d e f ] # @ # # # # # # #             .           . . . . ",
"# # @ # # # # @ # # # # # # # #           g h i j k l m n o p q : r s t u v & @ # # # # # # # #           .           . . . . . ",
"# @ # # # # @ # # # # # # # # #         . % w x y z A B C D E F G H I D J K L L M N # # # # # #         .           . . . . . $ ",
"@ # # # # @ # # # # # # # # # #       .   & O P Q R S T U V W X Y Z `  ...M +.@.@.@.] # # # # #       .           . . . . . $ $ ",
"# # # # @ # # # # # # # # # # #     .       & & #.$.%.&.*.=.-.;.>.,.'.).!.L ~.@.@.~.{.].# # # #     .           . . . . . $ $ . ",
"# # # @ # # # # # # # # # # # #   .           . * ^./.(._.:.<.;.>.,.[.}.|.L 1.* * @.@.2.# # # #   .           . . . . . $ $ . $ ",
"# # @ # # # # # # # # # # # # # .           . . & 3./.(.4.5.6.7.>.,.[.}.|.M * 8.9.0.@.a.* # # # .           . . . . . $ $ . $ $ ",
"# @ # # # # # # # # # # # # # @           . . . & b./.c.d.e.6.7.>.f.g.}.|.h.# # # % @.@.% # # @           . . . . . $ $ . $ $ $ ",
"@ # # # # # # # # # # # # # @ #         . . . . & i.j.k.l.m.6.7.>.n.o.}.|.M # # 9.% @.~.& # @ #         . . . . . $ $ . $ $ $ $ ",
"                          .     + + + @ @ @ @ @ * o.b.p.l.:.6.7.>.q.r.s.t.&     u.v.@.*   .     + + + @ @ @ @ @ # # @ # # # # @ ",
"                        .       + + @ @ @ @ @ # w.o.x.p.l.:.y.;.>.z.r.A.B.L     & C.~.% .       + + @ @ @ @ @ # # @ # # # # @ # ",
"                      .         + @ @ @ @ @ # # D.o.x.p.l.:.y.;.>.,.r.E.F.L   & ~.~.h..         + @ @ @ @ @ # # @ # # # # @ # # ",
"                    .           @ @ @ @ @ # # @ w.o.x.p.l.:.y.;.>.G.H.I.J.L K.h.@.h.L.          @ @ @ @ @ # # @ # # # # @ # # # ",
"                  .           . @ @ @ @ # # @ # M o.M.N.l.:.y.O.>.P.6.Q.R.L S.@.~.&           . @ @ @ @ # # @ # # # # @ # # # # ",
"                .           . . @ @ @ # # @ # # * o.T.U.V.:.W.X.>.Y.6.Z.B.M @.~.N K.        . . @ @ @ # # @ # # # # @ # # # # # ",
"              .           . . . @ @ # # @ # # # * `./. +.+:.++@+>.#+H.$+%+M @.&+          . . . @ @ # # @ # # # # @ # # # # # # ",
"            .           . . . . @ # # @ # # # # * *+=+(.-+;+6.7.>.>+,+'+)+!+~+{+        . . . . @ # # @ # # # # @ # # # # # # # ",
"          .           . . . . . # # @ # # # # @ 2.]+^+/+(+e.6._+:+>+<+[+}+L           . . . . . # # @ # # # # @ # # # # # # # # ",
"        .           . . . . . $ # @ # # # # @ # |+& 1+2+3+4+5+6+7+8+9+0+a+b+        . . . . . $ # @ # # # # @ # # # # # # # # # ",
"      .           . . . . . $ $ @ c+d+e+f+g+h+i+j+k+l+m+n+o+p+q+r+s+t+u+v+w+^ x+  . . . . . $ $ @ # # # # @ # # # # # # # # # # ",
"    .           . . . . . $ $ y+z+A+B+C+D+E+F+G+H+I+J+K+L+M+N+O+L+P+Q+R+S+T+U+V+W+. . . . $ $ . # # # # @ # # # # # # # # # # # ",
"  .           . . . . . $ X+Y+Z+`+ @.@+@@@#@$@@@%@&@&@#@*@*@*@*@*@=@-@&@H+;@>@,@'@y+. . $ $ . $ # # # @ # # # # # # # # # # # # ",
".           . . . . . $ )@!@~@{@]@^@&@*@*@*@*@*@*@*@*@*@*@*@*@*@*@^@/@#@-@(@_@:@<@[@Y+$ $ . $ $ # # @ # # # # # # # # # # # # # ",
"          . . . . . $ $ }@|@1@2@(@$@&@*@$@@@*@*@*@*@*@*@*@*@*@*@*@*@*@*@*@#@3@4@5@6@7@8@. $ $ $ # @ # # # # # # # # # # # # # @ ",
"        . . . . . $ $ 9@0@a@M+b@*@*@*@*@/@$@*@*@*@*@*@*@*@*@*@*@*@*@*@*@*@c@d@e@f@g@h@i@$ $ $ $ @ # # # # # # # # # # # # # @ # ",
"+ + + @ @ @ @ @ # j@k@l@m@n@%@#@*@*@*@*@*@*@*@*@*@*@*@*@*@*@*@*@*@*@c@*@*@o@p@q@f@r@s@t@c+u@# @                           .     ",
"+ + @ @ @ @ @ # v@w@x@y@z@A@c@*@*@*@*@*@*@*@*@*@*@*@*@*@*@*@c@c@c@B@C@D@E@F@G@H@I@J@K@L@f+_ @ #                         .       ",
"+ @ @ @ @ @ # # M@N@O@P@Q@R@o@S@T@U@V@@@W@c@c@c@*@X@Y@Z@B@`@ #.#+#@#q@q@##f@f@f@H@H@$#%#&#*## #                       .         ",
"@ @ @ @ @ # # =#-#;#>#,#'#)#F@!#~#{#]#^#/#A@(#_#:#<#[#}#|#1#f@q@2#q@f@######f@f@f@f@3#4#5#6#9.#                     .           ",
"@ @ @ @ # # @ z+7#8#9#0#f@f@f@f@f@f@H@q@2#2#2#q@####f@f@f@f@f@f@f@f@f@######f@f@f@f@a#b#c#d#9.#                   .           . ",
"@ @ @ # # @ # e#f#g#h#i#f@f@f@f@H@f@f@f@f@f@f@f@f@f@f@f@f@f@f@f@f@f@f@f@f@j#f@f@f@f@I@k#l#m#9.#                 .           . . ",
"@ @ # # @ # # n#o#p#q#r#f@f@f@f@H@f@f@f@f@f@f@f@f@f@##f@f@j#f@f@f@f@f@f@f@f@##f@f@f@H@s#t#u#|+#               .           . . . ",
"@ # # @ # # # c+v#w#x#f@f@f@y#y#z#f@f@f@f@f@f@####f@f@f@f@H@j#######f@f@f@f@f@f@f@f@f@A#B#C#|+#             .           . . . . ",
"# # @ # # # # @ D#E#O@f@f@f@z#f@f@f@f@f@f@f@f@f@f@f@f@f@f@f@f@f@f@##f@f@f@f@f@f@f@f@f@F#G#H#c+#           .           . . . . . ",
"# @ # # # # @ # I#J#K#f@f@f@f@f@f@f@f@f@f@f@f@f@f@f@f@f@f@f@f@f@f@f@f@f@f@f@##f@L#M#N#O#P#Q#u@#         .           . . . . . $ ",
"@ # # # # @ # # R#S#T###z#f@f@f@f@f@f@f@f@f@f@f@f@f@f@f@f@######f@f@f@f@f@H@U#I@V#W#X#Y#Z#R#u@#       .           . . . . . $ $ ",
"# # # # @ # # # `# $.$+$a#f@f@f@f@f@f@f@f@f@f@####e@|#G@@$#$$$<###f@f@f@##f@%$&$O#X#O#*$=$-$# #     .           . . . . . $ $ . ",
"# # # @ # # # # ;$>$,$'$I@f@f@f@f@f@f@f@f@f@##E@ #)$B@T@S@o@c@!$q@f@f@f@####~${$]$^$/$($_$:$# #   .           . . . . . $ $ . $ ",
"# # @ # # # # # :$<$Y#[$}$f@f@f@f@f@f@f@f@f@q@|$c@*@*@*@*@*@c@1$e@2$3$4$5$g@6$7$8$9$0$a$b$c$# # .           . . . . . $ $ . $ $ ",
"# @ # # # # # # d$& e$f$g$f@h$i$I@I@f@f@f@f@##j$*@#@3@k$l$m$n$o$p$q$r$s$t$u$v$w$x$& y$z$A$B$9.@           . . . . . $ $ . $ $ $ ",
"@ # # # # # # # v@C$D$E$F$G$H$I$J$6$K$L$M$N$O$P$Q$R$S$T$U$V$W$X$Y$Z$`$ %.%+%@%#%& & & $%%%&%*%#         . . . . . $ $ . $ $ $ $ "};
