/* XPM */
static char * c_lr_xpm[] = {
"64 64 389 2",
"  	c #292627",
". 	c #323234",
"+ 	c #D0D0D2",
"@ 	c #EBEBED",
"# 	c #FFFFFF",
"$ 	c #000000",
"% 	c #272425",
"& 	c #282526",
"* 	c #0089F3",
"= 	c #008BF8",
"- 	c #0090FF",
"; 	c #007EE1",
"> 	c #002554",
", 	c #262324",
"' 	c #0086EF",
") 	c #008EFC",
"! 	c #0085ED",
"~ 	c #00000B",
"{ 	c #008AF6",
"] 	c #0076D5",
"^ 	c #444444",
"/ 	c #048EFB",
"( 	c #0E0E0E",
"_ 	c #3E4DAF",
": 	c #D1D1D3",
"< 	c #2E2E30",
"[ 	c #008FFF",
"} 	c #008CF9",
"| 	c #0152FF",
"1 	c #0146E1",
"2 	c #5D5E6A",
"3 	c #E0E1E9",
"4 	c #021E7C",
"5 	c #0151FF",
"6 	c #0250FC",
"7 	c #0352FF",
"8 	c #0A247D",
"9 	c #EAECFF",
"0 	c #F1F1F1",
"a 	c #A8A8A8",
"b 	c #081763",
"c 	c #3E3E3E",
"d 	c #E8E8EA",
"e 	c #E6E6E6",
"f 	c #B6B6B6",
"g 	c #707070",
"h 	c #2E304B",
"i 	c #E2E3E9",
"j 	c #29262E",
"k 	c #F5F6FC",
"l 	c #C1C1C2",
"m 	c #8B8B8B",
"n 	c #13141F",
"o 	c #FAFAFC",
"p 	c #282736",
"q 	c #282632",
"r 	c #161620",
"s 	c #27263B",
"t 	c #0252FF",
"u 	c #CECECE",
"v 	c #AEAEAE",
"w 	c #A5A5A6",
"x 	c #000001",
"y 	c #3B3F73",
"z 	c #031464",
"A 	c #05248D",
"B 	c #232021",
"C 	c #0552FF",
"D 	c #FEFEFF",
"E 	c #ADADAE",
"F 	c #FDFDFD",
"G 	c #2F3673",
"H 	c #0139C1",
"I 	c #013AC3",
"J 	c #0135B8",
"K 	c #100F0F",
"L 	c #020202",
"M 	c #525676",
"N 	c #FDFDFF",
"O 	c #1C1C1E",
"P 	c #0139C2",
"Q 	c #0137BC",
"R 	c #010101",
"S 	c #AEE6D6",
"T 	c #C2F5E7",
"U 	c #DAF5ED",
"V 	c #D7EAE5",
"W 	c #95AEA8",
"X 	c #B3D9CF",
"Y 	c #BFF5E6",
"Z 	c #DAF2EC",
"` 	c #EAF1F0",
" .	c #F9F9F9",
"..	c #040404",
"+.	c #86908D",
"@.	c #DDDDDD",
"#.	c #F5F5F5",
"$.	c #E7F5F1",
"%.	c #B1D6CC",
"&.	c #C4E1D8",
"*.	c #EBF5F2",
"=.	c #F2F5F4",
"-.	c #E8F5F2",
";.	c #CAF0E6",
">.	c #9DDFCC",
",.	c #C7F5E8",
"'.	c #C6F5E8",
").	c #CAF7EA",
"!.	c #060707",
"~.	c #F1F1F2",
"{.	c #85858D",
"].	c #222F82",
"^.	c #0138C1",
"/.	c #002998",
"(.	c #1F1D1D",
"_.	c #D1ECE4",
":.	c #73B6A3",
"<.	c #8ECBBA",
"[.	c #EDF5F3",
"}.	c #EBF4F1",
"|.	c #A3E5D2",
"1.	c #A4E6D3",
"2.	c #ACEBD9",
"3.	c #BCF5E5",
"4.	c #0138C0",
"5.	c #000002",
"6.	c #000101",
"7.	c #90D2C0",
"8.	c #96C7B9",
"9.	c #C4DED7",
"0.	c #DEEAE7",
"a.	c #A7CFC4",
"b.	c #69B59F",
"c.	c #99CEBF",
"d.	c #CFF5EA",
"e.	c #ECF5F3",
"f.	c #F0F5F4",
"g.	c #70C2AA",
"h.	c #66BAA2",
"i.	c #6CBEA7",
"j.	c #85C6B3",
"k.	c #9CDAC8",
"l.	c #013AC4",
"m.	c #023AC3",
"n.	c #0137BE",
"o.	c #0137BD",
"p.	c #75C1AB",
"q.	c #3E9E82",
"r.	c #79B9A7",
"s.	c #F1F3F3",
"t.	c #F0F3F2",
"u.	c #8BC9B7",
"v.	c #ADECDA",
"w.	c #BAF5E4",
"x.	c #C1F5E6",
"y.	c #C4F4E5",
"z.	c #B0EAD8",
"A.	c #4FAA90",
"B.	c #87D2BC",
"C.	c #DAF5EE",
"D.	c #CEDFDA",
"E.	c #010100",
"F.	c #020201",
"G.	c #040403",
"H.	c #5D7770",
"I.	c #9BBBB3",
"J.	c #D9E7E1",
"K.	c #E6DAC8",
"L.	c #DFCDAF",
"M.	c #7BB08F",
"N.	c #83BF9C",
"O.	c #A0D4B6",
"P.	c #98C6B0",
"Q.	c #DFC880",
"R.	c #BCB572",
"S.	c #809B5E",
"T.	c #94C5A3",
"U.	c #9FD3B6",
"V.	c #B9DBC0",
"W.	c #6B645C",
"X.	c #6A655E",
"Y.	c #2244C4",
"Z.	c #3B52C7",
"`.	c #3D53C7",
" +	c #3850C6",
".+	c #2B48C6",
"++	c #0E3DC4",
"@+	c #0D0D0E",
"#+	c #161616",
"$+	c #FEFEFE",
"%+	c #292629",
"&+	c #A89781",
"*+	c #E8B368",
"=+	c #E6A649",
"-+	c #DFB05B",
";+	c #D9A03E",
">+	c #E0AF56",
",+	c #A98D59",
"'+	c #F7AE46",
")+	c #F4B55C",
"!+	c #EE9E2E",
"~+	c #EEC480",
"{+	c #DAAB56",
"]+	c #E1A643",
"^+	c #6A655D",
"/+	c #6B645A",
"(+	c #030303",
"_+	c #EABD93",
":+	c #EDC090",
"<+	c #EFC290",
"[+	c #F1C38F",
"}+	c #ECBF8D",
"|+	c #F2C48F",
"1+	c #E8E8E8",
"2+	c #F6BA66",
"3+	c #F7AF4C",
"4+	c #F3B258",
"5+	c #EEA135",
"6+	c #F6B251",
"7+	c #E7AF5F",
"8+	c #FAC67E",
"9+	c #F0AE51",
"0+	c #F1A336",
"a+	c #040301",
"b+	c #070707",
"c+	c #F1C38E",
"d+	c #F2C38F",
"e+	c #EDC08B",
"f+	c #6A5439",
"g+	c #FCFCFC",
"h+	c #F7BC6A",
"i+	c #EEA235",
"j+	c #F8B95F",
"k+	c #F5B862",
"l+	c #F7AE47",
"m+	c #FDFDFC",
"n+	c #0B0A0A",
"o+	c #6A655C",
"p+	c #F5B861",
"q+	c #F4B45A",
"r+	c #F1A73E",
"s+	c #FBC170",
"t+	c #EAAE5A",
"u+	c #F7B85F",
"v+	c #030201",
"w+	c #E5B987",
"x+	c #EFC28D",
"y+	c #826646",
"z+	c #6E5437",
"A+	c #DCB381",
"B+	c #F6B862",
"C+	c #F3AC4B",
"D+	c #EEB25D",
"E+	c #F7B150",
"F+	c #FABE6B",
"G+	c #F0BD75",
"H+	c #F7BD6B",
"I+	c #F7C681",
"J+	c #A26D26",
"K+	c #F6B760",
"L+	c #ECA746",
"M+	c #F1A234",
"N+	c #2A2727",
"O+	c #050402",
"P+	c #2F2F31",
"Q+	c #040303",
"R+	c #F8BB64",
"S+	c #EBA441",
"T+	c #D28C2A",
"U+	c #E79C34",
"V+	c #F0A031",
"W+	c #6A6359",
"X+	c #F0C28E",
"Y+	c #E1B685",
"Z+	c #303032",
"`+	c #080808",
" @	c #E39B35",
".@	c #EC9F32",
"+@	c #EEC18C",
"@@	c #58452C",
"#@	c #030202",
"$@	c #EE9E2F",
"%@	c #F5B760",
"&@	c #D29238",
"*@	c #DB9535",
"=@	c #2B2727",
"-@	c #373533",
";@	c #E8BB88",
">@	c #D6AD7D",
",@	c #616262",
"'@	c #332D2D",
")@	c #36302D",
"!@	c #EAEAEC",
"~@	c #F8BA62",
"{@	c #F3C17A",
"]@	c #F7AF4B",
"^@	c #EEA238",
"/@	c #E49B35",
"(@	c #ED9F32",
"_@	c #0E0D0D",
":@	c #646566",
"<@	c #F7B04F",
"[@	c #F5BA65",
"}@	c #F6B14F",
"|@	c #EBA442",
"1@	c #F6B354",
"2@	c #E79A2D",
"3@	c #E79D34",
"4@	c #000B0B",
"5@	c #323335",
"6@	c #292829",
"7@	c #2D2A27",
"8@	c #343234",
"9@	c #F7BD6C",
"0@	c #F4B359",
"a@	c #F0A53B",
"b@	c #F3B35A",
"c@	c #F7AF4A",
"d@	c #E2901C",
"e@	c #EEAA4A",
"f@	c #F1A335",
"g@	c #040302",
"h@	c #008A8C",
"i@	c #00999B",
"j@	c #49B5B8",
"k@	c #38AEB1",
"l@	c #018B8E",
"m@	c #313133",
"n@	c #E9E9EB",
"o@	c #F4BD6E",
"p@	c #F0A63F",
"q@	c #EEA236",
"r@	c #F9BB65",
"s@	c #E38F1A",
"t@	c #F7BB67",
"u@	c #F1B053",
"v@	c #F1A439",
"w@	c #030301",
"x@	c #12110E",
"y@	c #302A27",
"z@	c #25A6A9",
"A@	c #1FA4A7",
"B@	c #008688",
"C@	c #413E39",
"D@	c #E0AC62",
"E@	c #EFA236",
"F@	c #F5AE4B",
"G@	c #F3A63B",
"H@	c #F7AC43",
"I@	c #EFA846",
"J@	c #F7AC42",
"K@	c #F4AB44",
"L@	c #C88A35",
"M@	c #E3A043",
"N@	c #F6AA3E",
"O@	c #F7AB40",
"P@	c #F9BF6C",
"Q@	c #EBA544",
"R@	c #F7AA3E",
"S@	c #F0A134",
"T@	c #EC9C2B",
"U@	c #F3A73D",
"V@	c #D89536",
"W@	c #D19645",
"X@	c #020101",
"Y@	c #009496",
"Z@	c #DB9E4A",
"`@	c #C78C3C",
" #	c #DB9E49",
".#	c #DEA24E",
"+#	c #DD9838",
"@#	c #DA9637",
"##	c #BC812F",
"$#	c #AD772B",
"%#	c #A16E28",
"&#	c #2E2927",
"*#	c #009093",
"=#	c #014F51",
"-#	c #333334",
";#	c #060606",
">#	c #EBBF8A",
",#	c #434343",
"'#	c #916C3E",
")#	c #0141D4",
"!#	c #170B02",
"~#	c #69696A",
"{#	c #E5E2E1",
"]#	c #E3E3E5",
"^#	c #E1E1E3",
"                          .     + + + @ @ @ @ @ # # @ # # # # @                           .     + + + @ @ @ @ @ # # @ # # # # @ ",
"                        .       + + @ @ @ @ @ # # @ # # # # @ #                         .       + + @ @ @ @ @ # # @ # # # # @ # ",
"                      .         + @ @ @ @ @ # # @ # # # # @ # #                       .         + @ @ @ @ @ # # @ # # # # @ # # ",
"                    .           @ @ @ @ @ # # @ # # # # @ # # #                     .           @ @ @ @ @ # # @ # # # # @ # # # ",
"                  .           . @ @ @ @ # # @ # # # # @ # # # #                   .           . @ @ @ @ # # @ # # # # @ # # # # ",
"$ $ $ $ $ % &   .           . . @ @ @ # # @ # # # # @ # # # # #                 .           . . @ @ @ # # @ # # # # @ # # # # # ",
"* = - ; ; > $ $ $ ,       . . . @ @ # # @ # # # # @ # # # # # #               .           . . . @ @ # # @ # # # # @ # # # # # # ",
"* = - ; ; ' ' ' $ ,     . . . . @ # # @ # # # # @ # # # # # # #             .           . . . . @ # # @ # # # # @ # # # # # # # ",
"- - - - - ) ) ! ! ~ $ . . . . . # # @ # # # # @ # # # # # # # #           .           . . . . . # # @ # # # # @ # # # # # # # # ",
"- - { - - - - - - { ] $ $ . . ^ # @ # # # # @ # # # # # # # # #         .           . . . . . ^ # @ # # # # @ # # # # # # # # # ",
"- - { - - - - - - { ] ' $ . ^ ^ @ # # # # @ # # # # # # # # # #       .           . . . . . ^ ^ @ # # # # @ # # # # # # # # # # ",
"- - - - - - - - - - / ' $ ( ^ . # # # # @ # # # # # # # # # # #     .           . . . . . ^ ^ . # # # # @ # # # # # # # # # # # ",
"- - - - - - - - - - _ : : $ < ^ # # # @ # # # # # # # # # # # #   .           . . . . . ^ ^ . ^ # # # @ # # # # # # # # # # # # ",
"- - [ } } | | | | 1 2 # # 3 4 ^ # # @ # # # # # # # # # # # # # .           . . . . . ^ ^ . ^ ^ # # @ # # # # # # # # # # # # # ",
"- - [ } } | | | | 1 2 # # 3 4 ^ # @ # # # # # # # # # # # # # @           . . . . . ^ ^ . ^ ^ ^ # @ # # # # # # # # # # # # # @ ",
"| | | 5 5 6 | 7 7 8 9 0 0 a b c d # # # # # # # # # # # # # @ #         . . . . . ^ ^ . ^ ^ ^ ^ @ # # # # # # # # # # # # # @ # ",
"| | | | | | | 5 5 $ e f f g h i j                         .     + + + @ @ @ @ @ # # @ # # # # @                           .     ",
"| | | | | | | $ $ k l # # m n o p q                     .       + + @ @ @ @ @ # # @ # # # # @ #                         .       ",
"| | | | | | | $ $ k l # # m r o p s &                 .         + @ @ @ @ @ # # @ # # # # @ # #                       .         ",
"5 | | | | | t $ $ u # v v w x y z A B               .           @ @ @ @ @ # # @ # # # # @ # # #                     .           ",
"| | | | | | C $ $ D E F F G H I I J K             . L $ $ $ $ $ L L L $ $ # @ # # # # @ # # # #                   .           . ",
"| | | | | | t M M v N $ $ O P I I Q $       $ $ $ R S T U V W X Y Z `  . ...# # # # @ # # # # #                 .           . . ",
"| | | | | | t M M v N $ $ O P I I Q $   % R +.@.#.#.$.%.&.*.=.-.;.>.,.'.T ).!.# # @ # # # # # #               .           . . . ",
"| | | | | | | $ $ ~.{.].].I ^.P P /.(.  % $ _.#.#.#.#.:.<.[.#.#.}.|.1.1.2.3...# @ # # # # # # #             .           . . . . ",
"| | | | | | | | | $ $ I I I ^.4.4.5.%     6.7.8.9.0.a.b.c.d.e.f.$.g.h.i.j.k.$ @ # # # # # # # #           .           . . . . . ",
"| | | | | | | l.l.l.m.I I n.o.$ $ ,     . L p.q.r.s.t.u.v.w.x.y.z.A.B.w.C.D.E.E.F.G.# # # # # #         .           . . . . . ^ ",
"| | | | | | | l.l.l.m.I I n.o.$ $ &   .   $ H.I.J.K.L.M.N.O.P.Q.R.S.T.U.V.F.W.X.X.X...# # # # #       .           . . . . . ^ ^ ",
"l.Y.Z.`. +.+++++++@+$ $ $ $ #+$+%+  .       $ $ &+*+=+-+;+>+,+'+)+!+~+{+]+E.^+X.X.^+/+(+# # # #     .           . . . . . ^ ^ . ",
"_+:+<+<+<+$ $ [+[+}+|+$ $ 1+$+#   .           . R 2+3+4+5+6+7+'+)+!+8+9+0+E.a+R R X.X.b+# # # #   .           . . . . . ^ ^ . ^ ",
"|+c+d+d+d+$ $ |+|+|+e+f+$ g+F # .           . . $ h+3+4+i+j+k+l+)+!+8+9+0+F.R m+$+n+X.o+R # # # .           . . . . . ^ ^ . ^ ^ ",
"|+c+d+d+d+$ $ |+|+|+e+f+$ g+F @           . . . $ p+3+q+r+s+k+l+)+t+u+9+0+v+# # # L X.X.L # # @           . . . . . ^ ^ . ^ ^ ^ ",
"w+x+|+|+|+y+z+|+|+|+A+$ $ $+@ #         . . . . $ B+C+D+E+F+k+l+)+G+H+9+0+F.# # $+L X.^+$ # @ #         . . . . . ^ ^ . ^ ^ ^ ^ ",
"|+|+|+|+|+|+|+|+|+d+$ % % .     + + + @ @ @ @ @ R H+p+I+E+6+k+l+)+J+K+L+M+$     N+O+X.R   .     + + + @ @ @ @ @ # # @ # # # # @ ",
"|+|+|+|+|+|+|+|+|+d+$ % P+      + + @ @ @ @ @ # Q+H+R+I+E+6+S+'+)+T+K+U+V+E.    $ W+^+L .       + + @ @ @ @ @ # # @ # # # # @ # ",
"|+|+|+|+|+|+|+X+X+Y+..Z+%       + @ @ @ @ @ # # `+H+R+I+E+6+S+'+)+!+K+ @.@E.  $ ^+^+v+.         + @ @ @ @ @ # # @ # # # # @ # # ",
"|+|+|+|+|++@|+@@@@#@.           @ @ @ @ @ # # @ Q+H+R+I+E+6+S+'+)+$@%@&@*@E.=@v+X.v+-@          @ @ @ @ @ # # @ # # # # @ # # # ",
"d+x+;@>@>@|+$ ,@,@.   '@'@)@  . !@@ @ @ # # @ # F.H+~@{@E+6+S+]@)+^@k+/@(@E._@X.^+$           . @ @ @ @ # # @ # # # # @ # # # # ",
"d+x+;@>@>@$ $ ,@:@    '@'@)@. . !@@ @ # # @ # # R H+<@[@}@6+|@1@)+2@k+3@V+F.X.^+G.=@        . . @ @ @ # # @ # # # # @ # # # # # ",
"4@6.$ $ $ $ $ 5@6@    7@7@. 8@. !@@ # # @ # # # R 9@3+0@a@6+b@c@)+d@%@e@f@F.X.g@          . . . @ @ # # @ # # # # @ # # # # # # ",
"h@i@j@k@k@l@$ 7@7@      . . . m@n@# # @ # # # # R o@p@4+q@r@k+l+)+s@t@u@v@w@x@y@        . . . . @ # # @ # # # # @ # # # # # # # ",
"$ z@j@A@A@B@$         . . . C@. $+# @ # # # # @ b+D@E@F@G@s+k+H@I@s@J@K@L@E.          . . . . . # # @ # # # # @ # # # # # # # # ",
"A@$ j@A@A@B@$       . . . . C@^ $+@ # # # # @ # $+$ M@N@O@P@Q@R@S@T@U@V@W@X@        . . . . . ^ # @ # # # # @ # # # # # # # # # ",
"A@|+$ i@i@Y@$     . m@m@. . ^ ^ @ # # # # @ # # # # R Z@`@ #.#+#@###$#%#$ &#      . . . . . ^ ^ @ # # # # @ # # # # # # # # # # ",
"|+|+|+$ *#=#(+  . -#. . . ^ ^ . # # # # @ # # # # # # ;#R R L L $ $ $ $         . . . . . ^ ^ . # # # # @ # # # # # # # # # # # ",
">#|+|+$ ^.^.x P+$ $ $ $ ,#^ . ^ # # # @ # # # # # # # # # # # #   .           . . . . . ^ ^ . ^ # # # @ # # # # # # # # # # # # ",
">#|+$ ^.^.^.x $ '#'#'#'#$ . ^ ^ # # @ # # # # # # # # # # # # # .           . . . . . ^ ^ . ^ ^ # # @ # # # # # # # # # # # # # ",
"$ $ )#)#)#)#x '#'#'#'#'#$ ^ ^ ^ # @ # # # # # # # # # # # # # @           . . . . . ^ ^ . ^ ^ ^ # @ # # # # # # # # # # # # # @ ",
"$ $ $ $ $ !#'#'#'#'#'#$ ^ ^ ^ ^ @ # # # # # # # # # # # # # @ #         . . . . . ^ ^ . ^ ^ ^ ^ @ # # # # # # # # # # # # # @ # ",
"+ + $ ~#'#'#'#'#'#'#$ # # # # @                           .     + + + @ @ @ @ @ # # @ # # # # @                           .     ",
"+ + {#$ '#'#'#'#$ $ $+# # # @ #                         .       + + @ @ @ @ @ # # @ # # # # @ #                         .       ",
"+ @ n@]#$ $ $ $ ^## # # # @ # #                       .         + @ @ @ @ @ # # @ # # # # @ # #                       .         ",
"@ @ @ @ @ # # @ # # # # @ # # #                     .           @ @ @ @ @ # # @ # # # # @ # # #                     .           ",
"@ @ @ @ # # @ # # # # @ # # # #                   .           . @ @ @ @ # # @ # # # # @ # # # #                   .           . ",
"@ @ @ # # @ # # # # @ # # # # #                 .           . . @ @ @ # # @ # # # # @ # # # # #                 .           . . ",
"@ @ # # @ # # # # @ # # # # # #               .           . . . @ @ # # @ # # # # @ # # # # # #               .           . . . ",
"@ # # @ # # # # @ # # # # # # #             .           . . . . @ # # @ # # # # @ # # # # # # #             .           . . . . ",
"# # @ # # # # @ # # # # # # # #           .           . . . . . # # @ # # # # @ # # # # # # # #           .           . . . . . ",
"# @ # # # # @ # # # # # # # # #         .           . . . . . ^ # @ # # # # @ # # # # # # # # #         .           . . . . . ^ ",
"@ # # # # @ # # # # # # # # # #       .           . . . . . ^ ^ @ # # # # @ # # # # # # # # # #       .           . . . . . ^ ^ ",
"# # # # @ # # # # # # # # # # #     .           . . . . . ^ ^ . # # # # @ # # # # # # # # # # #     .           . . . . . ^ ^ . ",
"# # # @ # # # # # # # # # # # #   .           . . . . . ^ ^ . ^ # # # @ # # # # # # # # # # # #   .           . . . . . ^ ^ . ^ ",
"# # @ # # # # # # # # # # # # # .           . . . . . ^ ^ . ^ ^ # # @ # # # # # # # # # # # # # .           . . . . . ^ ^ . ^ ^ ",
"# @ # # # # # # # # # # # # # @           . . . . . ^ ^ . ^ ^ ^ # @ # # # # # # # # # # # # # @           . . . . . ^ ^ . ^ ^ ^ ",
"@ # # # # # # # # # # # # # @ #         . . . . . ^ ^ . ^ ^ ^ ^ @ # # # # # # # # # # # # # @ #         . . . . . ^ ^ . ^ ^ ^ ^ "};
