/* XPM */
static char * c_rl_xpm[] = {
"64 64 386 2",
"  	c #292627",
". 	c #323234",
"+ 	c #D0D0D2",
"@ 	c #EBEBED",
"# 	c #FFFFFF",
"$ 	c #FCFCFC",
"% 	c #E1E1E3",
"& 	c #000000",
"* 	c #FEFEFE",
"= 	c #F1F1F1",
"- 	c #002554",
"; 	c #007EE1",
"> 	c #0090FF",
", 	c #008BF8",
"' 	c #0089F3",
") 	c #0086EF",
"! 	c #00000B",
"~ 	c #0085ED",
"{ 	c #008EFC",
"] 	c #444444",
"^ 	c #0076D5",
"/ 	c #008AF6",
"( 	c #4F4F4F",
"_ 	c #3596FF",
": 	c #F0F0F0",
"< 	c #D1D1D3",
"[ 	c #3E4DAF",
"} 	c #16277E",
"| 	c #E0E1E9",
"1 	c #5D5E6A",
"2 	c #0146E1",
"3 	c #0152FF",
"4 	c #008CF9",
"5 	c #008FFF",
"6 	c #13257D",
"7 	c #434343",
"8 	c #DADADC",
"9 	c #3B3F71",
"0 	c #A8A8A8",
"a 	c #EAECFF",
"b 	c #0A247D",
"c 	c #0352FF",
"d 	c #0250FC",
"e 	c #0151FF",
"f 	c #E9E9EC",
"g 	c #272845",
"h 	c #02083B",
"i 	c #707070",
"j 	c #B6B6B6",
"k 	c #E6E6E6",
"l 	c #E7E7EB",
"m 	c #FAFAFC",
"n 	c #282736",
"o 	c #010214",
"p 	c #8B8B8B",
"q 	c #C1C1C2",
"r 	c #F5F6FC",
"s 	c #E8E8EA",
"t 	c #F6F7F9",
"u 	c #E1E1E1",
"v 	c #404A98",
"w 	c #3B3F73",
"x 	c #031464",
"y 	c #000001",
"z 	c #A5A5A6",
"A 	c #AEAEAE",
"B 	c #CECECE",
"C 	c #0252FF",
"D 	c #020202",
"E 	c #878787",
"F 	c #0135B8",
"G 	c #013AC3",
"H 	c #0139C1",
"I 	c #2F3673",
"J 	c #FDFDFD",
"K 	c #ADADAE",
"L 	c #FEFEFF",
"M 	c #0552FF",
"N 	c #010101",
"O 	c #AEE6D6",
"P 	c #C2F5E7",
"Q 	c #DAF5ED",
"R 	c #D7EAE5",
"S 	c #95AEA8",
"T 	c #B3D9CF",
"U 	c #BFF5E6",
"V 	c #DAF2EC",
"W 	c #EAF1F0",
"X 	c #F9F9F9",
"Y 	c #040404",
"Z 	c #0137BC",
"` 	c #0139C2",
" .	c #010104",
"..	c #FDFDFF",
"+.	c #525676",
"@.	c #272425",
"#.	c #86908D",
"$.	c #DDDDDD",
"%.	c #F5F5F5",
"&.	c #E7F5F1",
"*.	c #B1D6CC",
"=.	c #C4E1D8",
"-.	c #EBF5F2",
";.	c #F2F5F4",
">.	c #E8F5F2",
",.	c #CAF0E6",
"'.	c #9DDFCC",
").	c #C7F5E8",
"!.	c #C6F5E8",
"~.	c #CAF7EA",
"{.	c #060707",
"].	c #D1ECE4",
"^.	c #73B6A3",
"/.	c #8ECBBA",
"(.	c #EDF5F3",
"_.	c #EBF4F1",
":.	c #A3E5D2",
"<.	c #A4E6D3",
"[.	c #ACEBD9",
"}.	c #BCF5E5",
"|.	c #002998",
"1.	c #0138C1",
"2.	c #021E7E",
"3.	c #85858D",
"4.	c #F1F1F2",
"5.	c #000101",
"6.	c #90D2C0",
"7.	c #96C7B9",
"8.	c #C4DED7",
"9.	c #DEEAE7",
"0.	c #A7CFC4",
"a.	c #69B59F",
"b.	c #99CEBF",
"c.	c #CFF5EA",
"d.	c #ECF5F3",
"e.	c #F0F5F4",
"f.	c #70C2AA",
"g.	c #66BAA2",
"h.	c #6CBEA7",
"i.	c #85C6B3",
"j.	c #9CDAC8",
"k.	c #F7F7F7",
"l.	c #000002",
"m.	c #0138C0",
"n.	c #75C1AB",
"o.	c #3E9E82",
"p.	c #79B9A7",
"q.	c #F1F3F3",
"r.	c #F0F3F2",
"s.	c #8BC9B7",
"t.	c #ADECDA",
"u.	c #BAF5E4",
"v.	c #C1F5E6",
"w.	c #C4F4E5",
"x.	c #B0EAD8",
"y.	c #4FAA90",
"z.	c #87D2BC",
"A.	c #DAF5EE",
"B.	c #CEDFDA",
"C.	c #010100",
"D.	c #020201",
"E.	c #040403",
"F.	c #EFEFEF",
"G.	c #0137BD",
"H.	c #0137BE",
"I.	c #023AC3",
"J.	c #013AC4",
"K.	c #5D7770",
"L.	c #9BBBB3",
"M.	c #D9E7E1",
"N.	c #E6DAC8",
"O.	c #DFCDAF",
"P.	c #7BB08F",
"Q.	c #83BF9C",
"R.	c #A0D4B6",
"S.	c #98C6B0",
"T.	c #DFC880",
"U.	c #BCB572",
"V.	c #809B5E",
"W.	c #94C5A3",
"X.	c #9FD3B6",
"Y.	c #B9DBC0",
"Z.	c #6B645C",
"`.	c #6A655E",
" +	c #A89781",
".+	c #E8B368",
"++	c #E6A649",
"@+	c #DFB05B",
"#+	c #D9A03E",
"$+	c #E0AF56",
"%+	c #A98D59",
"&+	c #F7AE46",
"*+	c #F4B55C",
"=+	c #EE9E2E",
"-+	c #EEC480",
";+	c #DAAB56",
">+	c #E1A643",
",+	c #6A655D",
"'+	c #6B645A",
")+	c #030303",
"!+	c #292629",
"~+	c #033AC2",
"{+	c #063AC0",
"]+	c #093AC1",
"^+	c #043AC2",
"/+	c #F6BA66",
"(+	c #F7AF4C",
"_+	c #F3B258",
":+	c #EEA135",
"<+	c #F6B251",
"[+	c #E7AF5F",
"}+	c #FAC67E",
"|+	c #F0AE51",
"1+	c #F1A336",
"2+	c #040301",
"3+	c #070707",
"4+	c #373436",
"5+	c #242222",
"6+	c #F2C48F",
"7+	c #ECBF8D",
"8+	c #F1C38F",
"9+	c #EFC290",
"0+	c #EDC090",
"a+	c #EABD93",
"b+	c #F7BC6A",
"c+	c #EEA235",
"d+	c #F8B95F",
"e+	c #F5B862",
"f+	c #F7AE47",
"g+	c #FDFDFC",
"h+	c #0B0A0A",
"i+	c #6A655C",
"j+	c #282526",
"k+	c #695236",
"l+	c #EDC08B",
"m+	c #F2C38F",
"n+	c #F1C38E",
"o+	c #F5B861",
"p+	c #F4B45A",
"q+	c #F1A73E",
"r+	c #FBC170",
"s+	c #EAAE5A",
"t+	c #F7B85F",
"u+	c #030201",
"v+	c #F6B862",
"w+	c #F3AC4B",
"x+	c #EEB25D",
"y+	c #F7B150",
"z+	c #FABE6B",
"A+	c #F0BD75",
"B+	c #F7BD6B",
"C+	c #DCB381",
"D+	c #6E5437",
"E+	c #826646",
"F+	c #EFC28D",
"G+	c #E5B987",
"H+	c #F7C681",
"I+	c #A26D26",
"J+	c #F6B760",
"K+	c #ECA746",
"L+	c #F1A234",
"M+	c #2A2727",
"N+	c #050402",
"O+	c #E0E0E2",
"P+	c #F2C390",
"Q+	c #040303",
"R+	c #F8BB64",
"S+	c #EBA441",
"T+	c #D28C2A",
"U+	c #E79C34",
"V+	c #F0A031",
"W+	c #6A6359",
"X+	c #080808",
"Y+	c #E39B35",
"Z+	c #EC9F32",
"`+	c #E4E4E5",
" @	c #3C3C3D",
".@	c #E1B685",
"+@	c #F0C28E",
"@@	c #F2C490",
"#@	c #EE9E2F",
"$@	c #F5B760",
"%@	c #D29238",
"&@	c #DB9535",
"*@	c #2B2727",
"=@	c #373533",
"-@	c #EAEAEC",
";@	c #353535",
">@	c #58452C",
",@	c #EEC18C",
"'@	c #F8BA62",
")@	c #F3C17A",
"!@	c #F7AF4B",
"~@	c #EEA238",
"{@	c #E49B35",
"]@	c #ED9F32",
"^@	c #0E0D0D",
"/@	c #EBEBEC",
"(@	c #FFFEFE",
"_@	c #EFF0F0",
":@	c #D6AD7D",
"<@	c #E8BB88",
"[@	c #F7B04F",
"}@	c #F5BA65",
"|@	c #F6B14F",
"1@	c #EBA442",
"2@	c #F6B354",
"3@	c #E79A2D",
"4@	c #E79D34",
"5@	c #F7BD6C",
"6@	c #F4B359",
"7@	c #F0A53B",
"8@	c #F3B35A",
"9@	c #F7AF4A",
"0@	c #E2901C",
"a@	c #EEAA4A",
"b@	c #F1A335",
"c@	c #040302",
"d@	c #EBEAEC",
"e@	c #000B0B",
"f@	c #F4BD6E",
"g@	c #F0A63F",
"h@	c #EEA236",
"i@	c #F9BB65",
"j@	c #E38F1A",
"k@	c #F7BB67",
"l@	c #F1B053",
"m@	c #F1A439",
"n@	c #030301",
"o@	c #12110E",
"p@	c #302A27",
"q@	c #313133",
"r@	c #E9E9EB",
"s@	c #1C8E91",
"t@	c #38AEB1",
"u@	c #49B5B8",
"v@	c #00999B",
"w@	c #008A8C",
"x@	c #E0AC62",
"y@	c #EFA236",
"z@	c #F5AE4B",
"A@	c #F3A63B",
"B@	c #F7AC43",
"C@	c #EFA846",
"D@	c #F7AC42",
"E@	c #F4AB44",
"F@	c #C88A35",
"G@	c #FEFEFD",
"H@	c #008688",
"I@	c #1FA4A7",
"J@	c #25A6A9",
"K@	c #E3A043",
"L@	c #F6AA3E",
"M@	c #F7AB40",
"N@	c #F9BF6C",
"O@	c #EBA544",
"P@	c #F7AA3E",
"Q@	c #F0A134",
"R@	c #EC9C2B",
"S@	c #F3A73D",
"T@	c #D89536",
"U@	c #D19645",
"V@	c #020101",
"W@	c #EBEAEB",
"X@	c #DB9E4A",
"Y@	c #C78C3C",
"Z@	c #DB9E49",
"`@	c #DEA24E",
" #	c #DD9838",
".#	c #DA9637",
"+#	c #BC812F",
"@#	c #AD772B",
"##	c #A16E28",
"$#	c #2E2927",
"%#	c #0D9597",
"&#	c #060606",
"*#	c #3D3D3D",
"=#	c #165254",
"-#	c #009093",
";#	c #F3F3F3",
">#	c #EBBF8A",
",#	c #916C3E",
"'#	c #0141D4",
")#	c #170B02",
"!#	c #0C0B0B",
"~#	c #503F2F",
"                          .     + + + @ @ @ @ @ # # @ # # # # @                           .     + + + @ @ @ @ @ # # @ # # # # @ ",
"                        .       + + @ @ @ @ @ # # @ # # # # @ #                         .       + + @ @ @ @ @ # # @ # # # # @ # ",
"                      .         + @ @ @ @ @ # # @ # # # # @ # #                       .         + @ @ @ @ @ # # @ # # # # @ # # ",
"                    .           @ @ @ @ @ # # @ # # # # @ # # #                     .           @ @ @ @ @ # # @ # # # # @ # # # ",
"                  .           . @ @ @ @ # # @ # # # # @ # # # #                   .           . @ @ @ @ # # @ # # # # @ # # # # ",
"                .           . . @ @ @ # # @ # # # # @ # # # # #                 .           . . @ @ @ # # @ # # # $ % & & & & & ",
"              .           . . . @ @ # # @ # # # # @ # # # # # #               .           . . . @ @ # # @ * = & & & - ; ; > , ' ",
"            .           . . . . @ # # @ # # # # @ # # # # # # #             .           . . . . @ # # @ # * = & ) ) ) ; ; > , ' ",
"          .           . . . . . # # @ # # # # @ # # # # # # # #           .           . . . . . # # @ # # & ! ~ ~ { { > > > > > ",
"        .           . . . . . ] # @ # # # # @ # # # # # # # # #         .           . . . . . ] # @ * & & ^ / > > > > > > / > > ",
"      .           . . . . . ] ] @ # # # # @ # # # # # # # # # #       .           . . . . . ] ] @ # * & ) ^ / > > > > > > / > > ",
"    .           . . . . . ] ] . # # # # @ # # # # # # # # # # #     .           . . . . . ] ] . # # ( & ) _ > > > > > > > > > > ",
"  .           . . . . . ] ] . ] # # # @ # # # # # # # # # # # #   .           . . . . . ] ] . ] # : & < < [ > > > > > > > > > > ",
".           . . . . . ] ] . ] ] # # @ # # # # # # # # # # # # # .           . . . . . ] ] . ] ] # } | # # 1 2 3 3 3 3 4 4 5 > > ",
"          . . . . . ] ] . ] ] ] # @ # # # # # # # # # # # # # @           . . . . . ] ] . ] ] ] # 6 | # # 1 2 3 3 3 3 4 4 5 > > ",
"        . . . . . ] ] . ] ] ] ] @ # # # # # # # # # # # # # @ #         . . . . . ] ] . ] ] ] 7 8 9 0 = = a b c c 3 d e e 3 3 3 ",
"+ + + @ @ @ @ @ # # @ # # # # @                           .     + + + @ @ @ @ @ # # @ # # # # f g h i j j k & e e 3 3 3 3 3 3 3 ",
"+ + @ @ @ @ @ # # @ # # # # @ #                         .       + + @ @ @ @ @ # # @ # # # * l m n o p # # q r & & 3 3 3 3 3 3 3 ",
"+ @ @ @ @ @ # # @ # # # # @ # #                       .         + @ @ @ @ @ # # @ # # # # s t m n o p # # q r & & 3 3 3 3 3 3 3 ",
"@ @ @ @ @ # # @ # # # # @ # # #                     .           @ @ @ @ @ # # @ # # # # @ u v w x y z A A # B & & C 3 3 3 3 3 e ",
"@ @ @ @ # # @ # # # # @ # # # #                   . D & & & & & D D D & & # @ # # # # @ # E F G G H I J J K L & & M 3 3 3 3 3 3 ",
"@ @ @ # # @ # # # # @ # # # # #             & & & N O P Q R S T U V W X X Y # # # # @ # # & Z G G `  .& & ..A +.+.C 3 3 3 3 3 3 ",
"@ @ # # @ # # # # @ # # # # # #         @.N #.$.%.%.&.*.=.-.;.>.,.'.).!.P ~.{.# # @ # # # & Z G G `  .& & ..A +.+.C 3 3 3 3 3 3 ",
"@ # # @ # # # # @ # # # # # # #         @.& ].%.%.%.%.^./.(.%.%._.:.<.<.[.}.Y # @ # # # # B |.` ` 1.G 2.2.3.4.& & 3 3 3 3 3 3 3 ",
"# # @ # # # # @ # # # # # # # #           5.6.7.8.9.0.a.b.c.d.e.&.f.g.h.i.j.& @ # # # # # k.l.m.m.1.G G G & & 3 3 3 3 3 3 3 3 3 ",
"# @ # # # # @ # # # # # # # # #         . D n.o.p.q.r.s.t.u.v.w.x.y.z.u.A.B.C.C.D.E.# # # # F.& & G.H.G G I.J.J.J.3 3 3 3 3 3 3 ",
"@ # # # # @ # # # # # # # # # #       .   & K.L.M.N.O.P.Q.R.S.T.U.V.W.X.Y.D.Z.`.`.`.Y # # # X & & G.H.G G I.J.J.J.3 3 3 3 3 3 3 ",
"# # # # @ # # # # # # # # # # #     .       & &  +.+++@+#+$+%+&+*+=+-+;+>+C.,+`.`.,+'+)+# # # * !+N & & & & y J.J.J.~+{+{+]+^+J.",
"# # # @ # # # # # # # # # # # #   .           . N /+(+_+:+<+[+&+*+=+}+|+1+C.2+N N `.`.3+# # # #   4+5+& & 6+7+8+8+& & 9+9+9+0+a+",
"# # @ # # # # # # # # # # # # # .           . . & b+(+_+c+d+e+f+*+=+}+|+1+D.N g+* h+`.i+N # # # .   j+& k+l+6+6+6+& & m+m+m+n+6+",
"# @ # # # # # # # # # # # # # @           . . . & o+(+p+q+r+e+f+*+s+t+|+1+u+# # # D `.`.D # # @     j+& k+l+6+6+6+& & m+m+m+n+6+",
"@ # # # # # # # # # # # # # @ #         . . . . & v+w+x+y+z+e+f+*+A+B+|+1+D.# # * D `.,+& # @ #       & & C+6+6+6+D+E+6+6+6+F+G+",
"                          .     + + + @ @ @ @ @ N B+o+H+y+<+e+f+*+I+J+K+L+&     M+N+`.N   .     + + + O+O+& P+6+6+6+6+6+6+6+6+6+",
"                        .       + + @ @ @ @ @ # Q+B+R+H+y+<+S+&+*+T+J+U+V+C.    & W+,+D .       + + @ O+O+& P+6+6+6+6+6+6+6+6+6+",
"                      .         + @ @ @ @ @ # # X+B+R+H+y+<+S+&+*+=+J+Y+Z+C.  & ,+,+u+.         + @ @ `+`+ @.@+@+@@@6+6+6+6+6+6+",
"                    .           @ @ @ @ @ # # @ Q+B+R+H+y+<+S+&+*+#@$@%@&@C.*@u+`.u+=@          @ -@-@-@-@# ;@>@>@6+,@6+6+6+6+6+",
"                  .           . @ @ @ @ # # @ # D.B+'@)@y+<+S+!@*+~@e+{@]@C.^@`.,+&           . -@@ /@@ (@# @ _@_@& 6+:@:@<@F+m+",
"                .           . . @ @ @ # # @ # # N B+[@}@|@<+1@2@*+3@e+4@V+D.`.,+E.*@        . . -@@ /@(@(@@ # _@_@& & :@:@<@F+m+",
"              .           . . . @ @ # # @ # # # N 5@(+6@7@<+8@9@*+0@$@a@b@D.`.c@          . . . -@d@# # @ # * J J & & & & & 5.e@",
"            .           . . . . @ # # @ # # # # N f@g@_+h@i@e+f+*+j@k@l@m@n@o@p@        . . . q@r@# # @ # # # # @ & s@t@t@u@v@w@",
"          .           . . . . . # # @ # # # # @ 3+x@y@z@A@r+e+B@C@j@D@E@F@C.          . . . . . * G@@ # # # # @ # & H@I@I@u@J@& ",
"        .           . . . . . ] # @ # # # # @ # * & K@L@M@N@O@P@Q@R@S@T@U@V@        . . . . . ] * W@# # # # @ # # & H@I@I@u@& I@",
"      .           . . . . . ] ] @ # # # # @ # # # # N X@Y@Z@`@ #.#+#@###& $#      . . . . . ] ] @ # # # J r@# # # & %#v@v@& 6+I@",
"    .           . . . . . ] ] . # # # # @ # # # # # # &#N N D D & & & &         . . . . . ] ] . # # # # @ # # * # *#=#-#& 6+6+6+",
"  .           . . . . . ] ] . ] # # # @ # # # # # # # # # # # #   .           . . . . . ] ] . ] # # # r@& & & & ;#y 1.1.& 6+6+>#",
".           . . . . . ] ] . ] ] # # @ # # # # # # # # # # # # # .           . . . . . ] ] . ] ] # # @ & ,#,#,#,#& y 1.1.1.& 6+>#",
"          . . . . . ] ] . ] ] ] # @ # # # # # # # # # # # # # @           . . . . . ] ] . ] ] ] # @ # & ,#,#,#,#,#y '#'#'#'#& & ",
"        . . . . . ] ] . ] ] ] ] @ # # # # # # # # # # # # # @ #         . . . . . ] ] . ] ] ] ] @ # # # & ,#,#,#,#,#)#& & & & & ",
"+ + + @ @ @ @ @ # # @ # # # # @                           .     + + + @ @ @ @ @ # # @ # # # # @           & ,#,#,#,#,#,#!#&     ",
"+ + @ @ @ @ @ # # @ # # # # @ #                         .       + + @ @ @ @ @ # # @ # # # # @ #             & & ,#,#,#,#& ~#    ",
"+ @ @ @ @ @ # # @ # # # # @ # #                       .         + @ @ @ @ @ # # @ # # # # @ # #               @.& & & & @.      ",
"@ @ @ @ @ # # @ # # # # @ # # #                     .           @ @ @ @ @ # # @ # # # # @ # # #                     .           ",
"@ @ @ @ # # @ # # # # @ # # # #                   .           . @ @ @ @ # # @ # # # # @ # # # #                   .           . ",
"@ @ @ # # @ # # # # @ # # # # #                 .           . . @ @ @ # # @ # # # # @ # # # # #                 .           . . ",
"@ @ # # @ # # # # @ # # # # # #               .           . . . @ @ # # @ # # # # @ # # # # # #               .           . . . ",
"@ # # @ # # # # @ # # # # # # #             .           . . . . @ # # @ # # # # @ # # # # # # #             .           . . . . ",
"# # @ # # # # @ # # # # # # # #           .           . . . . . # # @ # # # # @ # # # # # # # #           .           . . . . . ",
"# @ # # # # @ # # # # # # # # #         .           . . . . . ] # @ # # # # @ # # # # # # # # #         .           . . . . . ] ",
"@ # # # # @ # # # # # # # # # #       .           . . . . . ] ] @ # # # # @ # # # # # # # # # #       .           . . . . . ] ] ",
"# # # # @ # # # # # # # # # # #     .           . . . . . ] ] . # # # # @ # # # # # # # # # # #     .           . . . . . ] ] . ",
"# # # @ # # # # # # # # # # # #   .           . . . . . ] ] . ] # # # @ # # # # # # # # # # # #   .           . . . . . ] ] . ] ",
"# # @ # # # # # # # # # # # # # .           . . . . . ] ] . ] ] # # @ # # # # # # # # # # # # # .           . . . . . ] ] . ] ] ",
"# @ # # # # # # # # # # # # # @           . . . . . ] ] . ] ] ] # @ # # # # # # # # # # # # # @           . . . . . ] ] . ] ] ] ",
"@ # # # # # # # # # # # # # @ #         . . . . . ] ] . ] ] ] ] @ # # # # # # # # # # # # # @ #         . . . . . ] ] . ] ] ] ] "};
