/* XPM */
static char * c_ud_xpm[] = {
"64 64 681 2",
"  	c #292627",
". 	c #323234",
"+ 	c #D0D0D2",
"@ 	c #E9E9EB",
"# 	c #D3D3D5",
"$ 	c #7F736A",
"% 	c #C29666",
"& 	c #EBB67B",
"* 	c #EEB87D",
"= 	c #EFB97D",
"- 	c #F0B97E",
"; 	c #E6B278",
"> 	c #B48A59",
", 	c #937046",
"' 	c #050200",
") 	c #3E2D1B",
"! 	c #70553D",
"~ 	c #5E473F",
"{ 	c #4A3844",
"] 	c #35294D",
"^ 	c #1A1757",
"/ 	c #000C60",
"( 	c #000C6C",
"_ 	c #00007B",
": 	c #44377F",
"< 	c #97744D",
"[ 	c #896844",
"} 	c #775A3F",
"| 	c #60493D",
"1 	c #40313A",
"2 	c #261B12",
"3 	c #000000",
"4 	c #674E33",
"5 	c #E0AD75",
"6 	c #65605C",
"7 	c #E7E7E9",
"8 	c #EBEBED",
"9 	c #FFFFFF",
"0 	c #C2C2C4",
"a 	c #796048",
"b 	c #CE9F6B",
"c 	c #EDB87D",
"d 	c #EFB87D",
"e 	c #F2BB7F",
"f 	c #CE9F6C",
"g 	c #000005",
"h 	c #886846",
"i 	c #ECB77C",
"j 	c #E9B47A",
"k 	c #E4B078",
"l 	c #DFAD75",
"m 	c #BB9060",
"n 	c #694F2D",
"o 	c #B58B5A",
"p 	c #BE9260",
"q 	c #EFB97E",
"r 	c #EDB77D",
"s 	c #DDAB74",
"t 	c #AB8458",
"u 	c #93714B",
"v 	c #040201",
"w 	c #402F1D",
"x 	c #92704A",
"y 	c #A4896F",
"z 	c #BABABB",
"A 	c #EAEAEC",
"B 	c #BABABC",
"C 	c #755C42",
"D 	c #C99B68",
"E 	c #ECB67C",
"F 	c #C19566",
"G 	c #000012",
"H 	c #997652",
"I 	c #F0BA7E",
"J 	c #C69968",
"K 	c #000010",
"L 	c #96734F",
"M 	c #F1BB7F",
"N 	c #B1885B",
"O 	c #98754E",
"P 	c #0F0D0E",
"Q 	c #ABABAD",
"R 	c #C9C9CB",
"S 	c #E1E1E3",
"T 	c #B0B0B0",
"U 	c #282B24",
"V 	c #443A2B",
"W 	c #B2895C",
"X 	c #E8B37A",
"Y 	c #D0A16E",
"Z 	c #8F6F4D",
"` 	c #BE9364",
" .	c #BA9063",
"..	c #000014",
"+.	c #A37E57",
"@.	c #D9A871",
"#.	c #8D6C48",
"$.	c #372A1F",
"%.	c #252223",
"&.	c #E5E5E7",
"*.	c #CCCCCE",
"=.	c #C7C7C9",
"-.	c #B1AEAB",
";.	c #675D55",
">.	c #386867",
",.	c #186364",
"'.	c #4D483A",
").	c #775A3B",
"!.	c #B38A5C",
"~.	c #E4B077",
"{.	c #E2AF77",
"].	c #CB9D6B",
"^.	c #DAA973",
"/.	c #E5B178",
"(.	c #E3AF77",
"_.	c #CA9C69",
":.	c #795D3D",
"<.	c #181617",
"[.	c #313133",
"}.	c #E1E1E2",
"|.	c #B4B4B6",
"1.	c #94806E",
"2.	c #816341",
"3.	c #A57F56",
"4.	c #6D573C",
"5.	c #1D4F4E",
"6.	c #005556",
"7.	c #004C4F",
"8.	c #584E3D",
"9.	c #947048",
"0.	c #AD8458",
"a.	c #D1A16D",
"b.	c #E7B379",
"c.	c #EEB97D",
"d.	c #EDB77C",
"e.	c #CD9E6A",
"f.	c #A67F54",
"g.	c #96734C",
"h.	c #6E5336",
"i.	c #23180D",
"j.	c #272524",
"k.	c #A8A8A9",
"l.	c #A28366",
"m.	c #D6A670",
"n.	c #E4B178",
"o.	c #EAB57B",
"p.	c #655138",
"q.	c #005F60",
"r.	c #006C6D",
"s.	c #00696B",
"t.	c #006466",
"u.	c #004C50",
"v.	c #7E6446",
"w.	c #B3895B",
"x.	c #C49765",
"y.	c #D6A570",
"z.	c #E1AE76",
"A.	c #E6B279",
"B.	c #B3895C",
"C.	c #A47D53",
"D.	c #A57D53",
"E.	c #636050",
"F.	c #003C3E",
"G.	c #151F1C",
"H.	c #0C0602",
"I.	c #3E2E1D",
"J.	c #231B13",
"K.	c #29292B",
"L.	c #696663",
"M.	c #DBA973",
"N.	c #6D5438",
"O.	c #005E5F",
"P.	c #056A6B",
"Q.	c #037B7C",
"R.	c #2B9293",
"S.	c #318F90",
"T.	c #006365",
"U.	c #004345",
"V.	c #0A3B3B",
"W.	c #2C4643",
"X.	c #424940",
"Y.	c #534837",
"Z.	c #644F36",
"`.	c #705639",
" +	c #7D5F3D",
".+	c #413E32",
"++	c #004246",
"@+	c #005053",
"#+	c #277D7E",
"$+	c #1E7576",
"%+	c #073737",
"&+	c #513C25",
"*+	c #CB9D6A",
"=+	c #7B5E3E",
"-+	c #272729",
";+	c #FEFEFE",
">+	c #B8B7B5",
",+	c #B08B62",
"'+	c #5B4A34",
")+	c #036162",
"!+	c #076869",
"~+	c #057B7C",
"{+	c #2D9D9E",
"]+	c #3BA7A8",
"^+	c #188C8D",
"/+	c #017778",
"(+	c #037576",
"_+	c #288E8F",
":+	c #339597",
"<+	c #158081",
"[+	c #006D6E",
"}+	c #1B8283",
"|+	c #198082",
"1+	c #2C8889",
"2+	c #138081",
"3+	c #037F80",
"4+	c #298586",
"5+	c #107071",
"6+	c #273631",
"7+	c #D5A46F",
"8+	c #EAB47B",
"9+	c #6F5438",
"0+	c #2C2C2E",
"a+	c #444444",
"b+	c #F0F0F0",
"c+	c #A19F9F",
"d+	c #AE885C",
"e+	c #BD9362",
"f+	c #D4A46F",
"g+	c #D8A771",
"h+	c #3A514C",
"i+	c #197D7E",
"j+	c #177E7F",
"k+	c #087778",
"l+	c #28999A",
"m+	c #39A5A6",
"n+	c #1B8E8F",
"o+	c #027778",
"p+	c #067879",
"q+	c #299293",
"r+	c #359A9C",
"s+	c #158687",
"t+	c #077879",
"u+	c #2B9697",
"v+	c #2F9B9C",
"w+	c #3AA6A7",
"x+	c #188F91",
"y+	c #047D7E",
"z+	c #1B7172",
"A+	c #05696A",
"B+	c #37382E",
"C+	c #5B462E",
"D+	c #3D3D3D",
"E+	c #F1F1F1",
"F+	c #A7A7A7",
"G+	c #909090",
"H+	c #828080",
"I+	c #6B6764",
"J+	c #5B5551",
"K+	c #133B3E",
"L+	c #27868A",
"M+	c #248687",
"N+	c #057778",
"O+	c #1C8D8E",
"P+	c #037C7D",
"Q+	c #229596",
"R+	c #229495",
"S+	c #087D7E",
"T+	c #219495",
"U+	c #279899",
"V+	c #1C9192",
"W+	c #067778",
"X+	c #1A7576",
"Y+	c #036768",
"Z+	c #081C1C",
"`+	c #3C2E1E",
" @	c #4F3C29",
".@	c #42403D",
"+@	c #424242",
"@@	c #FDFDFD",
"#@	c #F9F9F9",
"$@	c #DBDBDB",
"%@	c #1F2A62",
"&@	c #1849BD",
"*@	c #1753AC",
"=@	c #005B5B",
"-@	c #13706E",
";@	c #339695",
">@	c #2F9897",
",@	c #037878",
"'@	c #017A7B",
")@	c #198B8C",
"!@	c #39A3A4",
"~@	c #2D9A9B",
"{@	c #058081",
"]@	c #0E8C8D",
"^@	c #1D9394",
"/@	c #299697",
"(@	c #056F70",
"_@	c #0F7778",
":@	c #016364",
"<@	c #0D1819",
"[@	c #2C2C2D",
"}@	c #404040",
"|@	c #2B2C3D",
"1@	c #030A5E",
"2@	c #0A1C81",
"3@	c #123499",
"4@	c #164496",
"5@	c #2565A6",
"6@	c #2872A0",
"7@	c #095877",
"8@	c #055A6E",
"9@	c #106370",
"0@	c #287A85",
"a@	c #267A83",
"b@	c #03696B",
"c@	c #016E70",
"d@	c #137878",
"e@	c #2F8E8C",
"f@	c #298886",
"g@	c #016967",
"h@	c #006C6C",
"i@	c #005F5E",
"j@	c #141718",
"k@	c #434343",
"l@	c #F4F5F4",
"m@	c #AFAFAF",
"n@	c #101E8D",
"o@	c #2034DB",
"p@	c #1F32D5",
"q@	c #2031D8",
"r@	c #1C2CC6",
"s@	c #14229E",
"t@	c #11208E",
"u@	c #0F2282",
"v@	c #1832A0",
"w@	c #1B3AAE",
"x@	c #183168",
"y@	c #1C3E92",
"z@	c #1146A2",
"A@	c #1655B6",
"B@	c #0957A6",
"C@	c #00508C",
"D@	c #005A7D",
"E@	c #00507B",
"F@	c #232323",
"G@	c #F7F7F7",
"H@	c #B3B3B3",
"I@	c #1525A5",
"J@	c #223AED",
"K@	c #2239EA",
"L@	c #2239EB",
"M@	c #1D32D4",
"N@	c #1628AF",
"O@	c #1424A1",
"P@	c #0B1671",
"Q@	c #0A0D44",
"R@	c #00003F",
"S@	c #7D5844",
"T@	c #B5826D",
"U@	c #9F7380",
"V@	c #916A98",
"W@	c #956D9E",
"X@	c #88638F",
"Y@	c #7B5B8E",
"Z@	c #56459C",
"`@	c #292929",
" #	c #F3F4F3",
".#	c #E6E7E5",
"+#	c #9A9CB0",
"@#	c #2731BE",
"##	c #2739E1",
"$#	c #1B36E5",
"%#	c #1A32D4",
"&#	c #162CBF",
"*#	c #15249E",
"=#	c #0B1361",
"-#	c #080828",
";#	c #956938",
">#	c #CE9351",
",#	c #BC8646",
"'#	c #BC8643",
")#	c #CD934C",
"!#	c #CC924F",
"~#	c #CD9350",
"{#	c #966A3B",
"]#	c #212122",
"^#	c #2B2829",
"/#	c #2E2C2A",
"(#	c #1B1B15",
"_#	c #121665",
":#	c #5F4A98",
"<#	c #644EA7",
"[#	c #5546B3",
"}#	c #4D43BD",
"|#	c #453782",
"1#	c #241800",
"2#	c #303032",
"3#	c #19191A",
"4#	c #8B6234",
"5#	c #B58147",
"6#	c #AF7D44",
"7#	c #B38046",
"8#	c #BC864A",
"9#	c #C68E4F",
"0#	c #CD9352",
"a#	c #8A6235",
"b#	c #C5C5C5",
"c#	c #2A2727",
"d#	c #242122",
"e#	c #333529",
"f#	c #5D4418",
"g#	c #65460D",
"h#	c #664716",
"i#	c #6B4B24",
"j#	c #704F2D",
"k#	c #412C14",
"l#	c #9B9B9D",
"m#	c #828284",
"n#	c #7B572E",
"o#	c #976C3A",
"p#	c #9A6D3B",
"q#	c #9C6F3C",
"r#	c #9E703D",
"s#	c #B07E45",
"t#	c #B27F46",
"u#	c #6E4D29",
"v#	c #D0D0D0",
"w#	c #2A2728",
"x#	c #353532",
"y#	c #272B2C",
"z#	c #191718",
"A#	c #161415",
"B#	c #121111",
"C#	c #15110F",
"D#	c #565656",
"E#	c #D1D1D2",
"F#	c #DADADC",
"G#	c #7B7572",
"H#	c #4C3419",
"I#	c #563C1E",
"J#	c #5F4222",
"K#	c #684926",
"L#	c #6F4F29",
"M#	c #837D78",
"N#	c #787978",
"O#	c #E0E0E0",
"P#	c #E6E6E8",
"Q#	c #D9D9DB",
"R#	c #D3D3D3",
"S#	c #C6C6C6",
"T#	c #A9A9AA",
"U#	c #A9A9A9",
"V#	c #E4E4E4",
"W#	c #FBFBFB",
"X#	c #020202",
"Y#	c #010101",
"Z#	c #AEE6D6",
"`#	c #C2F5E7",
" $	c #DAF5ED",
".$	c #D7EAE5",
"+$	c #95AEA8",
"@$	c #B3D9CF",
"#$	c #BFF5E6",
"$$	c #DAF2EC",
"%$	c #EAF1F0",
"&$	c #040404",
"*$	c #272425",
"=$	c #86908D",
"-$	c #DDDDDD",
";$	c #F5F5F5",
">$	c #E7F5F1",
",$	c #B1D6CC",
"'$	c #C4E1D8",
")$	c #EBF5F2",
"!$	c #F2F5F4",
"~$	c #E8F5F2",
"{$	c #CAF0E6",
"]$	c #9DDFCC",
"^$	c #C7F5E8",
"/$	c #C6F5E8",
"($	c #CAF7EA",
"_$	c #060707",
":$	c #D1ECE4",
"<$	c #73B6A3",
"[$	c #8ECBBA",
"}$	c #EDF5F3",
"|$	c #EBF4F1",
"1$	c #A3E5D2",
"2$	c #A4E6D3",
"3$	c #ACEBD9",
"4$	c #BCF5E5",
"5$	c #000101",
"6$	c #90D2C0",
"7$	c #96C7B9",
"8$	c #C4DED7",
"9$	c #DEEAE7",
"0$	c #A7CFC4",
"a$	c #69B59F",
"b$	c #99CEBF",
"c$	c #CFF5EA",
"d$	c #ECF5F3",
"e$	c #F0F5F4",
"f$	c #70C2AA",
"g$	c #66BAA2",
"h$	c #6CBEA7",
"i$	c #85C6B3",
"j$	c #9CDAC8",
"k$	c #75C1AB",
"l$	c #3E9E82",
"m$	c #79B9A7",
"n$	c #F1F3F3",
"o$	c #F0F3F2",
"p$	c #8BC9B7",
"q$	c #ADECDA",
"r$	c #BAF5E4",
"s$	c #C1F5E6",
"t$	c #C4F4E5",
"u$	c #B0EAD8",
"v$	c #4FAA90",
"w$	c #87D2BC",
"x$	c #DAF5EE",
"y$	c #CEDFDA",
"z$	c #010100",
"A$	c #020201",
"B$	c #040403",
"C$	c #5D7770",
"D$	c #9BBBB3",
"E$	c #D9E7E1",
"F$	c #E6DAC8",
"G$	c #DFCDAF",
"H$	c #7BB08F",
"I$	c #83BF9C",
"J$	c #A0D4B6",
"K$	c #98C6B0",
"L$	c #DFC880",
"M$	c #BCB572",
"N$	c #809B5E",
"O$	c #94C5A3",
"P$	c #9FD3B6",
"Q$	c #B9DBC0",
"R$	c #6B645C",
"S$	c #6A655E",
"T$	c #A89781",
"U$	c #E8B368",
"V$	c #E6A649",
"W$	c #DFB05B",
"X$	c #D9A03E",
"Y$	c #E0AF56",
"Z$	c #A98D59",
"`$	c #F7AE46",
" %	c #F4B55C",
".%	c #EE9E2E",
"+%	c #EEC480",
"@%	c #DAAB56",
"#%	c #E1A643",
"$%	c #6A655D",
"%%	c #6B645A",
"&%	c #030303",
"*%	c #F6BA66",
"=%	c #F7AF4C",
"-%	c #F3B258",
";%	c #EEA135",
">%	c #F6B251",
",%	c #E7AF5F",
"'%	c #FAC67E",
")%	c #F0AE51",
"!%	c #F1A336",
"~%	c #040301",
"{%	c #070707",
"]%	c #F7BC6A",
"^%	c #EEA235",
"/%	c #F8B95F",
"(%	c #F5B862",
"_%	c #F7AE47",
":%	c #FDFDFC",
"<%	c #0B0A0A",
"[%	c #6A655C",
"}%	c #F5B861",
"|%	c #F4B45A",
"1%	c #F1A73E",
"2%	c #FBC170",
"3%	c #EAAE5A",
"4%	c #F7B85F",
"5%	c #030201",
"6%	c #F6B862",
"7%	c #F3AC4B",
"8%	c #EEB25D",
"9%	c #F7B150",
"0%	c #FABE6B",
"a%	c #F0BD75",
"b%	c #F7BD6B",
"c%	c #F7C681",
"d%	c #A26D26",
"e%	c #F6B760",
"f%	c #ECA746",
"g%	c #F1A234",
"h%	c #050402",
"i%	c #040303",
"j%	c #F8BB64",
"k%	c #EBA441",
"l%	c #D28C2A",
"m%	c #E79C34",
"n%	c #F0A031",
"o%	c #6A6359",
"p%	c #080808",
"q%	c #E39B35",
"r%	c #EC9F32",
"s%	c #EE9E2F",
"t%	c #F5B760",
"u%	c #D29238",
"v%	c #DB9535",
"w%	c #2B2727",
"x%	c #373533",
"y%	c #F8BA62",
"z%	c #F3C17A",
"A%	c #F7AF4B",
"B%	c #EEA238",
"C%	c #E49B35",
"D%	c #ED9F32",
"E%	c #0E0D0D",
"F%	c #F7B04F",
"G%	c #F5BA65",
"H%	c #F6B14F",
"I%	c #EBA442",
"J%	c #F6B354",
"K%	c #E79A2D",
"L%	c #E79D34",
"M%	c #F7BD6C",
"N%	c #F4B359",
"O%	c #F0A53B",
"P%	c #F3B35A",
"Q%	c #F7AF4A",
"R%	c #E2901C",
"S%	c #EEAA4A",
"T%	c #F1A335",
"U%	c #040302",
"V%	c #F4BD6E",
"W%	c #F0A63F",
"X%	c #EEA236",
"Y%	c #F9BB65",
"Z%	c #E38F1A",
"`%	c #F7BB67",
" &	c #F1B053",
".&	c #F1A439",
"+&	c #030301",
"@&	c #12110E",
"#&	c #302A27",
"$&	c #E0AC62",
"%&	c #EFA236",
"&&	c #F5AE4B",
"*&	c #F3A63B",
"=&	c #F7AC43",
"-&	c #EFA846",
";&	c #F7AC42",
">&	c #F4AB44",
",&	c #C88A35",
"'&	c #E3A043",
")&	c #F6AA3E",
"!&	c #F7AB40",
"~&	c #F9BF6C",
"{&	c #EBA544",
"]&	c #F7AA3E",
"^&	c #F0A134",
"/&	c #EC9C2B",
"(&	c #F3A73D",
"_&	c #D89536",
":&	c #D19645",
"<&	c #020101",
"[&	c #DB9E4A",
"}&	c #C78C3C",
"|&	c #DB9E49",
"1&	c #DEA24E",
"2&	c #DD9838",
"3&	c #DA9637",
"4&	c #BC812F",
"5&	c #AD772B",
"6&	c #A16E28",
"7&	c #2E2927",
"8&	c #060606",
"                          .     + + + @ # $ % & * = - ; > , ' ) ! ~ { ] ^ / ( _ : < [ } | 1 2 3 4 * 5 6 7 8 8 8 9 9 8 9 9 9 9 8 ",
"                        .       + + 8 8 8 0 a b c * * d e f g h i j k l m 3 n o p q d r s t u v w x y z A 8 8 9 9 8 9 9 9 9 8 9 ",
"                      .         + 8 8 8 8 B C D E * * * - F G H - * * I J K L M q * * = s N O P Q 0 R 8 8 8 9 9 8 9 9 9 9 8 9 9 ",
"                    .           8 8 8 8 S T U V W X E d q Y Z ` - * * I  ...+.I * * * q @.#.$.%.@ 8 8 8 8 9 9 8 9 9 9 9 8 9 9 9 ",
"                  .           . 8 &.*.=.-.;.>.,.'.).!.~.I I - * * * * * {.].^.q * c /.(._.:.<.[.A 8 8 8 9 9 8 9 9 9 9 8 9 9 9 9 ",
"                .           . . }.|.1.2.3.t 4.5.6.7.8.9.0.a.b.& r * r * c c.d.i b.e.f.g.h.i.j.[.8 8 8 9 9 8 9 9 9 9 8 9 9 9 9 9 ",
"              .           . . . k.l.m.n.o.E b p.q.r.s.t.u.v.w.x.y.z.A.A.5 l B.C.D.E.F.G.H.I.J.K.8 8 9 9 8 9 9 9 9 8 9 9 9 9 9 9 ",
"            .           . . . [.L.M.= * * * o.N.O.P.Q.R.S.T.U.V.W.X.Y.Z.`. +.+++@+#+$+%+&+*+=+-+@ 9 ;+8 9 9 9 9 8 9 9 9 9 9 9 9 ",
"          .           . . . . [.>+,+/.o.* * k '+)+!+~+{+]+^+/+(+_+:+<+[+}+|+1+2+3+4+5+6+7+8+9+0+9 9 A 9 9 9 9 8 9 9 9 9 9 9 9 9 ",
"        .           . . . . . a+b+c+d+e+f+g+d+h+i+j+k+l+m+n+o+p+q+r+s+t+u+v+w+x+y+z+A+B+f+z.C+D+;+8 9 9 9 9 8 9 9 9 9 9 9 9 9 9 ",
"      .           . . . . . a+a+8 E+F+G+H+I+J+K+L+M+N+O+w+l+P+y+Q+m+R+S+T+U+m+V+W+X+Y+Z+`+ @.@+@8 9 9 9 9 8 9 9 9 9 9 9 9 9 9 9 ",
"    .           . . . . . a+a+. 9 9 9 @@@ #@$@%@&@*@=@-@;@>@,@'@)@!@~@{@]@^@w+/@(@_@:@<@[@}@a+. 9 9 ;+9 8 9 9 9 9 9 9 9 9 9 9 9 ",
"  .           . . . . . a+a+. a+9 9 9 8 9 9 $@|@1@2@3@4@5@6@7@8@9@0@a@b@c@d@e@f@g@h@i@j@k@k@. a+9 9 ;+8 9 9 9 9 9 9 9 9 9 9 9 9 ",
".           . . . . . a+a+. a+a+9 9 8 9 ;+9 l@m@3 n@o@p@q@r@s@t@u@v@w@x@y@z@A@B@C@D@E@F@a+. a+a+9 9 8 9 9 9 9 9 9 9 9 9 9 9 9 9 ",
"          . . . . . a+a+. a+a+a+9 8 9 9 ;+9 G@H@3 I@J@K@L@M@N@O@P@Q@R@S@T@U@V@W@X@Y@Z@`@. a+a+a+9 8 9 9 9 9 9 9 9 9 9 9 9 9 9 8 ",
"        . . . . . a+a+. a+a+a+a+8 9 9 9 9 ;+@@ #.#+#@###$#%#&#*#=#-#3 ;#>#,#'#)#!#~#{#]#a+a+a+a+8 9 9 9 9 9 9 9 9 9 9 9 9 9 8 9 ",
"+ + + 8 8 8 8 8 9 9 8 9 9 9 9 8             ^#/#  (#_#:#<#[#}#|#1#2#3#4#5#6#7#8#9#0#a#b#9 9 9 8                           .     ",
"+ + 8 8 8 8 8 9 9 8 9 9 9 9 8 9               c#c#d#e#f#g#h#i#j#k#l#m#n#o#p#q#r#s#t#u#v#9 9 8 9                         .       ",
"+ 8 8 8 8 8 9 9 8 9 9 9 9 8 9 9                   w#x#y#z#A#B#C#D#E#F#G#H#I#J#K#L#M#N#O#9 8 9 9                       .         ",
"8 8 8 8 8 9 9 8 9 9 9 9 8 9 9 9                     .           P#@ A Q#*.R#S#T#U#V#b+W#8 9 9 9                     .           ",
"8 8 8 8 9 9 8 9 9 9 9 8 9 9 9 9                   . X#3 3 3 3 3 X#X#X#3 3 9 8 9 9 9 9 8 9 9 9 9                   .           . ",
"8 8 8 9 9 8 9 9 9 9 8 9 9 9 9 9             3 3 3 Y#Z#`# $.$+$@$#$$$%$#@#@&$9 9 9 9 8 9 9 9 9 9                 .           . . ",
"8 8 9 9 8 9 9 9 9 8 9 9 9 9 9 9         *$Y#=$-$;$;$>$,$'$)$!$~${$]$^$/$`#($_$9 9 8 9 9 9 9 9 9               .           . . . ",
"8 9 9 8 9 9 9 9 8 9 9 9 9 9 9 9         *$3 :$;$;$;$;$<$[$}$;$;$|$1$2$2$3$4$&$9 8 9 9 9 9 9 9 9             .           . . . . ",
"9 9 8 9 9 9 9 8 9 9 9 9 9 9 9 9           5$6$7$8$9$0$a$b$c$d$e$>$f$g$h$i$j$3 8 9 9 9 9 9 9 9 9           .           . . . . . ",
"9 8 9 9 9 9 8 9 9 9 9 9 9 9 9 9         . X#k$l$m$n$o$p$q$r$s$t$u$v$w$r$x$y$z$z$A$B$9 9 9 9 9 9         .           . . . . . a+",
"8 9 9 9 9 8 9 9 9 9 9 9 9 9 9 9       .   3 C$D$E$F$G$H$I$J$K$L$M$N$O$P$Q$A$R$S$S$S$&$9 9 9 9 9       .           . . . . . a+a+",
"9 9 9 9 8 9 9 9 9 9 9 9 9 9 9 9     .       3 3 T$U$V$W$X$Y$Z$`$ %.%+%@%#%z$$%S$S$$%%%&%9 9 9 9     .           . . . . . a+a+. ",
"9 9 9 8 9 9 9 9 9 9 9 9 9 9 9 9   .           . Y#*%=%-%;%>%,%`$ %.%'%)%!%z$~%Y#Y#S$S${%9 9 9 9   .           . . . . . a+a+. a+",
"9 9 8 9 9 9 9 9 9 9 9 9 9 9 9 9 .           . . 3 ]%=%-%^%/%(%_% %.%'%)%!%A$Y#:%;+<%S$[%Y#9 9 9 .           . . . . . a+a+. a+a+",
"9 8 9 9 9 9 9 9 9 9 9 9 9 9 9 8           . . . 3 }%=%|%1%2%(%_% %3%4%)%!%5%9 9 9 X#S$S$X#9 9 8           . . . . . a+a+. a+a+a+",
"8 9 9 9 9 9 9 9 9 9 9 9 9 9 8 9         . . . . 3 6%7%8%9%0%(%_% %a%b%)%!%A$9 9 ;+X#S$$%3 9 8 9         . . . . . a+a+. a+a+a+a+",
"                          .     + + + 8 8 8 8 8 Y#b%}%c%9%>%(%_% %d%e%f%g%3     c#h%S$Y#  .     + + + 8 8 8 8 8 9 9 8 9 9 9 9 8 ",
"                        .       + + 8 8 8 8 8 9 i%b%j%c%9%>%k%`$ %l%e%m%n%z$    3 o%$%X#.       + + 8 8 8 8 8 9 9 8 9 9 9 9 8 9 ",
"                      .         + 8 8 8 8 8 9 9 p%b%j%c%9%>%k%`$ %.%e%q%r%z$  3 $%$%5%.         + 8 8 8 8 8 9 9 8 9 9 9 9 8 9 9 ",
"                    .           8 8 8 8 8 9 9 8 i%b%j%c%9%>%k%`$ %s%t%u%v%z$w%5%S$5%x%          8 8 8 8 8 9 9 8 9 9 9 9 8 9 9 9 ",
"                  .           . 8 8 8 8 9 9 8 9 A$b%y%z%9%>%k%A% %B%(%C%D%z$E%S$$%3           . 8 8 8 8 9 9 8 9 9 9 9 8 9 9 9 9 ",
"                .           . . 8 8 8 9 9 8 9 9 Y#b%F%G%H%>%I%J% %K%(%L%n%A$S$$%B$w%        . . 8 8 8 9 9 8 9 9 9 9 8 9 9 9 9 9 ",
"              .           . . . 8 8 9 9 8 9 9 9 Y#M%=%N%O%>%P%Q% %R%t%S%T%A$S$U%          . . . 8 8 9 9 8 9 9 9 9 8 9 9 9 9 9 9 ",
"            .           . . . . 8 9 9 8 9 9 9 9 Y#V%W%-%X%Y%(%_% %Z%`% &.&+&@&#&        . . . . 8 9 9 8 9 9 9 9 8 9 9 9 9 9 9 9 ",
"          .           . . . . . 9 9 8 9 9 9 9 8 {%$&%&&&*&2%(%=&-&Z%;&>&,&z$          . . . . . 9 9 8 9 9 9 9 8 9 9 9 9 9 9 9 9 ",
"        .           . . . . . a+9 8 9 9 9 9 8 9 ;+3 '&)&!&~&{&]&^&/&(&_&:&<&        . . . . . a+9 8 9 9 9 9 8 9 9 9 9 9 9 9 9 9 ",
"      .           . . . . . a+a+8 9 9 9 9 8 9 9 9 9 Y#[&}&|&1&2&3&4&5&6&3 7&      . . . . . a+a+8 9 9 9 9 8 9 9 9 9 9 9 9 9 9 9 ",
"    .           . . . . . a+a+. 9 9 9 9 8 9 9 9 9 9 9 8&Y#Y#X#X#3 3 3 3         . . . . . a+a+. 9 9 9 9 8 9 9 9 9 9 9 9 9 9 9 9 ",
"  .           . . . . . a+a+. a+9 9 9 8 9 9 9 9 9 9 9 9 9 9 9 9   .           . . . . . a+a+. a+9 9 9 8 9 9 9 9 9 9 9 9 9 9 9 9 ",
".           . . . . . a+a+. a+a+9 9 8 9 9 9 9 9 9 9 9 9 9 9 9 9 .           . . . . . a+a+. a+a+9 9 8 9 9 9 9 9 9 9 9 9 9 9 9 9 ",
"          . . . . . a+a+. a+a+a+9 8 9 9 9 9 9 9 9 9 9 9 9 9 9 8           . . . . . a+a+. a+a+a+9 8 9 9 9 9 9 9 9 9 9 9 9 9 9 8 ",
"        . . . . . a+a+. a+a+a+a+8 9 9 9 9 9 9 9 9 9 9 9 9 9 8 9         . . . . . a+a+. a+a+a+a+8 9 9 9 9 9 9 9 9 9 9 9 9 9 8 9 ",
"+ + + 8 8 8 8 8 9 9 8 9 9 9 9 8                           .     + + + 8 8 8 8 8 9 9 8 9 9 9 9 8                           .     ",
"+ + 8 8 8 8 8 9 9 8 9 9 9 9 8 9                         .       + + 8 8 8 8 8 9 9 8 9 9 9 9 8 9                         .       ",
"+ 8 8 8 8 8 9 9 8 9 9 9 9 8 9 9                       .         + 8 8 8 8 8 9 9 8 9 9 9 9 8 9 9                       .         ",
"8 8 8 8 8 9 9 8 9 9 9 9 8 9 9 9                     .           8 8 8 8 8 9 9 8 9 9 9 9 8 9 9 9                     .           ",
"8 8 8 8 9 9 8 9 9 9 9 8 9 9 9 9                   .           . 8 8 8 8 9 9 8 9 9 9 9 8 9 9 9 9                   .           . ",
"8 8 8 9 9 8 9 9 9 9 8 9 9 9 9 9                 .           . . 8 8 8 9 9 8 9 9 9 9 8 9 9 9 9 9                 .           . . ",
"8 8 9 9 8 9 9 9 9 8 9 9 9 9 9 9               .           . . . 8 8 9 9 8 9 9 9 9 8 9 9 9 9 9 9               .           . . . ",
"8 9 9 8 9 9 9 9 8 9 9 9 9 9 9 9             .           . . . . 8 9 9 8 9 9 9 9 8 9 9 9 9 9 9 9             .           . . . . ",
"9 9 8 9 9 9 9 8 9 9 9 9 9 9 9 9           .           . . . . . 9 9 8 9 9 9 9 8 9 9 9 9 9 9 9 9           .           . . . . . ",
"9 8 9 9 9 9 8 9 9 9 9 9 9 9 9 9         .           . . . . . a+9 8 9 9 9 9 8 9 9 9 9 9 9 9 9 9         .           . . . . . a+",
"8 9 9 9 9 8 9 9 9 9 9 9 9 9 9 9       .           . . . . . a+a+8 9 9 9 9 8 9 9 9 9 9 9 9 9 9 9       .           . . . . . a+a+",
"9 9 9 9 8 9 9 9 9 9 9 9 9 9 9 9     .           . . . . . a+a+. 9 9 9 9 8 9 9 9 9 9 9 9 9 9 9 9     .           . . . . . a+a+. ",
"9 9 9 8 9 9 9 9 9 9 9 9 9 9 9 9   .           . . . . . a+a+. a+9 9 9 8 9 9 9 9 9 9 9 9 9 9 9 9   .           . . . . . a+a+. a+",
"9 9 8 9 9 9 9 9 9 9 9 9 9 9 9 9 .           . . . . . a+a+. a+a+9 9 8 9 9 9 9 9 9 9 9 9 9 9 9 9 .           . . . . . a+a+. a+a+",
"9 8 9 9 9 9 9 9 9 9 9 9 9 9 9 8           . . . . . a+a+. a+a+a+9 8 9 9 9 9 9 9 9 9 9 9 9 9 9 8           . . . . . a+a+. a+a+a+",
"8 9 9 9 9 9 9 9 9 9 9 9 9 9 8 9         . . . . . a+a+. a+a+a+a+8 9 9 9 9 9 9 9 9 9 9 9 9 9 8 9         . . . . . a+a+. a+a+a+a+"};
