/* XPM */
static char *e60cfa572a5a4b0582ecfaace4307381akwqIe3cPC2dEvXW[] = {
/* columns rows colors chars-per-pixel */
"32 32 75 1 ",
"  c None",
". c #0F1C1F",
"X c #20251B",
"o c #21251B",
"O c #262819",
"+ c #292919",
"@ c #292A19",
"# c #071821",
"$ c #0E1E23",
"% c #1C2827",
"& c #1C2927",
"* c #162328",
"= c #172328",
"- c #16262F",
"; c #212C28",
": c #232E29",
"> c #353936",
", c #363936",
"< c #533F0E",
"1 c #423713",
"2 c #433713",
"3 c #59420D",
"4 c #6D4C08",
"5 c #6D4D08",
"6 c #755106",
"7 c #765106",
"8 c #634A16",
"9 c #4F4630",
"0 c #474A32",
"q c #4B4D34",
"w c #40403B",
"e c #40413B",
"r c #45443D",
"t c #45443E",
"y c #5C5A38",
"u c #35434A",
"i c #36434A",
"p c #454744",
"a c #404D53",
"s c #454E51",
"d c #404D54",
"f c #455158",
"g c #64645F",
"h c #736553",
"j c #746553",
"k c #646460",
"l c #646E73",
"z c #865A02",
"x c #875A02",
"c c #8F5E00",
"v c #9B7F5F",
"b c #927B61",
"n c #937B61",
"m c #9C8165",
"M c #9C8265",
"N c #A2896F",
"B c #C19C76",
"V c #C19C77",
"C c #D0A77E",
"Z c #D1A77E",
"A c #92999C",
"S c #9CA1A4",
"D c #9CA2A5",
"F c #A2A4A3",
"G c #A2A7AA",
"H c #C1A68A",
"J c #EFBD8C",
"K c #F0BD8C",
"L c #C1BAB1",
"P c #C1BAB2",
"I c #FFC893",
"U c #FFD5AD",
"Y c #C1C4C5",
"T c #FFF0E2",
"R c #FFFDFC",
/* pixels */
"    ##########                  ",
"    O@@@@@@@@O                  ",
"  #O3555444443O###########      ",
"  O27cccccccc61@@@@@@@@@@O      ",
"#O37xccccccccx755555555543O#    ",
"#O36xcccccccccccccccccccc71O    ",
"  O27ccccccccccccccccccccx73O#  ",
"  #O36xx644447xccz655557xx73O#  ",
"    O2772O@@+17cc72@@@@2662O    ",
"    #o<89rrrr984489tttt983X#    ",
"    #.o9nVVVVm9@@9vVVVVn9X$#    ",
"    e,=tBJCCJZhtrjZKZZKBe*,e    ",
"  #eMn,tBZjjZKZVVCKChjCBr,nMe#  ",
"  #tVCjjZBttVIIIIIIBrrVCjjCBr#  ",
"  #tVKCCKBttVIIIIIIBrrBKCCKBt#  ",
"  #eMVVCKZjjZJZVBCKCjjCKCBBMe#  ",
"    etthZJZZJChtrjCKCCKCjrte    ",
"    ###eMCJIIChtrjCIIJCMw###    ",
"        ehZIIKZVVCKIIChw        ",
"        agNVVZJIIJCBBNkd        ",
"    ###aDFgtrhCIIChrrkFSa###    ",
"    afflGGlffkNVBNkfflGGlffd    ",
"  #dDYYGllGYYFkrrkFYYGllGYYSa#  ",
"  #sLTTLsfYRRYf##fYRRYfsLTTLs#  ",
"  #pHUUHpfYRRYf##fYRRYfpHUUHp#  ",
"  #eMVVb,iAYYAu##iAYYAi,nVBm,#  ",
"    eet,*-iffi-##-iffi-=,tte    ",
"    ###.#$&;:&$##$&:;&$#####    ",
"        #&qyyq&##&0yyq&#        ",
"        #;qyyq;##;qyyq;#        ",
"          ;;;;    ;;::          ",
"          ####    ####          "
};
