/* XPM */
static char *acc989f100a74e2cd9c0655d4586573etgYInR4CFPpsWPPc[] = {
/* columns rows colors chars-per-pixel */
"32 32 139 2 ",
"   c None",
".  c #65461A",
"X  c #6B491B",
"o  c #714D1D",
"O  c #77521E",
"+  c #7B541F",
"@  c #7E5620",
"#  c #805720",
"$  c #825921",
"%  c #8D6023",
"&  c #936525",
"*  c #9C6B27",
"=  c #9F6D28",
"-  c #A16E28",
";  c #AE772B",
":  c #AF782C",
">  c #B57C2E",
",  c #B87E2E",
"<  c #379A7E",
"1  c #749960",
"2  c #7EAB7E",
"3  c #BC812F",
"4  c #DF8B15",
"5  c #DF8C18",
"6  c #E08E1C",
"7  c #E1901F",
"8  c #CC892B",
"9  c #CA8B33",
"0  c #D59236",
"q  c #D99537",
"w  c #E39322",
"e  c #E89728",
"r  c #EB9C2D",
"t  c #E59A32",
"y  c #EC9E31",
"u  c #E39C39",
"i  c #EEA034",
"p  c #EDA33A",
"a  c #F1A233",
"s  c #F3A63A",
"d  c #F7AA3F",
"f  c #F8AB3F",
"g  c #BFA352",
"h  c #ABAD6C",
"j  c #C29F44",
"k  c #D99C46",
"l  c #CFA84E",
"z  c #ECA643",
"x  c #EEA846",
"c  c #EEAB4D",
"v  c #F6AC44",
"b  c #F6AE49",
"n  c #F6B14F",
"m  c #EFAE52",
"M  c #F0AE52",
"N  c #F4B255",
"B  c #F8B454",
"V  c #F5B55C",
"C  c #F8B65A",
"Z  c #C8AE62",
"A  c #C7B16A",
"S  c #D1B062",
"D  c #D0B977",
"F  c #E7BC67",
"G  c #E9BF6D",
"H  c #F4B760",
"J  c #F5B963",
"K  c #F6BE6C",
"L  c #F9BE6C",
"P  c #F7BF71",
"I  c #F9C06F",
"U  c #F7C173",
"Y  c #F9C173",
"T  c #FAC57B",
"R  c #3FA086",
"E  c #429F84",
"W  c #48A184",
"Q  c #4BA78D",
"!  c #43A48B",
"~  c #53AC93",
"^  c #5BAA94",
"/  c #66BCA3",
"(  c #6BBCA5",
")  c #7CBCA9",
"_  c #7AC9B3",
"`  c #97C0A8",
"'  c #8BCBB9",
"]  c #84CBB1",
"[  c #90C3B5",
"{  c #8CD2BE",
"}  c #92D4BC",
"|  c #F9C781",
" . c #F9C985",
".. c #CCD9A8",
"X. c #F5D4A4",
"o. c #F4DEBF",
"O. c #96DAC5",
"+. c #99DBC6",
"@. c #98DFCB",
"#. c #ACD2C7",
"$. c #AFD3C9",
"%. c #ADDECE",
"&. c #A4DACB",
"*. c #9DE1CD",
"=. c #A9E7D5",
"-. c #A9E9D7",
";. c #ACEDDA",
":. c #BAE0D5",
">. c #BBE7DB",
",. c #B2ECDB",
"<. c #BEF2DC",
"1. c #B5F5E3",
"2. c #BBF5E4",
"3. c #BEF8E8",
"4. c #C5DED7",
"5. c #C6E2DA",
"6. c #CBE7DF",
"7. c #C0EADE",
"8. c #D2E4DE",
"9. c #F6E8D6",
"0. c #C3EEE2",
"q. c #CEE8E1",
"w. c #D2E6E0",
"e. c #C1F5E6",
"r. c #CBF5E9",
"t. c #D3F5EC",
"y. c #DDF5EE",
"u. c #DFF6F0",
"i. c #E2ECEA",
"p. c #E9EFED",
"a. c #E2F5EE",
"s. c #ECF1EF",
"d. c #F1F0EB",
"f. c #E3F6F0",
"g. c #EBF5F2",
"h. c #F5F5F5",
"j. c #F8F5F4",
"k. c #F7F7F8",
"l. c #FBF9FA",
/* pixels */
"                                                                ",
"                1.1.2.r.r.    1.1.                              ",
"          h.h.y.e.r.f.h.h.f.t.t.e.0.t.g.g.g.a.                  ",
"      a.h.h.h.h.g.5.[ 6.g.h.g.f.7.O.2.r.e.e.e.2.                ",
"      u.k.h.k.j.k.#.< %.h.h.h.j.g.,.-.-.-.;.2.2.                ",
"    1.&.4.i.p.w.#.) Q >.y.h.j.j.g.' ~ ~ ~ ( { -.                ",
"    1./ E ^ 4.p.6.' *.2.2.t.y.y.r._ ( *.=.6.w.1.                ",
"      _ E ^ i.l.h.#._ 2.2.2.2.7.O.! R -.3.t.k.r.                ",
"        :.8.d.9.o.` W ] O.+...G h 1 2 } } %.a.                  ",
"          j.X.J v S g j Z A d M N e K D l l F   - = - - -       ",
"            J V v C x a C H v B N r I Y z r u = @ + + + & =     ",
"            T J b V x y V J b M m r L P z a q # .       X &     ",
"            T H v C x y Y J b B N t L Y z a u           . $ -   ",
"            J V b C c s T J b B M e B J z y f           . $ -   ",
"            J J b V V b T J b B N w C K z a f           . $ -   ",
"            U V v C H b L J b B M w B J x a f           X %     ",
"             .V v V J v V V v B N w N H t a f           o *     ",
"             .H v N V n N M i B N e N V 6 i f         . $ -     ",
"             .V v N J v V b y B M r N N 5 a f         X %       ",
"             .V v N J v V c r N N r N V w a d       . O *       ",
"             .J v B J n V c r B N t N N w s d     . X %         ",
"             .V v B J v V b y V N y H V 5 i v   . . O *         ",
"             .V v V J v C c i J m t N V 7 a 0 X . . $           ",
"             .V v V V v N M p V N 7 N H w a 9 X o $             ",
"             .V v V c a N J b B N 4 v J z a 0 % &               ",
"            K V s V x i L J b N N 4 N K x a p                   ",
"              t e B x i T J n N m 5 d n n u 9                   ",
"              8 p v d v T V v v t 4 s f q ;                     ",
"                9 p p v Y m s f s i p 0 > =                     ",
"                  , > 3 k k q q 0 > ; - -                       ",
"                                                                ",
"                                                                "
};
