/* XPM */
static char *da9ab79823884e4991c82aa4aa3acee2VAZW0EX3AAkDYbmR[] = {
/* columns rows colors chars-per-pixel */
"32 32 120 2 ",
"   c None",
".  c #65461A",
"X  c #6E4C1C",
"o  c #714D1C",
"O  c #734F1D",
"+  c #7B541F",
"@  c #7F5720",
"#  c #835A21",
"$  c #8D6123",
"%  c #8E6123",
"&  c #926425",
"*  c #9F6D28",
"=  c #A06E29",
"-  c #A37029",
";  c #AB752B",
":  c #BA802F",
">  c #BE822F",
",  c #D6902F",
"<  c #D08F34",
"1  c #D29135",
"2  c #D29237",
"3  c #D49134",
"4  c #E49525",
"5  c #EB9B2B",
"6  c #EC9C2B",
"7  c #EB9B2C",
"8  c #E69B31",
"9  c #E99E37",
"0  c #E59D39",
"q  c #EFA339",
"w  c #EFA33A",
"e  c #EFA43B",
"r  c #EBA23D",
"t  c #ECA33D",
"y  c #EDA33D",
"u  c #EDA43D",
"i  c #EDA53F",
"p  c #EFA53E",
"a  c #F0A438",
"s  c #F0A43B",
"d  c #F4A83E",
"f  c #9FAB6C",
"g  c #B9BB7E",
"h  c #C5A24D",
"j  c #F3A941",
"k  c #F6AB40",
"l  c #F3AB45",
"z  c #F3AB47",
"x  c #F6AE49",
"c  c #F4AD4A",
"v  c #F7AF4D",
"b  c #F7B04D",
"n  c #F5B04F",
"m  c #F6B14F",
"M  c #E4A751",
"N  c #F3AF50",
"B  c #F2AF52",
"V  c #F2B053",
"C  c #F4B050",
"Z  c #F6B150",
"A  c #F6B251",
"S  c #F6B252",
"D  c #F6B253",
"F  c #F7B253",
"G  c #F3B357",
"H  c #F4B357",
"J  c #F3B45B",
"K  c #F4B459",
"L  c #F4B55B",
"P  c #F5B65D",
"I  c #F6B75E",
"U  c #D0BA7B",
"Y  c #ECBA63",
"T  c #F7B860",
"R  c #F5B964",
"E  c #F6B964",
"W  c #F6B965",
"Q  c #F6BA65",
"!  c #F7BB65",
"~  c #F7BC69",
"^  c #F6BC6A",
"/  c #F6BD6D",
"(  c #F7BE6C",
")  c #F9BF6F",
"_  c #50A58D",
"`  c #75C5AE",
"'  c #7AC7B1",
"]  c #7FCBB5",
"[  c #BCBE86",
"{  c #B3C18E",
"}  c #87C9B6",
"|  c #81CFB9",
" . c #82CEB9",
".. c #D1C496",
"X. c #F5D5A9",
"o. c #A8D0C4",
"O. c #BFDDD5",
"+. c #A1E4D1",
"@. c #A8E9D6",
"#. c #B1E7D7",
"$. c #BAE5D8",
"%. c #BAEADC",
"&. c #CBE4DE",
"*. c #CEEEE5",
"=. c #C6F1E5",
"-. c #C3F5E7",
";. c #C1F6E7",
":. c #C9F4E5",
">. c #CFF6EB",
",. c #D2F2E9",
"<. c #D0F5EB",
"1. c #DFF5EF",
"2. c #E1ECE7",
"3. c #E3ECEA",
"4. c #E6EEEC",
"5. c #E7EEEC",
"6. c #EEF5F3",
"7. c #EFF5F3",
"8. c gray96",
"9. c #F6F5F5",
/* pixels */
"                                                                ",
"                                                                ",
"                                                                ",
"                                                                ",
"                                                                ",
"                                                                ",
"                                                                ",
"                                                                ",
"                                                                ",
"                    8.7.*.&.7.1.#.>.<.-.                        ",
"                  %.3.5.o.} 8.8.$.` ] @.                        ",
"                  | _ 5.O.+.;.:.' | =.,.                        ",
"                    3.X.U f { Y h [ g ..= *                     ",
"                      R F q P m y ) a ; O   $                   ",
"                      R F u ( m u R a       +                   ",
"                      R F F ( m y T w       @                   ",
"                      / v F G c y K 7       %                   ",
"                      ^ v V V l u G 7     X                     ",
"                      ^ m F V z j K 7   . #                     ",
"                      ( V v V v 0 J 6 & o                       ",
"                      R v y T F 8 P a :                         ",
"                      3 j d ^ c 4 d 2                           ",
"                        2 2 M 0 3 > -                           ",
"                                                                ",
"                                                                ",
"                                                                ",
"                                                                ",
"                                                                ",
"                                                                ",
"                                                                ",
"                                                                ",
"                                                                "
};
