/* XPM */
static char *ef4578874c1246dfe199a7e6fa169018NVNotjhLpHm0RWEs[] = {
/* columns rows colors chars-per-pixel */
"64 64 199 2 ",
"   c None",
".  c black",
"X  c #010000",
"o  c #010100",
"O  c #000101",
"+  c #010101",
"@  c #020100",
"#  c #020101",
"$  c #030200",
"%  c #020201",
"&  c #030201",
"*  c #030301",
"=  c #030302",
"-  c #040301",
";  c #050404",
":  c #0E0D0D",
">  c #11100D",
",  c #6A6359",
"<  c #6B645A",
"1  c #6B645C",
"2  c #6A655C",
"3  c #6A655D",
"4  c #6A655E",
"5  c #A16E28",
"6  c #AD772B",
"7  c #BC812F",
"8  c #E38F1A",
"9  c #E2901C",
"0  c #D68F2C",
"q  c #C48632",
"w  c #CB8C35",
"e  c #D89536",
"r  c #DA9637",
"t  c #DD9838",
"y  c #E89625",
"u  c #E79A2D",
"i  c #EA9928",
"p  c #EC9C2B",
"a  c #EE9E2E",
"s  c #EE9E2F",
"d  c #E79C34",
"f  c #E79D34",
"g  c #E79D35",
"h  c #E29B39",
"j  c #D9A03E",
"k  c #EEA135",
"l  c #EEA235",
"z  c #EEA236",
"x  c #EFA236",
"c  c #E9A03A",
"v  c #EEA238",
"b  c #F0A031",
"n  c #F0A132",
"m  c #F0A134",
"M  c #F1A234",
"N  c #F1A335",
"B  c #F1A336",
"V  c #F3A437",
"C  c #F1A439",
"Z  c #F0A53B",
"A  c #F3A63B",
"S  c #F3A73D",
"D  c #F1A73E",
"F  c #F0A63F",
"G  c #F6AA3E",
"H  c #F7AA3E",
"J  c #809B5E",
"K  c #BCB572",
"L  c #D49845",
"P  c #DB9E49",
"I  c #DEA24E",
"U  c #DAAB56",
"Y  c #DFB05B",
"T  c #E1A643",
"R  c #EBA441",
"E  c #EBA442",
"W  c #EBA544",
"Q  c #ECA746",
"!  c #EFA846",
"~  c #EEAA4A",
"^  c #F7AB40",
"/  c #F7AC42",
"(  c #F7AC43",
")  c #F4AB44",
"_  c #F7AE46",
"`  c #F7AE47",
"'  c #F3AE4A",
"]  c #F5AE4B",
"[  c #F7AF4A",
"{  c #F7AF4B",
"}  c #F7AF4C",
"|  c #F6B14F",
" . c #E0AF56",
".. c #F0AE51",
"X. c #F1B053",
"o. c #F7B150",
"O. c #F6B251",
"+. c #F6B354",
"@. c #F3B258",
"#. c #F3B35A",
"$. c #F4B359",
"%. c #F3B45B",
"&. c #F4B45A",
"*. c #F4B55C",
"=. c #F5B65E",
"-. c #F5B75E",
";. c #F5B75F",
":. c #F7B85F",
">. c #F8B95F",
",. c #DFB465",
"<. c #F5B760",
"1. c #F6B760",
"2. c #F5B861",
"3. c #F5B862",
"4. c #F6B862",
"5. c #F6BA66",
"6. c #F7BB67",
"7. c #F9BB65",
"8. c #F7BC6A",
"9. c #F7BD6B",
"0. c #F5BC6C",
"q. c #FABE6B",
"w. c #F9BF6C",
"e. c #FBC170",
"r. c #FAC67E",
"t. c #3E9E82",
"y. c #4FAA90",
"u. c #7BB08F",
"i. c #66BAA2",
"p. c #6BB9A2",
"a. c #6CBEA7",
"s. c #73B6A3",
"d. c #79B9A7",
"f. c #70C2AA",
"g. c #79C9B2",
"h. c #83BF9C",
"j. c #94C5A3",
"k. c #85C6B3",
"l. c #8BC9B7",
"z. c #8ECBBA",
"x. c #96C7B9",
"c. c #87D2BC",
"v. c #9FD3B6",
"b. c #A0D4B6",
"n. c #DFC880",
"m. c #EEC480",
"M. c #EDDAB9",
"N. c #F5DAB4",
"B. c #90D2C0",
"V. c #9CDAC8",
"C. c #9DDFCC",
"Z. c #A7CFC4",
"A. c #A7DDC3",
"S. c #B9DBC0",
"D. c #B1D6CC",
"F. c #B5DED3",
"G. c #A6E1D0",
"H. c #A3E5D2",
"J. c #A4E6D3",
"K. c #ACEBD9",
"L. c #ADECDA",
"P. c #B0EAD8",
"I. c #B9F5E4",
"U. c #BAF5E4",
"Y. c #BEF5E5",
"T. c #BFF5E6",
"R. c #C4DED7",
"E. c #CEDFDA",
"W. c #C4E1D8",
"Q. c #F5E7D4",
"!. c #D9E7E1",
"~. c #DEEAE7",
"^. c #C1F5E6",
"/. c #C2F5E7",
"(. c #C4F4E5",
"). c #CAF0E6",
"_. c #C6F5E8",
"`. c #C7F5E8",
"'. c #C8F5E8",
"]. c #CEF5EA",
"[. c #CFF5EA",
"{. c #D4F5EC",
"}. c #D9F5ED",
"|. c #DAF5ED",
" X c #DAF5EE",
".X c #DEF5EE",
"XX c #E0F5EF",
"oX c #E7F5F1",
"OX c #EBF4F1",
"+X c #E8F5F2",
"@X c #EAF5F2",
"#X c #EBF5F2",
"$X c #ECF5F3",
"%X c #EDF5F3",
"&X c #F0F3F2",
"*X c #F1F3F3",
"=X c #F0F5F4",
"-X c #F2F5F4",
";X c gray96",
/* pixels */
"                                                                                                                                ",
"                                                                                                                                ",
"                                                                                                                                ",
"                                                                                                                                ",
"                                                                                                                                ",
"                                                                                                                                ",
"                                                                                                                                ",
"                                                                                                                                ",
"                                                                                                                                ",
"                                                                                                                                ",
"                                                                                                                                ",
"                                                                                                                                ",
"                                                                                                                                ",
"                                                                                                                                ",
"                                                                                                                                ",
"                                                                                                                                ",
"                                                                                                                                ",
"                                                                                                                                ",
"                                                                                                                                ",
"                                                                                                                                ",
"                                                    . . . * * * . . . . .                                                       ",
"                                            . . . . I./.}..X].'.^.{.@X;X;X.                                                     ",
"                                          . .X;X;X;XoXD.W.#X;XoX).C.`.`./.T..                                                   ",
"                                          . }.;X;X;X;Xs.z.%X;X;X#XJ.J.J.L.I..                                                   ",
"                                          . B.x.R.~.Z.p.H.[.OX%XoXf.i.a.k.V..                                                   ",
"                                          . g.t.d.-X&Xl.L.I.(.(.L.y.c.I.{.E.. . * .                                             ",
"                                          .   F.!.Q.M.u.d.b.V.r.K J j.v.S.= 4 3 3 3 .                                           ",
"                                            . . N.0.' Y j U ,._ *.a r.U T . 3 3 3 3 2 .                                         ",
"                                                . 6.} @.k O.4._ *.a r...V . = . . 4 4 .                                         ",
"                                                . 8.{ @.k >.<.{ *.a r...V . .     ; 4 3 .                                       ",
"                                                . 4.} %.D e.4._ *.i :...V .       . 3 3 .                                       ",
"                                                . 4.{ ;.O.q.4._ *.y 8...V .       . 3 3 .                                       ",
"                                                . w._ ;.O.O.<._ *.y <.Q V .       = 4 .                                         ",
"                                                . 8._ ;.O.O.R _ *.p <.f b .     . , 4 .                                         ",
"                                                = w.` ;...o.R _ *.a 4.f n .   . 3 3 =                                           ",
"                                                . 8.` :.o.o.R _ *.a ;.c V .   = 3 =                                             ",
"                                                . w._ ;.| O.R } ;.v 4.g n . : 4 4 .                                             ",
"                                                . w.{ ;.O.O.R +.%.u 4.g n = 4 4 =                                               ",
"                                                . 8.} @.S O.@.{ *.9 <.~ n = 4 =                                                 ",
"                                                . *.R @.k 7.<._ *.8 7.X.C = >                                                   ",
"                                                . 0 V { C e.4._ ! 8 / ) w .                                                     ",
"                                                  . h G ^ w.W G n p S e L .                                                     ",
"                                                    . P q P I t e 7 6 5 .                                                       ",
"                                                      . . . . . . . . .                                                         ",
"                                                                                                                                ",
"                                                                                                                                ",
"                                                                                                                                ",
"                                                                                                                                ",
"                                                                                                                                ",
"                                                                                                                                ",
"                                                                                                                                ",
"                                                                                                                                ",
"                                                                                                                                ",
"                                                                                                                                ",
"                                                                                                                                ",
"                                                                                                                                ",
"                                                                                                                                ",
"                                                                                                                                ",
"                                                                                                                                ",
"                                                                                                                                ",
"                                                                                                                                ",
"                                                                                                                                ",
"                                                                                                                                ",
"                                                                                                                                "
};
