/* XPM */
static char *_16fca8c530a4db0d488888d8f7dc9a7K0MOIWWWsS2sOyre[] = {
/* columns rows colors chars-per-pixel */
"64 64 194 2 ",
"   c #000000",
".  c #02020C",
"X  c #0C0B0B",
"o  c #000012",
"O  c #00011D",
"+  c #000B1D",
"@  c #0D0C19",
"#  c #00121F",
"$  c #19171B",
"%  c #352619",
"&  c #000E20",
"*  c #011521",
"=  c #071821",
"-  c #041927",
";  c #0B1922",
":  c #121021",
">  c #131C23",
",  c #1B1C23",
"<  c #201D23",
"1  c #1D2124",
"2  c #152028",
"3  c #1C2329",
"4  c #0A2B3A",
"5  c #242325",
"6  c #292627",
"7  c #27262A",
"8  c #252A2E",
"9  c #3B2E26",
"0  c #2D3027",
"q  c #343528",
"w  c #3E342E",
"e  c #3C3C2A",
"r  c #262933",
"t  c #2E2F31",
"y  c #2E3033",
"u  c #323234",
"i  c #33383C",
"p  c #3A3B3C",
"a  c #412F1E",
"s  c #4F3410",
"d  c #523925",
"f  c #413730",
"g  c #4A3E34",
"h  c #004900",
"j  c #00470B",
"k  c #005418",
"l  c #1A631B",
"z  c #385C29",
"x  c #026321",
"c  c #1F6522",
"v  c #2D6623",
"b  c #674618",
"n  c #45432D",
"m  c #5F452A",
"M  c #4B4731",
"N  c #574B37",
"B  c #565334",
"V  c #5A5534",
"C  c #5E5936",
"Z  c #654728",
"A  c #79562D",
"S  c #6C4F31",
"D  c #615D38",
"F  c #6B643B",
"G  c #716A3D",
"H  c #3B3E42",
"J  c #394349",
"K  c #444444",
"L  c #48494B",
"P  c #495358",
"I  c #545455",
"U  c #57595B",
"Y  c #675442",
"T  c #6C5543",
"R  c #735D46",
"E  c #7B624B",
"W  c #7B7241",
"Q  c #4D5A61",
"!  c #5D6468",
"~  c #616365",
"^  c #6C6C6B",
"/  c #706E6D",
"(  c #656D72",
")  c #747473",
"_  c #747779",
"`  c #77797A",
"'  c #7D7C7B",
"]  c #825C2E",
"[  c #8D6432",
"{  c #966A34",
"}  c #9E7535",
"|  c #B37B2C",
" . c #A57436",
".. c #A87935",
"X. c #AB7A38",
"o. c #B57D34",
"O. c #B37D39",
"+. c #8B6844",
"@. c #8F6E4E",
"#. c #817844",
"$. c #9A7652",
"%. c #9A795C",
"&. c #A67E57",
"*. c #B7813B",
"=. c #BA823B",
"-. c #C1863D",
";. c #C2883E",
":. c #898450",
">. c #B68751",
",. c #83817E",
"<. c #A78564",
"1. c #AB8664",
"2. c #B19163",
"3. c #BC9A6D",
"4. c #C68545",
"5. c #CA8A4B",
"6. c #C48E50",
"7. c #CF9155",
"8. c #D09156",
"9. c #D3965B",
"0. c #C2966A",
"q. c #D39D61",
"w. c #D99D64",
"e. c #C59B72",
"r. c #CA9C70",
"t. c #CDA177",
"y. c #D2A375",
"u. c #D2A57A",
"i. c #D6AA7C",
"p. c #DAAB7D",
"a. c #E1A76F",
"s. c #E6AC75",
"d. c #E0AE7F",
"f. c #EBB27C",
"g. c #677985",
"h. c #7A7F81",
"j. c #768994",
"k. c #7C8B94",
"l. c #878787",
"z. c #8A8B8C",
"x. c #928F8C",
"c. c #8C9295",
"v. c #959493",
"b. c #9A9796",
"n. c #979899",
"m. c #9B9B9C",
"M. c #A29A94",
"N. c #A79E98",
"B. c #A5A19E",
"V. c #BBA594",
"C. c #A8A7A7",
"Z. c #B1AEAB",
"A. c #B6B1AD",
"S. c #B5B5B6",
"D. c #BBB6B2",
"F. c #BDB8B4",
"G. c #BBBBBC",
"H. c #DDAE80",
"J. c #C5AA94",
"K. c #D0AF94",
"L. c #D8B393",
"P. c #E5B384",
"I. c #E8B686",
"U. c #EEB884",
"Y. c #EDBB89",
"T. c #F2BA85",
"R. c #F4BE8A",
"E. c #E0B793",
"W. c #E4BA94",
"Q. c #EBBD93",
"!. c #C1BCB7",
"~. c #F6C18E",
"^. c #F9C28D",
"/. c #F4C293",
"(. c #FCC692",
"). c #FFC994",
"_. c #FFCE98",
"`. c #FFD29A",
"'. c #C6C1BC",
"]. c #C4C4C4",
"[. c #CDC7C2",
"{. c #CEC8C3",
"}. c #CACACB",
"|. c #D1CBC6",
" X c #D4CEC9",
".X c #D9D3CD",
"XX c #CFCFD1",
"oX c #D0D0D2",
"OX c #D7D8D8",
"+X c #DCDCDD",
"@X c #E1E1E2",
"#X c #EBEBED",
"$X c #F4F4F4",
"%X c #FFFFFF",
/* pixels */
"6 6 6 6 6 6 6 6 6 6 6 6 6 u 6 6 oXoXXX#X#X#X#X#X%X%X#X%X%X%X%X#X6 6 6 6 6 6 6 6 6 6 6 6 6 u 6 6 oXoXoX#X#X#X#X#X%X%X#X%X%X%X%X#X",
"6 6 6 6 6 6 6 6 6 6 6 6 u 6 6 6 oXoX#X#X#X#X#X%X%X#X%X%X%X%X#X%X6 6 6 6 6 6 6 6 6 6 6 6 u 6 6 6 oXoX#X#X#X#X#X%X%X#X%X%X%X%X#X%X",
"6 6 6 6 6 6 6 6 6 6 6 u 6 6 6 6 oX#X#X#X#X#X%X%X#X%X%X%X%X#X%X%X6 6 6 6 6 6 6 6 6 6 6 u 6 6 6 6 oX#X#X#X#X#X%X%X#X%X%X%X%X#X%X%X",
"6 6 6 6 6 6 6 6 6 6 u 6 6 6 6 6 #X#X#X#X#X%X%X#X%X%X%X%X#X%X%X%X6 6 6 6 6 6 6 6 6 6 u 6 6 6 6 6 #X#X#X#X#X%X%X#X%X%X%X%X#X%X%X%X",
"6 6 6 6 6 6 6 6 6 u 6 6 6 6 6 u #X#X#X#X%X%X#X%X%X%X%X#X%X%X%X%X6 6 6 6 6 6 6 6 6 u 6 6 6 6 6 u #X#X#X#X%X%X#X%X%X%X%X#X%X%X%X%X",
"6 6 6 6 6 6 6 6 u 6 6 6 6 6 u u #X#X#X%X%X#X%X%X%X%X#X%X%X%X%X%X6 6 6 6 6 6 6 6 u 6 6 6 6 6 u u #X#X#X%X%X#X%X%X%X%X#X%X%X%X%X%X",
"6 6 6 6 6 6 6 u 6 6 6 6 6 u u u #X#X%X%X#X%X%X%X%X#X%X%X%X%X%X%X6 6 6 6 6 6 6 u 6 6 6 6 6 u u u #X#X%X%X#X%X%X%X%X#X%X%X%X%X%X%X",
"6 6 6 6 6 6 u 6 6 6 6 6 u u u u #X%X%X#X%X%X%X%X#X%X%X%X%X%X%X%X6 6 6 6 6 6 u 6 6 6 6 6 u u u u #X%X%X#X%X%X%X%X#X%X%X%X%X%X%X%X",
"6 6 6 6 6 u 6 6 6 6 6 u u u u u %X%X#X%X%X%X%X#X%X%X%X%X%X%X%X%X6 6 6 6 6 u 6 6 6 6 6 u u u u u %X%X#X%X%X%X%X#X%X%X%X%X%X%X%X%X",
"6 6 6 6 u 6 6 6 6 6 u u u u u K %X#X%X%X%X%X#X%X%X%X%X%X%X%X%X%X6 6 6 6 u 6 6 6 6 6 u u u u u K %X#X%X%X%X%X#X%X%X%X%X%X%X%X%X%X",
"6 6 6 u 6 6 6 6 6 u u u u u K K #X%X%X%X%X#X%X%X%X%X%X%X%X%X%X%X6 6 6 u 6 6 6 6 6 u u u u u K K #X%X%X%X%X#X%X%X%X%X%X%X%X%X%X%X",
"6 6 u 6 6 6 6 6 u u u u u K K u %X%X%X%X#X%X$X$X#X#X@XoX#X%X%X%X6 6 u 6 6 6 6 6 u u u u u K K u %X%X%X%X#X%X%X%X%X%X%X%X%X%X%X%X",
"6 u 6 6 6 6 6 u u u u u K K u K %XOXC.z.' ! L , # + O o ].%X%X%X6 u 6 6 6 6 6 u u u u u K K u K %X%X%X#X%X%X%X%X%X%X%X%X%X%X%X%X",
"u 6 6 6 6 6 u u u u u K K u K K %XG.        o & q N R @.V.}.S.n.8 6 6 6 6 6 u u u u u K K u K K %X%X#X%X%X%X%X%X%X%X%X%X%X%X%X%X",
"6 6 6 6 6 u u u u u K K u K p p oXN.u.p.P.Y.R.).)._._.`.I.E   > ; 1 6 6 6 u u u u u K K u K K K %X#X%X%X%X%X%X%X%X%X%X%X%X%X%X#X",
"6 6 6 6 u u u u u K K u K y ; O w i._._.).).).).).).).)._.(.%.    > > 6 u u t u u K K u K K K K #X%X%X%X%X%X%X%X%X%X%X%X%X%X#X%X",
"XXXXXX#X#X#X#X#X%X%X#X%X+X+ : 5 r._.).).(.(.).).^.).).).).).^.y.r.  2 z ; i K p @X}.G.%X%X%X%X#X6 6 6 6 6 6 6 6 6 6 6 6 6 u 6 6 ",
"oXoX#X#X#X#X#X%X%X#X%X#X, Y R <.`.).).).).).(.).).).).).).).)._.(.  . J  X|.{.U / `   F.%X%X#X%X6 6 6 6 6 6 6 6 6 6 6 6 u 6 6 6 ",
"oX#X#X#X#X#X$Xl.^ U J # M _._._.)._._._._.).).).).).^.T.).).^.).).I.T.- |.'.{.|..X Xx.  m.#X%X%X6 6 6 6 6 6 6 6 6 6 6 u 6 6 6 6 ",
"#X#X#X#XS.S.n.  D.!.. = g ).).).).a.w.w.9.).).).).^.7.9.).).).).)._.).< [.|.{.{.{.[. XB.8 %X%X%X6 6 6 6 6 6 6 6 6 6 u 6 6 6 6 6 ",
"#X#X#XG.  v.B.Z.|.|.8 O ).).).).).s.f.U.R.8.5.5.5.5.~.T.^.).).).(.(._.a '.{.{.{.{.{.{..Xy ` $X%X6 6 6 6 6 6 6 6 6 u 6 6 6 6 6 u ",
"#X#X}.  ,.|.|.|.{.}.4 ^.).(.).).).f.a.w.9.R.(.).).).9.7.^.).).).).).).Z D.|.{.{.{.{.[.|.D.L #X%X6 6 6 6 6 6 6 6 u 6 6 6 6 6 u u ",
"#X#XL ^ [.|.{.{.[. XJ U.).).).).).s.s.U.T.w.5.5.5.4.^._.).).).).).)._.R Z.{.{.{.{.{.{.{..X/ +X%X6 6 6 6 6 6 6 u 6 6 6 6 6 u u u ",
"#X$X^ F.|.{.{.{.[. XQ d.).).).).).)._.).).(.R.).).).).).).).).).).).).@.C.|.{.{.{.{.{.{. X' XX%X6 6 6 6 6 6 u 6 6 6 6 6 u u u u ",
"%Xl.L D.{.{.{.{.{. X( u.).).).).).).).).).).).).).).).).).).).).).)._.&.v. X{.{.{.{.|. X.Xx.'.%X6 6 6 6 6 u 6 6 6 6 6 u u u u u ",
"%Xm.C. X{.{.{.{.{. Xh.0.).).).).).).).).).).).^.).).(.).)./.K.V.L.)._.2.l. X{.{.{.|.D.l.,.I C.%X6 6 6 6 u 6 6 6 6 6 u u u u u K ",
"#XF.x. X{.{.{.{.{. Xz.1._.).).R.L.L.W.).).).).).(.).).)./.V.j.M.R.).).r._  X{.{.|. XB.) OXOX$X%X6 6 6 u 6 6 6 6 6 u u u u u K K ",
"%X}.) !.|.{.{.{.{.|.N.$._.).).W.M.j.M.E.).).).).).).).(.K.k.M./.).).).p.!  X'.F.Z.D.A.z.%X%X%X%X6 6 u 6 6 6 6 6 u u u u u K K u ",
"%X+XI / .X|.{.{.{.{.C.+._.).).)./.V.c.v.K._.).).).(.).Q.k.b.E.).).).).P.  .   S Z L '.) %X%X%X%X6 u 6 6 6 6 6 u u u u u K K u K ",
"%X%XOXI B.B. X X X.XF.S _.).).).).).J.c.v.V.).).).).).W.v.N.).).).).).R.  & N `./.4 m.U %X%X%X%Xu 6 6 6 6 6 u u u u u K K u K K ",
"%X#X$Xz.B.K [./ P J H N _.).).).).).).c.n.N.).).).).R.g.` ` ).).).).)./.o * w _.(.o   ; %X%X%X#X6 6 6 6 6 u u u u u K K u K K K ",
"#X%X%X%X%XH {.  P.I.. w ).).).).).).^.U I   ).).(.).).      ).).).).).).= = * Y.P.> Z.G.%X%X#X%X6 6 6 6 u u u u u K K u K K K K ",
"6 6 6 6 6 2 l.> _.).# ; ).).).).).).).      ).).).).)._._._.).).(.).).).w * ; X X > 6 6 6 u 6 6 oXoXoX#X#X#X#X#X%X%X#X%X%X%X%X#X",
"6 6 6 6 6 ;   o ).`.w o ^.).).).).).).u.p.P.).^.).(.).(.(.).).).(.).)._.N & = 6 6 6 6 6 u 6 6 6 oXoX#X#X#X#X#X%X%X#X%X%X%X%X#X%X",
"6 6 6 6 6 1 5 O E T 1   R.).).).).).).)._.).).).(.).).).).).).).).).).`.R O 6 6 6 6 6 u 6 6 6 6 oX#X#X#X#X#X%X%X#X%X%X%X%X#X%X%X",
"6 6 6 6 6 6 6 5 5 5 ;   P.).).).).).).).).).).).(.(.(.).(.).).).)._.1.g 6 6 6 6 6 6 u 6 6 6 6 6 #X#X#X#X#X%X%X#X%X%X%X%X#X%X%X%X",
"6 6 6 6 6 6 6 6 6 u 6 $   p.).).).(.).).).)._.<.o   e.).).).).)._.e.* O = < 6 6 6 u 6 6 6 6 6 u #X#X#X#X%X%X#X%X%X%X%X#X%X%X%X%X",
"6 6 6 6 6 6 6 6 u 6 6 5 $ e.).).).).(.).)._.3.o + w ; t.).).).).`.1.b =.A , 6 6 u 6 6 6 6 6 u u #X#X#X%X%X#X%X%X%X%X#X%X%X%X%X%X",
"6 6 6 6 6 6 6 u 6 6 6 6 1   1.I.R._.).).)._.3.h 3._._.).).)._.I.%.+.O.-.[ O = 5 6 6 6 6 6 u u u #X#X%X%X#X%X%X%X%X#X%X%X%X%X%X%X",
"6 6 6 6 6 6 u 6 6 6 5 + 5 f %   $.t.p._.).`.i.h 2._.).).)._.Q.+.  X.=.=.{ & = , 6 6 6 6 u u u u #X%X%X#X%X%X%X%X#X%X%X%X%X%X%X%X",
"6 6 6 6 6 u 6 6 6 5   $.`.U.| ;. .  p y.`.Y.l :.).).).(.H.i.<.   .=.=.=. .& : > 5 6 6 u u u u u %X%X#X%X%X%X%X#X%X%X%X%X%X%X%X%X",
"6 6 6 6 u 6 6 6 6 . R _.).T.| =.=.O.Z - %.R E _.).(.~.i.  s b { =.=.=.=. .& * = ; 6 u u u u u K %X#X%X%X%X%X#X%X%X%X%X%X%X%X%X%X",
"6 6 6 u 6 6 6 6 @ g ^.).).R.>.*.=.=.*.] j k z f 3 + . s ;.-.-.=.=.O.=.=.O.O = = ; u u u u u K K #X%X%X%X%X#X%X%X%X%X%X%X%X%X%X%X",
"6 6 u 6 6 6 6 $ # R.).).).).^.6.o.*.=.*.c v v O.O.=.=.-.=.O.=.O.=.=.*.*.O.& = = = u u u u K K u %X%X%X%X#X%X%X%X%X%X%X%X%X%X%X%X",
"6 u 6 6 6 6 5 6 P.).).).).).)._.q.*.=.=.x x *.*.O.4.O.=.*.=.=.=.=.-.=.-.=., = = = u u u K K u K %X%X%X#X%X%X%X%X%X%X%X%X%X%X%X%X",
"u 6 6 6 6 6 u + ).).).).).).).).P.=.=.=.} ..*.*.O.-.=.=.=.=.{ ] S Z d a 6 ; = = = t u K K u K K %X%X#X%X%X%X%X%X%X%X%X%X%X%X%X%X",
"6 6 6 6 6 u u X ).).).).).)./.I.O *.=.=.;.=.=.=.O.O.O. . .} ; n V F F G G q # = = t K K u K K K %X#X%X%X%X%X%X%X%X%X%X%X%X%X%X#X",
"6 6 6 6 u u u O E ~.).).).).N $ l.$.[ A A m d 9 < & & & O & O F W G W G #.e & = = p K u K K K K #X%X%X%X%X%X%X%X%X%X%X%X%X%X#X%X",
"oXoXoX#X#X#X#XXXI Y N f > . #X#X6 : O & & & # * = = = = = = O F W G G W W n r I ~ OX#X%X%X%X%X#X6 6 6 6 6 6 6 6 6 6 6 6 6 u 6 6 ",
"oXoX#X#X#X#X#X%X#XoX#X$X%X%X#X%X6 , & O O O O # = = ; ; 3 ; O C W W W W W M S.%X%X#X%X%X%X%X#X%X6 6 6 6 6 6 6 6 6 6 6 6 u 6 6 6 ",
"oX#X#X#X#X#X%X%X#X%X%X%X%X#X%X%X6 , e C D D G N O 1 6 u 6 1 O V #.W W W #.B S.%X#X%X%X%X%X#X%X%X6 6 6 6 6 6 6 6 6 6 6 u 6 6 6 6 ",
"#X#X#X#X#X%X%X#X%X%X%X%X#X%X%X%X6 $ B #.W #.#.D O , u 6 6 , * q M n e 0 5 ; n.@X%X%X%X%X#X%X%X%X6 6 6 6 6 6 6 6 6 6 u 6 6 6 6 6 ",
"#X#X#X#X%X%X#X%X%X%X%X#X%X%X%X%X6 < q N M e q 1 = 3 6 6 6 5 , 7 G.}.oX+X$X%X#X%X%X%X%X#X%X%X%X%X6 6 6 6 6 6 6 6 6 u 6 6 6 6 6 u ",
"#X#X#X%X%X#X%X%X%X%X#X%X%X%X%X%X6 5 , , < 5 5 6 u 6 6 6 6 6 u u #X#X#X%X%X#X%X%X%X%X#X%X%X%X%X%X6 6 6 6 6 6 6 6 u 6 6 6 6 6 u u ",
"#X#X%X%X#X%X%X%X%X#X%X%X%X%X%X%X6 6 6 6 6 6 6 u 6 6 6 6 6 u u u #X#X%X%X#X%X%X%X%X#X%X%X%X%X%X%X6 6 6 6 6 6 6 u 6 6 6 6 6 u u u ",
"#X%X%X#X%X%X%X%X#X%X%X%X%X%X%X%X6 6 6 6 6 6 u 6 6 6 6 6 u u u u #X%X%X#X%X%X%X%X#X%X%X%X%X%X%X%X6 6 6 6 6 6 u 6 6 6 6 6 u u u u ",
"%X%X#X%X%X%X%X#X%X%X%X%X%X%X%X%X6 6 6 6 6 u 6 6 6 6 6 u u u u u %X%X#X%X%X%X%X#X%X%X%X%X%X%X%X%X6 6 6 6 6 u 6 6 6 6 6 u u u u u ",
"%X#X%X%X%X%X#X%X%X%X%X%X%X%X%X%X6 6 6 6 u 6 6 6 6 6 u u u u u K %X#X%X%X%X%X#X%X%X%X%X%X%X%X%X%X6 6 6 6 u 6 6 6 6 6 u u u u u K ",
"#X%X%X%X%X#X%X%X%X%X%X%X%X%X%X%X6 6 6 u 6 6 6 6 6 u u u u u K K #X%X%X%X%X#X%X%X%X%X%X%X%X%X%X%X6 6 6 u 6 6 6 6 6 u u u u u K K ",
"%X%X%X%X#X%X%X%X%X%X%X%X%X%X%X%X6 6 u 6 6 6 6 6 u u u u u K K u %X%X%X%X#X%X%X%X%X%X%X%X%X%X%X%X6 6 u 6 6 6 6 6 u u u u u K K u ",
"%X%X%X#X%X%X%X%X%X%X%X%X%X%X%X%X6 u 6 6 6 6 6 u u u u u K K u K %X%X%X#X%X%X%X%X%X%X%X%X%X%X%X%X6 u 6 6 6 6 6 u u u u u K K u K ",
"%X%X#X%X%X%X%X%X%X%X%X%X%X%X%X%Xu 6 6 6 6 6 u u u u u K K u K K %X%X#X%X%X%X%X%X%X%X%X%X%X%X%X%Xu 6 6 6 6 6 u u u u u K K u K K ",
"%X#X%X%X%X%X%X%X%X%X%X%X%X%X%X#X6 6 6 6 6 u u u u u K K u K K K %X#X%X%X%X%X%X%X%X%X%X%X%X%X%X#X6 6 6 6 6 u u u u u K K u K K K ",
"#X%X%X%X%X%X%X%X%X%X%X%X%X%X#X%X6 6 6 6 u u u u u K K u K K K K #X%X%X%X%X%X%X%X%X%X%X%X%X%X#X%X6 6 6 6 u u u u u K K u K K K K "
};
