/* XPM */
static char *cc87eefc84db4b4ac66b25438b50bba3ItH0KpVzs4q9efRM[] = {
/* columns rows colors chars-per-pixel */
"64 64 25 1 ",
"  c #071821",
". c #272526",
"X c #282627",
"o c #292627",
"O c #313133",
"+ c #323234",
"@ c #316523",
"# c #434343",
"$ c #444444",
"% c #787040",
"& c #B8813B",
"* c #C9894A",
"= c gray58",
"- c #FFC893",
"; c #C4C5C7",
": c #CEC8C3",
"> c #CDCDCF",
", c #CECED0",
"< c #D0D0D2",
"1 c #E4E4E6",
"2 c #E7E7E9",
"3 c #EBEBED",
"4 c #F8F8F8",
"5 c #FBFBFC",
"6 c white",
/* pixels */
"ooooooooooooo+oo<<<3333366366663ooooooooooooo+oo<<<3333366366663",
"oooooooooooo+ooo<<33333663666636oooooooooooo+ooo<<33333663666636",
"ooooooooooo+oooo<333336636666366ooooooooooo+oooo<333336636666366",
"oooooooooo+ooooo3333366366663666oooooooooo+ooooo3333366366663666",
"ooooooooo+ooooo+3333663666636666ooooooooo+ooooo+3333663666636666",
"oooooooo+ooooo++3336636666366666oooooooo+ooooo++3336636666366666",
"ooooooo+ooooo+++3366366663666666ooooooo+ooooo+++3366366663666666",
"oooooo+ooooo++++3663666636666666oooooo+ooooo++++3663666636666666",
"ooooo+ooooo+++++6636666366666666ooooo+ooooo+++++6636666366666666",
"oooo+ooooo+++++$6366663666465444ooooOooooo+++++$6366663666666666",
"ooo+ooooo+++++$$3666636666           oooo+++++$$3666636666666666",
"oo+ooooo+++++$$+666636666             oo+++++$$+6666366666666666",
"o+ooooo+++++$$+$66634     -----------     ++$$+$6663666666666666",
"+ooooo+++++$$+$$6636     -------------     $$+$$6636666666666666",
"ooooo+++++$$+$$$6366  -------------------  $+$$$6366666666666663",
"oooo+++++$$+$$$       -------------------       3666666666666636",
"<<<33333663666  ::   ---------------------   ::  oooooooooooo+oo",
"<<3333366366   ::: -------***-----***------- :::   ooooooooo+ooo",
"<33333663666 ::::: ----------*****---------- ::::: oooooooo+oooo",
"3333366366   ::::: -------***-----***------- :::::   ooooo+ooooo",
"333366366  ::::::: ----------*****---------- :::::::  ooo+ooooo+",
"333663666 :::::::: ------------------------- :::::::: oo+ooooo++",
"336636666 :::::::: ------------------------- :::::::: o+ooooo+++",
"366366663 :::::::: ------------------------- :::::::: +ooooo++++",
"663666636 :::::::: ----===-----------===---- :::::::: ooooo+++++",
"636666366  ::::::: -----===---------===----- :::::::  oooo+++++$",
"3666636666   ::::: ------===-------===------ :::::   oooo+++++$$",
"666636666666 :     -------===-----===-------     : ooooo+++++$$+",
"666366666666 : --  -------===-----===-------  -- : oooo+++++$$+$",
"663666666666   --  -------   -----   -------  -- : ooo+++++$$+$$",
"636666666666   --  -------   -----   -------  --   oo+++++$$+$$$",
"36666666666666     -------------------------     ooo+++++$$+$$$$",
"ooooooooooooo+oo>  -------------------------  .o<<<3333366366663",
"oooooooooooo+ooo<,  -----------------------  ooo<<33333663666636",
"ooooooooooo+oooo<333 ---------   --------- +oooo<333336636666366",
"oooooooooo+ooooo3333  -------     -------  ooooo3333366366663666",
"ooooooooo+ooooo+333 && ------@@--------- && ooo+3333663666636666",
"oooooooo+ooooo++3   &&& ----@@@-------- &&&   ++3336636666366666",
"ooooooo+ooooo+++3 &&&&&  ---@@--------  &&&&& ++3366366663666666",
"oooooo+ooooo++++  &&&&&&     -----     &&&&&&  +3663666636666666",
"ooooo+ooooo++++  &&&&&&&&&&&&     &&&&&&&&&&&&  6636666366666666",
"oooo+ooooo+++++ &&&&&&&&&&&@@&&&&&&&&&&&&&&&&&& 6366663666666666",
"ooo+ooooo+++++       &&&&&@@@&&&&&&&&&&&&&       666636666666666",
"oo+ooooo+++++# ----- &&&&&@@@&&&&&&&&&&&&& ----- 466366666666666",
"o+ooooo+++++$$ ----- &&&&&@&&&&&&&&&&&&&&& ----- 663666666666666",
"+ooooo+++++$$+ ----- &&&&&&&&&&&&&&&&&&&&& ----- 636666666666666",
"ooooo+++++$$+$ -----                       ----- 266666666666663",
"oooo+++++$$+$$ ----                         ---- 366666666666636",
"<<<33333663666      %%%%%%  .+oo<<;  %%%%%%      oooooooooooo+oo",
"<<33333663666636ooo %%%%%% o+ooo<<31 %%%%%% 6636oooooooooooo+ooo",
"<333336636666366ooo %%%%%% +oooo<331 %%%%%% 6366ooooooooooo+oooo",
"3333366366663666ooo %%%%%% ooooo3333 %%%%%% 3666oooooooooo+ooooo",
"3333663666636666ooo        oooo+3333        6666ooooooooo+ooooo+",
"3336636666366666oooo      oooo++33366      66666oooooooo+ooooo++",
"3366366663666666ooooooo+ooooo+++3366366663666666ooooooo+ooooo+++",
"3663666636666666oooooo+ooooo++++3663666636666666oooooo+ooooo++++",
"6636666366666666ooooo+ooooo+++++6636666366666666ooooo+ooooo+++++",
"6366663666666666oooo+ooooo+++++$6366663666666666oooo+ooooo+++++$",
"3666636666666666ooo+ooooo+++++$$3666636666666666ooo+ooooo+++++$$",
"6666366666666666oo+ooooo+++++$$+6666366666666666oo+ooooo+++++$$+",
"6663666666666666o+ooooo+++++$$+$6663666666666666o+ooooo+++++$$+$",
"6636666666666666+ooooo+++++$$+$$6636666666666666+ooooo+++++$$+$$",
"6366666666666663ooooo+++++$$+$$$6366666666666663ooooo+++++$$+$$$",
"3666666666666636oooo+++++$$+$$$$3666666666666636oooo+++++$$+$$$$"
};
