/* XPM */
static char *_24326844ecf4ac8d75203c8a100add4qkP9H9TcguTvrgFp[] = {
/* columns rows colors chars-per-pixel */
"64 64 195 2 ",
"   c #000001",
".  c #0A0000",
"X  c #00000D",
"o  c #0A0909",
"O  c #000012",
"+  c #0E0E11",
"@  c #00011D",
"#  c #000B1E",
"$  c #110F10",
"%  c #07141F",
"&  c #141314",
"*  c #18171A",
"=  c #1C1B1C",
"-  c #211F1F",
";  c #0F2F0B",
":  c #3A291A",
">  c #000320",
",  c #000D20",
"<  c #011520",
"1  c #091720",
"2  c #071821",
"3  c #0A1921",
"4  c #161627",
"5  c #131C24",
"6  c #1C1E23",
"7  c #1E2124",
"8  c #1C242A",
"9  c #0B2A38",
"0  c #252325",
"q  c #292627",
"w  c #262829",
"e  c #2B2A2C",
"r  c #372B23",
"t  c #322D2A",
"y  c #343329",
"u  c #3D342E",
"i  c #3C3C2B",
"p  c #2C2D32",
"a  c #2C3033",
"s  c #323234",
"d  c #34383C",
"f  c #3C3D3F",
"g  c #543816",
"h  c #4C3724",
"j  c #483D36",
"k  c #004E00",
"l  c #005A00",
"z  c #0B6321",
"x  c #2A6722",
"c  c #3B6624",
"v  c #644315",
"b  c #46432D",
"n  c #48462E",
"m  c #5D4328",
"M  c #4A4632",
"N  c #524834",
"B  c #5B4A3B",
"V  c #595635",
"C  c #694927",
"Z  c #78542C",
"A  c #6A4E31",
"S  c #635A39",
"D  c #5B6C28",
"F  c #706E2B",
"G  c #6A643B",
"H  c #736C3E",
"J  c #263C47",
"K  c #30444F",
"L  c #444444",
"P  c #43474A",
"I  c #4C4C4D",
"U  c #494D50",
"Y  c #495055",
"T  c #525659",
"R  c #5B5C5C",
"E  c #6A5644",
"W  c #745D48",
"Q  c #7D634D",
"!  c #767246",
"~  c #7B7341",
"^  c #61605F",
"/  c #5D5F62",
"(  c #5A6266",
")  c #676868",
"_  c #706E6D",
"`  c #6F6F74",
"'  c #6D7478",
"]  c #777778",
"[  c #7B7A79",
"{  c #855C2E",
"}  c #8E6E2E",
"|  c #8D6331",
" . c #956933",
".. c #9B6C35",
"X. c #B47B2B",
"o. c #A37235",
"O. c #AC7837",
"+. c #B37C33",
"@. c #B37E3A",
"#. c #836447",
"$. c #926E49",
"%. c #817844",
"&. c #96724D",
"*. c #866A50",
"=. c #997859",
"-. c #A17F5F",
";. c #B6813B",
":. c #BA823B",
">. c #C1863D",
",. c #BF8847",
"<. c #AC835B",
"1. c #84817F",
"2. c #A78362",
"3. c #A98564",
"4. c #B08B67",
"5. c #BD9267",
"6. c #BFA16E",
"7. c #C68544",
"8. c #C9894B",
"9. c #CD8F52",
"0. c #C69052",
"q. c #D09257",
"w. c #D29459",
"e. c #D69C62",
"r. c #DA9E65",
"t. c #C59B73",
"y. c #CB9D71",
"u. c #C0A26F",
"i. c #DEA36B",
"p. c #CDA075",
"a. c #CDA976",
"s. c #D3A67A",
"d. c #D6A87C",
"f. c #DAAB7D",
"g. c #E6AC76",
"h. c #ECB37D",
"j. c #697B86",
"k. c #7E8285",
"l. c #7A8A94",
"z. c #878685",
"x. c #8B8C8D",
"c. c #928F8C",
"v. c #8E8F92",
"b. c #8E9194",
"n. c #949392",
"m. c #9A9694",
"M. c #9B9998",
"N. c #A29A94",
"B. c #A59E98",
"V. c #A1A09F",
"C. c #BEA694",
"Z. c #9E9FA1",
"A. c #9FA0A2",
"S. c #A3A4A5",
"D. c #ABA8A5",
"F. c #B7B2AE",
"G. c #B2B2B2",
"H. c #BAB6B2",
"J. c #BCBABA",
"K. c #DEAE81",
"L. c #C9AC94",
"P. c #D0AF94",
"I. c #D3B194",
"U. c #DCB593",
"Y. c #E4B383",
"T. c #EBB785",
"R. c #EEBB89",
"E. c #F4BB86",
"W. c #F4BE8B",
"Q. c #E6BB94",
"!. c #ECBE93",
"~. c #C1BCB8",
"^. c #F7C38E",
"/. c #F9C18D",
"(. c #F3C293",
"). c #FCC692",
"_. c #FFC994",
"`. c #FFCE98",
"'. c #FFD29A",
"]. c #C7C2BD",
"[. c #C9C3BE",
"{. c #C4C4C5",
"}. c #CCC6C1",
"|. c #CEC8C3",
" X c #CBCBCC",
".X c #D1CBC6",
"XX c #D4CEC9",
"oX c #D7D0CB",
"OX c #DAD3CE",
"+X c #D0D0D2",
"@X c #DBDBDC",
"#X c #E3E3E4",
"$X c #EBEBED",
"%X c #F5F5F5",
"&X c #FFFFFF",
/* pixels */
"q q q q q q q q q q q q q s q q +X+X+X$X$X$X$X$X&X&X$X&X&X&X&X$Xq q q q q q q q q q q q q s q q +X+X+X$X$X$X$X$X&X&X$X&X&X&X&X$X",
"q q q q q q q q q q q q s q q q +X+X$X$X$X$X$X&X&X$X&X&X&X&X$X&Xq q q q q q q q q q q q s q q q +X+X$X$X$X$X$X&X&X$X&X&X&X&X$X&X",
"q q q q q q q q q q q s q q q q +X$X$X$X$X$X&X&X$X&X&X&X&X$X&X&Xq q q q q q q q q q q s q q q q +X$X$X$X$X$X&X&X$X&X&X&X&X$X&X&X",
"q q q q q q q q q q s q q q q q $X$X$X$X$X&X&X$X&X&X&X&X$X&X&X&Xq q q q q q q q q q s q q q q q $X$X$X$X$X&X&X$X&X&X&X&X$X&X&X&X",
"q q q q q q q q q s q q q q q s $X$X$X$X&X&X$X&X&X&X&X$X&X&X&X&Xq q q q q q q q q s q q q q q s $X$X$X$X&X&X$X&X&X&X&X$X&X&X&X&X",
"q q q q q q q q s q q q q q s s $X$X$X&X&X$X&X&X&X&X$X&X&X&X&X&Xq q q q q q q q s q q q q q s s $X$X$X&X&X$X&X&X&X&X$X&X&X&X&X&X",
"q q q q q q q s q q q q q s s s $X$X&X&X$X&X&X&X&X$X&X&X&X&X&X&Xq q q q q q q s q q q q q s s s $X$X&X&X$X&X&X&X&X$X&X&X&X&X&X&X",
"q q q q q q s q q q q q s s s s $X&X&X$X&X&X&X&X$X&X&X&X&X&X&X&Xq q q q q q s q q q q q s s s s $X&X&X$X&X&X&X&X$X&X&X&X&X&X&X&X",
"q q q q q s q q q q q s s s s s &X&X$X&X&X&X&X$X&X&X&X&X&X&X&X&Xq q q q q s q q q q q s s s s s &X&X$X&X&X&X&X$X&X&X&X&X&X&X&X&X",
"q q q q s q q q q q s s s s s L &X$X&X&X&X&X$X&X&X&X&X&X&X&X&X&Xq q q q s q q q q q s s s s s L &X$X&X&X&X&X$X&X&X&X&X&X&X&X&X&X",
"q q q s q q q q q s s s s s L L $X&X&X&X&X$X&X&X&X&X&X&X&X&X&X&Xq q q s q q q q q s s s s s L L $X&X&X&X&X$X&X&X&X&X&X&X&X&X&X&X",
"q q s q q q q q s s s s s L L s &X&X&X&X$X&X&X&X&X&X&X&X&X&X&X&Xq q s q q q q q s s s s s L L s &X&X&X&X$X&X&X&X&X&X&X&X&X&X&X&X",
"q s q q q q q s s s s s L L s L &X&X&X$X&X&X&X&X&X&X&X&X&X&X&X&Xq s q 0 7 0 q p s s s s L L s L &X&X&X$X&X&X&X&X&X&X&X&X&X&X&X&X",
"s q q q q q s s s s s L L s L L &X&X$X&X&X&X&X&X&X&X&X&X&X&X&X&Xs q q * O @ , < 1 3 5 8 w 8 f L &X&X$X&X&X&X&X&X&X&X&X&X&X&X&X&X",
"q q q q q s s s s s L L s L L L &X$X&X&X&X&X&X&X&X&X&X&X&X&X&XJ.6 0 = Q *.E N t # X         s L &X$X&X&X&X&X&X&X&X&X&X&X&X&X&X$X",
"q q q q s s s s s L L s L L L L $X&X&X&X&X&X&X&X&X&X&X&X&X&XA.d 5   *.R.'.`.`._.).^.W.Y.K.s.E s {.@X%X&X&X&X&X&X&X&X&X&X&X&X$X&X",
"+X+X+X$X$X$X$X$X&X&X$X&X&X&X&X$Xq q q q q q q q q q q q q 8 5     -./._._._._.)._._._._._.`.s.t @ 3 7 q q q q q q q q q q s q q ",
"+X+X$X$X$X$X$X&X&X$X&X&X&X&X$X&Xq q q q q 0 = 0 O d 8 X % % X p.t._.`._._.)._._.)._._.)._._.`.t.3 O @ 0 q q q q q q q q s q q q ",
"+X$X$X$X$X$X&X&X$X&X&X&X&X$X&X&Xq q q q 0   _ ^ P |.|.|.a     ).`._.)._._._._._._._._._._._._.`.2.*.W 6 q q q q q q q s q q q q ",
"$X$X$X$X$X&X&X$X&X&X&X&X$X&X&X&Xq q q 6   z.XXXXoX|.|.|.* (.Y._._.)._._.E.W.)._.)._._._.`.`._._.`.`.'.q < 3   o 3 q s q q q q q ",
"$X$X$X$X&X&X$X&X&X&X&X$X&X&X&X&Xq q q a m.XX|.|.|.|.|.[.: _.`./._._._.).w.q./._._._.`.q.w.i.g._._._._.M % 5 {.~.  & & 6 q q q s ",
"$X$X$X&X&X$X&X&X&X&X$X&X&X&X&X&Xq q & L OX|.|.|.|.|.|.~.h `._._._.)._.).W.W.8.8.8.8.w.^.E.h.g.`._._._._.@ d |.|.H.D.B.  7 q s s ",
"$X$X&X&X$X&X&X&X&X$X&X&X&X&X&X&Xq - I D..X|.|.|.|.|. XG.A `._._._._._./.9.e._.)._._.E.w.i.i.g._./._._._.W.J XX|.XX.X.Xz.  p s s ",
"$X&X&X$X&X&X&X&X$X&X&X&X&X&X&X&Xq - ] OX|.|.|.|.|.|.XXD.| `._._._.)._._.`.W.7.8.8.8.r.E.h.g.h._._._._._.Y.Y XX|.|..X.X[.] + s s ",
"&X&X$X&X&X&X&X$X&X&X&X&X&X&X&X&Xq = 1.XX[..X|..X[.[.XXV.&.`._._.)._._._.)._._._./././.`._.`._._._._._._.K.( XX}.|.|.|..XF.$ e s ",
"&X$X&X&X&X&X$X&X&X&X&X&X&X&X&X&Xq = m.OXXX.X[..X.X.XXXc.<.`._._._._._._._._._._._._._._._.)._._._._._._.y.' XX.X|.|.|..XH.R = L ",
"$X&X&X&X&X$X&X&X&X&X&X&X&X&X&X&Xq & ^ c.m.~.|.|.|.|.oXk.5.`._.U.L.I.(._._._._.)._._._._._._._._.)._._.`.5.z.XX}.|.|.|..XoXB.e L ",
"&X&X&X&X$X&X&X&X&X&X&X&X&X&X&X&Xq q q = o V.oX|.|.}.XX' p.`._.!.m.l.L.)._.)._._._._._._._.Q.I.U.(._._.`.-.b.XX|.|.|.|.[.oXc.s s ",
"&X&X&X$X&X&X&X&X&X&X&X&X&X&X&X&Xq s q q $ F.J.H.~.[.oX( f.`._._.!.m.l.I.)._._._.)._._._.U.N.l.N.!._._.`.&.B..X}.|.|.|..XH.) q L ",
"&X&X$X&X&X&X&X&X&X&X&X&X&X&X&X&Xs q q q o ].U g h   5   T._._._._.Q.M.l.!._.)._._._._.P.m.l.C.)._.)._.`.#.D..X}.|.}.XXOX) & f L ",
"&X$X&X&X&X&X&X&X&X&X&X&X&X&X&X$Xq q q q o V.9 ).'.B #   R._._._._._.V.n.Q.)._._._._.C.n.b.L.)._.)._._.`.A H.XXXXXXXXm.m.I J L L ",
"$X&X&X&X&X&X&X&X&X&X&X&X&X&X$X&Xq q q q %   O ).'.u < O ^._._._._._.[ [ j.).)._._.`.B.M.b._._._._._.).`.B 9 a K / }.L - e M L L ",
"q q q q q q q q q q q q q s q q +X+X+X$XZ.v.3 T.^.< 2 % )._.)._._._.      )._._._._.  Y T )._._.)._.)._.u X R.R.  XXf &X&X&X&X$X",
"q q q q q q q q q q q q s q q q +X+X$X$X$X$X] _ I 2 % u _._._._._._.`.`.`._.)._._.).      _._.)._._._._.< % _.`.= [ 3 &X&X&X$X&X",
"q q q q q q q q q q q s q q q q +X$X$X$X$X$X&X&X@X< # B `._._.)._./._._.)._._._._._.T.K.d._._._._._._.).O u `._.O   3 &X&X$X&X&X",
"q q q q q q q q q q s q q q q q $X$X$X$X$X&X&X$X&X$X@ W '.`._._._._._._._._._.)._._._._.`.)._._.).)._.W.  4 B S 4 @X X&X$X&X&X&X",
"q q q q q q q q q s q q q q q s $X$X$X$X&X&X$X&X&X&X&X XB 4.'._._._._._._.)./._._._._._._._._.)._._._.Y.  ) #X$X#X&X&X$X&X&X&X&X",
"q q q q q q q q s q q q q q s s $X$X$X&X&X$X&X&X&X&X{.< # 2 t._.)._.)._.).p.  O -.'.)._._.)._._.).`.f.  x.$X&X&X&X&X$X&X&X&X&X&X",
"q q q q q q q s q q q q q s s s $X$X&X&X$X&X&X&X&X$X{.Z :.v 3.'._._._.`.t.    #   4.`._.)._._._.`.).t.S.$X&X&X&X&X$X&X&X&X&X&X&X",
"q q q q q q s q q q q q s s s s $X&X&X$X&X&X&X&XS.2 4 | :.@.$.-.Y.`._.`.u.k 6.`.^.^._._._._.'.R.Y.3.  Z.&X&X&X&X$X&X&X&X&X&X&X&X",
"q q q q q s q q q q q s s s s s &X&X$X&X&X&X&X$XS.2 @  .:.:.O.  Q W.`.^.<.l a.`.)._._._.`.K.t.=.. h N u % {.&X$X&X&X&X&X&X&X&X&X",
"q q q q s q q q q q s s s s s L &X$X&X&X&X&X$X&Xx.2 @ ..:.:.:.o.  2.Y.! x T.`.)._._.`.'.s.j . o.>.X.T.'.2.   X&X&X&X&X&X&X&X&X&X",
"q q q s q q q q q s s s s s L L $X&X&X&X&X$X&X) 2 2 > O.:.:.:.:.} ;     K.W.)._.'.=.E =.9 v @.:.@.X.T._._.*.& $X&X&X&X&X&X&X&X&X",
"q q s q q q q q s s s s s L L s &X&X&X&X$X&X&X/ 2 2 > O.:.:.;.:.,.D x x ; X # 8 a o.o.| | @.:.:.+.7.W._._._.E T %X&X&X&X&X&X&X&X",
"q s q q q q q s s s s s L L s L &X&X&X$X&X&X&XK 2 2 @ ;.:.:.:.:.:.c z D :.:.:.;.@.;.:.:.>.;.;.X.0.)._._._._.W.t [ %X&X&X&X&X&X&X",
"s q q q q q s s s s s L L s L L &X&X$X&X&X&X&X6 2 2 < :.:.:.:.:.:.} F :.:.:.;.:.;.;.;.;.;.;.@.i._._._._._._._.R.u %X&X&X&X&X&X&X",
"q q q q q s s s s s L L s L L L &X$X&X&X&X&X%X% 2 2 2 r h m C Z { ..:.:.:.;.;.;.;.:.:.:.:.:.;.K._._._._._._._._.w &X&X&X&X&X&X$X",
"q q q q s s s s s L L s L L L L $X&X&X&X&X&X$X% % % w H G G V V n < o.o.O.@.;.:.:.:.>.:.>.:.;.  Y.R._.)._._._._.e &X&X&X&X&X$X&X",
"+X+X+X$X$X$X$X$X&X&X$X&X&X&X&X$Xq q q q q q 0 2 2 < y ~ H ~ ~ ~ H @ @ @ > @ < 7 r h m A Z | $.b.o t ).)._._.).E @ q q q q s q q ",
"+X+X$X$X$X$X$X&X&X$X&X&X&X&X$X&Xq q q q q q 0 3 3 , i ~ ~ ~ ~ ~ G @ 3 % 2 2 2 < < % # @ > @ ` &Xq q   @ 0 j B X q q q q s q q q ",
"+X$X$X$X$X$X&X&X$X&X&X&X&X$X&X&Xq q q q q q q q q - b ~ ~ H ~ ~ S @ Y [ ( P 8 2 < @ @ @ @ > x.&Xq q q q q 0 0 q q q q s q q q q ",
"$X$X$X$X$X&X&X$X&X&X&X&X$X&X&X&Xq q q q q q q q q 7 N ~ ~ ~ ~ ~ S @ Z.$X$X&X X@ n H G S S b A.&Xq q q q q q q q q q s q q q q q ",
"$X$X$X$X&X&X$X&X&X&X&X$X&X&X&X&Xq q q q q q q q q 8 5 w y i b N i , S.$X&X&XG.@ V ~ ~ ~ %.V G.&Xq q q q q q q q q s q q q q q s ",
"$X$X$X&X&X$X&X&X&X&X$X&X&X&X&X&Xq q q q q q q q s q q q 0 0 w q D.b.{.&X&X$XG.% 7 y i n N y ].&Xq q q q q q q q s q q q q q s s ",
"$X$X&X&X$X&X&X&X&X$X&X&X&X&X&X&Xq q q q q q q s q q q q 0 s s s $X$X&X&X$X&X&X&X%X@X#X+X XG.#X&Xq q q q q q q s q q q q q s s s ",
"$X&X&X$X&X&X&X&X$X&X&X&X&X&X&X&Xq q q q q q s q q q q q s s s s $X&X&X$X&X&X&X&X$X&X&X&X&X&X&X&Xq q q q q q s q q q q q s s s s ",
"&X&X$X&X&X&X&X$X&X&X&X&X&X&X&X&Xq q q q q s q q q q q s s s s s &X&X$X&X&X&X&X$X&X&X&X&X&X&X&X&Xq q q q q s q q q q q s s s s s ",
"&X$X&X&X&X&X$X&X&X&X&X&X&X&X&X&Xq q q q s q q q q q s s s s s L &X$X&X&X&X&X$X&X&X&X&X&X&X&X&X&Xq q q q s q q q q q s s s s s L ",
"$X&X&X&X&X$X&X&X&X&X&X&X&X&X&X&Xq q q s q q q q q s s s s s L L $X&X&X&X&X$X&X&X&X&X&X&X&X&X&X&Xq q q s q q q q q s s s s s L L ",
"&X&X&X&X$X&X&X&X&X&X&X&X&X&X&X&Xq q s q q q q q s s s s s L L s &X&X&X&X$X&X&X&X&X&X&X&X&X&X&X&Xq q s q q q q q s s s s s L L s ",
"&X&X&X$X&X&X&X&X&X&X&X&X&X&X&X&Xq s q q q q q s s s s s L L s L &X&X&X$X&X&X&X&X&X&X&X&X&X&X&X&Xq s q q q q q s s s s s L L s L ",
"&X&X$X&X&X&X&X&X&X&X&X&X&X&X&X&Xs q q q q q s s s s s L L s L L &X&X$X&X&X&X&X&X&X&X&X&X&X&X&X&Xs q q q q q s s s s s L L s L L ",
"&X$X&X&X&X&X&X&X&X&X&X&X&X&X&X$Xq q q q q s s s s s L L s L L L &X$X&X&X&X&X&X&X&X&X&X&X&X&X&X$Xq q q q q s s s s s L L s L L L ",
"$X&X&X&X&X&X&X&X&X&X&X&X&X&X$X&Xq q q q s s s s s L L s L L L L $X&X&X&X&X&X&X&X&X&X&X&X&X&X$X&Xq q q q s s s s s L L s L L L L "
};
