/* XPM */
static char *result[] = {
/* columns rows colors chars-per-pixel */
"64 64 199 2 ",
"   c #292627",
".  c #2D2A28",
"X  c #2F262A",
"o  c #3B262F",
"O  c #322E29",
"+  c #382729",
"@  c #3C362B",
"#  c #323234",
"$  c #373A3E",
"%  c #363537",
"&  c #2D2D30",
"*  c #453E2E",
"=  c #4D2536",
"-  c #5F253E",
";  c #55293B",
":  c #46393A",
">  c #583130",
",  c #662C2A",
"<  c #612737",
"1  c #682B3B",
"2  c #693133",
"3  c #753735",
"4  c #77333D",
"5  c #7F3E3E",
"6  c #743D2E",
"7  c #534B35",
"8  c #5A5237",
"9  c #484335",
"0  c #7D4238",
"q  c #675B36",
"w  c #714B36",
"e  c #6B623E",
"r  c #766839",
"t  c #343A43",
"y  c #6A2B41",
"u  c #743145",
"i  c #7F3748",
"p  c #7C3645",
"a  c #712F44",
"s  c #3E4447",
"d  c #394451",
"f  c #444444",
"g  c #454D50",
"h  c #564E5D",
"j  c #4C5659",
"k  c #554F4C",
"l  c #6B4F4B",
"z  c #655149",
"x  c #695955",
"c  c #7B4F49",
"v  c #7E7241",
"b  c #77694F",
"n  c #4D5B65",
"m  c #53636C",
"M  c #556264",
"N  c #596C76",
"B  c #576973",
"V  c #64767A",
"C  c #736C65",
"Z  c #803E3D",
"A  c #834E38",
"S  c #8E5B36",
"D  c #88763D",
"F  c #98793F",
"G  c #916339",
"H  c #A6763D",
"J  c #854141",
"K  c #8F4949",
"L  c #8A4646",
"P  c #944C4C",
"I  c #97524C",
"U  c #99554C",
"Y  c #9E5A4D",
"T  c #955D45",
"R  c #9E5750",
"E  c #A15D4D",
"W  c #A05A53",
"Q  c #847746",
"!  c #916D4E",
"~  c #A5634E",
"^  c #A8674E",
"/  c #AB6C4F",
"(  c #AF704F",
")  c #B1764E",
"_  c #A76155",
"`  c #B16C59",
"'  c #B67B50",
"]  c #B67B50",
"[  c #885B6C",
"{  c #926564",
"}  c #8E6778",
"|  c #946E7E",
" . c #997271",
".. c #857D6E",
"X. c #92813F",
"o. c #B89939",
"O. c #C2953E",
"+. c #D7AF27",
"@. c #DAB528",
"#. c #D7B436",
"$. c #C7A53B",
"%. c #E2BA2E",
"&. c #E3B937",
"*. c #FBD32F",
"=. c #FFDB2C",
"-. c #EEC333",
";. c #F5CB34",
":. c #FDDC3A",
">. c #FBD938",
",. c #F5C82C",
"<. c #FEE82C",
"1. c #FFEA35",
"2. c #FFE23C",
"3. c #FEEA3C",
"4. c #928244",
"5. c #9B8442",
"6. c #948553",
"7. c #B58644",
"8. c #BD8451",
"9. c #AF904D",
"0. c #BFA85A",
"q. c #948968",
"w. c #8A8476",
"e. c #A59564",
"r. c #AD9479",
"t. c #A69B7B",
"y. c #AE8F6C",
"u. c #B8A567",
"i. c #BCAC72",
"p. c #B7AA79",
"a. c #C18E4C",
"s. c #C38C51",
"d. c #C69152",
"f. c #C99552",
"g. c #CD9A48",
"h. c #D0AC4C",
"j. c #C38E65",
"k. c #C5B475",
"l. c #C9B97A",
"z. c #C3A968",
"x. c #F5D740",
"c. c #FEE243",
"v. c #FEE44E",
"b. c #FEEC45",
"n. c #FEEC5E",
"m. c #D2C27F",
"M. c #FDEB67",
"N. c #FDEB77",
"B. c #EBD273",
"V. c #687F88",
"C. c #697D80",
"Z. c #7B828B",
"A. c #718A90",
"S. c #748E94",
"D. c #A39891",
"F. c #B3A989",
"G. c #829FA1",
"H. c #919DA3",
"J. c #97A3AA",
"K. c #9AAAB0",
"L. c #A9B2B6",
"P. c #9A9390",
"I. c #C9BA82",
"U. c #CCB697",
"Y. c #CAB6BF",
"T. c #CCB9B8",
"R. c #D7C686",
"E. c #DFD091",
"W. c #E5CB89",
"Q. c #E9D999",
"!. c #FEED81",
"~. c #E3D5A3",
"^. c #FFEEAC",
"/. c #F6E8B3",
"(. c #FFF0B5",
"). c #FFF1BB",
"_. c #D9D2BB",
"`. c #B4BEC1",
"'. c #BCC5C9",
"]. c #CCD3D6",
"[. c #D0D0D2",
"{. c #D2D8DA",
"}. c #CDCFCD",
"|. c #E6DCD3",
" X c #F0E7C5",
".X c #FFF3C5",
"XX c #FFF4CB",
"oX c #FFF6D3",
"OX c #FFF8DC",
"+X c #F0E8DC",
"@X c #D5DFE0",
"#X c #DDE2E4",
"$X c #EBEBED",
"%X c #E8E9EA",
"&X c #FFF9E3",
"*X c #FFFCED",
"=X c #FFFDF5",
"-X c #FFFFFF",
";X c #F1F4F5",
/* pixels */
"                          #     [.[.[.$X$X$X$X$X-X-X$X-X-X-X-X$X. .                       #     [.[.[.$X$X$X$X$X-X-X$X-X-X-X-X$X",
"                        #       [.[.$X$X$X$X$X-X-X$X-X-X=X=X|.[.@ . . .                 #       [.[.$X$X$X$X$X-X-X$X-X-X-X-X$X-X",
"                      #         [.$X$X$X$X$X-X-X$X=X*X*X*X_.F.D.C 9 9 @ O .           #         [.$X$X$X$X$X-X-X$X-X-X-X-X$X-X-X",
"                    #           $X$X$X$X$X-X-X$X=X*XOXOX XF.F.q.e.b 7 7 9 @ .       #           $X$X$X$X$X-X-X$X-X-X-X-X$X-X-X-X",
"                  #           # $X$X$X$X-X-X%X=X&XOXXX/.e.I.k.e.p.e.Q e q 7 * .   #         X # $X$X$X$X-X-X$X-X-X-X-X$X-X-X-X-X",
"                #           # # $X$X$X-X-X%X*XOXoX.X~.p.I.R.I.I.i.i.e.6.r q 8 * @           # # $X$X$X-X-X$X-X-X-X-X$X-X-X-X-X-X",
"              #           # # # $X$X-X-X%X=X&XXX.X/.l.i.E.Q.E.k.l.k.i.e.D r q q * .       # # # $X$X-X-X$X-X-X-X-X$X-X-X-X-X-X-X",
"            #           # # # # $X-X-X%X=X*XoX.X/.(.k.u.I.~.Q.R.m.k.u.0.X.D r q 7 @ .   # # # # $X-X-X$X-X-X-X-X$X-X-X-X-X-X-X-X",
"          #           # # # # # -X-X%X-X*XOXXX/.(.^.Q.h.u.m.m.m.k.i.0.o.5.4.D r 8 * O @ # # # # -X-X$X-X-X-X-X$X-X-X-X-X-X-X-X-X",
"        #           # # # # # f -X%X-X-X&XoX/.(.(.(.(.^.+.h.u.u.u.h.$.X.5.X.D r q 7 9 % # # # f -X$X-X-X-X-X$X-X-X-X-X-X-X-X-X-X",
"      #           # # # # # f f %X-X-X=XOX X).(.^.^.^.^.-.-.#.%.%.;.#.4.X.X.D D r 8 7 % # # f f $X-X-X-X-X$X-X-X-X-X-X-X-X-X-X-X",
"    #           # # # # # f f # -X-X-X*X XXX).W.W.W.W.B.*.*.*.*.*.*.#.o.X.X.F F v e 8 : # f f # -X-X-X-X$X-X-X-X-X-X-X-X-X-X-X-X",
"  #           # # # # # f f # f -X-X-X+XoX.X).H 7.o.#.>.=.*.c.c.c.=.*.-.g.o.H H v b 8 9 f f % f -X-X-X$X-X-X-X-X-X-X-X-X-X-X-X-X",
"#           # # # # # f f # f f -X .{ y.y.u.z.a.9.h.x.x.<.2.v.v.v.c.x.*.&.a.a.a.D S w w > @ f f -X-X$X-X-X-X-X-X-X-X-X-X-X-X-X-X",
"          # # # # # f f # f f f =X, , Z S G H d.g.h.=.<.^.!.1.v.v.v.v.c.*.h.f.s.H G A 6 2 : f f -X$X-X-X-X-X-X-X-X-X-X-X-X-X-X$X",
"        # # # # # f f # f > , , , P P E ( ] s.d.f.1.v.c.!.M.c.v.v.v.v.v.:.*.f.s.8.( ^ T P 3 , , ,  .-X-X-X-X-X-X-X-X-X-X-X-X$X-X",
"[.[.[.$X$X$X$X$X-X-X$X%XT.R 3 3 3 P P Y / ' 8.d.d.<.c.v.2.3.c.b.c.v.v.v.:.*.s.s.8.( ~ E P Z 3 3 3 2 + .                   #     ",
"[.[.$X$X$X$X$X-X-X$X-XT.2 J P P P P P R ^ ) 8.s.d.=.c.v.v.1.3.n.3.1.v.v.:.,.s.8.] / E P P P P P P J , +                 #       ",
"[.$X$X$X$X$X-X-X%X-X .{ J K P P P P P I ~ ( 8.8.d.=.c.v.v.3.M.N.M.<.v.v.2.,.s.8.' ^ E P P P P P P K A 2 >             #         ",
"$X$X$X$X$X-X-X$X-X-X, 3 K P P P P P P P Y _ ' 8.s.h.v.v.v.b.N.N.N.<.v.v.>.g.s.] ( E U P P P P P P P P 3 ,           &           ",
"$X$X$X$X-X-X$X-X-X-X, 3 P P P P P P P P I Y / ] 8.f.x.c.v.1.3.n.3.1.v.:.&.a.] ( ~ U P P P P P P P P P 3 ,         #           # ",
"$X$X$X-X-X$X-X-X-X-X, 3 P P P P P P P P P U ~ ( ' 8.h.c.v.3.1.1.1.b.:.-.o.) ) ^ E P P P P P P P P P P 3 ,       #           # # ",
"$X$X-X-X$X-X-X-X-X$X, 3 P P P P P P P P P P U ~ ( ' 9.z.@.b.2.*.>.,.h.9.! ~ ~ E P P P P P P P P P P P 3 ,     #           # # # ",
"$X-X-X$X-X-X-X-X$X-X, 3 P P P P P P P P P P I U _ ) ! t.l.#.@.+.+.$.6.q.T S E I P P P P P P P P P P P 3 ,   #           # # # # ",
"-X-X$X-X-X-X-X$X-X-X< 1 3 L P P P P P P P P P P P E E ! F.F.F.D.t.q...c w I P P P P P P P P P P P L 3 1 < #           # # # # # ",
"-X$X-X-X-X-X$X-X-X-X- < , J P P P P P P P P P P P P I I c ..P.....C l 5 K P P P P P P P P P P P P Z , < y           # # # # # f ",
"$X-X-X-X-X$X-X-X-X-X- 1 p I _ W _ P P P P P P P P P P P P x c h x z c L P P P P P P P P P E _ I 3 4 u 1 -         # # # # # f f ",
"-X-X-X-X$X-X-X-X-X-X- y i W ` ` ` P P P P P P P P P P P P P P P L K P P P P P P P P P P P _ ` U , 3 u y -       # # # # # f f # ",
"-X-X-X$X-X-X-X-X-X-X< y i i i i i ` ` ` ` A , P P P P P P P P P P P P P P P P P ` ` ` I , 4 i i i i i 1 y     # # # # # f f # f ",
"-X-X$X-X-X-X-X-X-X-X| [ u i i i i W W W W 5 1 W W W R R R W R R U K J R I A J J W W W P 2 p i i i p u - =   & # # # & f f # f f ",
"-X$X-X-X-X-X-X-X-X-X-XY.- u i i i i i i i i i ` ` ` ` ` ` ` ` _ ` Z , ` I , , , i i i i i i i i i u - o   # # # # # f f # f f f ",
"$X-X-X-X-X-X-X-X-X-X-X%XY.[ y y y i i i i i i K K K P K P K P P P 5 u P J 4 4 4 i i i i i a y y y - o   # # # # # f f # f f f f ",
"                          = - - - i i i i i i i i i i i i i i i i i i i i i i i i i i i i y - - - [ ].$X$X$X$X$X-X-X$X-X-X-X-X$X",
"                        #       [.- - - - - - i i i i i i i i i i i i i i i i i - - - - - o     [.[.$X$X$X$X$X-X-X$X-X-X-X-X$X-X",
"                      #         [.} } } } } | u u u u u a u a a u u u u u u u u = = = ; = X     [.$X$X$X$X$X-X-X$X-X-X-X-X$X-X-X",
"                    #           $X$X$X$X$X-X-X- - - - - - - - - - - - - - - - -     #           $X$X$X$X$X-X-X$X-X-X-X-X$X-X-X-X",
"                  #           # $X$X$X$X-X-X$XY.Y.Y.Y.L.Y.P.h h h : o o o o o o   #           # $X$X$X$X-X-X$X-X-X-X-X$X-X-X-X-X",
"                #           # # $X$X$X-X-X$X-X-X-X-X$X-X-X}.m m m t             #           # # $X$X$X-X-X$X-X-X-X-X$X-X-X-X-X-X",
"              #           # # # $X$X-X-X%X-X-X-X-X%X-X-X-X].V B m t           #           # # # $X$X-X-X$X-X-X-X-X$X-X-X-X-X-X-X",
"            #           # # # # $X-X-X$X-X-X-X-X$X-X-X-X-X].V.B m $         #           # # # # $X-X-X$X-X-X-X-X$X-X-X-X-X-X-X-X",
"          #           # # # # # -X-X$X-X-X-X-X$X-X-X-X-X-X].V.V.V.f X     #           # # # # # -X-X$X-X-X-X-X$X-X-X-X-X-X-X-X-X",
"        #           # # # # # f -X$X-X-X-X-X$X-X-X-X-X-X-X{.A.A.V.t     #           # # # # # f -X$X-X-X-X-X$X-X-X-X-X-X-X-X-X-X",
"      #           # # # # # f f $X-X-X-X-X$X-X-X-X-X-X-X-X@XG.A.V.s   #           # # # # # f f $X-X-X-X-X$X-X-X-X-X-X-X-X-X-X-X",
"    #           # # # # # f f # -X-X-X-X$X-X-X-X-X-X-X-X-X@XG.A.V.s #           # # # # # f f # -X-X-X-X$X-X-X-X-X-X-X-X-X-X-X-X",
"  #           # # # # # f f # f -X-X-X$X-X-X-X-X-X-X-X-X-X@XS.A.V.g           # # # # # f f # f -X-X-X$X-X-X-X-X-X-X-X-X-X-X-X-X",
"#           # # # # # f f # f f -X-X$X-X-X-X-X-X-X-X-X-X-X#XG.A.V.s         # # # # # f f # f f -X-X$X-X-X-X-X-X-X-X-X-X-X-X-X-X",
"          # # # # # f f # f f f -X$X-X-X-X-X-X@X@X@X;X-X-X{.S.A.V.s     # j j j # # f f # f f f -X$X-X-X-X-X-X-X-X-X-X-X-X-X-X$X",
"        # # # # # f f # f f f f $X-X-X-X-X-X-XG.G.G.@X-X-X].V.V.V.s     j G.G.G.# f f # f f f f $X-X-X-X-X-X-X-X-X-X-X-X-X-X$X-X",
"[.[.[.$X$X$X$X$X-X-X$X-X-X-X-X$X          t s V V V j s $ j V.V.V.H.K.'.'.L.L.L.].@X%X-X-X-X-X%X                          #     ",
"[.[.$X$X$X$X$X-X-X$X-X-X-X-X$X-X          m V.      n A.m N V.V.V.N m V.G.$X$X-XV.J.-X-X-X-X$X-X                        #       ",
"[.$X$X$X$X$X-X-X$X-X-X-X-X$X-X-X      X   n V.      M V.m N C.A.V.N m A.K.$X;X-XV.K.-X-X-X%X-X-X                      #         ",
"$X$X$X$X$X-X-X$X-X-X-X-X$X-X-X-X      t d N V.d t   #     $ m m m `.$X$X$X-XP.d V.N g V.$X-X-X-X                    #           ",
"$X$X$X$X-X-X$X-X-X-X-X$X-X-X-X-X      # t n B t # # s g $ g N N N J.`.].%X-XJ.V.N C.V.J.-X-X-X-X                  #           # ",
"$X$X$X-X-X$X-X-X-X-X$X-X-X-X-X-X          t d . #   V G.m N V.V.V.N N S.`.$X-X-Xt P.%X-X-X-X-X-X                #           # # ",
"$X$X-X-X$X-X-X-X-X$X-X-X-X-X-X-X          # t j g g C.S.N B m m J.V.N S.J.@X@X@XZ.H.-X-X-X-X-X-X              #           # # # ",
"$X-X-X$X-X-X-X-X$X-X-X-X-X-X-X-X            # G.G.G.A.V.A.m # # $XK.V.A.Z.G.G.G.$X-X-X-X-X-X-X-X            #           # # # # ",
"-X-X$X-X-X-X-X$X-X-X-X-X-X-X-X-X          m V y.r.r.x g g s # # -X#X'.y.r.r.r.r.K.'.-X-X-X-X-X-X          #           # # # # # ",
"-X$X-X-X-X-X$X-X-X-X-X-X-X-X-X-X        # V G.y.j.j.k # # # # f -X$X-Xj.y.j.j.j.V.K.-X-X-X-X-X-X        #           # # # # # f ",
"$X-X-X-X-X$X-X-X-X-X-X-X-X-X-X-X    X t d N A.d x j.z # # # f f $X-X-X-X-X$XZ.t V.N g V.-X-X-X-X      #           # # # # # f f ",
"-X-X-X-X$X-X-X-X-X-X-X-X-X-X-X-X    # # t n B t k ! 7 # # f f # -X-X-X-X$X-XD.x N V V.L.-X-X-X-X    #           # # # # # f f # ",
"-X-X-X$X-X-X-X-X-X-X-X-X-X-X-X-X  #       t d # # # # # f f # f -X-X-X%X-X-XU.j.d Z.-X-X-X-X-X-X  #           # # # # # f f # f ",
"-X-X$X-X-X-X-X-X-X-X-X-X-X-X-X-X#         & t # # # # f f # f f -X-X$X-X-X-X+X|.`.{.-X-X-X-X-X-X#           # # # # # f f # f f ",
"-X$X-X-X-X-X-X-X-X-X-X-X-X-X-X$X          # # # # # f f # f f f -X$X-X-X-X-X-X-X-X-X-X-X-X-X-X$X          # # # # # f f # f f f ",
"$X-X-X-X-X-X-X-X-X-X-X-X-X-X$X-X        # # # # # f f # f f f f $X-X-X-X-X-X-X-X-X-X-X-X-X-X$X-X        # # # # # f f # f f f f "
};
