/* XPM */
static char *_51309be15f14ed9edb9394224d2e71f0cYCxef92K14M0Sr[] = {
/* columns rows colors chars-per-pixel */
"32 32 11 1 ",
"  c None",
". c #5F253E",
"X c #662C2A",
"o c #7F3748",
"O c #394451",
"+ c #52636D",
"@ c #944C4C",
"# c #B16C59",
"$ c #C38E65",
"% c #687F88",
"& c #829FA1",
/* pixels */
"                                ",
"                                ",
"           XXXXXXXXXX           ",
"        XXX@@@@@@@@@@XXX        ",
"      XX@@@@@@@@@@@@@@@@XX      ",
"     X@@@@@@@@@@@@@@@@@@@@X     ",
"    X@@@@@@@@@@@@@@@@@@@@@@X    ",
"    X@@@@@@@@@@@@@@@@@@@@@@X    ",
"    X@@@@@@@@@@@@@@@@@@@@@@X    ",
"    .X@@@@@@@@@@@@@@@@@@@@X.    ",
"    .o##@@@@@@@@@@@@@@@@#Xo.    ",
"    .ooo##X@@@@@@@@@@##Xooo.    ",
"     .ooooo######X#XXooooo.     ",
"      ..oooooooooooooooo..      ",
"        ...oooooooooo...        ",
"           ..........           ",
"               ++               ",
"               %+               ",
"               %%               ",
"               &%               ",
"               &%               ",
"               &%               ",
"           &&  %%  &&           ",
"          %  %+%%+%  %          ",
"         O%O   ++   O%O         ",
"          O  &+%%+&  O          ",
"           &&%%  %%&&           ",
"          &$$     $$$%          ",
"         O%O$       O%O         ",
"          O         $O          ",
"                                ",
"                                "
};
