/* XPM */
static char *a636e1aa275d4c888ff19132bc892845gb2UZGo8A9cLxJMo[] = {
/* columns rows colors chars-per-pixel */
"64 64 11 1 ",
"  c None",
". c #5F253E",
"X c #662C2A",
"o c #7F3748",
"O c #394451",
"+ c #52636D",
"@ c #944C4C",
"# c #B16C59",
"$ c #C38E65",
"% c #687F88",
"& c #829FA1",
/* pixels */
"                                                                ",
"                                                                ",
"                                                                ",
"                      XXXXXXXXXXXXXXXXXXXX                      ",
"                      XXXXXXXXXXXXXXXXXXXX                      ",
"               XXXXXXX@@@@@@@@@@@@@@@@@@@@XXXXXX                ",
"               XXXXXXX@@@@@@@@@@@@@@@@@@@@XXXXXX                ",
"           XXXX@@@@@@@@@@@@@@@@@@@@@@@@@@@@@@@@@XXXXX           ",
"           XXXX@@@@@@@@@@@@@@@@@@@@@@@@@@@@@@@@@XXXXX           ",
"         XX@@@@@@@@@@@@@@@@@@@@@@@@@@@@@@@@@@@@@@@@@@XX         ",
"         XX@@@@@@@@@@@@@@@@@@@@@@@@@@@@@@@@@@@@@@@@@@XX         ",
"       XX@@@@@@@@@@@@@@@@@@@@@@@@@@@@@@@@@@@@@@@@@@@@@@XX       ",
"       XX@@@@@@@@@@@@@@@@@@@@@@@@@@@@@@@@@@@@@@@@@@@@@@XX       ",
"       XX@@@@@@@@@@@@@@@@@@@@@@@@@@@@@@@@@@@@@@@@@@@@@@XX       ",
"       XX@@@@@@@@@@@@@@@@@@@@@@@@@@@@@@@@@@@@@@@@@@@@@@XX       ",
"       XX@@@@@@@@@@@@@@@@@@@@@@@@@@@@@@@@@@@@@@@@@@@@@@XX       ",
"       XX@@@@@@@@@@@@@@@@@@@@@@@@@@@@@@@@@@@@@@@@@@@@@@XX       ",
"       XX@@@@@@@@@@@@@@@@@@@@@@@@@@@@@@@@@@@@@@@@@@@@@@XX       ",
"       ..XX@@@@@@@@@@@@@@@@@@@@@@@@@@@@@@@@@@@@@@@@@@XX..       ",
"       ..XX@@@@@@@@@@@@@@@@@@@@@@@@@@@@@@@@@@@@@@@@@@XX..       ",
"       ..oo####@@@@@@@@@@@@@@@@@@@@@@@@@@@@@@@@@###XXoo..       ",
"       ..oo####@@@@@@@@@@@@@@@@@@@@@@@@@@@@@@@@@###XXoo..       ",
"       ..oooooo#####XX@@@@@@@@@@@@@@@@@@@@####XXooooooo..       ",
"       ..oooooo#####XX@@@@@@@@@@@@@@@@@@@@####XXooooooo..       ",
"         ..ooooooooooo############XX##XXXXooooooooooo..         ",
"         ..ooooooooooo############XX##XXXXooooooooooo..         ",
"           ....ooooooooooooooooooooooooooooooooo.....           ",
"           ....ooooooooooooooooooooooooooooooooo.....           ",
"               .......oooooooooooooooooooo......                ",
"               .......oooooooooooooooooooo......                ",
"                      ....................                      ",
"                      ....................                      ",
"                              ++++                              ",
"                              ++++                              ",
"                              %%++                              ",
"                              %%++                              ",
"                              %%%%                              ",
"                              %%%%                              ",
"                              &&%%                              ",
"                              &&%%                              ",
"                              &&%%                              ",
"                              &&%%                              ",
"                              &&%%                              ",
"                              &&%%                              ",
"                      &&&&    %%%%    &&&&                      ",
"                      &&&&    %%%%    &&&&                      ",
"                    %%    %%++%%%%++%%    %%                    ",
"                    %%    %%++%%%%++%%    %%                    ",
"                    %%    %%++%%%%++%%    %%                    ",
"                  OO%%OO      ++++      OO%%OO                  ",
"                  OO%%OO      ++++      OO%%OO                  ",
"                    OO    &&++%%%%++&&    OO                    ",
"                    OO    &&++%%%%++&&    OO                    ",
"                      &&&&%%%%    %%%%&&&&                      ",
"                      &&&&%%%%    %%%%&&&&                      ",
"                    &&$$$$          $$$$$$%%                    ",
"                    &&$$$$          $$$$$$%%                    ",
"                  OO%%OO$$              OO%%OO                  ",
"                  OO%%OO$$              OO%%OO                  ",
"                    OO                  $$OO                    ",
"                    OO                  $$OO                    ",
"                                                                ",
"                                                                ",
"                                                                "
};
