/* XPM */
static char *result[] = {
/* columns rows colors chars-per-pixel */
"64 64 171 2 ",
"   c #292627",
".  c #323234",
"X  c #D0D0D2",
"o  c #EBEBED",
"O  c white",
"+  c #6D6970",
"@  c #534F54",
"#  c #D9D9DD",
"$  c #86838C",
"%  c #909090",
"&  c #B9B9B9",
"*  c #444444",
"=  c #979799",
"-  c #CCB9B8",
";  c #3D2828",
":  c #662C2A",
">  c #997271",
",  c #926C6B",
"<  c #854141",
"1  c #C0ACAF",
"2  c #552E2D",
"3  c #5B3433",
"4  c #3E3132",
"5  c #944C4C",
"6  c #C4AFB2",
"7  c #DFCACA",
"8  c #4F3C3B",
"9  c #753735",
"0  c #EEE8E8",
"q  c #926261",
"w  c #803E3D",
"e  c #623231",
"r  c #302727",
"t  c #8F4848",
"y  c #522A29",
"u  c #914A4A",
"i  c #B7B7BB",
"p  c #884646",
"a  c #612737",
"s  c #682C37",
"d  c #8A4544",
"f  c #683636",
"g  c #5F253E",
"h  c #8C4848",
"j  c #693636",
"k  c #723B3B",
"l  c #672A3E",
"z  c #77333E",
"x  c #97524D",
"c  c #A76155",
"v  c #713A3A",
"b  c #7B3F3F",
"n  c #A15A52",
"m  c #97534A",
"M  c #763638",
"N  c #6A2B41",
"B  c #7F3748",
"V  c #A05A53",
"C  c #B16C59",
"Z  c #924B4B",
"A  c #814242",
"S  c #985749",
"D  c #6E3034",
"F  c #7F413A",
"G  c #946E7E",
"H  c #8A5A6B",
"J  c #743145",
"K  c #7B3547",
"L  c #7F3E3E",
"P  c #9E5750",
"I  c #8D4846",
"U  c #95504B",
"Y  c #904C49",
"T  c #793541",
"R  c #5A293B",
"E  c #4D2536",
"W  c #CAB6BF",
"Q  c #3B262F",
"!  c #EDE7EA",
"~  c #90494E",
"^  c #7F3A43",
"/  c #874248",
"(  c #712F44",
")  c #2F262A",
"_  c #50293B",
"`  c #855E6F",
"'  c #8E6778",
"]  c #35262C",
"[  c #BCA9B3",
"{  c #A3949E",
"}  c #564E5D",
"|  c #44333E",
" . c #C5CBCE",
".. c #52636D",
"X. c #373A3E",
"o. c #CAD1D4",
"O. c #61767F",
"+. c #576973",
"@. c #CDD4D7",
"#. c #687F88",
"$. c #596C76",
"%. c #3E4447",
"&. c #D0D8DA",
"*. c #718A90",
"=. c #6B838B",
"-. c #D5DFE0",
";. c #829FA1",
":. c #444C50",
">. c #F1F4F5",
",. c #D2DBDD",
"<. c #799499",
"1. c #6E868E",
"2. c #333334",
"3. c #4D5658",
"4. c #373A3D",
"5. c #647778",
"6. c #4B5558",
"7. c #4B575D",
"8. c #919DA3",
"9. c #A6ACB0",
"0. c #BFC7CB",
"q. c #B7C2C6",
"w. c #A5B8BA",
"e. c #DDE2E4",
"r. c #536168",
"t. c #94A3AA",
"y. c #9AAAB0",
"u. c #343A43",
"i. c #394451",
"p. c #586B76",
"a. c #B8BEC2",
"s. c #7B828B",
"d. c #30333A",
"f. c #4D5B65",
"g. c #3D4142",
"h. c #474E50",
"j. c #424B51",
"k. c #98A3A9",
"l. c #C8D2D4",
"z. c #E3EAEA",
"x. c #9CA1A8",
"c. c #64737D",
"v. c #ACBFC0",
"b. c #697D80",
"n. c #586A73",
"m. c #56656C",
"M. c #6D7E88",
"N. c #94A9AD",
"B. c #556264",
"V. c #AD9479",
"C. c #635E58",
"Z. c #3E4347",
"A. c #A58971",
"S. c #A88D73",
"D. c #BCC6CA",
"F. c #C38E65",
"G. c #625144",
"H. c #373E47",
"J. c #675D58",
"K. c #554F4C",
"L. c #936F55",
"P. c #52473F",
"I. c #9A9390",
"U. c #A7ACB2",
"Y. c #D7B498",
"T. c #2D2D30",
"R. c #34383E",
"E. c #F2E6DD",
"W. c #EBD9CC",
"Q. c #BDC1C5",
"!. c #D3D5D8",
/* pixels */
"                          .     X X X o o o o o O O o O O O O o                           .     X X X o o o o o O O o O O O O o ",
"                        .       X X o o o o o O O o O O O O o O                         .       X X o o o o o O O o O O O O o O ",
"                      .         X o o o o o O O o O O O O o O +                       .         X o o o o o O O o O O O O o O O ",
"                    .           o o o o o O O o O O O O o @ # @ $ @                 .           o o o o o O O o O O O O o O O O ",
"                  .           . o o o o O O o O O O O o + % & @ $ + @             .           . o o o o O O o O O O O o O O O O ",
"                .           . . o o o O O o O O O O o + % & % & + $ + @         .           . . o o o O O o O O O O o O O O O O ",
"              .           . . . o o O O o O O O O o O % & # & $ % % $ + @     .           . . . o o O O o O O O O o O O O O O O ",
"            .           . . . . o O O o O O O O o O O % # # # & & % $ $ @   .           . . . . o O O o O O O O o O O O O O O O ",
"          .           . . . . . O O o O O O O o O O O @ + % % % $ $ + @   .           . . . . . O O o O O O O o O O O O O O O O ",
"        .           . . . . . * O o O O O O o O O O O O @ + + + + + @   .           . . . . . * O o O O O O o O O O O O O O O O ",
"      .           . . . . . * * o O O O O o O O O O O O = O @ @ @   = .           . . . . . * * o O O O O o O O O O O O O O O O ",
"    .           . . . . . * * . O O O O o O O - - - - - # - - - ; ; = ; ; ; ; ; . . . . . * * . O O O O o O O O O O O O O O O O ",
"  .           . . . . . * * . * O O O o O O O : : : : O : : : : : : : = : : : : . . . . * * . * O O O o O O O O O O O O O O O O ",
".           . . . . . * * . * * O > , > > > > < < < O < 1 1 < < < < < < < < < < 2 2 2 3 3 4 * * O O o O O O O O O O O O O O O O ",
"          . . . . . * * . * * * O : : : : : : 5 5 5 O 6 7 7 6 5 5 5 5 5 5 5 5 5 : : : : : 8 * * O o O O O O O O O O O O O O O o ",
"        . . . . . * * . * 3 : : : 5 5 5 5 5 5 5 5 O 5 6 7 7 6 5 5 5 5 5 5 & 5 5 5 5 5 5 5 9 : : : > O O O O O O O O O O O O o O ",
"X X X o o o o o O O o 0 - q 9 9 9 5 5 5 5 5 5 5 5 O 5 5 6 6 5 5 5 5 5 5 5 & 5 5 5 5 5 5 5 w 9 9 9 e ; r                   .     ",
"X X o o o o o O O o O - : < 5 5 5 5 5 5 5 5 5 5 5 o 5 5 5 5 5 5 5 5 5 5 5 = 5 5 5 5 5 5 5 5 5 5 5 < : ;                 .       ",
"X o o o o o O O o O > q < t 5 5 5 5 5 5 5 5 5 5 5 # 5 5 + & & % $ $ @ 5 5 = 5 5 5 5 5 5 5 5 5 5 5 t < e y             .         ",
"o o o o o O O o O O : 9 5 5 5 5 5 5 5 5 5 5 5 5 5 5 # + & @ @ & @ @ $ @ u 5 5 5 5 5 5 5 5 5 5 5 5 5 5 9 :           .           ",
"o o o o O O o O O O : 9 5 5 5 5 5 5 5 5 5 5 5 5 5 5 # & @ @ & @ % @ @ + @ 5 5 5 5 5 5 5 5 5 5 5 5 5 5 9 :         .           . ",
"o o o O O o O O O O : 9 5 5 5 5 5 5 5 5 5 5 5 5 5 5 5 & @ @ $ & $ @ @ + = 5 5 5 5 5 5 5 5 5 5 5 5 5 5 9 :       .           . . ",
"o o O O o O O O O o : 9 5 5 5 5 5 5 5 5 5 5 5 5 5 5 5 # # @ @ $ + @ i = @ p 5 5 5 5 5 5 5 5 5 5 5 5 5 9 :     .           . . . ",
"o O O o O O O O o O : 9 5 5 5 5 5 5 5 5 5 5 5 5 5 5 5 % & & % % $ + + + @ p 5 5 5 5 5 5 5 5 5 5 5 5 5 9 :   .           . . . . ",
"O O o O O O O o O O a s 9 d 5 5 5 5 5 5 5 5 5 5 5 5 5 @ % & % % $ + + @ f 5 5 5 5 5 5 5 5 5 5 5 5 d 9 s a .           . . . . . ",
"O o O O O O o O O O g a : < 5 5 5 5 5 5 5 5 5 5 5 5 5 h @ % % $ $ + @ j k 5 5 5 5 5 5 5 5 5 5 5 5 < : a g           . . . . . * ",
"o O O O O o O O O O g l z x c c c 5 5 5 5 5 5 5 5 5 5 5 u @ @ @ @ @ v b u 5 5 5 5 5 5 5 5 n c m 9 M z l g         . . . . . * * ",
"O O O O o O O O O O g N B V C C C 5 5 5 5 5 5 5 5 5 5 5 5 5 Z p A p Z 5 5 5 5 5 5 5 5 5 5 c C S : D B N g       . . . . . * * . ",
"O O O o O O O O O O g N B B B B B C C C C F : 5 5 5 5 5 5 5 5 5 5 5 5 5 5 5 5 5 C C C S : z B B B B B N g     . . . . . * * . * ",
"O O o O O O O O O O G H J K B B B V V V V L D P P P P P P P P P P I < P U < < < V V V Y D T B B B K J R E   . . . . . * * . * * ",
"O o O O O O O O O O O W g J B B B B B B B B B C C C C C C C C C C F : C S : : : B B B B B B B B B J g Q   . . . . . * * . * * * ",
"o O O O O O O O O O O ! W H N N N B B B B B B ~ ~ ~ ~ ~ ~ ~ ~ ~ ~ ^ z ~ / z z z B B B B B ( N N N R Q ) . . . . . * * . * * * * ",
"                          _ g g g B B B B B B B B B B B B B B B B B B B B B B B B B B B B N g g g ` X o o o o o O O o O O O O o ",
"                        .       X g g g g g g B B B B B B B B B B B B B B B B B g g g g g Q     X X o o o o o O O o O O O O o O ",
"                      .         X ' ' ' ' ' G J J J J J J J J J J J J J J J J J E E E _ E ]     X o o o o o O O o O O O O o O O ",
"                    .           o o o o o O O g g g g g g g g g g g g g g g g g     .           o o o o o O O o O O O O o O O O ",
"                  .           . o o o o O O o W W W W [ W { } } } | Q Q Q Q Q Q   .           . o o o o O O o O O O O o O O O O ",
"                .           . . o o o O O o O O O O o O O  .......X.            .           . . o o o O O o O O O O o O O O O O ",
"              .           . . . o o O O o O O O O o O O O o.O.+...X.          .           . . . o o O O o O O O O o O O O O O O ",
"            .           . . . . o O O o O O O O o O O O O @.#.$...X.        .           . . . . o O O o O O O O o O O O O O O O ",
"          .           . . . . . O O o O O O O o O O O O O @.#.#.#.%.      .           . . . . . O O o O O O O o O O O O O O O O ",
"        .           . . . . . * O o O O O O o O O O O O O &.*.=.#.%.    .           . . . . . * O o O O O O o O O O O O O O O O ",
"      .           . . . . . * * o O O O O o O O O O O O O -.;.*.#.%.  .           . . . . . * * o O O O O o O O O O O O O O O O ",
"    .           . . . . . * * . O O O O o O O O O O O O O -.;.*.#.%..           . . . . . * * . O O O O o O O O O O O O O O O O ",
"  .           . . . . . * * . * O O O o O O O O O O O O O -.;.*.#.:.          . . . . . * * . * O O O o O O O O O O O O O O O O ",
".           . . . . . * * . * * O O o O O O O O O O O O O -.;.*.#.%.        . . . . . * * . * * O O o O O O O O O O O O O O O O ",
"          . . . . . * * . * * * O o O O O O O -.-.-.>.O O ,.<.1.#.%.    2.3.3.3.. . * * . * * * O o O O O O O O O O O O O O O o ",
"        . . . . . * * . * * * * o O O O O O O ;.;.;.-.O O @.#.#.#.%.    3.;.;.;.. * * . * * * * o O O O O O O O O O O O O O o O ",
"X X X o o o o o O O o O O O O o           4.%.5.5.5.6.%.X.7.#.#.#.8.9.0.q.w.w.w.@.e.o O O O O o                           .     ",
"X X o o o o o O O o O O O O o O           r.#.      r.#...$.#.#.#.$...#.t.o o O #.t.O O O O o O                         .       ",
"X o o o o o O O o O O O O o O O           r.#.      r.#...$.#.#.#.$...#.t.o O O #.y.O O O o O O                       .         ",
"o o o o o O O o O O O O o O O O       u.i.p.#.i.u.  .     X.......a.o o o O s.i.#.p.i.s.o O O O                     .           ",
"o o o o O O o O O O O o O O O O       d.u.f.p.u.d.. g.h.X.j.$.$.$.k.a.l.z.O x.s.p.c.s.x.O O O O                   .           . ",
"o o o O O o O O O O o O O O O O           u.i.  .   5.;...$.#.#.#.$...;.v.o O O i.s.o O O O O O                 .           . . ",
"o o O O o O O O O o O O O O O O           d.u.3.h.h.b.<.$.n.m.m.t.M.$.<.N.-.-.-.s.x.O O O O O O               .           . . . ",
"o O O o O O O O o O O O O O O O             . ;.;.;.*.#.#.m.. . o y.#.#.*.;.;.;.o O O O O O O O             .           . . . . ",
"O O o O O O O o O O O O O O O O           B.5.V.V.V.C.:.:.Z.. . O e.0.A.S.V.V.V.y.D.O O O O O O           .           . . . . . ",
"O o O O O O o O O O O O O O O O         . 5.;.F.F.F.G.. . . . * O o O F.F.F.F.F.#.y.O O O O O O         .           . . . . . * ",
"o O O O O o O O O O O O O O O O       H.i.p.#.i.J.F.G.. . . * * o O O O O o s.i.#.p.i.s.O O O O       .           . . . . . * * ",
"O O O O o O O O O O O O O O O O     . d.u.f.p.u.K.L.P.. . * * . O O O O o O I.J.p.c.s.U.O O O O     .           . . . . . * * . ",
"O O O o O O O O O O O O O O O O   .       u.i.. . . . . * * . * O O O o O O Y.F.i.s.O O O O O O   .           . . . . . * * . * ",
"O O o O O O O O O O O O O O O O .         T.R.. . . . * * . * * O O o O O O E.W.Q.!.O O O O O O .           . . . . . * * . * * ",
"O o O O O O O O O O O O O O O o           . . . . . * * . * * * O o O O O O O O O O O O O O O o           . . . . . * * . * * * ",
"o O O O O O O O O O O O O O o O         . . . . . * * . * * * * o O O O O O O O O O O O O O o O         . . . . . * * . * * * * "
};
