/* XPM */
static char *fdd63634a3804746f6a496e77af676beE6ruFEtbztU4kr9U[] = {
/* columns rows colors chars-per-pixel */
"64 64 5 1 ",
"  c #330C26",
". c #4E2626",
"X c #CAB980",
"o c #AD8643",
"O c #8F563B",
/* pixels */
" .           ............        .           ............       ",
"XoXXXXXXXoooXXo.ooXXXXXoXXXXooXXXoXXXXXXXoooXXo.ooXXXXXoXXXXooXX",
"OOoooooOoXXXoOO.OOooOOOOoOOOOOooOOoooooOoXXXoOO.OOooOOOOoOOOOOoo",
"ooOOOOOoOOOOOOO OOOOoOOOOooOOOOOooOOOOOoOOOOOOO OOOOoOOOOooO...O",
"OOooOOOOooOOOOo ooOOOooOOOOooOOOOOooOOOOooOOOOo ooOOOooOOOOooO..",
"OOOOooOOOOooooO OOooOOOooOOOOooOOOOOooOOOOooooO OOooOOOooOOOOooO",
"oOOOOOooOOOOOOO OOOOooOOOoooOOOooOOOOOooOOOOOOO OOOOooOOOoooOOOo",
"OoOOOOOOooOOOOO.OOOOOOooOOOOoOOOOoOOOOOOooOOOOO.OOOOOOooOOOOoOOO",
".  .........     ...            .  .........     ...            ",
"XoXXXo.OOOoooOOOOooXXXXXoXXXXoXXXoXXXo.OOOoooO..OooXXXXXoXXXXoXX",
"OOooOO.OOOOOOoooOOOooOOOOoOOOOoOOOooOO.OOOOOOoooOOOooOOOOoOOOOoO",
"OOOOoo oooOOOOOOooOOOoOOOOooOOOoOOOOoo oooOOOOOOooOOOoOOOOooOOOo",
"oOOOOO OOOooOOOOOOoOOOoOOOOOoOOOoOOOOO OOOooOOOOOOoOOOoOOOOOoOOO",
"OoOOOO ooOOOooOOOOOoOOOoOOOOOoOOOoOOOO ooOOOooOOOOOoOOOoOOOOOoOO",
"OOoOOO.OOoooOOooOOOOoOOOoOOOOOoOOOoOOO.OOoooO.ooOOOOoOOOoOOOOOoO",
"OOOoOO.OOoOOoOOOoooOOooOOoOOOOOoOOOoOO.OOoOOo .OoooOOooOOoOOOOOo",
"............      .     . ..................      .     . ......",
"oXXXXXXXooXXoXX.XXooXXXoooXXXXXXoXXoOOoXooXXoXX.XXooXXXoooXXXXXX",
"OOOOOooOOOOoOOO.ooOOooOOOOoOOOOoOOoXXXXoOOOoOOO.ooOOooOOOOoOOOOO",
"oooooOOOOOoOOOo.OOOOOOoOOOOoOOOOOOOOooO..OoOOOo.OOOOOOoOOOOoOOOO",
"OOOOOOOOOoOOOoO.OoooOOOoOOOOooOOOOOO.  .OoOOOoO.OoooOOOoOOOOooOO",
"oOOOOooooOOOoOO.oOOOooOOoOOOOOoooOOOOooooOOOoOO.o.OOooOOoOOOOOoo",
"OooooOOOOOooOOO.oOOOOOoOOoooOOOOOooooOOOOOooOOO.oO.  OoOOoooOOOO",
"oOOOOOOOooOOOOO.OoOOOOOoOOOOoooooOOOOOOOooOOOOO.OoO   OoOOOOoooo",
"....        .....          .........        .....          .....",
"oXXXXXXXXXXooXXXXoXXXXXoXXXXoXX.oXXXXXXXXXXooXXXXoXXXXXoXXXXoXX.",
"OOOOoooooOOOOooooOOOOooOOOOoOOO.OOOOoooooOOOOooooOOOOooOOOOoOOO.",
"OoooOOOOOoooOOOOOooooOOOOOoOOOO.OoooOOOOOoooOOOOOooooOOOOOoOOOO.",
"oOOOOOOOOOOOoooooOOOOOOOooOOOOo.oOOOOOOOOOOOoooooOOOOOOOooOOOOo.",
"OOOOOooooOOOOOOOOOOOOOooOOOoooO.OOOOOooooOOOOOOOOOOOOOooOOOoooO.",
"OOoooOOOOoooooOOOOOoooOOoooOOOO.OOoooO..OoooooOOOOOoooOOoooOOOO.",
"OoOOOOOOOOOOOOoooooOOOOoOOOOOOO.OoOO.     .OOOoooooOOOOoOOOOOOO.",
" .           ............        .           ............       ",
"XoXXXXXXXoooXXo.ooXXXXXoXXXXooXXXoXXXXXXXoooXXo.ooXXXXXoXXXXooXX",
"OOoooooOoXXXoOO.OOooOOOOoOOOOOooOOoooooOoXXXoOO.OOooOOOOoOOOOOoo",
"ooOOOOOoOOOOOOO OOOOoOOOOooO...OooOOOOOoOOOOOOO OOOOoOOOOooOOOOO",
"OOooOOOOooOOOOo ooOOOooOOOOooO..OOooOOOOooOOOOo ooOOOooOOOOooOOO",
"OOOOooOOOOooooO OOooOOOooOOOOooOOOOOooOOOOooooO OOooOOOooOOOOooO",
"oOOOOOooOOOOOOO OOOOooOOOoooOOOooOOOOOooOOOOOOO OOOOooOOOoooOOOo",
"OoOOOOOOooOOOOO.OOOOOOooOOOOoOOOOoOOOOOOooOOOOO.OOOOOOooOOOOoOOO",
".  .........     ...            .  .........     ...            ",
"XoXXXo.OOOoooO..OooXXXXXoXXXXoXXXoXXXo.OOOoooOOOOooXXXXXoXXXXoXX",
"OOooOO.OOOOOOoooOOOooOOOOoOOOOoOOOooOO.OOOOOOoooOOOooOOOOoOOOOoO",
"OOOOoo oooOOOOOOooOOOoOOOOooOOOoOOOOoo oooOOOOOOooOOOoOOOOooOOOo",
"oOOOOO OOOooOOOOOOoOOOoOOOOOoOOOoOOOOO OOOooOOOOOOoOOOoOOOOOoOOO",
"OoOOOO ooOOOooOOOOOoOOOoOOOOOoOOOoOOOO ooOOOooOOOOOoOOOoOOOOOoOO",
"OOoOOO.OOoooO.ooOOOOoOOOoOOOOOoOOOoOOO.OOoooOOooOOOOoOOOoOOOOOoO",
"OOOoOO.OOoOOo .OoooOOooOOoOOOOOoOOOoOO.OOoOOoOOOoooOOooOOoOOOOOo",
"............      .     . ..................      .     . ......",
"oXXoOOoXooXXoXX.XXooXXXoooXXXXXXoXXXXXXXooXXoXX.XXooXXXoooXXXXXX",
"OOoXXXXoOOOoOOO.ooOOooOOOOoOOOOOOOOOOooOOOOoOOO.ooOOooOOOOoOOOOo",
"OOOOooO..OoOOOo.OOOOOOoOOOOoOOOOoooooOOOOOoOOOo.OOOOOOoOOOOoOOOO",
"OOOO.  .OoOOOoO.OoooOOOoOOOOooOOOOOOOOOOOoOOOoO.OoooOOOoOOOOooOO",
"oOOOOooooOOOoOO.o.OOooOOoOOOOOoooOOOOooooOOOoOO.oOOOooOOoOOOOOoo",
"OooooOOOOOooOOO.oO.  OoOOoooOOOOOooooOOOOOooOOO.oOOOOOoOOoooOOOO",
"oOOOOOOOooOOOOO.OoO   OoOOOOoooooOOOOOOOooOOOOO.OoOOOOOoOOOOoooo",
"....        .....          .........        .....          .....",
"oXXXXXXXXXXooXXXXoXXXXXoXXXXoXX.oXXXXXXXXXXooXXXXoXXXXXoXXXXoXX.",
"OOOOoooooOOOOooooOOOOooOOOOoOOO.OOOOoooooOOOOooooOOOOooOOOOoOOO.",
"OoooOOOOOoooOOOOOooooOOOOOoOOOO.OoooOOOOOoooOOOOOooooOOOOOoOOOO.",
"oOOOOOOOOOOOoooooOOOOOOOooOOOOo.oOOOOOOOOOOOoooooOOOOOOOooOOOOo.",
"OOOOOooooOOOOOOOOOOOOOooOOOoooO.OOOOOooooOOOOOOOOOOOOOooOOOoooO.",
"OOoooO..OoooooOOOOOoooOOoooOOOO.OOoooOOOOoooooOOOOOoooOOoooOOOO.",
"OoOO.     .OOOoooooOOOOoOOOOOOO.OoOOOOOOOOOOOOoooooOOOOoOOOOOOO."
};
