/* XPM */
static char *ec0c600777474a64baca849868af6753jVn8RaV17xdwvL8Q[] = {
/* columns rows colors chars-per-pixel */
"64 64 198 2 ",
"   c None",
".  c #220F08",
"X  c #231008",
"o  c #2B160D",
"O  c #2D180F",
"+  c #2F1910",
"@  c #331E11",
"#  c #3F251B",
"$  c #5B3E1F",
"%  c #763E07",
"&  c #4D2F2E",
"*  c #472C20",
"=  c #4F302E",
"-  c #533526",
";  c #5A3A27",
":  c #51322E",
">  c #5D3C2D",
",  c #422632",
"<  c #5B3A32",
"1  c #613F2B",
"2  c #2E5A00",
"3  c #386D00",
"4  c #3E7900",
"5  c #5E421E",
"6  c #424C00",
"7  c #7C420D",
"8  c #63481E",
"9  c #67491F",
"0  c #70550B",
"q  c #476E0D",
"w  c #6B4A26",
"e  c #714D29",
"r  c #6E5023",
"t  c #755626",
"y  c #7D552F",
"u  c #78562A",
"i  c #644232",
"p  c #684535",
"a  c #6D4836",
"s  c #704A36",
"d  c #764F39",
"f  c #765039",
"g  c #7D5838",
"h  c #5A7F35",
"j  c #7F6331",
"k  c #265C42",
"l  c #72594B",
"z  c #7E624D",
"x  c #6F625B",
"c  c #7A675A",
"v  c #625F64",
"b  c #79767B",
"n  c #706D73",
"m  c #5A504D",
"M  c #854307",
"N  c #894A18",
"B  c #96511E",
"V  c #93520A",
"C  c #A64D00",
"Z  c #9A5629",
"A  c #975324",
"S  c #845A38",
"D  c #865324",
"F  c #AB5D2B",
"G  c #A85B28",
"H  c #8E6834",
"J  c #92643E",
"K  c #9C6C3F",
"L  c #937334",
"P  c #9A7C3E",
"I  c #987838",
"U  c #906E2E",
"Y  c #B5622D",
"T  c #BA6531",
"R  c #A17D33",
"E  c #A4743D",
"W  c #A27E2E",
"Q  c #C65800",
"!  c #DB6709",
"~  c #EE7311",
"^  c #EC7E25",
"/  c #CA6D35",
"(  c #886649",
")  c #976B44",
"_  c #9A7447",
"`  c #876A52",
"'  c #8C725A",
"]  c #927256",
"[  c #9F7A55",
"{  c #997859",
"}  c #A16F40",
"|  c #A57242",
" . c #A87443",
".. c #AB7846",
"X. c #AE7C4A",
"o. c #A67A49",
"O. c #B17F45",
"+. c #A37952",
"@. c #AA7D52",
"#. c #A37E5B",
"$. c #887768",
"%. c #907A67",
"&. c #D77643",
"*. c #448500",
"=. c #4F9109",
"-. c #3E8948",
";. c #728E55",
":. c #63C64F",
">. c #A5822E",
",. c #AA8435",
"<. c #A6843A",
"1. c #B48C37",
"2. c #BD943A",
"3. c #FF831F",
"4. c #C59C3A",
"5. c #D1933E",
"6. c #D6AE3D",
"7. c #E7A333",
"8. c #FDAE35",
"9. c #F5B530",
"0. c #F98B32",
"q. c #FECA39",
"w. c #FFDB3C",
"e. c #FFD32C",
"r. c #AB8B40",
"t. c #A38541",
"y. c #B48546",
"u. c #B7874B",
"i. c #AC835C",
"p. c #B58552",
"a. c #B88C56",
"s. c #BF905B",
"d. c #BA9048",
"f. c #B19374",
"g. c #AF8D6D",
"h. c #C1915B",
"j. c #C99345",
"k. c #CFA742",
"l. c #D5AA41",
"z. c #DAAD43",
"x. c #DCB445",
"c. c #E1B543",
"v. c #E8BA44",
"b. c #C69862",
"n. c #EBC346",
"m. c #E9C44C",
"M. c #F5CA46",
"N. c #FDD24A",
"B. c #EBCB53",
"V. c #FEDD58",
"C. c #F8D856",
"Z. c #FCE151",
"A. c #F7DD67",
"S. c #F5DE75",
"D. c #F9E268",
"F. c #FCEA7A",
"G. c #FBE875",
"H. c #7F7D80",
"J. c #807E83",
"K. c #89868B",
"L. c #9D9D9D",
"P. c #979496",
"I. c #918D8E",
"U. c #A5988B",
"Y. c #BBA38B",
"T. c #A1B48E",
"R. c #BAA897",
"E. c #A09EA3",
"W. c #A3A3A3",
"Q. c #ABABAB",
"!. c #B9B8B7",
"~. c #BFB6AE",
"^. c #C6B59D",
"/. c #DFBA9E",
"(. c #C0B4AA",
"). c #CDBBA8",
"_. c #B9C7AA",
"`. c #FDED83",
"'. c #FEF089",
"]. c #FFF393",
"[. c #C5CEBC",
"{. c #D5C4B5",
"}. c #D3C0AF",
"|. c #E2C4AA",
" X c #C5C5C5",
".X c #CCCCCD",
"XX c #C4C4C8",
"oX c #CECED1",
"OX c #D1D1D2",
"+X c #DADADA",
"@X c #D7D7D8",
"#X c #D5D6CA",
"$X c #E4E0DD",
"%X c #DFDFE0",
"&X c #E4E4E4",
"*X c #EBEBEC",
"=X c #FDFDFD",
"-X c #F4F4F5",
/* pixels */
"                                                                                                                                ",
"                                                                                                                                ",
"                                                                                                                                ",
"                                                                                                                                ",
"                                              N.                                      8.8.8.                                    ",
"                                              q.V.                                    8.8.8.                                    ",
"                                            V.q.M.V.                                  &.&.&.                                    ",
"                                            V.q.q.V.                                  -.-.:.                                    ",
"                                              w.e.N.                                  -.-.:.                                    ",
"                    & = : & & : = = i j _ t.7.w.Z.9.t.J g i : : : : : : = = : : : : : -.-.:.: : : : : : : <                     ",
"                  = S J J J J J J J K  .y.d.7.w.w.9.d.y.| ) J J J ) J J J J J J S ) k -.-.-.-.J J J J J ) S <                   ",
"                & d )  . . . . . . . .O.y.d.j.v.9.5.d.y...|  . .|  . . . . . . ...k k k k k -.-. . .| | | ) s <                 ",
"              & S | |  . . . . . . . . ...y.u.^.^.a.y. . . . . .|  . . . . . . . .k k k k k k -. . . . . . .| S =               ",
"            = g )  . . . . . . . . . . .E ..E &X+Xt. . . . . . . . . . . . . . . ., k k k k k ,  . . . . . .| ) g <             ",
"          = s | | |  . . . . . . . . . . . . .+XoX+. . .| ] ) _  . . . . . . . . ., , , , , , ,  . . . . . . . . .s &           ",
"          = s | | |  . . . . . . . . . . . .] OXXXc |  .%.P.K.`  . . . . . . . . ., , , , , , ,  . . . . . . . .| s &           ",
"          & s  . . . . . . . . . . . . . .{ P.oXXXP.x c L.b n b z  . . . . . . . ., , , , , , ,  . . . . . . . . .s &           ",
"          & s |  . . . . . . . . . . . .] I.n @XXXH.b v $.) ` n z  . . . . . . . .k , , , , , -. . . . . . . . .| s &           ",
"          & s |  . . . . . . . . . . . .z K.b !.E.H.H.m J  .) v z  . . . . . . . .k k k k k k -. . . . . . . . .| s &           ",
"          & s |  . . . . . . . . . . . .| z K.E.K.H.m S )  .| )  . . . . . . . . .k k k k k k -. . . . . . . . . .s &           ",
"          & s |  . . . . . . . . . . . . ._ z x x l S )  . . . . . . . . . . . . . .k k k k k  . . . . . . . . .| s &           ",
"          & s |  . . . . . . . . . . . . . . .| |  .|  . . . . . . . . . . . . . . . .k k k  . . . . . . . . . .| s &           ",
"          & s  . . . . . . . . . . . . . . . . . . . . . . . . . . . . . . . . . . . . . . . . . . . . . . . . .| s &           ",
"          & s |  . . . . . . . . . . . . . . . . . . . . . . . . . . . . . . . . . . . . . . . . . . . . . . . .| s &           ",
"          & s |  . . . . . . . . . . . . . . . . . . . . . . . . . . . . . . . . . . . . . ... . . . . . . . . . .s &           ",
"          & s |  . . . . . . . . . . . . . . . . . . . . . . . . . . . . . . . .| E ,.>.>.>.>.E I  . ... . . . .| s &           ",
"          & s |  . . . . . . . . . . . . . . . . . . . . . . . . . . . .| e 5 D l.6.C.F.`.`.D.B.6.4.t 5 $ ..| | | s &           ",
"          & s  . . . . . . . . . . . . . . . . . . . . . . . . . . . . .u L >.B.D.].'.].'.].].`.G.C.k.L _ w H  . .s &           ",
"          & s |  . . . . .@.g. XXXXXXX.X X XXXg.@..... . . . . . . . . .5 I 2.G.].].].].].].].`.'.D.C.U P j u  .| s &           ",
"          & s |  . .| @.g.(.oX$X).).{.).^.^.@X+X.Xg.#. . . . . . . . ...8 t.B.G.].'.`.C.S.].'.].'.'.C.4.L j y  .| s &           ",
"          & s |  . .@.Y..X*X=Xf.N B B N % % f.).-X.X(.@. . . . . . ...E 8 U m.C.].F.C.6.m.`.].].'.`.n.4.U j y  .| s &           ",
"          & s |  .@.(.&X=XT.;.N Z B G G N N N % +.=X*X(.#... . . . ...E 8 L x.M.B.v.2.,.1.S.F.F.A.v.z.1.H H y  .| s &           ",
"          = s |  .~.&X=XT.=.3 0 Y A G B A Z A A 7 Y.=X&X~.i. . . . . . .8 <.2.n.z.z.2.R c.C.m.v.v.z.l.R L j u  .| s &           ",
"          = a  . ..X=X_.*.=.2 6 N / T Z T Z F B Z 7 #.=X.X#. . . . . . .8 <.>.6.c.6.R W m.n.z.z.c.l.1.H I j y | | s &           ",
"          & s  . .&X=X_.3 4 =.3 0 M B Y T T G B F N +.=X&X{  . . . . . .5 t.I <.,.I K I 4.6.v.6.4.,.L P t.j y  . .s &           ",
"          & a  . .&X=XOXq *.3 V ! C M C G F G G A D Y.=X$X`  . . . . . .5 t.r.t.r.r.<.<.I 1.1.,.1.P <.r.<.w y  .| s &           ",
"          & s |  .OX=X=X[.h V ^ ~ ~ ^ ! V % % % % {.=X-X.X( |  . . . . .t u t t u t t t r 9 9 w t t t t w $ S  .| s &           ",
"          = a  . .Q.*X=X=X[./.! ! 0.~ ! |.).).R.R.=X=X+XQ.(  . . . . . .J e w w w w w w r w w w w w w w w S J  .| s &           ",
"          = a |  .+.Q.*X=X=X=X*X/.Q Q -X*X*X*X-X=X-X+XL.( S  . . . . . .| | _ E | K | | E | | | | | } | E } |  .| s &           ",
"          = s  . . .[ U.OX*X=X=X=X=X=X=X=X=X=X-X*X!.L.z S E  . . . . . .|  . . . .| |  . .|  . .|  .|  .|  . . . .s &           ",
"          & s |  . . .+.U.~.oX&X*X*X*X*X*X*X+X.XQ.$.' H )  . . . . . . . . . . . . . . . . . . . . . . . . . . .| s &           ",
"          & s  . . . . .} [ ] L.E.W.W.W.W.W.E.%.] J )  . . . . . . . . . . . . . . . . . . . . . . . . . . . . .| s &           ",
"          & s |  . . . . . .| #.#.{ ] ' ' ] { _ )  . . . . . . . . . . . . . . . . . . . . . . . . . . . . . . .| s &           ",
"          & d p... . . . . . . . . .| E E |  . . . . . . . . . . . . . . . . . . . . . . . . . . . . . . . . .X.p.d &           ",
"          & z h.p. . . . . . . . . . . . . . . . . . . . . . .|  . . . . . . . . . . . . . . . . . . . . . . .p.b.z &           ",
"            = ( o.p.X. . . . . . . . . . . . . . .|  . . . . ... . . . . . . . . . . . . . . . . . . . . .X.p.+.( &             ",
"              = ` s.X...........................X.........................................................X.a.) &               ",
"                & & X.h.h.h.h.h.h.h.h.h.h.h.h.h.h.h.h.h.h.h.h.h.h.h.h.h.h.h.h.h.h.h.h.h.h.h.h.h.h.h.h.h.h.+.& &                 ",
"                  @ ( h.h.h.h.h.s.s.s.s.s.s.h.s.h.s.s.s.s.s.s.s.s.s.s.s.h.h.h.h.s.s.h.s.s.s.s.s.h.h.h.h.s.p.@                   ",
"                  o 1 f f f f f d d d f l f f d d f f f f f f f d l f f f f f f l f f f f f d d f f f d f i o                   ",
"                  o ; a p p p p > * - p i p p p p p p p p p p p i p p p p p p p p p p p p : * > p p p p a ; o                   ",
"                  o 1 s p p p p - . * i i i i i i i i i i i i i i i i i i i i i i i i i i # . - p p p p s > o                   ",
"                  o w d d d s s ; . o o O O + o O O O O O O O O O + + o + o + + o o O o o o . ; d d d d d 1 o                   ",
"                  o ; d f f f f ; X o                                                     o X ; d d d d d 1 o                   ",
"                  o 1 d d d d f ; X                                                         X ; d f d d d ; o                   ",
"                  o i d d f f f ; X                                                         X ; f d d d d w o                   ",
"                  o 1 d d d y f ; X                                                         X ; d f d d d i o                   ",
"                  o 1 d d d f f ; X                                                         X ; d f y d d > o                   ",
"                  o 1 f f f d d ; X                                                         X ; d y d d d w o                   ",
"                  o 1 d f f y d ; X                                                         X ; f f d d d ; o                   ",
"                    o o o o o o o                                                             o o o o o o o                     ",
"                                                                                                                                ",
"                                                                                                                                ",
"                                                                                                                                "
};
