/* XPM */
static char *result[] = {
/* columns rows colors chars-per-pixel */
"64 64 205 2 ",
"   c #220F08",
".  c #231008",
"X  c #2B160D",
"o  c #2D180F",
"O  c #2E1910",
"+  c #331E11",
"@  c #3F251B",
"#  c #292627",
"$  c #272323",
"%  c #323234",
"&  c #5B3E1F",
"*  c #763E07",
"=  c #4D2F2E",
"-  c #472C20",
";  c #4F302E",
":  c #533526",
">  c #5A3A27",
",  c #51322E",
"<  c #5D3C2D",
"1  c #422632",
"2  c #5B3C35",
"3  c #613F2B",
"4  c #2E5A00",
"5  c #386D00",
"6  c #3E7900",
"7  c #5E421E",
"8  c #424C00",
"9  c #7C420D",
"0  c #63481E",
"q  c #67491F",
"w  c #70550B",
"e  c #476E0D",
"r  c #6B4A26",
"t  c #6E5023",
"y  c #755626",
"u  c #7D552F",
"i  c #78562A",
"p  c #644232",
"a  c #684535",
"s  c #6D4836",
"d  c #704A36",
"f  c #764F39",
"g  c #765039",
"h  c #7D5839",
"j  c #714D29",
"k  c #5A7F35",
"l  c #7F6331",
"z  c #265C42",
"x  c #444444",
"c  c #5A504D",
"v  c #72594B",
"b  c #7E624D",
"n  c #6F625B",
"m  c #7A675A",
"M  c #625F64",
"N  c #79767B",
"B  c #706D73",
"V  c #854307",
"C  c #894A18",
"Z  c #96511E",
"A  c #93520A",
"S  c #A64D00",
"D  c #9A5629",
"F  c #975324",
"G  c #845B38",
"H  c #865324",
"J  c #A95C2A",
"K  c #8E6834",
"L  c #92643E",
"P  c #9C6C3F",
"I  c #977838",
"U  c #906E2E",
"Y  c #B5622D",
"T  c #BA6531",
"R  c #A17D33",
"E  c #A4743D",
"W  c #A27E2E",
"Q  c #C65800",
"!  c #DB6709",
"~  c #EE7311",
"^  c #EC7E25",
"/  c #CA6D35",
"(  c #876549",
")  c #976B44",
"_  c #9A7447",
"`  c #876A52",
"'  c #927256",
"]  c #9C7957",
"[  c #8E7157",
"{  c #A16F40",
"}  c #A57242",
"|  c #A87443",
" . c #AB7846",
".. c #AA7B4A",
"X. c #B17F45",
"o. c #A37952",
"O. c #AA7D52",
"+. c #A37E5B",
"@. c #887768",
"#. c #907A67",
"$. c #D77643",
"%. c #448500",
"&. c #4F9109",
"*. c #3E8948",
"=. c #728E55",
"-. c #63C64F",
";. c #A5822E",
":. c #A88438",
">. c #B48C37",
",. c #BD943A",
"<. c #FF831F",
"1. c #C59C3A",
"2. c #D1933E",
"3. c #D6AE3D",
"4. c #E7A333",
"5. c #FDAE35",
"6. c #F5B530",
"7. c #F98B32",
"8. c #FFDB3C",
"9. c #FFD035",
"0. c #AB8B40",
"q. c #A38541",
"w. c #B48546",
"e. c #B7874B",
"r. c #AC835C",
"t. c #B58552",
"y. c #B88C56",
"u. c #BF905B",
"i. c #BA9048",
"p. c #B08F6F",
"a. c #C1915B",
"s. c #C99345",
"d. c #CFA742",
"f. c #D5AA41",
"g. c #DAAD43",
"h. c #DCB445",
"j. c #E4B743",
"k. c #C69862",
"l. c #EBC346",
"z. c #E9C44C",
"x. c #F4CC47",
"c. c #EBCB53",
"v. c #F7D957",
"b. c #FCE151",
"n. c #FAD969",
"m. c #FADB78",
"M. c #F9E268",
"N. c #FCE978",
"B. c #7F7D80",
"V. c #807E83",
"C. c #9D9D9D",
"Z. c #979496",
"A. c #8B888C",
"S. c #A5988B",
"D. c #BBA38B",
"F. c #A1B48E",
"G. c #BAA897",
"H. c #A09EA3",
"J. c #A6A6A6",
"K. c #BBB7B5",
"L. c #C6B59D",
"P. c #DFBA9E",
"I. c #C0B4AA",
"U. c #CDBBA8",
"Y. c #B9C7AA",
"T. c #FDED83",
"R. c #FDE28B",
"E. c #FEF089",
"W. c #FFF393",
"Q. c #FEE79D",
"!. c #D5C4B5",
"~. c #CAC9B8",
"^. c #E2C4AA",
"/. c #FFEEAD",
"(. c #F6E5A6",
"). c #F5E9B7",
"_. c #FFF0B5",
"`. c #FFF2BD",
"'. c #C5C5C5",
"]. c #CCCCCD",
"[. c #C4C4C8",
"{. c #CECED1",
"}. c #D0D0D2",
"|. c #DADADA",
" X c #D7D7D8",
".X c #D5D6CA",
"XX c #EEE7CF",
"oX c #FEF3C5",
"OX c #FFF5CB",
"+X c #EFE8D2",
"@X c #E8E5DC",
"#X c #FFF8DC",
"$X c #FFF7D4",
"%X c #F0E7C4",
"&X c #DFDFE0",
"*X c #E4E3E5",
"=X c #ECEAE5",
"-X c #EBEBED",
";X c #E8E7E9",
":X c #FFFAE6",
">X c #F6F5F5",
",X c #F8F7F7",
"<X c #FFFFFF",
"1X c #FEFCF5",
"2X c #F0EFEE",
/* pixels */
"# # # # # # # # # # # # # % # # }.}.}.-X-X-X-X=X1X1X-X<X<X<X<X-X# # # # # # # # # # # # # % # # }.}.}.-X-X-X-X-X<X<X-X<X<X<X<X-X",
"# # # # # # # # # # # # % # # # }.}.-X-X-X+X+X#X#XXX:X<X<X<X-X<X# # # # # # # # # # # # % # # # }.}.-X-X-X-X-X<X<X-X<X<X<X<X-X<X",
"# # # # # # # # # # # % # # # # }.-X-X=XXX%XoXoX).oX$X:X1X-X<X<X# # # # # # # # # # # % # # # # }.-X-X-X-X-X<X<X-X<X<X<X<X-X<X<X",
"# # # # # # # # # # % # # # # # -X-X=XXX).`._.(._._.`.OX+X<X<X<X# # # # # # # # # # % # # # # # -X-X-X-X-X<X<X-X<X<X<X<X-X<X<X<X",
"# # # # # # # # # % # # # # # % -X-X@X%XoX).(.Q././._.).#X:X<X<X# # # # # # # # # % # 5.5.5.# % -X-X-X-X<X<X-X<X<X<X<X-X<X<X<X<X",
"# # # # # # # # % # # # # # % % -X=XXXoX_.(./.n././.(._.OX:X<X<X# # # # # # # # % # # 5.5.5.% % -X-X-X<X<X-X<X<X<X<X-X<X<X<X<X<X",
"# # # # # # # % # # # # # % % % -X=X#XoX(././.n.m.Q./._.OX#X<X<X# # # # # # # % # # # $.$.$.% % -X-X<X<X-X<X<X<X<X-X<X<X<X<X<X<X",
"# # # # # # % # # # # # % % % % -X,X#X)._././.9.x.(./._.oX#X1X<X# # # # # # % # # # # *.*.-.% % -X<X<X-X<X<X<X<X-X<X<X<X<X<X<X<X",
"# # # # # % # # # # # % % % % % <X,XXXoX)././.8.9.R./._.OX:X<X<X# # # # # % # # # # # *.*.-.% % >X>X&X>X>X>X1X-X<X<X<X<X<X<X<X<X",
"# # # # % # # # # # = = = ; ; ; ; , p l I ..4.8.b.6.q.L h 3 ; = , , , , ; ; ; , , , , *.*.-.; ; , , ; ; = 2 -X<X<X<X<X<X<X<X<X<X",
"# # # % # # # # # = G L L ) L L L L P E 0.i.4.8.8.6.i.w.} ) ) L L L ) G L L L L L ) z *.*.*.*.L L L L L L ( 2 ,X<X<X<X<X<X<X<X<X",
"# # % # # # $ $ = g ) | } | | | | | |  .e.i.s.j.6.2.i.w.| } | | | | |  .| | | | | z z z z z *.*.| | | | } P f 2 -X<X<X<X<X<X<X<X",
"# % # # # # # = G } } | } | | | | | | |  .w.e.L.L.y.w.} | | | | | | | | | | | | | z z z z z z *.| | | | | | } G 2 ,X<X<X<X<X<X<X",
"% # # # # # = G L | | | | | | | | | | | E |  .@X|.q.} } | | | | | | | | | | | | | 1 z z z z z 1 | | | | | | | L v 2 <X<X<X<X<X<X",
"# # # # # = s } | | | | | | | | | | | | | | | |.}.o.| | } ) ' ) | | | | | | | | | 1 1 1 1 1 1 1 | | | | | | | | | d = <X<X<X<X-X",
"# # # # % = d | | | | | | | | | | | | | | | ' }.[.m | | #.Z.A.` | | | | | | | | | 1 1 1 1 1 1 1 | | | | | | | | | d = 1X<X<X-X<X",
"}.}.}.-X-X= s } | | | | | | | | | | | | | #.Z.].[.A.n ` C.B.B N b | | | | | | | | 1 1 1 1 1 1 1 | | | | | | | | | d = # # % # # ",
"}.}.-X-X-X= s | | | | | | | | | | | | | ' A.B  X].V.V.M @.( ` B b | | | | | | | | z 1 1 1 1 1 *.| | | | | | | | } d = # % # # # ",
"}.-X-X-X-X; s | | | | | | | | | | | | | b A.N K.C.N V.c G | ) M b | | | | | | | | z z z z z z *.| | | | | | | | } d = % # # # # ",
"-X-X-X-X-X; s | | | | | | | | | | | | | } ( A.H.A.V.c u } | | ) | | | | | | | | | z z z z z z *.| | | | | | | | | d = # # # # # ",
"-X-X-X-X<X= s | | | | | | | | | | | | | | ) b n n n G P | | | | | | | | | | | | | | z z z z z | | | | | | | | | } d = # # # # % ",
"-X-X-X<X<X= s } | | | | | | | | | | | | | | } | } } } } | | | | | | | | | | | | | | | z z z | | | | | | | | | | | d = # # # % % ",
"-X-X<X<X-X; s | | | | | | | | | | | | | } | | | | | | | | | | | | | | | | | | | | | | | | | | | | | | | | | | | } d = # # % % % ",
"-X<X<X-X<X; s | | | | | | | | | | | | |  .| | | | | | | | | | | | | | | | | | | | | | | | | | | | | | | | | | | } d = # % % % % ",
"<X<X-X<X<X= d | } | | | | | | | | | | | | | | | | | | | | | | | | | | | | | | | | | |  .| | | | | |  .} | | }  .} d = % % % % % ",
"<X-X<X<X<X= d } | | | | | | | | | | | | | | | | | | | | | | | | | | | | | | | | E E :.;.;.;.;.E E | E } | | | } } d = % % % % x ",
"-X<X<X<X<X= d } | | | | | | | | | | | | | | | | | | | | | | | | | | | | } y 0 H f.3.n.N.T.T.M.c.3.1.y 7 7  .} } | d = % % % x x ",
"<X<X<X<X-X; d } | | | | | | | | | | | | | | | } | | | | | | | | | | | | y I I c.M.E.E.W.E.E.W.E.M.v.d.I _ r K | } d = % % x x % ",
"<X<X<X-X<X= d } | | | | | O.p.'.[.[.].[.'.'.'.p.O. .| | | | | | | | | | 7 I 1.N.W.W.W.W.W.W.W.T.W.M.v.U I K u } } d = % x x % x ",
"<X<X-X<X<X= s | | | } O.p.I.}.@XU.!.U.!.L.L. X|.[.p.r.| | | | | | | | | 0 I c.N.W.E.T.v.M.W.E.W.E.E.v.1.U l u } } d = x x % x x ",
"<X-X<X<X<X= d | | | O.D.].*X<Xp.9 Z Z C * * p.U.>X].I.O.| | | | | | | | q U j.M.W.N.v.3.z.E.W.W.E.T.l.1.U u G | | d = x % x x x ",
"-X<X<X<X<X= d } | O.I.*X<XF.=.C F Z J J C C C 9 o.<X-XI.r.| | | | | | | q U h.9.c.j.1.:.:.m.N.N.M.j.g.>.U G u | } d = % x x x x ",
"# # # # # = d | | K.*X,XF.&.5 w Y F J Z F D Z F * L.<X*XI.r.| | | | | | 0 q.,.l.h.g.,.W j.c.z.j.j.g.f.R I l i | } d = <X<X<X<X-X",
"# # # # # = d } | ].<XY.%.&.4 8 C / Y D T D J Z F 9 ] <X].+.| | | | | | 0 :.;.3.j.d.R W z.x.g.g.j.g.>.K I l i | } d = <X<X<X-X<X",
"# # # # # = d } | *X<XY.5 6 &.e w V F Y T T J Z J C ] <X=X] | | | | | | 7 q.I :.R I P I 1.3.j.3.d.:.I I _ l H | | d = ,X<X-X<X<X",
"# # # # # = d } | *X<X}.e %.6 A ! S V S J J J J C H D.<X@X` | | | | | | 7 q.0.0.0.0.>.:.I >.>.:.:.:.:.0.q.r u | } d = >X-X<X<X<X",
"# # # # # ; s } | }.<X<X~.*.A ~ ~ ~ ^ ! A * * * * !.,X,X].` | | | | | | y h y y j y y y t q q r y y y y r & G E } d = *X<X<X<X<X",
"# # # # # ; s } | J.-X<X<X~.P.! ! 7.~ ! ^.U.L.G.L.<X<X XJ.( | | | | | | K r r r r r r r r r r r r r r r r G L | } s = ,X<X<X<X<X",
"# # # # # ; d | | o.J.=X<X<X<X-XP.Q Q 2X-X-X-X,X<X,X|.C.( G | | | | | | } { _ E { } } { E } } E ) } } E P } | | | d ; ,X<X<X<X<X",
"# # # # # ; d } | } +.S.}.-X,X<X<X<X<X<X<X<X<X>X;XK.C.b G { | | | | | | | | | } | | | | | | | | | | } | | | | | } d ; >X<X<X<X<X",
"# # # # # = d } | | | o.S.K.].;X-X-X-X-X-X-X&X].J.#.@.G E | | | | | | | | | | | | | | | | | | | | | | | | | | | } d = >X<X<X<X<X",
"# # # # % = d } | | | | P o.' C.C.J.J.J.J.C.C.#.[ L P } | | | | | | | | | | | | | | | | | | | | | | | | | | | | } d = ,X<X<X<X<X",
"# # # % # = d } | | | | | | E +.] ] ' [ [ ' ] _ { } | | | | | | | | | | | | | | | | | | | | | | | | | | | | | | } s = <X<X<X<X<X",
"# # % # # ; g t. .| | | | | | | | | } } } } } } | | | | | | | | | | | | | | | | | | | | | | | | | | | | | | |  .t.f = ,X<X<X<X<X",
"# % # # # = v a.t.| | | | | | | | | | | } | | | | | | | | | | | | | | | | | | | | | | | | | | | | | | | | | | t.a.b = -X<X<X<X<X",
"% # # # # # = ) O.t. .| | | | | | | | | | | | | | | | | | | | | | | | | | | | | | | | | | | |  .| | | |  . .t.O.( = <X<X<X<X<X<X",
"# # # # # % % = ( u.w. . . ... . . . . . . . . ... . . . . ... . . . . . . . . . . . . . . . . . . . . .| O.y.' , >X<X<X<X<X<X-X",
"# # # # % % % % = = o.a.a.a.a.a.a.a.a.a.a.a.a.a.a.a.a.a.a.a.a.a.a.a.a.a.a.a.a.a.a.a.a.a.a.a.a.a.a.a.a.a.a. .= = <X<X<X<X<X<X-X<X",
"}.}.}.-X-X-X-X-X2X+ ( a.a.a.u.a.a.a.u.u.u.a.a.u.a.a.a.u.a.a.a.a.u.u.u.u.a.u.a.u.u.u.u.u.u.u.u.a.a.a.a.a.a.t.+ # # # # # # % # # ",
"}.}.-X-X-X-X-X<X<XX 3 g g g g g g g g g v g g f v f f f g f f g g g f v g g g g g g g g g g g g g g g f g 3 X # # # # # % # # # ",
"}.-X-X-X-X-X<X<X-XX > s a a a a < - : a p a a a a a p a a a a s a a a a a a a a a a p a a , - < a a a a s > X # # # # % # # # # ",
"-X-X-X-X-X<X<X-X<XX < d a a a a -   - p a 3 a 3 p p 3 a p a 2 3 p p p p p p p p p p p p p -   : a a a a d 3 X # # # % # # # # # ",
"-X-X-X-X<X<X-X<X,XX 3 f g d d d : . X o o X o o o o X o o X X X O O o o o o o O O X X X o X   : f d d d f 3 X $ # % # # # # # % ",
"-X-X-X<X<X-X<X<X1XX 3 g g g g g > . X # # # # # % # # # # # % % *X*X*X,X,X-X<X,X<X,X*X<X<XX   > g g u f f 3 X # % # # # # # % % ",
"-X-X<X<X-X<X<X<X>XX 3 u g g g g > . $ $ # # # % # # # # # % % % ;X-X<X<X;X,X<X<X<X-X<X>X,X<X. > g g g g f 3 X % # # # # # % % % ",
"-X<X<X-X<X<X<X<X*XX p g g g g g > . # # # # % # # # # # % % % % -X<X<X-X<X<X<X<X-X<X<X<X<X,X. > g g g g f 3 X # # # # # % % % % ",
"<X<X-X<X<X<X<X-X,XX 3 f g g g f > . # # # % # # # # # % % % % % <X<X-X<X<X<X<X-X<X<X<X<X<X<X. > f f f f G 3 X # # # # % % % % % ",
"<X-X<X<X<X<X-X<X<XX 3 f g g g f > . # # % # # # # # % % % % % x <X-X<X<X<X<X-X<X<X<X<X<X<X,X. > f d G f 3 < X # # # % % % % % z ",
"-X<X<X<X<X-X<X<X,XX 3 f f f u f > . # % # # # # # % % % % % x x -X<X<X<X<X-X<X<X<X<X<X<X<X<X  > f f G d G 2 X $ # % % % % % x x ",
"<X<X<X<X-X<X<X<X>XX 3 f f f g g > . % # # # # # % % % % % x x % <X<X<X<X-X<X<X<X<X<X<X<X<X>X. > G f G 3 G < X # % % % % % x x % ",
"<X<X<X-X<X<X<X<X<X<XX X o X X X X % # # # # # % % % % % x x % x <X<X<X-X<X<X<X<X<X<X<X<X<X<X<Xo X   X X X X # % % % % % x x % x ",
"<X<X-X<X<X<X<X<X<X<X<X<X<X<X<X<X% # # # # # % % % % % x x % x x <X<X-X<X<X<X<X<X<X<X<X<X<X<X<X<X1 # # # # # % % % % % x x % x x ",
"<X-X<X<X<X<X<X<X<X<X<X<X<X<X<X-X# # # # # % % % % % x x % x x x <X-X<X<X<X<X<X<X<X<X<X<X<X<X<X-X# # # # # % % % % % x x % x x x ",
"-X<X<X<X<X<X<X<X<X<X<X<X<X<X-X<X# # # # % % % % % x x % x x x x -X<X<X<X<X<X<X<X<X<X<X<X<X<X-X,X# # # # % % % % % x x % x x x x "
};
