/* XPM */
static char *dac0dba13505406fd3871bc184f9c697aQGLgfEHJhOChZmC[] = {
/* columns rows colors chars-per-pixel */
"32 32 7 1 ",
"  c None",
". c #1A0903",
"X c #4D2F2E",
"o c #684535",
"O c #775038",
"+ c #A87443",
"@ c #CC9E66",
/* pixels */
"                                ",
"                                ",
"   XXXXXXXXXXXXXXXXXXXXXXXXXX   ",
"  X++++++++++++++++++++++++++X  ",
" X++++++++++++++++++++++++++++X ",
"X++++++++++++++++++++++++++++++X",
"X++++++++++++++++++++++++++++++X",
"X++++++++++++++++++++++++++++++X",
"X++++++++++++++++++++++++++++++X",
"X++++++++++++++++++++++++++++++X",
"X++++++++++++++++++++++++++++++X",
"X++++++++++++++++++++++++++++++X",
"X++++++++++++++++++++++++++++++X",
"X++++++++++++++++++++++++++++++X",
"X++++++++++++++++++++++++++++++X",
"X++++++++++++++++++++++++++++++X",
"X++++++++++++++++++++++++++++++X",
"X++++++++++++++++++++++++++++++X",
"X++++++++++++++++++++++++++++++X",
"X++++++++++++++++++++++++++++++X",
"X++++++++++++++++++++++++++++++X",
"X++++++++++++++++++++++++++++++X",
"X++++++++++++++++++++++++++++++X",
"X@++++++++++++++++++++++++++++@X",
" X@++++++++++++++++++++++++++@X ",
"  .@@@@@@@@@@@@@@@@@@@@@@@@@@.  ",
"  .oooooooooooooooooooooooooo.  ",
"  .Oooo.oooooooooooooooo.oooO.  ",
"  .OOOO..................OOOO.  ",
"  .OOOO.                .OOOO.  ",
"  .OOOO.                .OOOO.  ",
"  .OOOO.                .OOOO.  "
};
