/* XPM */
static char * p_du_out_xpm[] = {
"64 64 576 2",
"  	c #292627",
". 	c #3B312A",
"+ 	c #7E603F",
"@ 	c #2C1F00",
"# 	c #190F00",
"$ 	c #020100",
"% 	c #000436",
"& 	c #010743",
"* 	c #191C3F",
"= 	c #000435",
"- 	c #000749",
"; 	c #0C1358",
"> 	c #3A3D76",
", 	c #3F4174",
"' 	c #0B156A",
") 	c #000C65",
"! 	c #010660",
"~ 	c #010556",
"{ 	c #00064C",
"] 	c #00053F",
"^ 	c #000431",
"/ 	c #000225",
"( 	c #000226",
"_ 	c #00032F",
": 	c #00043C",
"< 	c #00084E",
"[ 	c #000114",
"} 	c #000000",
"| 	c #2A1E11",
"1 	c #96734F",
"2 	c #493F38",
"3 	c #D0D0D2",
"4 	c #EBEBED",
"5 	c #FFFFFF",
"6 	c #48392E",
"7 	c #C09564",
"8 	c #4A3723",
"9 	c #130B05",
"0 	c #000001",
"a 	c #000002",
"b 	c #000004",
"c 	c #131317",
"d 	c #606069",
"e 	c #64646E",
"f 	c #22233F",
"g 	c #000110",
"h 	c #00010F",
"i 	c #000111",
"j 	c #00011D",
"k 	c #000227",
"l 	c #00032D",
"m 	c #000333",
"n 	c #070402",
"o 	c #473521",
"p 	c #281D10",
"q 	c #111010",
"r 	c #2D2D2F",
"s 	c #3C312A",
"t 	c #C89A68",
"u 	c #5C462D",
"v 	c #0B0B0D",
"w 	c #4C4C54",
"x 	c #4D4E56",
"y 	c #222234",
"z 	c #00011A",
"A 	c #00000C",
"B 	c #000007",
"C 	c #40301D",
"D 	c #CD9E6B",
"E 	c #7C5E3E",
"F 	c #0A0909",
"G 	c #110F10",
"H 	c #2B2B2D",
"I 	c #2C2726",
"J 	c #987754",
"K 	c #4E3B26",
"L 	c #0B0603",
"M 	c #2D2012",
"N 	c #44331F",
"O 	c #010000",
"P 	c #4C3924",
"Q 	c #C59866",
"R 	c #EBB67B",
"S 	c #8C6C47",
"T 	c #1E1C1C",
"U 	c #2F2F31",
"V 	c #282526",
"W 	c #323234",
"X 	c #272425",
"Y 	c #1F1C1D",
"Z 	c #0E0C0D",
"` 	c #8B6A47",
" .	c #CE9F6C",
"..	c #E2AF76",
"+.	c #98744D",
"@.	c #684F33",
"#.	c #493622",
"$.	c #030201",
"%.	c #050201",
"&.	c #0B0602",
"*.	c #42311E",
"=.	c #B68C5E",
"-.	c #EAB57B",
";.	c #E8B47A",
">.	c #926F4A",
",.	c #232325",
"'.	c #232021",
").	c #4C3B2A",
"!.	c #AE8559",
"~.	c #D1A16D",
"{.	c #DEAB74",
"].	c #EEB87D",
"^.	c #A37D54",
"/.	c #010100",
"(.	c #3F2F1C",
"_.	c #3C2C1B",
":.	c #0D0804",
"<.	c #0B0503",
"[.	c #8C6B47",
"}.	c #C79967",
"|.	c #D2A26D",
"1.	c #E3B077",
"2.	c #AF885C",
"3.	c #2D251B",
"4.	c #231D1B",
"5.	c #303032",
"6.	c #1E1E1F",
"7.	c #94714B",
"8.	c #D3A36E",
"9.	c #E7B379",
"0.	c #CA9C69",
"a.	c #9B774F",
"b.	c #A27D53",
"c.	c #B98F60",
"d.	c #58422A",
"e.	c #4A3822",
"f.	c #453420",
"g.	c #3D2D1B",
"h.	c #503C26",
"i.	c #644C31",
"j.	c #775B3B",
"k.	c #9F7A52",
"l.	c #AB8459",
"m.	c #D3A36F",
"n.	c #EFB97E",
"o.	c #C79968",
"p.	c #71573A",
"q.	c #614D35",
"r.	c #3B4037",
"s.	c #003030",
"t.	c #141213",
"u.	c #211F20",
"v.	c #242122",
"w.	c #313133",
"x.	c #242324",
"y.	c #3F2F1E",
"z.	c #493A28",
"A.	c #332C21",
"B.	c #94734E",
"C.	c #D9A871",
"D.	c #E8B379",
"E.	c #F0B97E",
"F.	c #F0BA7E",
"G.	c #E3AF77",
"H.	c #D0A06C",
"I.	c #D4A46F",
"J.	c #DBA972",
"K.	c #E0AD76",
"L.	c #E6B279",
"M.	c #ECB77C",
"N.	c #D4A46E",
"O.	c #686554",
"P.	c #1F7576",
"Q.	c #227071",
"R.	c #0D4C4D",
"S.	c #362819",
"T.	c #735739",
"U.	c #6D5236",
"V.	c #1A1A1C",
"W.	c #191514",
"X.	c #1B2C2A",
"Y.	c #15494A",
"Z.	c #124C4D",
"`.	c #0D4141",
" +	c #64533C",
".+	c #BE9262",
"++	c #DEAC74",
"@+	c #EDB87D",
"#+	c #EDB77D",
"$+	c #E4B178",
"%+	c #B48A5D",
"&+	c #A78055",
"*+	c #82613E",
"=+	c #004345",
"-+	c #2E8384",
";+	c #2A7C7D",
">+	c #095557",
",+	c #7D603F",
"'+	c #EDB77C",
")+	c #1F1B19",
"!+	c #393535",
"~+	c #2E2E30",
"{+	c #161618",
"]+	c #44321F",
"^+	c #916E49",
"/+	c #856644",
"(+	c #0A3737",
"_+	c #166364",
":+	c #116162",
"<+	c #004D4F",
"[+	c #684E31",
"}+	c #BD9160",
"|+	c #B18759",
"1+	c #AC8457",
"2+	c #D0A16D",
"3+	c #E8B37A",
"4+	c #E4B078",
"5+	c #D5A46F",
"6+	c #9F7951",
"7+	c #001B20",
"8+	c #002B30",
"9+	c #005659",
"0+	c #147778",
"a+	c #379A9B",
"b+	c #3C9798",
"c+	c #417475",
"d+	c #6E553B",
"e+	c #DAA872",
"f+	c #34281D",
"g+	c #423B37",
"h+	c #373535",
"i+	c #444444",
"j+	c #382E27",
"k+	c #8B6A46",
"l+	c #DFAC75",
"m+	c #CFA06C",
"n+	c #283531",
"o+	c #216263",
"p+	c #136061",
"q+	c #005E5F",
"r+	c #01494A",
"s+	c #005154",
"t+	c #33514D",
"u+	c #826442",
"v+	c #71583B",
"w+	c #5F503C",
"x+	c #4C493C",
"y+	c #364139",
"z+	c #1E403E",
"A+	c #004142",
"B+	c #066062",
"C+	c #2A7D7D",
"D+	c #2B8586",
"E+	c #0C8284",
"F+	c #0D8182",
"G+	c #2D9394",
"H+	c #2C8E8F",
"I+	c #205B5C",
"J+	c #574530",
"K+	c #E2AF77",
"L+	c #443423",
"M+	c #3D3835",
"N+	c #383635",
"O+	c #313132",
"P+	c #2F2A26",
"Q+	c #795D3D",
"R+	c #EFB87D",
"S+	c #EFB97D",
"T+	c #E1AD76",
"U+	c #6B5E52",
"V+	c #484E4E",
"W+	c #195051",
"X+	c #037A7B",
"Y+	c #0B8182",
"Z+	c #2E9192",
"`+	c #309495",
" @	c #2F8E8F",
".@	c #006E70",
"+@	c #006365",
"@@	c #006B6C",
"#@	c #26898B",
"$@	c #329495",
"%@	c #158586",
"&@	c #118586",
"*@	c #087A7B",
"=@	c #299899",
"-@	c #3CA8A9",
";@	c #209495",
">@	c #077677",
",@	c #1B8182",
"'@	c #1B8081",
")@	c #167374",
"!@	c #423D31",
"~@	c #CA9B69",
"{@	c #463522",
"]@	c #403935",
"^@	c #474644",
"/@	c #303031",
"(@	c #3C2D1D",
"_@	c #C19565",
":@	c #DBAA75",
"<@	c #503F2E",
"[@	c #124849",
"}@	c #0F7C7D",
"|@	c #077B7C",
"1@	c #28999A",
"2@	c #2B9C9D",
"3@	c #3AA6A7",
"4@	c #219495",
"5@	c #057B7C",
"6@	c #03797A",
"7@	c #219394",
"8@	c #39A4A5",
"9@	c #27999A",
"0@	c #229697",
"a@	c #097E7F",
"b@	c #1E9394",
"c@	c #3CA7A8",
"d@	c #097475",
"e@	c #157B7C",
"f@	c #177B7C",
"g@	c #0A3F3F",
"h@	c #0E100F",
"i@	c #2A2119",
"j@	c #191818",
"k@	c #1B1B1D",
"l@	c #4C4742",
"m@	c #3B2D20",
"n@	c #DEAC75",
"o@	c #654D33",
"p@	c #0C4344",
"q@	c #1A7E7F",
"r@	c #087475",
"s@	c #1C9091",
"t@	c #209697",
"u@	c #39A5A6",
"v@	c #01797A",
"w@	c #1C9191",
"x@	c #38A4A5",
"y@	c #279A9B",
"z@	c #0E8283",
"A@	c #158D8E",
"B@	c #3DA9AA",
"C@	c #319FA0",
"D@	c #117879",
"E@	c #066164",
"F@	c #075B63",
"G@	c #032831",
"H@	c #252526",
"I@	c #434343",
"J@	c #2D2620",
"K@	c #D9A771",
"L@	c #F1BA7F",
"M@	c #EAB67B",
"N@	c #E8B47C",
"O@	c #785E44",
"P@	c #163C3F",
"Q@	c #1D7B7C",
"R@	c #0C7778",
"S@	c #138788",
"T@	c #168C8D",
"U@	c #36A2A3",
"V@	c #32A1A2",
"W@	c #138586",
"X@	c #007B7C",
"Y@	c #0C8788",
"Z@	c #349FA0",
"`@	c #339D9E",
" #	c #2E9899",
".#	c #148180",
"+#	c #1A8988",
"@#	c #319695",
"##	c #339392",
"$#	c #247E7D",
"%#	c #095B5B",
"&#	c #0B3EA2",
"*#	c #1033BD",
"=#	c #05176C",
"-#	c #282829",
";#	c #424242",
">#	c #313131",
",#	c #9B7751",
"'#	c #93714B",
")#	c #836442",
"!#	c #715638",
"~#	c #82756A",
"{#	c #7F7C7B",
"]#	c #424243",
"^#	c #1F6A6B",
"/#	c #117474",
"(#	c #137978",
"_#	c #1B7E7C",
":#	c #2C8B8A",
"<#	c #248584",
"[#	c #0B7171",
"}#	c #02696B",
"|#	c #20777A",
"1#	c #297C84",
"2#	c #176978",
"3#	c #065B73",
"4#	c #09597F",
"5#	c #27749D",
"6#	c #266A9F",
"7#	c #205A9F",
"8#	c #18449E",
"9#	c #0F3089",
"0#	c #102592",
"a#	c #112199",
"b#	c #07115C",
"c#	c #242426",
"d#	c #EAEAEC",
"e#	c #D3D3D3",
"f#	c #C2C2C2",
"g#	c #D1D1D1",
"h#	c #D4D4D4",
"i#	c #ADADAF",
"j#	c #0D0D0C",
"k#	c #080705",
"l#	c #05223D",
"m#	c #054866",
"n#	c #1D608A",
"o#	c #25639D",
"p#	c #2159A0",
"q#	c #14478E",
"r#	c #0C3C7F",
"s#	c #0E3683",
"t#	c #143685",
"u#	c #163494",
"v#	c #162DA0",
"w#	c #1528A0",
"x#	c #192AB0",
"y#	c #1B2ABB",
"z#	c #1B29BB",
"A#	c #1B2ABC",
"B#	c #1B2CBD",
"C#	c #1625A3",
"D#	c #111E89",
"E#	c #111F8B",
"F#	c #08125F",
"G#	c #B0B0AF",
"H#	c #F7F7F7",
"I#	c #F8F8F8",
"J#	c #282927",
"K#	c #2B2E29",
"L#	c #212117",
"M#	c #121865",
"N#	c #111F8A",
"O#	c #1624A5",
"P#	c #1724A5",
"Q#	c #111D89",
"R#	c #111E8B",
"S#	c #0A1469",
"T#	c #0E1A7A",
"U#	c #1828AA",
"V#	c #1829AC",
"W#	c #1B2DB8",
"X#	c #1E30C4",
"Y#	c #1B2CB7",
"Z#	c #15259F",
"`#	c #14249C",
" $	c #11208D",
".$	c #0F1D81",
"+$	c #0E1C80",
"@$	c #1B2062",
"#$	c #B4B4B3",
"$$	c #E8E9EA",
"%$	c #2B2C2A",
"&$	c #2F322D",
"*$	c #2B2D21",
"=$	c #1E2456",
"-$	c #101E8B",
";$	c #1B2CB6",
">$	c #1E31C7",
",$	c #122190",
"'$	c #0F1D82",
")$	c #101D81",
"!$	c #1E30C3",
"~$	c #1B2EBC",
"{$	c #172BB6",
"]$	c #0E27AE",
"^$	c #001C8E",
"/$	c #000457",
"($	c #000550",
"_$	c #000848",
":$	c #080C40",
"<$	c #0D0C36",
"[$	c #8F8F92",
"}$	c #E0E0E1",
"|$	c #333130",
"1$	c #41403E",
"2$	c #43473F",
"3$	c #3C4533",
"4$	c #252D73",
"5$	c #1828AC",
"6$	c #1726A0",
"7$	c #101C83",
"8$	c #030B4D",
"9$	c #030A47",
"0$	c #060C3E",
"a$	c #070B29",
"b$	c #0C0827",
"c$	c #281C37",
"d$	c #392728",
"e$	c #4B331C",
"f$	c #66471B",
"g$	c #714F1E",
"h$	c #7C572A",
"i$	c #7E582B",
"j$	c #6E4D25",
"k$	c #6F4E27",
"l$	c #543A1C",
"m$	c #828284",
"n$	c #FEFEFE",
"o$	c #2A2728",
"p$	c #2B2929",
"q$	c #353730",
"r$	c #41493A",
"s$	c #2B301A",
"t$	c #1D2214",
"u$	c #242817",
"v$	c #313528",
"w$	c #40443E",
"x$	c #494C40",
"y$	c #41443A",
"z$	c #32210F",
"A$	c #6F4E29",
"B$	c #825C31",
"C$	c #8E6536",
"D$	c #AC7A43",
"E$	c #AD7B43",
"F$	c #A67640",
"G$	c #865F33",
"H$	c #805A30",
"I$	c #604323",
"J$	c #888887",
"K$	c #FCFCFC",
"L$	c #373832",
"M$	c #4D5544",
"N$	c #313830",
"O$	c #333A30",
"P$	c #454B41",
"Q$	c #484D46",
"R$	c #52564A",
"S$	c #4A4D43",
"T$	c #2E2012",
"U$	c #694A27",
"V$	c #78542D",
"W$	c #7A562D",
"X$	c #8D6435",
"Y$	c #855E32",
"Z$	c #7B572E",
"`$	c #6E4D28",
" %	c #4F361B",
".%	c #422D15",
"+%	c #6D6966",
"@%	c #ECECEC",
"#%	c #FDFDFD",
"$%	c #31302D",
"%%	c #43493C",
"&%	c #2E322C",
"*%	c #353936",
"=%	c #32342E",
"-%	c #343532",
";%	c #363632",
">%	c #31302E",
",%	c #262323",
"'%	c #201914",
")%	c #1D1714",
"!%	c #181717",
"~%	c #8C8C8E",
"{%	c #9C9C9D",
"]%	c #BABABA",
"^%	c #C8C8C8",
"/%	c #C4C4C6",
"(%	c #E0E0E0",
"_%	c #EBEBEB",
"                  . + @ # $ % & * = - ; > , ' ) ! ~ { ] ^ / ( _ : ] < [ } } } } } } } | 1 2     3 3 3 4 4 4 4 4 5 5 4 5 5 5 5 4 ",
"                  6 7 8 9 $ } 0 a a b c d e f / g h a a h i j k _ l m h } } n o p } } q r       3 3 4 4 4 4 4 5 5 4 5 5 5 5 4 5 ",
"                  s t u } } } } } } } v w x y z A B a } 0 0 } } } } } } } n C D E F G H         3 4 4 4 4 4 5 5 4 5 5 5 5 4 5 5 ",
"                  I J K } } L M N | } } O } } } } } } } } } } } } } O } } P Q R S T U V         4 4 4 4 4 5 5 4 5 5 5 5 4 5 5 5 ",
"                  W X Y T Z `  ...+.@.#.} } } $.%.} } } } } } } } } } &.*.=.-.;.>.,.X V       W 4 4 4 4 5 5 4 5 5 5 5 4 5 5 5 5 ",
"                W         '.).!.~.{.].^./.} (._.} } $.} } } } } :.<.[.}.|.1.-.2.3.4.V       W W 4 4 4 5 5 4 5 5 5 5 4 5 5 5 5 5 ",
"              W           5.6.7.}.8.9.0.a.b.c.^.d.e.f.g.h.i.j.[.k.l.m.n.o.p.q.r.s.t.u.v.  W w.w.4 4 5 5 4 5 5 5 5 4 5 5 5 5 5 5 ",
"            W           W w.x.y.z.A.B.C.D.E.F.G.H.I.J.K.L.-.M.R -.F.F.N.O.P.Q.R.S.T.U.t.W W W w.4 5 5 4 5 5 5 5 4 5 5 5 5 5 5 5 ",
"          W           W H V.W.X.Y.Z.`. +.+n.n.;.++].@+].].#+M.$+8.%+&+*+=+-+;+>+,+'+~.)+!+W W W 5 5 4 5 5 5 5 4 5 5 5 5 5 5 5 5 ",
"        W           W ~+{+]+^+/+(+_+:+<+[+}+|+1+2+M.-.3+4+{.5+Q 6+7+8+9+0+a+b+c+d+R e+f+g+h+W i+5 4 5 5 5 5 4 5 5 5 5 5 5 5 5 5 ",
"      W           W U j+k+0.l+m+n+o+p+q+r+s+9+t++ u+v+w+x+y+z+A+B+C+D+E+F+G+H+I+J+1.K+L+M+N+i+i+4 5 5 5 5 4 5 5 5 5 5 5 5 5 5 5 ",
"    W           W O+P+Q+5+R+S+T+U+V+W+X+Y+Z+`+ @.@+@@@#@$@%@&@*@=@-@-@;@>@,@'@)@!@m+~@{@]@^@i+W 5 5 5 5 4 5 5 5 5 5 5 5 5 5 5 5 ",
"  W           W W /@(@_@M.].].'+:@<@[@}@|@1@2@3@4@5@6@7@8@9@0@a@b@3@c@9@d@e@f@g@h@i@j@k@l@^@W i+5 5 5 4 5 5 5 5 5 5 5 5 5 5 5 5 ",
"W           W W W w.m@n@].].].'+-.o@p@q@r@s@t@u@1@a@v@w@x@2@y@z@A@x@B@C@D@E@F@G@H@5.w.I@I@W i+i+5 5 4 5 5 5 5 5 5 5 5 5 5 5 5 5 ",
"          W W W W w.J@K@L@n.].M@N@O@P@Q@R@S@T@U@V@W@X@Y@Z@`@ #.#+#@###$#%#&#*#=#-#W I@;#w.i+i+i+5 4 5 5 5 5 5 5 5 5 5 5 5 5 5 4 ",
"        W W W W W i+>#,#^.'#)#!#~#{#]#^#/#(#_#:#<#[#}#|#1#2#3#4#5#6#7#8#9#0#a#b#c#I@i+W i+i+i+i+4 5 5 5 5 5 5 5 5 5 5 5 5 5 4 5 ",
"3 3 3 4 4 4 4 4 5 5 d#e#f#g#h#i#G j#k#l#m#n#o#p#q#r#s#t#u#v#w#x#y#z#A#B#C#D#E#F#G#H#4 5 5 5 5 4                           W     ",
"3 3 4 4 4 4 4 5 5 4 5 5 5 5 d#I#J#K#L#M#N#O#y#A#P#Q#R#S#T#U#V#W#X#Y#Z#`# $.$+$@$#$$$5 5 5 5 4 5                         W       ",
"3 4 4 4 4 4 5 5 4 5 5 5 5 4 5 5 %$&$*$=$-$;$>$W#,$'$'$F#)$!$~${$]$^$/$($_$:$<$[$}$5 5 5 5 4 5 5                       W         ",
"4 4 4 4 4 5 5 4 5 5 5 5 4 5 5 5 |$1$2$3$4$5$6$7$8$9$0$a$b$c$d$e$f$g$h$i$j$k$l$m$n$5 5 5 4 5 5 5                     W           ",
"4 4 4 4 5 5 4 5 5 5 5 4 5 5 5 5 o$p$o$q$r$s$t$u$v$w$x$y$z$A$B$C$D$E$E$F$G$H$I$J$K$5 5 4 5 5 5 5                   W           W ",
"4 4 4 5 5 4 5 5 5 5 4 5 5 5 5 5       o$L$M$N$O$P$Q$R$S$T$U$V$W$X$Y$Z$`$ %.%+%@%#%5 4 5 5 5 5 5                 W           W W ",
"4 4 5 5 4 5 5 5 5 4 5 5 5 5 5 5       o$$%%%&%*%=%-%;%>%,%'%)%!%~%{%]%^%/%(%_%n$5 4 5 5 5 5 5 5               W           W W W ",
"4 5 5 4 5 5 5 5 4 5 5 5 5 5 5 5         V   W           W O+w.W 4 5 5 4 5 5 5 5 4 5 5 5 5 5 5 5             W           W W W W ",
"5 5 4 5 5 5 5 4 5 5 5 5 5 5 5 5           W           W W W W W 5 5 4 5 5 5 5 4 5 5 5 5 5 5 5 5           W           W W W W W ",
"5 4 5 5 5 5 4 5 5 5 5 5 5 5 5 5         W           W W W W W i+5 4 5 5 5 5 4 5 5 5 5 5 5 5 5 5         W           W W W W W i+",
"4 5 5 5 5 4 5 5 5 5 5 5 5 5 5 5       W           W W W W W i+i+4 5 5 5 5 4 5 5 5 5 5 5 5 5 5 5       W           W W W W W i+i+",
"5 5 5 5 4 5 5 5 5 5 5 5 5 5 5 5     W           W W W W W i+i+W 5 5 5 5 4 5 5 5 5 5 5 5 5 5 5 5     W           W W W W W i+i+W ",
"5 5 5 4 5 5 5 5 5 5 5 5 5 5 5 5   W           W W W W W i+i+W i+5 5 5 4 5 5 5 5 5 5 5 5 5 5 5 5   W           W W W W W i+i+W i+",
"5 5 4 5 5 5 5 5 5 5 5 5 5 5 5 5 W           W W W W W i+i+W i+i+5 5 4 5 5 5 5 5 5 5 5 5 5 5 5 5 W           W W W W W i+i+W i+i+",
"5 4 5 5 5 5 5 5 5 5 5 5 5 5 5 4           W W W W W i+i+W i+i+i+5 4 5 5 5 5 5 5 5 5 5 5 5 5 5 4           W W W W W i+i+W i+i+i+",
"4 5 5 5 5 5 5 5 5 5 5 5 5 5 4 5         W W W W W i+i+W i+i+i+i+4 5 5 5 5 5 5 5 5 5 5 5 5 5 4 5         W W W W W i+i+W i+i+i+i+",
"                          W     3 3 3 4 4 4 4 4 5 5 4 5 5 5 5 4                           W     3 3 3 4 4 4 4 4 5 5 4 5 5 5 5 4 ",
"                        W       3 3 4 4 4 4 4 5 5 4 5 5 5 5 4 5                         W       3 3 4 4 4 4 4 5 5 4 5 5 5 5 4 5 ",
"                      W         3 4 4 4 4 4 5 5 4 5 5 5 5 4 5 5                       W         3 4 4 4 4 4 5 5 4 5 5 5 5 4 5 5 ",
"                    W           4 4 4 4 4 5 5 4 5 5 5 5 4 5 5 5                     W           4 4 4 4 4 5 5 4 5 5 5 5 4 5 5 5 ",
"                  W           W 4 4 4 4 5 5 4 5 5 5 5 4 5 5 5 5                   W           W 4 4 4 4 5 5 4 5 5 5 5 4 5 5 5 5 ",
"                W           W W 4 4 4 5 5 4 5 5 5 5 4 5 5 5 5 5                 W           W W 4 4 4 5 5 4 5 5 5 5 4 5 5 5 5 5 ",
"              W           W W W 4 4 5 5 4 5 5 5 5 4 5 5 5 5 5 5               W           W W W 4 4 5 5 4 5 5 5 5 4 5 5 5 5 5 5 ",
"            W           W W W W 4 5 5 4 5 5 5 5 4 5 5 5 5 5 5 5             W           W W W W 4 5 5 4 5 5 5 5 4 5 5 5 5 5 5 5 ",
"          W           W W W W W 5 5 4 5 5 5 5 4 5 5 5 5 5 5 5 5           W           W W W W W 5 5 4 5 5 5 5 4 5 5 5 5 5 5 5 5 ",
"        W           W W W W W i+5 4 5 5 5 5 4 5 5 5 5 5 5 5 5 5         W           W W W W W i+5 4 5 5 5 5 4 5 5 5 5 5 5 5 5 5 ",
"      W           W W W W W i+i+4 5 5 5 5 4 5 5 5 5 5 5 5 5 5 5       W           W W W W W i+i+4 5 5 5 5 4 5 5 5 5 5 5 5 5 5 5 ",
"    W           W W W W W i+i+W 5 5 5 5 4 5 5 5 5 5 5 5 5 5 5 5     W           W W W W W i+i+W 5 5 5 5 4 5 5 5 5 5 5 5 5 5 5 5 ",
"  W           W W W W W i+i+W i+5 5 5 4 5 5 5 5 5 5 5 5 5 5 5 5   W           W W W W W i+i+W i+5 5 5 4 5 5 5 5 5 5 5 5 5 5 5 5 ",
"W           W W W W W i+i+W i+i+5 5 4 5 5 5 5 5 5 5 5 5 5 5 5 5 W           W W W W W i+i+W i+i+5 5 4 5 5 5 5 5 5 5 5 5 5 5 5 5 ",
"          W W W W W i+i+W i+i+i+5 4 5 5 5 5 5 5 5 5 5 5 5 5 5 4           W W W W W i+i+W i+i+i+5 4 5 5 5 5 5 5 5 5 5 5 5 5 5 4 ",
"        W W W W W i+i+W i+i+i+i+4 5 5 5 5 5 5 5 5 5 5 5 5 5 4 5         W W W W W i+i+W i+i+i+i+4 5 5 5 5 5 5 5 5 5 5 5 5 5 4 5 ",
"3 3 3 4 4 4 4 4 5 5 4 5 5 5 5 4                           W     3 3 3 4 4 4 4 4 5 5 4 5 5 5 5 4                           W     ",
"3 3 4 4 4 4 4 5 5 4 5 5 5 5 4 5                         W       3 3 4 4 4 4 4 5 5 4 5 5 5 5 4 5                         W       ",
"3 4 4 4 4 4 5 5 4 5 5 5 5 4 5 5                       W         3 4 4 4 4 4 5 5 4 5 5 5 5 4 5 5                       W         ",
"4 4 4 4 4 5 5 4 5 5 5 5 4 5 5 5                     W           4 4 4 4 4 5 5 4 5 5 5 5 4 5 5 5                     W           ",
"4 4 4 4 5 5 4 5 5 5 5 4 5 5 5 5                   W           W 4 4 4 4 5 5 4 5 5 5 5 4 5 5 5 5                   W           W ",
"4 4 4 5 5 4 5 5 5 5 4 5 5 5 5 5                 W           W W 4 4 4 5 5 4 5 5 5 5 4 5 5 5 5 5                 W           W W ",
"4 4 5 5 4 5 5 5 5 4 5 5 5 5 5 5               W           W W W 4 4 5 5 4 5 5 5 5 4 5 5 5 5 5 5               W           W W W ",
"4 5 5 4 5 5 5 5 4 5 5 5 5 5 5 5             W           W W W W 4 5 5 4 5 5 5 5 4 5 5 5 5 5 5 5             W           W W W W ",
"5 5 4 5 5 5 5 4 5 5 5 5 5 5 5 5           W           W W W W W 5 5 4 5 5 5 5 4 5 5 5 5 5 5 5 5           W           W W W W W ",
"5 4 5 5 5 5 4 5 5 5 5 5 5 5 5 5         W           W W W W W i+5 4 5 5 5 5 4 5 5 5 5 5 5 5 5 5         W           W W W W W i+",
"4 5 5 5 5 4 5 5 5 5 5 5 5 5 5 5       W           W W W W W i+i+4 5 5 5 5 4 5 5 5 5 5 5 5 5 5 5       W           W W W W W i+i+",
"5 5 5 5 4 5 5 5 5 5 5 5 5 5 5 5     W           W W W W W i+i+W 5 5 5 5 4 5 5 5 5 5 5 5 5 5 5 5     W           W W W W W i+i+W ",
"5 5 5 4 5 5 5 5 5 5 5 5 5 5 5 5   W           W W W W W i+i+W i+5 5 5 4 5 5 5 5 5 5 5 5 5 5 5 5   W           W W W W W i+i+W i+",
"5 5 4 5 5 5 5 5 5 5 5 5 5 5 5 5 W           W W W W W i+i+W i+i+5 5 4 5 5 5 5 5 5 5 5 5 5 5 5 5 W           W W W W W i+i+W i+i+",
"5 4 5 5 5 5 5 5 5 5 5 5 5 5 5 4           W W W W W i+i+W i+i+i+5 4 5 5 5 5 5 5 5 5 5 5 5 5 5 4           W W W W W i+i+W i+i+i+",
"4 5 5 5 5 5 5 5 5 5 5 5 5 5 4 5         W W W W W i+i+W i+i+i+i+4 5 5 5 5 5 5 5 5 5 5 5 5 5 4 5         W W W W W i+i+W i+i+i+i+"};
