/* XPM */
static char * p_lr_out_xpm[] = {
"64 64 145 2",
"  	c #292627",
". 	c #323234",
"+ 	c #D0D0D2",
"@ 	c #EBEBED",
"# 	c #FFFFFF",
"$ 	c #E6E6E8",
"% 	c #FAFAFA",
"& 	c #000000",
"* 	c #DDDDDF",
"= 	c #F0F0F0",
"- 	c #0D0D0D",
"; 	c #1E1E1E",
"> 	c #001C46",
", 	c #0080E5",
"' 	c #0082E9",
") 	c #0089F3",
"! 	c #008AF5",
"~ 	c #0089F4",
"{ 	c #008CF9",
"] 	c #008BF7",
"^ 	c #0B0B0B",
"/ 	c #0086EF",
"( 	c #444444",
"_ 	c #313133",
": 	c #0072CF",
"< 	c #0090FF",
"[ 	c #0077D7",
"} 	c #008AF6",
"| 	c #3D3D3D",
"1 	c #024DF3",
"2 	c #3F3F3F",
"3 	c #0152FF",
"4 	c #0151FF",
"5 	c #414141",
"6 	c #060606",
"7 	c #0150FA",
"8 	c #008FFF",
"9 	c #030304",
"0 	c #001569",
"a 	c #0151FE",
"b 	c #01238C",
"c 	c #002BA0",
"d 	c #0151FC",
"e 	c #002999",
"f 	c #008FFE",
"g 	c #0250FC",
"h 	c #002A9D",
"i 	c #00248E",
"j 	c #013AC4",
"k 	c #FDFDFD",
"l 	c #FEFAF7",
"m 	c #1C1C1C",
"n 	c #013AC3",
"o 	c #A2A2A2",
"p 	c #0139C2",
"q 	c #023AC2",
"r 	c #0439C1",
"s 	c #0538BE",
"t 	c #0439C0",
"u 	c #063AC0",
"v 	c #053AC0",
"w 	c #0239C1",
"x 	c #404040",
"y 	c #070301",
"z 	c #141415",
"A 	c #0F0F10",
"B 	c #020202",
"C 	c #EABD93",
"D 	c #959595",
"E 	c #1E1204",
"F 	c #DAB080",
"G 	c #F2C48F",
"H 	c #89898A",
"I 	c #100E0F",
"J 	c #090708",
"K 	c #010000",
"L 	c #281B0A",
"M 	c #BF9A6F",
"N 	c #C8A174",
"O 	c #E5B987",
"P 	c #272425",
"Q 	c #110F10",
"R 	c #020100",
"S 	c #030100",
"T 	c #DBB181",
"U 	c #E1B685",
"V 	c #616162",
"W 	c #EEC28C",
"X 	c #F0C28E",
"Y 	c #C2C2C3",
"Z 	c #7E6953",
"` 	c #F1C38E",
" .	c #353534",
"..	c #383436",
"+.	c #EAE9EB",
"@.	c #EAEAEC",
"#.	c #B6B9B9",
"$.	c #523F26",
"%.	c #785E40",
"&.	c #EFC28D",
"*.	c #F2C38F",
"=.	c #C7C8C9",
"-.	c #36302D",
";.	c #3B3735",
">.	c #D0D2D4",
",.	c #009193",
"'.	c #007F81",
").	c #155456",
"!.	c #01292B",
"~.	c #001F20",
"{.	c #000404",
"].	c #000B0B",
"^.	c #FEFEFD",
"/.	c #F8F9F9",
"(.	c #008C8F",
"_.	c #009CA0",
":.	c #49B5B8",
"<.	c #1FA4A7",
"[.	c #F7F7F7",
"}.	c #007D7F",
"|.	c #25A7A9",
"1.	c #008A8C",
"2.	c #464644",
"3.	c #F6F6F6",
"4.	c #3EB0B2",
"5.	c #31888A",
"6.	c #434343",
"7.	c #DBDBDD",
"8.	c #00797B",
"9.	c #46B2B4",
"0.	c #186668",
"a.	c #F2F2F3",
"b.	c #0D1963",
"c.	c #3E51C7",
"d.	c #112276",
"e.	c #0141D4",
"f.	c #EBBF8A",
"g.	c #454545",
"h.	c #916C3E",
"i.	c #E9E9EB",
"j.	c #343533",
"k.	c #2A2727",
"l.	c #2B2829",
"m.	c #080708",
"n.	c #282526",
"                          .     + + + @ @ @ @ @ # # @ # # # # @                           .     + + + @ @ @ @ @ # # @ # # # # @ ",
"                        .       + + @ @ @ @ @ # # @ # # # # @ #                         .       + + @ @ @ @ @ # # @ # # # # @ # ",
"                      .         + @ @ @ @ @ # # @ # # # # @ # #                       .         + @ @ @ @ @ # # @ # # # # @ # # ",
"                    .           @ @ @ @ @ # # @ # # # # @ # # #                     .           @ @ @ @ @ # # @ # # # # @ # # # ",
"                  .           . @ @ @ @ # # @ # # # # @ # # # #                   .           . @ @ @ @ # # @ # # # # @ # # # # ",
"                .           . . @ @ @ # # @ # # # # @ # # # # #                 .           . . @ @ @ # # @ # # # # @ # # # # # ",
"              .           . . . @ @ # # @ # # # # @ # # # # # #               .           . . . @ @ # # $ % & & & & & & & & & & ",
"            .           . . . . @ # # @ # # # # @ # # # # # # #             .           . . . . * = - ; > > , ' ' ) ! ~ ~ { ] ) ",
"          .           . . . . . # # @ # # # # @ # # # # # # # #           .           . . . . . = = ^ / / / , ' ' ) ! ~ ~ { ] ) ",
"        .           . . . . . ( # @ # # # # @ # # # # # # # # #         .           . . . . _ & & & : / / / < < < < < < < < < < ",
"      .           . . . . . ( ( @ # # # # @ # # # # # # # # # #       .           . . . . . & [ } } < < < < < < < < < < < < < < ",
"    .           . . . . . ( ( . # # # # @ # # # # # # # # # # #     .           . . . . . ( & [ } } < < < < < < < < < < < < < < ",
"  .           . . . . . ( ( . ( # # # @ # # # # # # # # # # # #   .           . . . . . | & 1 < < < < < < < < < < < < < < < < < ",
".           . . . . . ( ( . ( ( # # @ # # # # # # # # # # # # # .           . . . . . 2 & & 3 4 < < < < < < < < < < < < < < < < ",
"          . . . . . ( ( . ( ( ( # @ # # # # # # # # # # # # # @           . . . . . 5 6 1 1 7 4 3 3 3 3 3 3 < < < < < < < < 8 < ",
"        . . . . . ( ( . ( ( ( ( @ # # # # # # # # # # # # # @ #         . . . . . ( 5 9 1 1 7 4 3 3 3 3 3 3 < < < < < < < < 8 < ",
"+ + + @ @ @ @ @ # # @ # # # # @                           .     + + + @ @ @ @ @ # # & 0 7 7 a 3 3 3 3 3 3 3 3 3 3 3 3 3 3 3 3 3 ",
"+ + @ @ @ @ @ # # @ # # # # @ #                         .       + + @ @ @ @ @ # # @ & b 3 3 3 3 3 3 4 4 3 3 3 3 3 3 3 3 3 3 3 3 ",
"+ @ @ @ @ @ # # @ # # # # @ # #                       .         + @ @ @ @ @ # # @ # & c d d 3 3 3 3 a 3 3 3 3 3 3 3 4 3 3 4 3 3 ",
"@ @ @ @ @ # # @ # # # # @ # # #                     .           @ @ @ @ @ # # @ # # & c d d 3 3 3 3 a 3 3 3 3 3 3 3 4 3 3 4 3 3 ",
"@ @ @ @ # # @ # # # # @ # # # #                   .           . @ @ @ @ # # @ # # # & e f f 3 3 4 4 3 3 3 3 3 4 4 4 g 3 3 3 3 4 ",
"@ @ @ # # @ # # # # @ # # # # #                 .           . . @ @ @ # # @ # # # # & h < < 3 3 3 3 3 3 3 3 4 3 3 3 3 3 3 3 3 3 ",
"@ @ # # @ # # # # @ # # # # # #               .           . . . @ @ # # @ # # # # @ & e 4 4 3 3 4 4 3 3 3 3 3 3 3 3 3 3 3 3 3 3 ",
"@ # # @ # # # # @ # # # # # # #             .           . . . . @ # # @ # # # # @ # & e 4 4 3 3 4 4 3 3 3 3 3 3 3 3 3 3 3 3 3 3 ",
"# # @ # # # # @ # # # # # # # #           .           . . . . . # # @ # # # # @ # # & i j j j 3 a a g 3 3 3 3 3 3 3 3 4 4 3 3 3 ",
"# @ # # # # @ # # # # # # # # #         .           . . . . . ( # @ # # # # @ # # # k & & & & j j j 3 4 3 3 3 3 3 3 3 3 3 3 3 3 ",
"@ # # # # @ # # # # # # # # # #       .           . . . . . ( ( @ # # # # @ # # # # # l m m & j n n j j j j j 3 3 3 3 3 3 3 3 3 ",
"# # # # @ # # # # # # # # # # #     .           . . . . . ( ( . # # # # @ # # # # # # l m m & j n n j j j j j 3 3 3 3 3 3 3 3 3 ",
"# # # @ # # # # # # # # # # # #   .           . . . . . ( ( . ( # # # @ # # # # # # # # o o & & p p q r s s t u u v & w w j n j ",
"# # @ # # # # # # # # # # # # # .           . . . . . ( ( . ( ( # # @ # # # # # # # # # # # x & & & & & y y z A A B & & & & & C ",
"# @ # # # # # # # # # # # # # @           . . . . . ( ( . ( ( ( # @ # # # # # # # # # # # # D & & & & E F F G G G & & & & & & G ",
"@ # # # # # # # # # # # # # @ #         . . . . . ( ( . ( ( ( ( @ # # # # # # # # # # # # # H & & & & E F F G G G & & & & & & G ",
"                          .     + + + @ @ @ @ @ # # @ # # # # @                           . I J & & K L M M G G G & & & & & N O ",
"                        .       + + @ @ @ @ @ # # @ # # # # @ #                         .   P Q & & & R S S & T T G G & & & U G ",
"                      .         + @ @ @ @ @ # # @ # # # # @ # #                       .     P Q & & & R S S & T T G G & & & U G ",
"                    .           @ @ @ @ @ # # @ # # # # @ # # #                     .       P P V V & S G G G G G W G X X G G G ",
"                  .           . @ @ @ @ # # @ # # # # @ # # # #                   .           . $ $ Y Z ` ` G G G G G G G G G G ",
"                .           . . @ @ @ # # @ # # # # @ # # # # #                 .            ...+.@ @.#.& & $.%.%.&.G G G G G *.",
"              .           . . . @ @ # # @ # # # # @ # # # # # #               .           .  ...+.@ # =.& & $.%.%.&.G G G G G *.",
"            .           . . . . @ # # @ # # # # @ # # # # # # #             .         -...... ;.@ # # >.& ,.'.).).!.~.& & {.{.].",
"          .           . . . . . # # @ # # # # @ # # # # # # # #           .           .  . .. . ^.^.@ /.& (._.:.:.& <.<.<.<.& & ",
"        .           . . . . . ( # @ # # # # @ # # # # # # # # #         .           . ..;.;. .( # @ # [.& }.|.:.:.& 1.|.|.:.<.<.",
"      .           . . . . . ( ( @ # # # # @ # # # # # # # # # #       .           . . ..;.;.2.( @ # # = & }.|.:.:.<.& |.|.:.<.<.",
"    .           . . . . . ( ( . # # # # @ # # # # # # # # # # #     .           . . . . . ( ( . # # # 3.& '.4.5.5.<.<.& 4.:.<.<.",
"  .           . . . . . ( ( . ( # # # @ # # # # # # # # # # # #   .           . . . . . 6.6.. ( # # # 7.& 8.9.0.0.<.<.<.& <.<.<.",
".           . . . . . ( ( . ( ( # # @ # # # # # # # # # # # # # .           . . . . . ( ( . ( ( # # @ a.& b.c.d.d.e.e.e.e.& <.f.",
"          . . . . . ( ( . ( ( ( # @ # # # # # # # # # # # # # @           . . . . . ( ( . ( ( ( # @ & & & & c.d.d.e.e.e.e.e.& f.",
"        . . . . . ( ( . ( ( ( ( @ # # # # # # # # # # # # # @ #         . . . . . ( ( . ( ( ( g.@ & h.h.h.h.& & & e.e.e.e.e.e.& ",
"+ + + @ @ @ @ @ # # @ # # # # @                           .     + + + @ @ @ @ @ # # @ # # # # i.& h.h.h.h.h.h.h.h.& & & & & & & ",
"+ + @ @ @ @ @ # # @ # # # # @ #                         .       + + @ @ @ @ @ # # @ # # # # @ # & h.h.h.h.h.h.h.h.h.&   .       ",
"+ @ @ @ @ @ # # @ # # # # @ # #                       .         + @ @ @ @ @ # # @ # # # # @ # # j.& h.h.h.h.h.h.h.&   . k.      ",
"@ @ @ @ @ # # @ # # # # @ # # #                     .           @ @ @ @ @ # # @ # # # # @ # # # l.l.& & & & & m.m.B .   n.  n.  ",
"@ @ @ @ # # @ # # # # @ # # # #                   .           . @ @ @ @ # # @ # # # # @ # # # #                   .           . ",
"@ @ @ # # @ # # # # @ # # # # #                 .           . . @ @ @ # # @ # # # # @ # # # # #                 .           . . ",
"@ @ # # @ # # # # @ # # # # # #               .           . . . @ @ # # @ # # # # @ # # # # # #               .           . . . ",
"@ # # @ # # # # @ # # # # # # #             .           . . . . @ # # @ # # # # @ # # # # # # #             .           . . . . ",
"# # @ # # # # @ # # # # # # # #           .           . . . . . # # @ # # # # @ # # # # # # # #           .           . . . . . ",
"# @ # # # # @ # # # # # # # # #         .           . . . . . ( # @ # # # # @ # # # # # # # # #         .           . . . . . ( ",
"@ # # # # @ # # # # # # # # # #       .           . . . . . ( ( @ # # # # @ # # # # # # # # # #       .           . . . . . ( ( ",
"# # # # @ # # # # # # # # # # #     .           . . . . . ( ( . # # # # @ # # # # # # # # # # #     .           . . . . . ( ( . ",
"# # # @ # # # # # # # # # # # #   .           . . . . . ( ( . ( # # # @ # # # # # # # # # # # #   .           . . . . . ( ( . ( ",
"# # @ # # # # # # # # # # # # # .           . . . . . ( ( . ( ( # # @ # # # # # # # # # # # # # .           . . . . . ( ( . ( ( ",
"# @ # # # # # # # # # # # # # @           . . . . . ( ( . ( ( ( # @ # # # # # # # # # # # # # @           . . . . . ( ( . ( ( ( ",
"@ # # # # # # # # # # # # # @ #         . . . . . ( ( . ( ( ( ( @ # # # # # # # # # # # # # @ #         . . . . . ( ( . ( ( ( ( "};
