/* XPM */
static char * p_lr_in_xpm[] = {
"64 64 165 2",
"  	c #292627",
". 	c #323234",
"+ 	c #D0D0D2",
"@ 	c #EBEBED",
"# 	c #FFFFFF",
"$ 	c #000000",
"% 	c #272425",
"& 	c #282526",
"* 	c #0089F3",
"= 	c #008BF8",
"- 	c #0090FF",
"; 	c #007EE1",
"> 	c #002554",
", 	c #262324",
"' 	c #0086EF",
") 	c #008EFC",
"! 	c #0085ED",
"~ 	c #00000B",
"{ 	c #444444",
"] 	c #008AF6",
"^ 	c #0076D5",
"/ 	c #048EFB",
"( 	c #0E0E0E",
"_ 	c #3E4DAF",
": 	c #D1D1D3",
"< 	c #3F3F3F",
"[ 	c #008FFF",
"} 	c #008CF9",
"| 	c #0152FF",
"1 	c #0146E1",
"2 	c #5D5E6A",
"3 	c #E0E1E9",
"4 	c #021E7C",
"5 	c #0151FF",
"6 	c #0250FC",
"7 	c #0352FF",
"8 	c #0A247D",
"9 	c #EAECFF",
"0 	c #F1F1F1",
"a 	c #A8A8A8",
"b 	c #3B3F71",
"c 	c #DADADC",
"d 	c #E6E6E6",
"e 	c #B6B6B6",
"f 	c #707070",
"g 	c #2A2B49",
"h 	c #F6F6FA",
"i 	c #29262E",
"j 	c #F5F6FC",
"k 	c #C1C1C2",
"l 	c #8B8B8B",
"m 	c #161620",
"n 	c #FAFAFC",
"o 	c #282736",
"p 	c #282632",
"q 	c #27263B",
"r 	c #0252FF",
"s 	c #CECECE",
"t 	c #AEAEAE",
"u 	c #A5A5A6",
"v 	c #000001",
"w 	c #3B3F73",
"x 	c #031464",
"y 	c #05248D",
"z 	c #232021",
"A 	c #0552FF",
"B 	c #FEFEFF",
"C 	c #ADADAE",
"D 	c #FDFDFD",
"E 	c #2F3673",
"F 	c #0139C1",
"G 	c #013AC3",
"H 	c #0135B8",
"I 	c #100F0F",
"J 	c #525676",
"K 	c #FDFDFF",
"L 	c #1C1C1E",
"M 	c #0139C2",
"N 	c #0137BC",
"O 	c #F1F1F2",
"P 	c #85858D",
"Q 	c #222F82",
"R 	c #0138C1",
"S 	c #002998",
"T 	c #1F1D1D",
"U 	c #0138C0",
"V 	c #000002",
"W 	c #013AC4",
"X 	c #023AC3",
"Y 	c #0137BE",
"Z 	c #0137BD",
"` 	c #2244C4",
" .	c #3B52C7",
"..	c #3850C6",
"+.	c #3D53C7",
"@.	c #2B48C6",
"#.	c #0E3DC4",
"$.	c #0D0D0E",
"%.	c #161616",
"&.	c #FEFEFE",
"*.	c #292629",
"=.	c #EABD93",
"-.	c #EDC090",
";.	c #EFC290",
">.	c #F1C38F",
",.	c #ECBF8D",
"'.	c #F2C48F",
").	c #E8E8E8",
"!.	c #F1C38E",
"~.	c #F2C38F",
"{.	c #EDC08B",
"].	c #6A5439",
"^.	c #FCFCFC",
"/.	c #E9E9EB",
"(.	c #E5B987",
"_.	c #EFC28D",
":.	c #826646",
"<.	c #6E5437",
"[.	c #DCB381",
"}.	c #2F2F31",
"|.	c #F0C28E",
"1.	c #E1B685",
"2.	c #060606",
"3.	c #EEC18C",
"4.	c #58452C",
"5.	c #040404",
"6.	c #E8BB88",
"7.	c #D6AD7D",
"8.	c #616262",
"9.	c #646566",
"0.	c #332D2D",
"a.	c #36302D",
"b.	c #EAEAEC",
"c.	c #3D3A38",
"d.	c #000B0B",
"e.	c #000101",
"f.	c #292829",
"g.	c #2D2A27",
"h.	c #353534",
"i.	c #343234",
"j.	c #008A8C",
"k.	c #00999B",
"l.	c #49B5B8",
"m.	c #38AEB1",
"n.	c #018B8E",
"o.	c #313133",
"p.	c #25A6A9",
"q.	c #1FA4A7",
"r.	c #008688",
"s.	c #413E39",
"t.	c #4F4C48",
"u.	c #009496",
"v.	c #009093",
"w.	c #014F51",
"x.	c #030303",
"y.	c #333334",
"z.	c #EBBF8A",
"A.	c #434343",
"B.	c #916C3E",
"C.	c #0141D4",
"D.	c #170B02",
"E.	c #69696A",
"F.	c #E5E2E1",
"G.	c #E3E3E5",
"H.	c #F5F5F5",
"                          .     + + + @ @ @ @ @ # # @ # # # # @                           .     + + + @ @ @ @ @ # # @ # # # # @ ",
"                        .       + + @ @ @ @ @ # # @ # # # # @ #                         .       + + @ @ @ @ @ # # @ # # # # @ # ",
"                      .         + @ @ @ @ @ # # @ # # # # @ # #                       .         + @ @ @ @ @ # # @ # # # # @ # # ",
"                    .           @ @ @ @ @ # # @ # # # # @ # # #                     .           @ @ @ @ @ # # @ # # # # @ # # # ",
"                  .           . @ @ @ @ # # @ # # # # @ # # # #                   .           . @ @ @ @ # # @ # # # # @ # # # # ",
"                .           . . @ @ @ # # @ # # # # @ # # # # #                 .           . . @ @ @ # # @ # # # # @ # # # # # ",
"$ $ $ $ $ % & .           . . . @ @ # # @ # # # # @ # # # # # #               .           . . . @ @ # # @ # # # # @ # # # # # # ",
"* = - ; ; > $ $ $ ,     . . . . @ # # @ # # # # @ # # # # # # #             .           . . . . @ # # @ # # # # @ # # # # # # # ",
"* = - ; ; ' ' ' $ ,   . . . . . # # @ # # # # @ # # # # # # # #           .           . . . . . # # @ # # # # @ # # # # # # # # ",
"- - - - - ) ) ! ! ~ $ . . . . { # @ # # # # @ # # # # # # # # #         .           . . . . . { # @ # # # # @ # # # # # # # # # ",
"- - ] - - - - - - ] ^ $ $ . { { @ # # # # @ # # # # # # # # # #       .           . . . . . { { @ # # # # @ # # # # # # # # # # ",
"- - ] - - - - - - ] ^ ' $ { { . # # # # @ # # # # # # # # # # #     .           . . . . . { { . # # # # @ # # # # # # # # # # # ",
"- - - - - - - - - - / ' $ ( . { # # # @ # # # # # # # # # # # #   .           . . . . . { { . { # # # @ # # # # # # # # # # # # ",
"- - - - - - - - - - _ : : $ < { # # @ # # # # # # # # # # # # # .           . . . . . { { . { { # # @ # # # # # # # # # # # # # ",
"- - [ } } | | | | 1 2 # # 3 4 { # @ # # # # # # # # # # # # # @           . . . . . { { . { { { # @ # # # # # # # # # # # # # @ ",
"- - [ } } | | | | 1 2 # # 3 4 { @ # # # # # # # # # # # # # @ #         . . . . . { { . { { { { @ # # # # # # # # # # # # # @ # ",
"| | | 5 5 6 | 7 7 8 9 0 0 a b c &                         .     + + + @ @ @ @ @ # # @ # # # # @                           .     ",
"| | | | | | | 5 5 $ d e e f g h i                       .       + + @ @ @ @ @ # # @ # # # # @ #                         .       ",
"| | | | | | | $ $ j k # # l m n o p                   .         + @ @ @ @ @ # # @ # # # # @ # #                       .         ",
"| | | | | | | $ $ j k # # l m n o q &               .           @ @ @ @ @ # # @ # # # # @ # # #                     .           ",
"5 | | | | | r $ $ s # t t u v w x y z             .           . @ @ @ @ # # @ # # # # @ # # # #                   .           . ",
"| | | | | | A $ $ B C D D E F G G H I           .           . . @ @ @ # # @ # # # # @ # # # # #                 .           . . ",
"| | | | | | r J J t K $ $ L M G G N $         .           . . . @ @ # # @ # # # # @ # # # # # #               .           . . . ",
"| | | | | | r J J t K $ $ L M G G N $       .           . . . . @ # # @ # # # # @ # # # # # # #             .           . . . . ",
"| | | | | | | $ $ O P Q Q G R M M S T     .           . . . . . # # @ # # # # @ # # # # # # # #           .           . . . . . ",
"| | | | | | | | | $ $ G G G R U U V %   .           . . . . . { # @ # # # # @ # # # # # # # # #         .           . . . . . { ",
"| | | | | | | W W W X G G Y Z $ $ ,   .           . . . . . { { @ # # # # @ # # # # # # # # # #       .           . . . . . { { ",
"| | | | | | | W W W X G G Y Z $ $ & .           . . . . . { { . # # # # @ # # # # # # # # # # #     .           . . . . . { { . ",
"W `  ...+.@.#.#.#.$.$ $ $ $ %.&.*..           . . . . . { { . { # # # @ # # # # # # # # # # # #   .           . . . . . { { . { ",
"=.-.;.;.;.$ $ >.>.,.'.$ $ ).&.# .           . . . . . { { . { { # # @ # # # # # # # # # # # # # .           . . . . . { { . { { ",
"'.!.~.~.~.$ $ '.'.'.{.].$ ^.D @           . . . . . { { . { { { # @ # # # # # # # # # # # # # @           . . . . . { { . { { { ",
"'.!.~.~.~.$ $ '.'.'.{.].$ ^./.#         . . . . . { { . { { { { @ # # # # # # # # # # # # # @ #         . . . . . { { . { { { { ",
"(._.'.'.'.:.<.'.'.'.[.$ $ .     + + + @ @ @ @ @ # # @ # # # # @                           .     + + + @ @ @ @ @ # # @ # # # # @ ",
"'.'.'.'.'.'.'.'.'.~.$ % }.      + + @ @ @ @ @ # # @ # # # # @ #                         .       + + @ @ @ @ @ # # @ # # # # @ # ",
"'.'.'.'.'.'.'.'.'.~.$ }.%       + @ @ @ @ @ # # @ # # # # @ # #                       .         + @ @ @ @ @ # # @ # # # # @ # # ",
"'.'.'.'.'.'.'.|.|.1.2.% %       @ @ @ @ @ # # @ # # # # @ # # #                     .           @ @ @ @ @ # # @ # # # # @ # # # ",
"'.'.'.'.'.3.'.4.4.5.          . @ @ @ @ # # @ # # # # @ # # # #                   .           . @ @ @ @ # # @ # # # # @ # # # # ",
"~._.6.7.7.'.$ 8.9.    0.0.a.. . b.@ @ # # @ # # # # @ # # # # #                 .           . . @ @ @ # # @ # # # # @ # # # # # ",
"~._.6.7.7.$ $ 9.8.    0.0.c.. . b.@ # # @ # # # # @ # # # # # #               .           . . . @ @ # # @ # # # # @ # # # # # # ",
"d.e.$ $ $ $ $ f.f.    g.h.. i.. b.# # @ # # # # @ # # # # # # #             .           . . . . @ # # @ # # # # @ # # # # # # # ",
"j.k.l.m.m.n.$ g.g.    . . . . o.D # @ # # # # @ # # # # # # # #           .           . . . . . # # @ # # # # @ # # # # # # # # ",
"$ p.l.q.q.r.$       . . . . s.{ &.@ # # # # @ # # # # # # # # #         .           . . . . . { # @ # # # # @ # # # # # # # # # ",
"q.$ l.q.q.r.$     . . . . . t.{ b.# # # # @ # # # # # # # # # #       .           . . . . . { { @ # # # # @ # # # # # # # # # # ",
"q.'.$ k.k.u.$   . . o.o.. { { . # # # # @ # # # # # # # # # # #     .           . . . . . { { . # # # # @ # # # # # # # # # # # ",
"'.'.'.$ v.w.x.. . y.. . { { . { # # # @ # # # # # # # # # # # #   .           . . . . . { { . { # # # @ # # # # # # # # # # # # ",
"z.'.'.$ R R v }.$ $ $ $ A.. { { # # @ # # # # # # # # # # # # # .           . . . . . { { . { { # # @ # # # # # # # # # # # # # ",
"z.'.$ R R R v $ B.B.B.B.$ { { { # @ # # # # # # # # # # # # # @           . . . . . { { . { { { # @ # # # # # # # # # # # # # @ ",
"$ $ C.C.C.C.v B.B.B.B.B.$ { { { @ # # # # # # # # # # # # # @ #         . . . . . { { . { { { { @ # # # # # # # # # # # # # @ # ",
"$ $ $ $ $ D.B.B.B.B.B.$ # # # @                           .     + + + @ @ @ @ @ # # @ # # # # @                           .     ",
"+ + $ E.B.B.B.B.B.B.$ # # # @ #                         .       + + @ @ @ @ @ # # @ # # # # @ #                         .       ",
"+ @ F.$ B.B.B.B.$ $ &.# # @ # #                       .         + @ @ @ @ @ # # @ # # # # @ # #                       .         ",
"@ @ /.G.$ $ $ $ H.# # # @ # # #                     .           @ @ @ @ @ # # @ # # # # @ # # #                     .           ",
"@ @ @ @ # # @ # # # # @ # # # #                   .           . @ @ @ @ # # @ # # # # @ # # # #                   .           . ",
"@ @ @ # # @ # # # # @ # # # # #                 .           . . @ @ @ # # @ # # # # @ # # # # #                 .           . . ",
"@ @ # # @ # # # # @ # # # # # #               .           . . . @ @ # # @ # # # # @ # # # # # #               .           . . . ",
"@ # # @ # # # # @ # # # # # # #             .           . . . . @ # # @ # # # # @ # # # # # # #             .           . . . . ",
"# # @ # # # # @ # # # # # # # #           .           . . . . . # # @ # # # # @ # # # # # # # #           .           . . . . . ",
"# @ # # # # @ # # # # # # # # #         .           . . . . . { # @ # # # # @ # # # # # # # # #         .           . . . . . { ",
"@ # # # # @ # # # # # # # # # #       .           . . . . . { { @ # # # # @ # # # # # # # # # #       .           . . . . . { { ",
"# # # # @ # # # # # # # # # # #     .           . . . . . { { . # # # # @ # # # # # # # # # # #     .           . . . . . { { . ",
"# # # @ # # # # # # # # # # # #   .           . . . . . { { . { # # # @ # # # # # # # # # # # #   .           . . . . . { { . { ",
"# # @ # # # # # # # # # # # # # .           . . . . . { { . { { # # @ # # # # # # # # # # # # # .           . . . . . { { . { { ",
"# @ # # # # # # # # # # # # # @           . . . . . { { . { { { # @ # # # # # # # # # # # # # @           . . . . . { { . { { { ",
"@ # # # # # # # # # # # # # @ #         . . . . . { { . { { { { @ # # # # # # # # # # # # # @ #         . . . . . { { . { { { { "};
