/* XPM */
static char * p_rl_out_xpm[] = {
"64 64 143 2",
"  	c #292627",
". 	c #323234",
"+ 	c #D0D0D2",
"@ 	c #EBEBED",
"# 	c #FFFFFF",
"$ 	c #000000",
"% 	c #282526",
"& 	c #0089F3",
"* 	c #008BF7",
"= 	c #008CF9",
"- 	c #0089F4",
"; 	c #008AF5",
"> 	c #0082E9",
", 	c #0080E5",
"' 	c #001C46",
") 	c #010101",
"! 	c #2F2F30",
"~ 	c #EAEAEC",
"{ 	c #0086EF",
"] 	c #0090FF",
"^ 	c #0072CF",
"/ 	c #FCFCFC",
"( 	c #008AF6",
"_ 	c #0077D7",
": 	c #444444",
"< 	c #024DF3",
"[ 	c #E7E7E7",
"} 	c #0151FF",
"| 	c #0152FF",
"1 	c #EEEEEE",
"2 	c #008FFF",
"3 	c #0150FA",
"4 	c #323232",
"5 	c #F5F5F5",
"6 	c #0151FE",
"7 	c #001569",
"8 	c #01238C",
"9 	c #0151FC",
"0 	c #002BA0",
"a 	c #0250FC",
"b 	c #008FFE",
"c 	c #002999",
"d 	c #002A9D",
"e 	c #013AC4",
"f 	c #00248E",
"g 	c #313133",
"h 	c #013AC3",
"i 	c #5F5043",
"j 	c #5B4B3B",
"k 	c #163EC3",
"l 	c #143DC2",
"m 	c #3B52C7",
"n 	c #3D53C7",
"o 	c #4055C6",
"p 	c #354EC6",
"q 	c #2746C5",
"r 	c #0139C2",
"s 	c #1C1C1D",
"t 	c #161415",
"u 	c #2D2A27",
"v 	c #EABD93",
"w 	c #222222",
"x 	c #6C6C6C",
"y 	c #818181",
"z 	c #070301",
"A 	c #050506",
"B 	c #F2C48F",
"C 	c #DAB080",
"D 	c #1E1204",
"E 	c #131212",
"F 	c #E5B987",
"G 	c #C8A174",
"H 	c #BF9A6F",
"I 	c #281B0A",
"J 	c #010000",
"K 	c #090708",
"L 	c #100E0F",
"M 	c #E1B685",
"N 	c #DBB181",
"O 	c #030100",
"P 	c #020100",
"Q 	c #6F6F70",
"R 	c #C9C9CB",
"S 	c #F0C28E",
"T 	c #EEC28C",
"U 	c #0B090A",
"V 	c #C6C6C8",
"W 	c #E3E3E5",
"X 	c #F1C38E",
"Y 	c #72593B",
"Z 	c #201D1E",
"` 	c #F2C38F",
" .	c #EFC28D",
"..	c #785E40",
"+.	c #523F26",
"@.	c #353E3F",
"#.	c #3C3A3B",
"$.	c #363335",
"%.	c #FDFDFD",
"&.	c #333A3B",
"*.	c #333234",
"=.	c #000B0B",
"-.	c #000404",
";.	c #001F20",
">.	c #01292B",
",.	c #155456",
"'.	c #007F81",
").	c #009193",
"!.	c #263334",
"~.	c #EBEBEC",
"{.	c #FFFEFE",
"].	c #1FA4A7",
"^.	c #49B5B8",
"/.	c #009CA0",
"(.	c #008C8F",
"_.	c #313537",
":.	c #3C3937",
"<.	c #25A7A9",
"[.	c #008A8C",
"}.	c #007D7F",
"|.	c #303032",
"1.	c #353534",
"2.	c #2E2F30",
"3.	c #464644",
"4.	c #3EB0B2",
"5.	c #31888A",
"6.	c #186668",
"7.	c #46B2B4",
"8.	c #00797B",
"9.	c #2E2E30",
"0.	c #EBBF8A",
"a.	c #0141D4",
"b.	c #051D75",
"c.	c #3E51C7",
"d.	c #001162",
"e.	c #414142",
"f.	c #916C3E",
"g.	c #FEFEFE",
"h.	c #E9E9EB",
"i.	c #F9F9F9",
"j.	c #E5E5E7",
"k.	c #5F5F5F",
"l.	c #575757",
"                          .     + + + @ @ @ @ @ # # @ # # # # @                           .     + + + @ @ @ @ @ # # @ # # # # @ ",
"                        .       + + @ @ @ @ @ # # @ # # # # @ #                         .       + + @ @ @ @ @ # # @ # # # # @ # ",
"                      .         + @ @ @ @ @ # # @ # # # # @ # #                       .         + @ @ @ @ @ # # @ # # # # @ # # ",
"                    .           @ @ @ @ @ # # @ # # # # @ # # #                     .           @ @ @ @ @ # # @ # # # # @ # # # ",
"                  .           . @ @ @ @ # # @ # # # # @ # # # #                   .           . @ @ @ @ # # @ # # # # @ # # # # ",
"$ $ $ $ $ $ $ $ $ $ % %     . . @ @ @ # # @ # # # # @ # # # # #                 .           . . @ @ @ # # @ # # # # @ # # # # # ",
"& * = - - ; & > > , ' ' ) $ ! ! ~ @ # # @ # # # # @ # # # # # #               .           . . . @ @ # # @ # # # # @ # # # # # # ",
"& * = - - ; & > > , { { { $ ! ! ~ # # @ # # # # @ # # # # # # #             .           . . . . @ # # @ # # # # @ # # # # # # # ",
"] ] ] ] ] ] ] ] ] ] { { { ^ $ $ $ / @ # # # # @ # # # # # # # #           .           . . . . . # # @ # # # # @ # # # # # # # # ",
"] ] ] ] ] ] ] ] ] ] ] ] ] ] ( ( _ $ # # # # @ # # # # # # # # #         .           . . . . . : # @ # # # # @ # # # # # # # # # ",
"] ] ] ] ] ] ] ] ] ] ] ] ] ] ( ( _ $ # # # @ # # # # # # # # # #       .           . . . . . : : @ # # # # @ # # # # # # # # # # ",
"] ] ] ] ] ] ] ] ] ] ] ] ] ] ] ] ] < $ [ ~ # # # # # # # # # # #     .           . . . . . : : . # # # # @ # # # # # # # # # # # ",
"] ] ] ] ] ] ] ] ] ] ] ] ] ] ] ] } | $ $ 1 # # # # # # # # # # #   .           . . . . . : : . : # # # @ # # # # # # # # # # # # ",
"] 2 ] ] ] ] ] ] ] ] | | | | | | } 3 < < 4 5 # # # # # # # # # # .           . . . . . : : . : : # # @ # # # # # # # # # # # # # ",
"] 2 ] ] ] ] ] ] ] ] | | | | | | } 3 < < 4 5 # # # # # # # # # @           . . . . . : : . : : : # @ # # # # # # # # # # # # # @ ",
"| | | | | | | | | | | | | | | | | 6 3 3 7 $ # # # # # # # # @ #         . . . . . : : . : : : : @ # # # # # # # # # # # # # @ # ",
"| | | | | | | | | | | | } } | | | | | | 8 $               .     + + + @ @ @ @ @ # # @ # # # # @                           .     ",
"| | } | | } | | | | | | | 6 | | | | 9 9 0 $             .       + + @ @ @ @ @ # # @ # # # # @ #                         .       ",
"| | } | | } | | | | | | | 6 | | | | 9 9 0 $           .         + @ @ @ @ @ # # @ # # # # @ # #                       .         ",
"} | | | | a } } } | | | | | } } | | b b c $         .           @ @ @ @ @ # # @ # # # # @ # # #                     .           ",
"| | | | | | | | | } | | | | | | | | ] ] d $       .           . @ @ @ @ # # @ # # # # @ # # # #                   .           . ",
"| | | | | | | | | | | | | | } } | | } } c $     .           . . @ @ @ # # @ # # # # @ # # # # #                 .           . . ",
"| | | | | | | | | | | | | | } } | | } } c $   .           . . . @ @ # # @ # # # # @ # # # # # #               .           . . . ",
"| | | } } | | | | | | | | a 6 6 | e e e f $ .           . . . . @ # # @ # # # # @ # # # # # # #             .           . . . . ",
"| | | | | | | | | | | | } | e e e $ $ $ $ g           . . . . . # # @ # # # # @ # # # # # # # #           .           . . . . . ",
"| | | | | | | | | e e e e e h h e $ ) ) i           . . . . . : # @ # # # # @ # # # # # # # # #         .           . . . . . : ",
"| | | | | | | | | e e e e e h h e $ ) ) j         . . . . . : : @ # # # # @ # # # # # # # # # #       .           . . . . . : : ",
"e h e k l $ m n n n o o p q r r $ $ s t u       . . . . . : : . # # # # @ # # # # # # # # # # #     .           . . . . . : : . ",
"v $ $ $ $ $ w x x y z z $ $ $ $ $ A           . . . . . : : . : # # # @ # # # # # # # # # # # #   .           . . . . . : : . : ",
"B $ $ $ $ $ $ B B B C C D $ $ $ $ E         . . . . . : : . : : # # @ # # # # # # # # # # # # # .           . . . . . : : . : : ",
"B $ $ $ $ $ $ B B B C C D $ $ $ $ E       . . . . . : : . : : : # @ # # # # # # # # # # # # # @           . . . . . : : . : : : ",
"F G $ $ $ $ $ B B B H H I J $ $ K L     . . . . . : : . : : : : @ # # # # # # # # # # # # # @ #         . . . . . : : . : : : : ",
"B M $ $ $ B B N N $ O O P $ $ $ Q R + @ @ @ @ @ # # @ # # # # @                           .     + + + @ @ @ @ @ # # @ # # # # @ ",
"B M $ $ $ B B N N $ O O P $ $ $ Q R @ @ @ @ @ # # @ # # # # @ #                         .       + + @ @ @ @ @ # # @ # # # # @ # ",
"B B B S S B T B B B B B O $ U U V W @ @ @ @ # # @ # # # # @ # #                       .         + @ @ @ @ @ # # @ # # # # @ # # ",
"B B B B B B B B B B X X Y Z % % @ ~ @ @ ~ # # @ # # # # @ # # #                     .           @ @ @ @ @ # # @ # # # # @ # # # ",
"` B B B B B  .....+.$ $ @.#.  $.@ @ @ @ %.# @ # # # # @ # # # #                   .           . @ @ @ @ # # @ # # # # @ # # # # ",
"` B B B B B  .....+.$ $ &.  *.$.@ @ @ # %.@ # # # # @ # # # # #                 .           . . @ @ @ # # @ # # # # @ # # # # # ",
"=.-.-.$ $ ;.>.,.,.'.).$ !.. . . ~.@ {.{.~.# # # # @ # # # # # #               .           . . . @ @ # # @ # # # # @ # # # # # # ",
"$ $ ].].].].$ ^.^./.(.$ _.. :.:.@ # # @ # # # # @ # # # # # # #             .           . . . . @ # # @ # # # # @ # # # # # # # ",
"].].^.<.<.[.$ ^.^.<.}.$ |.. 1.1.# # ~.{.{.# # @ # # # # # # # #           .           . . . . . # # @ # # # # @ # # # # # # # # ",
"].].^.<.<.$ ].^.^.<.}.$ 2.. 1.3.# @ {.{.{.# @ # # # # # # # # #         .           . . . . . : # @ # # # # @ # # # # # # # # # ",
"].].^.4.$ ].].5.5.4.'.$ |.. : : @ # # # # @ # # # # # # # # # #       .           . . . . . : : @ # # # # @ # # # # # # # # # # ",
"].].].$ ].].].6.6.7.8.$ 9.: : . # # %.%.@ # # # # # # # # # # #     .           . . . . . : : . # # # # @ # # # # # # # # # # # ",
"0.].$ a.a.a.a.b.b.c.d.$ e.: . : # # # @ # # # # # # # # # # # #   .           . . . . . : : . : # # # @ # # # # # # # # # # # # ",
"0.$ a.a.a.a.a.b.b.c.$ $ $ $ : : # # @ # # # # # # # # # # # # # .           . . . . . : : . : : # # @ # # # # # # # # # # # # # ",
"$ a.a.a.a.a.a.$ $ $ f.f.f.f.$ : g.@ # # # # # # # # # # # # # @           . . . . . : : . : : : # @ # # # # # # # # # # # # # @ ",
"$ $ $ $ $ $ $ f.f.f.f.f.f.f.f.$ h.# # # # # # # # # # # # # @ #         . . . . . : : . : : : : @ # # # # # # # # # # # # # @ # ",
"+ + + @ @ $ f.f.f.f.f.f.f.f.f.$                           .     + + + @ @ @ @ @ # # @ # # # # @                           .     ",
"+ + @ @ @ @ $ f.f.f.f.f.f.f.$ i.                        .       + + @ @ @ @ @ # # @ # # # # @ #                         .       ",
"+ h.@ j.~ @ 4 k.l.$ $ $ $ $ %.%.                      .         + @ @ @ @ @ # # @ # # # # @ # #                       .         ",
"@ @ @ @ @ # # @ # # # # @ # # #                     .           @ @ @ @ @ # # @ # # # # @ # # #                     .           ",
"@ @ @ @ # # @ # # # # @ # # # #                   .           . @ @ @ @ # # @ # # # # @ # # # #                   .           . ",
"@ @ @ # # @ # # # # @ # # # # #                 .           . . @ @ @ # # @ # # # # @ # # # # #                 .           . . ",
"@ @ # # @ # # # # @ # # # # # #               .           . . . @ @ # # @ # # # # @ # # # # # #               .           . . . ",
"@ # # @ # # # # @ # # # # # # #             .           . . . . @ # # @ # # # # @ # # # # # # #             .           . . . . ",
"# # @ # # # # @ # # # # # # # #           .           . . . . . # # @ # # # # @ # # # # # # # #           .           . . . . . ",
"# @ # # # # @ # # # # # # # # #         .           . . . . . : # @ # # # # @ # # # # # # # # #         .           . . . . . : ",
"@ # # # # @ # # # # # # # # # #       .           . . . . . : : @ # # # # @ # # # # # # # # # #       .           . . . . . : : ",
"# # # # @ # # # # # # # # # # #     .           . . . . . : : . # # # # @ # # # # # # # # # # #     .           . . . . . : : . ",
"# # # @ # # # # # # # # # # # #   .           . . . . . : : . : # # # @ # # # # # # # # # # # #   .           . . . . . : : . : ",
"# # @ # # # # # # # # # # # # # .           . . . . . : : . : : # # @ # # # # # # # # # # # # # .           . . . . . : : . : : ",
"# @ # # # # # # # # # # # # # @           . . . . . : : . : : : # @ # # # # # # # # # # # # # @           . . . . . : : . : : : ",
"@ # # # # # # # # # # # # # @ #         . . . . . : : . : : : : @ # # # # # # # # # # # # # @ #         . . . . . : : . : : : : "};
