/* XPM */
static char * p_rl_in_xpm[] = {
"64 64 163 2",
"  	c #292627",
". 	c #323234",
"+ 	c #D0D0D2",
"@ 	c #EBEBED",
"# 	c #FFFFFF",
"$ 	c #FCFCFC",
"% 	c #E1E1E3",
"& 	c #000000",
"* 	c #FEFEFE",
"= 	c #F1F1F1",
"- 	c #002554",
"; 	c #007EE1",
"> 	c #0090FF",
", 	c #008BF8",
"' 	c #0089F3",
") 	c #0086EF",
"! 	c #00000B",
"~ 	c #0085ED",
"{ 	c #008EFC",
"] 	c #444444",
"^ 	c #0076D5",
"/ 	c #008AF6",
"( 	c #4F4F4F",
"_ 	c #3596FF",
": 	c #F0F0F0",
"< 	c #D1D1D3",
"[ 	c #3E4DAF",
"} 	c #16277E",
"| 	c #E0E1E9",
"1 	c #5D5E6A",
"2 	c #0146E1",
"3 	c #0152FF",
"4 	c #008CF9",
"5 	c #008FFF",
"6 	c #13257D",
"7 	c #434343",
"8 	c #DADADC",
"9 	c #3B3F71",
"0 	c #A8A8A8",
"a 	c #EAECFF",
"b 	c #0A247D",
"c 	c #0352FF",
"d 	c #0250FC",
"e 	c #0151FF",
"f 	c #E9E9EC",
"g 	c #272845",
"h 	c #02083B",
"i 	c #707070",
"j 	c #B6B6B6",
"k 	c #E6E6E6",
"l 	c #E7E7EB",
"m 	c #FAFAFC",
"n 	c #282736",
"o 	c #010214",
"p 	c #8B8B8B",
"q 	c #C1C1C2",
"r 	c #F5F6FC",
"s 	c #E8E8EA",
"t 	c #F6F7F9",
"u 	c #E1E1E1",
"v 	c #404A98",
"w 	c #3B3F73",
"x 	c #031464",
"y 	c #000001",
"z 	c #A5A5A6",
"A 	c #AEAEAE",
"B 	c #CECECE",
"C 	c #0252FF",
"D 	c #878787",
"E 	c #0135B8",
"F 	c #013AC3",
"G 	c #0139C1",
"H 	c #2F3673",
"I 	c #FDFDFD",
"J 	c #ADADAE",
"K 	c #FEFEFF",
"L 	c #0552FF",
"M 	c #0137BC",
"N 	c #0139C2",
"O 	c #010104",
"P 	c #FDFDFF",
"Q 	c #525676",
"R 	c #002998",
"S 	c #0138C1",
"T 	c #021E7E",
"U 	c #85858D",
"V 	c #F1F1F2",
"W 	c #F7F7F7",
"X 	c #000002",
"Y 	c #0138C0",
"Z 	c #EFEFEF",
"` 	c #0137BD",
" .	c #0137BE",
"..	c #023AC3",
"+.	c #013AC4",
"@.	c #F9F9F9",
"#.	c #292629",
"$.	c #010101",
"%.	c #033AC2",
"&.	c #063AC0",
"*.	c #093AC1",
"=.	c #043AC2",
"-.	c #373436",
";.	c #242222",
">.	c #F2C48F",
",.	c #ECBF8D",
"'.	c #F1C38F",
").	c #EFC290",
"!.	c #EDC090",
"~.	c #EABD93",
"{.	c #282526",
"].	c #695236",
"^.	c #EDC08B",
"/.	c #F2C38F",
"(.	c #F1C38E",
"_.	c #DCB381",
":.	c #6E5437",
"<.	c #826646",
"[.	c #EFC28D",
"}.	c #E5B987",
"|.	c #E0E0E2",
"1.	c #F2C390",
"2.	c #E4E4E5",
"3.	c #3C3C3D",
"4.	c #E1B685",
"5.	c #F0C28E",
"6.	c #F2C490",
"7.	c #EAEAEC",
"8.	c #353535",
"9.	c #58452C",
"0.	c #EEC18C",
"a.	c #EBEBEC",
"b.	c #FFFEFE",
"c.	c #EFF0F0",
"d.	c #D6AD7D",
"e.	c #E8BB88",
"f.	c #EBEAEC",
"g.	c #000101",
"h.	c #000B0B",
"i.	c #313133",
"j.	c #E9E9EB",
"k.	c #1C8E91",
"l.	c #38AEB1",
"m.	c #49B5B8",
"n.	c #00999B",
"o.	c #008A8C",
"p.	c #FEFEFD",
"q.	c #008688",
"r.	c #1FA4A7",
"s.	c #25A6A9",
"t.	c #EBEAEB",
"u.	c #0D9597",
"v.	c #3D3D3D",
"w.	c #165254",
"x.	c #009093",
"y.	c #F3F3F3",
"z.	c #EBBF8A",
"A.	c #916C3E",
"B.	c #0141D4",
"C.	c #170B02",
"D.	c #0C0B0B",
"E.	c #503F2F",
"F.	c #272425",
"                          .     + + + @ @ @ @ @ # # @ # # # # @                           .     + + + @ @ @ @ @ # # @ # # # # @ ",
"                        .       + + @ @ @ @ @ # # @ # # # # @ #                         .       + + @ @ @ @ @ # # @ # # # # @ # ",
"                      .         + @ @ @ @ @ # # @ # # # # @ # #                       .         + @ @ @ @ @ # # @ # # # # @ # # ",
"                    .           @ @ @ @ @ # # @ # # # # @ # # #                     .           @ @ @ @ @ # # @ # # # # @ # # # ",
"                  .           . @ @ @ @ # # @ # # # # @ # # # #                   .           . @ @ @ @ # # @ # # # # @ # # # # ",
"                .           . . @ @ @ # # @ # # # # @ # # # # #                 .           . . @ @ @ # # @ # # # $ % & & & & & ",
"              .           . . . @ @ # # @ # # # # @ # # # # # #               .           . . . @ @ # # @ * = & & & - ; ; > , ' ",
"            .           . . . . @ # # @ # # # # @ # # # # # # #             .           . . . . @ # # @ # * = & ) ) ) ; ; > , ' ",
"          .           . . . . . # # @ # # # # @ # # # # # # # #           .           . . . . . # # @ # # & ! ~ ~ { { > > > > > ",
"        .           . . . . . ] # @ # # # # @ # # # # # # # # #         .           . . . . . ] # @ * & & ^ / > > > > > > / > > ",
"      .           . . . . . ] ] @ # # # # @ # # # # # # # # # #       .           . . . . . ] ] @ # * & ) ^ / > > > > > > / > > ",
"    .           . . . . . ] ] . # # # # @ # # # # # # # # # # #     .           . . . . . ] ] . # # ( & ) _ > > > > > > > > > > ",
"  .           . . . . . ] ] . ] # # # @ # # # # # # # # # # # #   .           . . . . . ] ] . ] # : & < < [ > > > > > > > > > > ",
".           . . . . . ] ] . ] ] # # @ # # # # # # # # # # # # # .           . . . . . ] ] . ] ] # } | # # 1 2 3 3 3 3 4 4 5 > > ",
"          . . . . . ] ] . ] ] ] # @ # # # # # # # # # # # # # @           . . . . . ] ] . ] ] ] # 6 | # # 1 2 3 3 3 3 4 4 5 > > ",
"        . . . . . ] ] . ] ] ] ] @ # # # # # # # # # # # # # @ #         . . . . . ] ] . ] ] ] 7 8 9 0 = = a b c c 3 d e e 3 3 3 ",
"+ + + @ @ @ @ @ # # @ # # # # @                           .     + + + @ @ @ @ @ # # @ # # # # f g h i j j k & e e 3 3 3 3 3 3 3 ",
"+ + @ @ @ @ @ # # @ # # # # @ #                         .       + + @ @ @ @ @ # # @ # # # * l m n o p # # q r & & 3 3 3 3 3 3 3 ",
"+ @ @ @ @ @ # # @ # # # # @ # #                       .         + @ @ @ @ @ # # @ # # # # s t m n o p # # q r & & 3 3 3 3 3 3 3 ",
"@ @ @ @ @ # # @ # # # # @ # # #                     .           @ @ @ @ @ # # @ # # # # @ u v w x y z A A # B & & C 3 3 3 3 3 e ",
"@ @ @ @ # # @ # # # # @ # # # #                   .           . @ @ @ @ # # @ # # # # @ # D E F F G H I I J K & & L 3 3 3 3 3 3 ",
"@ @ @ # # @ # # # # @ # # # # #                 .           . . @ @ @ # # @ # # # # @ # # & M F F N O & & P A Q Q C 3 3 3 3 3 3 ",
"@ @ # # @ # # # # @ # # # # # #               .           . . . @ @ # # @ # # # # @ # # # & M F F N O & & P A Q Q C 3 3 3 3 3 3 ",
"@ # # @ # # # # @ # # # # # # #             .           . . . . @ # # @ # # # # @ # # # # B R N N S F T T U V & & 3 3 3 3 3 3 3 ",
"# # @ # # # # @ # # # # # # # #           .           . . . . . # # @ # # # # @ # # # # # W X Y Y S F F F & & 3 3 3 3 3 3 3 3 3 ",
"# @ # # # # @ # # # # # # # # #         .           . . . . . ] # @ # # # # @ # # # # # # # Z & & `  .F F ..+.+.+.3 3 3 3 3 3 3 ",
"@ # # # # @ # # # # # # # # # #       .           . . . . . ] ] @ # # # # @ # # # # # # # # @.& & `  .F F ..+.+.+.3 3 3 3 3 3 3 ",
"# # # # @ # # # # # # # # # # #     .           . . . . . ] ] . # # # # @ # # # # # # # # # # * #.$.& & & & y +.+.+.%.&.&.*.=.+.",
"# # # @ # # # # # # # # # # # #   .           . . . . . ] ] . ] # # # @ # # # # # # # # # # # #   -.;.& & >.,.'.'.& & ).).).!.~.",
"# # @ # # # # # # # # # # # # # .           . . . . . ] ] . ] ] # # @ # # # # # # # # # # # # # .   {.& ].^.>.>.>.& & /././.(.>.",
"# @ # # # # # # # # # # # # # @           . . . . . ] ] . ] ] ] # @ # # # # # # # # # # # # # @     {.& ].^.>.>.>.& & /././.(.>.",
"@ # # # # # # # # # # # # # @ #         . . . . . ] ] . ] ] ] ] @ # # # # # # # # # # # # # @ #       & & _.>.>.>.:.<.>.>.>.[.}.",
"                          .     + + + @ @ @ @ @ # # @ # # # # @                           .     + + + |.|.& 1.>.>.>.>.>.>.>.>.>.",
"                        .       + + @ @ @ @ @ # # @ # # # # @ #                         .       + + @ |.|.& 1.>.>.>.>.>.>.>.>.>.",
"                      .         + @ @ @ @ @ # # @ # # # # @ # #                       .         + @ @ 2.2.3.4.5.5.6.>.>.>.>.>.>.",
"                    .           @ @ @ @ @ # # @ # # # # @ # # #                     .           @ 7.7.7.7.# 8.9.9.>.0.>.>.>.>.>.",
"                  .           . @ @ @ @ # # @ # # # # @ # # # #                   .           . 7.@ a.@ b.# @ c.c.& >.d.d.e.[./.",
"                .           . . @ @ @ # # @ # # # # @ # # # # #                 .           . . 7.@ a.b.b.@ # c.c.& & d.d.e.[./.",
"              .           . . . @ @ # # @ # # # # @ # # # # # #               .           . . . 7.f.# # @ # * I I & & & & & g.h.",
"            .           . . . . @ # # @ # # # # @ # # # # # # #             .           . . . i.j.# # @ # # # # @ & k.l.l.m.n.o.",
"          .           . . . . . # # @ # # # # @ # # # # # # # #           .           . . . . . * p.@ # # # # @ # & q.r.r.m.s.& ",
"        .           . . . . . ] # @ # # # # @ # # # # # # # # #         .           . . . . . ] * t.# # # # @ # # & q.r.r.m.& r.",
"      .           . . . . . ] ] @ # # # # @ # # # # # # # # # #       .           . . . . . ] ] @ # # # I j.# # # & u.n.n.& >.r.",
"    .           . . . . . ] ] . # # # # @ # # # # # # # # # # #     .           . . . . . ] ] . # # # # @ # # * # v.w.x.& >.>.>.",
"  .           . . . . . ] ] . ] # # # @ # # # # # # # # # # # #   .           . . . . . ] ] . ] # # # j.& & & & y.y S S & >.>.z.",
".           . . . . . ] ] . ] ] # # @ # # # # # # # # # # # # # .           . . . . . ] ] . ] ] # # @ & A.A.A.A.& y S S S & >.z.",
"          . . . . . ] ] . ] ] ] # @ # # # # # # # # # # # # # @           . . . . . ] ] . ] ] ] # @ # & A.A.A.A.A.y B.B.B.B.& & ",
"        . . . . . ] ] . ] ] ] ] @ # # # # # # # # # # # # # @ #         . . . . . ] ] . ] ] ] ] @ # # # & A.A.A.A.A.C.& & & & & ",
"+ + + @ @ @ @ @ # # @ # # # # @                           .     + + + @ @ @ @ @ # # @ # # # # @           & A.A.A.A.A.A.D.&     ",
"+ + @ @ @ @ @ # # @ # # # # @ #                         .       + + @ @ @ @ @ # # @ # # # # @ #             & & A.A.A.A.& E.    ",
"+ @ @ @ @ @ # # @ # # # # @ # #                       .         + @ @ @ @ @ # # @ # # # # @ # #               F.& & & & F.      ",
"@ @ @ @ @ # # @ # # # # @ # # #                     .           @ @ @ @ @ # # @ # # # # @ # # #                     .           ",
"@ @ @ @ # # @ # # # # @ # # # #                   .           . @ @ @ @ # # @ # # # # @ # # # #                   .           . ",
"@ @ @ # # @ # # # # @ # # # # #                 .           . . @ @ @ # # @ # # # # @ # # # # #                 .           . . ",
"@ @ # # @ # # # # @ # # # # # #               .           . . . @ @ # # @ # # # # @ # # # # # #               .           . . . ",
"@ # # @ # # # # @ # # # # # # #             .           . . . . @ # # @ # # # # @ # # # # # # #             .           . . . . ",
"# # @ # # # # @ # # # # # # # #           .           . . . . . # # @ # # # # @ # # # # # # # #           .           . . . . . ",
"# @ # # # # @ # # # # # # # # #         .           . . . . . ] # @ # # # # @ # # # # # # # # #         .           . . . . . ] ",
"@ # # # # @ # # # # # # # # # #       .           . . . . . ] ] @ # # # # @ # # # # # # # # # #       .           . . . . . ] ] ",
"# # # # @ # # # # # # # # # # #     .           . . . . . ] ] . # # # # @ # # # # # # # # # # #     .           . . . . . ] ] . ",
"# # # @ # # # # # # # # # # # #   .           . . . . . ] ] . ] # # # @ # # # # # # # # # # # #   .           . . . . . ] ] . ] ",
"# # @ # # # # # # # # # # # # # .           . . . . . ] ] . ] ] # # @ # # # # # # # # # # # # # .           . . . . . ] ] . ] ] ",
"# @ # # # # # # # # # # # # # @           . . . . . ] ] . ] ] ] # @ # # # # # # # # # # # # # @           . . . . . ] ] . ] ] ] ",
"@ # # # # # # # # # # # # # @ #         . . . . . ] ] . ] ] ] ] @ # # # # # # # # # # # # # @ #         . . . . . ] ] . ] ] ] ] "};
