/* XPM */
static char * p_ud_in_xpm[] = {
"64 64 458 2",
"  	c #292627",
". 	c #323234",
"+ 	c #D0D0D2",
"@ 	c #E9E9EB",
"# 	c #D3D3D5",
"$ 	c #80746B",
"% 	c #C29566",
"& 	c #EBB67B",
"* 	c #EEB87D",
"= 	c #EFB97D",
"- 	c #F0B97E",
"; 	c #E6B278",
"> 	c #B48A5A",
", 	c #937146",
"' 	c #040100",
") 	c #3E2D1B",
"! 	c #70553D",
"~ 	c #5E473F",
"{ 	c #4A3844",
"] 	c #35294D",
"^ 	c #191757",
"/ 	c #000C60",
"( 	c #000C6D",
"_ 	c #00007B",
": 	c #44377F",
"< 	c #97744D",
"[ 	c #886843",
"} 	c #765A3F",
"| 	c #60493D",
"1 	c #40313A",
"2 	c #251B12",
"3 	c #000000",
"4 	c #674E33",
"5 	c #E0AD75",
"6 	c #65605C",
"7 	c #E7E7E9",
"8 	c #EBEBED",
"9 	c #FFFFFF",
"0 	c #C2C2C4",
"a 	c #796048",
"b 	c #CE9F6B",
"c 	c #EDB87D",
"d 	c #EFB87D",
"e 	c #F2BB7F",
"f 	c #CE9F6C",
"g 	c #000005",
"h 	c #886946",
"i 	c #ECB77C",
"j 	c #E9B47A",
"k 	c #E4B078",
"l 	c #DFAD75",
"m 	c #BB9060",
"n 	c #694F2D",
"o 	c #B58B5A",
"p 	c #BE9260",
"q 	c #EFB97E",
"r 	c #EDB77C",
"s 	c #DDAB74",
"t 	c #AB8458",
"u 	c #93714B",
"v 	c #040201",
"w 	c #402F1D",
"x 	c #93704B",
"y 	c #A5896F",
"z 	c #BABABB",
"A 	c #EAEAEC",
"B 	c #BABABC",
"C 	c #755C42",
"D 	c #C99B68",
"E 	c #ECB67C",
"F 	c #C19566",
"G 	c #000012",
"H 	c #997752",
"I 	c #F0BA7E",
"J 	c #C69968",
"K 	c #000010",
"L 	c #96744F",
"M 	c #F1BB7F",
"N 	c #DDAB73",
"O 	c #B1885B",
"P 	c #98754E",
"Q 	c #0F0D0E",
"R 	c #ABABAC",
"S 	c #C2C2C3",
"T 	c #C8C8CA",
"U 	c #E1E1E2",
"V 	c #B0B0B0",
"W 	c #282B25",
"X 	c #443A2B",
"Y 	c #B2895C",
"Z 	c #E8B37A",
"` 	c #D0A16D",
" .	c #8F6F4D",
"..	c #BE9364",
"+.	c #BA9062",
"@.	c #000013",
"#.	c #A37E57",
"$.	c #D9A871",
"%.	c #8D6C47",
"&.	c #382B1F",
"*.	c #252223",
"=.	c #E5E5E7",
"-.	c #CCCCCE",
";.	c #C6C6C8",
">.	c #B1ADAA",
",.	c #675D55",
"'.	c #396868",
").	c #186364",
"!.	c #4D483A",
"~.	c #765A3B",
"{.	c #B38A5C",
"].	c #E4B077",
"^.	c #E2AE77",
"/.	c #CB9D6B",
"(.	c #DAA973",
"_.	c #E5B178",
":.	c #E3AF77",
"<.	c #CA9C69",
"[.	c #795D3D",
"}.	c #191617",
"|.	c #313133",
"1.	c #B3B3B5",
"2.	c #947F6D",
"3.	c #816341",
"4.	c #A58057",
"5.	c #6D573C",
"6.	c #1D4F4E",
"7.	c #005556",
"8.	c #004D4F",
"9.	c #574E3D",
"0.	c #936F48",
"a.	c #AD8458",
"b.	c #D1A16D",
"c.	c #E7B379",
"d.	c #EDB77D",
"e.	c #EEB97D",
"f.	c #CD9E6A",
"g.	c #A67F55",
"h.	c #96734C",
"i.	c #6E5436",
"j.	c #23190D",
"k.	c #272524",
"l.	c #A8A8A9",
"m.	c #A28466",
"n.	c #D7A670",
"o.	c #EBB57B",
"p.	c #655138",
"q.	c #005F60",
"r.	c #006C6D",
"s.	c #00696B",
"t.	c #006467",
"u.	c #004C50",
"v.	c #7E6446",
"w.	c #B3895B",
"x.	c #C49765",
"y.	c #D6A570",
"z.	c #E1AE76",
"A.	c #E6B279",
"B.	c #A47D53",
"C.	c #A57D53",
"D.	c #636050",
"E.	c #003C3E",
"F.	c #151F1C",
"G.	c #0C0602",
"H.	c #3E2D1D",
"I.	c #221A13",
"J.	c #29292B",
"K.	c #6A6663",
"L.	c #DBA973",
"M.	c #EAB47B",
"N.	c #6C5438",
"O.	c #005E5F",
"P.	c #056A6B",
"Q.	c #037B7C",
"R.	c #2B9394",
"S.	c #318F90",
"T.	c #006365",
"U.	c #004345",
"V.	c #093C3B",
"W.	c #2C4743",
"X.	c #424940",
"Y.	c #534837",
"Z.	c #654F36",
"`.	c #705639",
" +	c #7D5F3D",
".+	c #413E32",
"++	c #004246",
"@+	c #005053",
"#+	c #277D7E",
"$+	c #1E7576",
"%+	c #073737",
"&+	c #513C25",
"*+	c #CB9D6A",
"=+	c #7B5D3D",
"-+	c #272729",
";+	c #FEFEFE",
">+	c #B9B7B6",
",+	c #B08B62",
"'+	c #E4B178",
")+	c #EAB57B",
"!+	c #5A4934",
"~+	c #046162",
"{+	c #076869",
"]+	c #067B7C",
"^+	c #2D9D9E",
"/+	c #3BA7A8",
"(+	c #188C8D",
"_+	c #017778",
":+	c #037576",
"<+	c #288E8F",
"[+	c #339597",
"}+	c #158081",
"|+	c #006D6E",
"1+	c #1B8283",
"2+	c #198082",
"3+	c #2C8889",
"4+	c #138081",
"5+	c #037F80",
"6+	c #298586",
"7+	c #107071",
"8+	c #283631",
"9+	c #D5A46F",
"0+	c #6F5438",
"a+	c #2C2C2E",
"b+	c #444444",
"c+	c #F0F0F0",
"d+	c #A29F9F",
"e+	c #AC865B",
"f+	c #BD9262",
"g+	c #D4A36E",
"h+	c #D7A771",
"i+	c #AE875C",
"j+	c #39514C",
"k+	c #197E7F",
"l+	c #177E7F",
"m+	c #087778",
"n+	c #28999A",
"o+	c #39A5A6",
"p+	c #1B8E8F",
"q+	c #027778",
"r+	c #067879",
"s+	c #299293",
"t+	c #359A9C",
"u+	c #158687",
"v+	c #077879",
"w+	c #2B9697",
"x+	c #2F9B9C",
"y+	c #3AA6A7",
"z+	c #188F91",
"A+	c #047D7E",
"B+	c #1B7172",
"C+	c #05696A",
"D+	c #38382E",
"E+	c #D4A46F",
"F+	c #5A452E",
"G+	c #3D3D3D",
"H+	c #F1F1F1",
"I+	c #A7A7A7",
"J+	c #919191",
"K+	c #828080",
"L+	c #6C6865",
"M+	c #5C5753",
"N+	c #123B3E",
"O+	c #28868A",
"P+	c #248687",
"Q+	c #057778",
"R+	c #1C8D8E",
"S+	c #037C7D",
"T+	c #229596",
"U+	c #229495",
"V+	c #097D7E",
"W+	c #219495",
"X+	c #27999A",
"Y+	c #1C9192",
"Z+	c #067778",
"`+	c #1A7576",
" @	c #036667",
".@	c #091C1C",
"+@	c #3C2D1F",
"@@	c #4F3C2A",
"#@	c #423F3D",
"$@	c #424242",
"%@	c #FDFDFD",
"&@	c #F9F9F9",
"*@	c #DBDBDB",
"=@	c #192661",
"-@	c #1849BD",
";@	c #1753AC",
">@	c #005A5B",
",@	c #13706E",
"'@	c #339795",
")@	c #2E9897",
"!@	c #037878",
"~@	c #017A7B",
"{@	c #198B8C",
"]@	c #39A3A4",
"^@	c #2D9A9B",
"/@	c #058081",
"(@	c #0E8C8D",
"_@	c #1E9394",
":@	c #299697",
"<@	c #056F70",
"[@	c #0F7778",
"}@	c #016364",
"|@	c #0D1818",
"1@	c #2C2C2D",
"2@	c #404040",
"3@	c #2B2C3D",
"4@	c #030A5E",
"5@	c #0A1C81",
"6@	c #123499",
"7@	c #164496",
"8@	c #2565A6",
"9@	c #2872A0",
"0@	c #095777",
"a@	c #055A6E",
"b@	c #106370",
"c@	c #287A85",
"d@	c #267A83",
"e@	c #03696B",
"f@	c #016E70",
"g@	c #147878",
"h@	c #2F8E8C",
"i@	c #298886",
"j@	c #016967",
"k@	c #006C6C",
"l@	c #005F5E",
"m@	c #141718",
"n@	c #434343",
"o@	c #F4F5F4",
"p@	c #AFAFAF",
"q@	c #101E8D",
"r@	c #2034DB",
"s@	c #1F32D5",
"t@	c #2031D8",
"u@	c #1C2CC6",
"v@	c #14229D",
"w@	c #11208E",
"x@	c #0F2282",
"y@	c #1832A1",
"z@	c #1B3AAD",
"A@	c #183268",
"B@	c #1C3E92",
"C@	c #1046A2",
"D@	c #1655B6",
"E@	c #0857A6",
"F@	c #00508C",
"G@	c #005A7E",
"H@	c #00507B",
"I@	c #232323",
"J@	c #F7F7F7",
"K@	c #B2B3B2",
"L@	c #1525A5",
"M@	c #223AED",
"N@	c #2239EA",
"O@	c #2239EB",
"P@	c #1D32D3",
"Q@	c #1628AF",
"R@	c #1424A0",
"S@	c #0B1670",
"T@	c #0A0D44",
"U@	c #00003E",
"V@	c #7D5844",
"W@	c #B5826D",
"X@	c #9F7380",
"Y@	c #916A99",
"Z@	c #956D9E",
"`@	c #88638F",
" #	c #7B5B8E",
".#	c #56449B",
"+#	c #292929",
"@#	c #F3F4F3",
"##	c #E6E7E5",
"$#	c #999BB0",
"%#	c #2831BE",
"&#	c #2739E1",
"*#	c #1B36E5",
"=#	c #1932D4",
"-#	c #162CBF",
";#	c #15249D",
">#	c #0B1361",
",#	c #090828",
"'#	c #956A39",
")#	c #CE9351",
"!#	c #BC8646",
"~#	c #BC8643",
"{#	c #CD934C",
"]#	c #CC924F",
"^#	c #CD9350",
"/#	c #956A3B",
"(#	c #212122",
"_#	c #2B2829",
":#	c #2E2C2A",
"<#	c #1B1B15",
"[#	c #121665",
"}#	c #604A98",
"|#	c #644EA7",
"1#	c #5546B2",
"2#	c #4D43BD",
"3#	c #453781",
"4#	c #241700",
"5#	c #303032",
"6#	c #19191A",
"7#	c #8B6235",
"8#	c #B58147",
"9#	c #AF7D44",
"0#	c #B38046",
"a#	c #BC864A",
"b#	c #C68E4F",
"c#	c #CD9352",
"d#	c #8A6235",
"e#	c #C5C5C5",
"f#	c #2A2727",
"g#	c #242222",
"h#	c #343529",
"i#	c #5D4418",
"j#	c #65460D",
"k#	c #654716",
"l#	c #6B4B24",
"m#	c #704F2C",
"n#	c #412C14",
"o#	c #9C9C9D",
"p#	c #828283",
"q#	c #7B572E",
"r#	c #976C3A",
"s#	c #9A6D3B",
"t#	c #9C6F3C",
"u#	c #9E703D",
"v#	c #B07E45",
"w#	c #B27F46",
"x#	c #6D4D28",
"y#	c #D1D1D1",
"z#	c #2A2728",
"A#	c #353532",
"B#	c #272A2C",
"C#	c #191718",
"D#	c #161415",
"E#	c #121111",
"F#	c #15110F",
"G#	c #575757",
"H#	c #D1D1D3",
"I#	c #DADADC",
"J#	c #7A7471",
"K#	c #4C3419",
"L#	c #563C1E",
"M#	c #5F4322",
"N#	c #684926",
"O#	c #6F4F29",
"P#	c #837D78",
"Q#	c #787978",
"R#	c #E0E0E0",
"S#	c #D9D9DB",
"T#	c #D2D2D2",
"U#	c #A9A9AA",
"V#	c #A9A9A9",
"W#	c #E4E4E4",
"X#	c #EFEFEF",
"Y#	c #FBFBFB",
"                          .     + + + @ # $ % & * = - ; > , ' ) ! ~ { ] ^ / ( _ : < [ } | 1 2 3 4 * 5 6 7 8 8 8 9 9 8 9 9 9 9 8 ",
"                        .       + + 8 8 8 0 a b c * * d e f g h i j k l m 3 n o p q d r s t u v w x y z A 8 8 9 9 8 9 9 9 9 8 9 ",
"                      .         + 8 8 8 8 B C D E * * * - F G H - * * I J K L M q * * = N O P Q R S T 8 8 8 9 9 8 9 9 9 9 8 9 9 ",
"                    .           8 8 8 8 U V W X Y Z E d q `  ...- * * I +.@.#.I * * * q $.%.&.*.@ 8 8 8 8 9 9 8 9 9 9 9 8 9 9 9 ",
"                  .           . 8 =.-.;.>.,.'.).!.~.{.].I I - * * * * * ^./.(.q * c _.:.<.[.}.|.A 8 8 8 9 9 8 9 9 9 9 8 9 9 9 9 ",
"                .           . . U 1.2.3.4.t 5.6.7.8.9.0.a.b.c.& d.* d.* c e.r i c.f.g.h.i.j.k.|.8 8 8 9 9 8 9 9 9 9 8 9 9 9 9 9 ",
"              .           . . . l.m.n._.o.E b p.q.r.s.t.u.v.w.x.y.z.A.A.5 l Y B.C.D.E.F.G.H.I.J.8 8 9 9 8 9 9 9 9 8 9 9 9 9 9 9 ",
"            .           . . . |.K.L.= * * * M.N.O.P.Q.R.S.T.U.V.W.X.Y.Z.`. +.+++@+#+$+%+&+*+=+-+@ 9 ;+8 9 9 9 9 8 9 9 9 9 9 9 9 ",
"          .           . . . . |.>+,+'+)+* * k !+~+{+]+^+/+(+_+:+<+[+}+|+1+2+3+4+5+6+7+8+9+M.0+a+9 9 A 9 9 9 9 8 9 9 9 9 9 9 9 9 ",
"        .           . . . . . b+c+d+e+f+g+h+i+j+k+l+m+n+o+p+q+r+s+t+u+v+w+x+y+z+A+B+C+D+E+z.F+G+;+8 9 9 9 9 8 9 9 9 9 9 9 9 9 9 ",
"      .           . . . . . b+b+8 H+I+J+K+L+M+N+O+P+Q+R+y+n+S+A+T+o+U+V+W+X+o+Y+Z+`+ @.@+@@@#@$@8 9 9 9 9 8 9 9 9 9 9 9 9 9 9 9 ",
"    .           . . . . . b+b+. 9 9 9 %@@ &@*@=@-@;@>@,@'@)@!@~@{@]@^@/@(@_@y+:@<@[@}@|@1@2@b+. 9 9 ;+9 8 9 9 9 9 9 9 9 9 9 9 9 ",
"  .           . . . . . b+b+. b+9 9 9 8 9 9 *@3@4@5@6@7@8@9@0@a@b@c@d@e@f@g@h@i@j@k@l@m@n@n@. b+9 9 ;+8 9 9 9 9 9 9 9 9 9 9 9 9 ",
".           . . . . . b+b+. b+b+9 9 8 9 ;+9 o@p@3 q@r@s@t@u@v@w@x@y@z@A@B@C@D@E@F@G@H@I@b+. b+b+9 9 8 9 9 9 9 9 9 9 9 9 9 9 9 9 ",
"          . . . . . b+b+. b+b+b+9 8 9 9 ;+9 J@K@3 L@M@N@O@P@Q@R@S@T@U@V@W@X@Y@Z@`@ #.#+#. b+b+b+9 8 9 9 9 9 9 9 9 9 9 9 9 9 9 8 ",
"        . . . . . b+b+. b+b+b+b+8 9 9 9 9 ;+%@@###$#%#&#*#=#-#;#>#,#3 '#)#!#~#{#]#^#/#(#b+b+b+b+8 9 9 9 9 9 9 9 9 9 9 9 9 9 8 9 ",
"+ + + 8 8 8 8 8 9 9 8 9 9 9 9 8             _#:#  <#[#}#|#1#2#3#4#5#6#7#8#9#0#a#b#c#d#e#9 9 9 8                           .     ",
"+ + 8 8 8 8 8 9 9 8 9 9 9 9 8 9               f#f#g#h#i#j#k#l#m#n#o#p#q#r#s#t#u#v#w#x#y#9 9 8 9                         .       ",
"+ 8 8 8 8 8 9 9 8 9 9 9 9 8 9 9                   z#A#B#C#D#E#F#G#H#I#J#K#L#M#N#O#P#Q#R#9 8 9 9                       .         ",
"8 8 8 8 8 9 9 8 9 9 9 9 8 9 9 9                     .           7 @ A S#-.T#e#U#V#W#X#Y#8 9 9 9                     .           ",
"8 8 8 8 9 9 8 9 9 9 9 8 9 9 9 9                   .           . 8 8 8 8 9 9 8 9 9 9 9 8 9 9 9 9                   .           . ",
"8 8 8 9 9 8 9 9 9 9 8 9 9 9 9 9                 .           . . 8 8 8 9 9 8 9 9 9 9 8 9 9 9 9 9                 .           . . ",
"8 8 9 9 8 9 9 9 9 8 9 9 9 9 9 9               .           . . . 8 8 9 9 8 9 9 9 9 8 9 9 9 9 9 9               .           . . . ",
"8 9 9 8 9 9 9 9 8 9 9 9 9 9 9 9             .           . . . . 8 9 9 8 9 9 9 9 8 9 9 9 9 9 9 9             .           . . . . ",
"9 9 8 9 9 9 9 8 9 9 9 9 9 9 9 9           .           . . . . . 9 9 8 9 9 9 9 8 9 9 9 9 9 9 9 9           .           . . . . . ",
"9 8 9 9 9 9 8 9 9 9 9 9 9 9 9 9         .           . . . . . b+9 8 9 9 9 9 8 9 9 9 9 9 9 9 9 9         .           . . . . . b+",
"8 9 9 9 9 8 9 9 9 9 9 9 9 9 9 9       .           . . . . . b+b+8 9 9 9 9 8 9 9 9 9 9 9 9 9 9 9       .           . . . . . b+b+",
"9 9 9 9 8 9 9 9 9 9 9 9 9 9 9 9     .           . . . . . b+b+. 9 9 9 9 8 9 9 9 9 9 9 9 9 9 9 9     .           . . . . . b+b+. ",
"9 9 9 8 9 9 9 9 9 9 9 9 9 9 9 9   .           . . . . . b+b+. b+9 9 9 8 9 9 9 9 9 9 9 9 9 9 9 9   .           . . . . . b+b+. b+",
"9 9 8 9 9 9 9 9 9 9 9 9 9 9 9 9 .           . . . . . b+b+. b+b+9 9 8 9 9 9 9 9 9 9 9 9 9 9 9 9 .           . . . . . b+b+. b+b+",
"9 8 9 9 9 9 9 9 9 9 9 9 9 9 9 8           . . . . . b+b+. b+b+b+9 8 9 9 9 9 9 9 9 9 9 9 9 9 9 8           . . . . . b+b+. b+b+b+",
"8 9 9 9 9 9 9 9 9 9 9 9 9 9 8 9         . . . . . b+b+. b+b+b+b+8 9 9 9 9 9 9 9 9 9 9 9 9 9 8 9         . . . . . b+b+. b+b+b+b+",
"                          .     + + + 8 8 8 8 8 9 9 8 9 9 9 9 8                           .     + + + 8 8 8 8 8 9 9 8 9 9 9 9 8 ",
"                        .       + + 8 8 8 8 8 9 9 8 9 9 9 9 8 9                         .       + + 8 8 8 8 8 9 9 8 9 9 9 9 8 9 ",
"                      .         + 8 8 8 8 8 9 9 8 9 9 9 9 8 9 9                       .         + 8 8 8 8 8 9 9 8 9 9 9 9 8 9 9 ",
"                    .           8 8 8 8 8 9 9 8 9 9 9 9 8 9 9 9                     .           8 8 8 8 8 9 9 8 9 9 9 9 8 9 9 9 ",
"                  .           . 8 8 8 8 9 9 8 9 9 9 9 8 9 9 9 9                   .           . 8 8 8 8 9 9 8 9 9 9 9 8 9 9 9 9 ",
"                .           . . 8 8 8 9 9 8 9 9 9 9 8 9 9 9 9 9                 .           . . 8 8 8 9 9 8 9 9 9 9 8 9 9 9 9 9 ",
"              .           . . . 8 8 9 9 8 9 9 9 9 8 9 9 9 9 9 9               .           . . . 8 8 9 9 8 9 9 9 9 8 9 9 9 9 9 9 ",
"            .           . . . . 8 9 9 8 9 9 9 9 8 9 9 9 9 9 9 9             .           . . . . 8 9 9 8 9 9 9 9 8 9 9 9 9 9 9 9 ",
"          .           . . . . . 9 9 8 9 9 9 9 8 9 9 9 9 9 9 9 9           .           . . . . . 9 9 8 9 9 9 9 8 9 9 9 9 9 9 9 9 ",
"        .           . . . . . b+9 8 9 9 9 9 8 9 9 9 9 9 9 9 9 9         .           . . . . . b+9 8 9 9 9 9 8 9 9 9 9 9 9 9 9 9 ",
"      .           . . . . . b+b+8 9 9 9 9 8 9 9 9 9 9 9 9 9 9 9       .           . . . . . b+b+8 9 9 9 9 8 9 9 9 9 9 9 9 9 9 9 ",
"    .           . . . . . b+b+. 9 9 9 9 8 9 9 9 9 9 9 9 9 9 9 9     .           . . . . . b+b+. 9 9 9 9 8 9 9 9 9 9 9 9 9 9 9 9 ",
"  .           . . . . . b+b+. b+9 9 9 8 9 9 9 9 9 9 9 9 9 9 9 9   .           . . . . . b+b+. b+9 9 9 8 9 9 9 9 9 9 9 9 9 9 9 9 ",
".           . . . . . b+b+. b+b+9 9 8 9 9 9 9 9 9 9 9 9 9 9 9 9 .           . . . . . b+b+. b+b+9 9 8 9 9 9 9 9 9 9 9 9 9 9 9 9 ",
"          . . . . . b+b+. b+b+b+9 8 9 9 9 9 9 9 9 9 9 9 9 9 9 8           . . . . . b+b+. b+b+b+9 8 9 9 9 9 9 9 9 9 9 9 9 9 9 8 ",
"        . . . . . b+b+. b+b+b+b+8 9 9 9 9 9 9 9 9 9 9 9 9 9 8 9         . . . . . b+b+. b+b+b+b+8 9 9 9 9 9 9 9 9 9 9 9 9 9 8 9 ",
"+ + + 8 8 8 8 8 9 9 8 9 9 9 9 8                           .     + + + 8 8 8 8 8 9 9 8 9 9 9 9 8                           .     ",
"+ + 8 8 8 8 8 9 9 8 9 9 9 9 8 9                         .       + + 8 8 8 8 8 9 9 8 9 9 9 9 8 9                         .       ",
"+ 8 8 8 8 8 9 9 8 9 9 9 9 8 9 9                       .         + 8 8 8 8 8 9 9 8 9 9 9 9 8 9 9                       .         ",
"8 8 8 8 8 9 9 8 9 9 9 9 8 9 9 9                     .           8 8 8 8 8 9 9 8 9 9 9 9 8 9 9 9                     .           ",
"8 8 8 8 9 9 8 9 9 9 9 8 9 9 9 9                   .           . 8 8 8 8 9 9 8 9 9 9 9 8 9 9 9 9                   .           . ",
"8 8 8 9 9 8 9 9 9 9 8 9 9 9 9 9                 .           . . 8 8 8 9 9 8 9 9 9 9 8 9 9 9 9 9                 .           . . ",
"8 8 9 9 8 9 9 9 9 8 9 9 9 9 9 9               .           . . . 8 8 9 9 8 9 9 9 9 8 9 9 9 9 9 9               .           . . . ",
"8 9 9 8 9 9 9 9 8 9 9 9 9 9 9 9             .           . . . . 8 9 9 8 9 9 9 9 8 9 9 9 9 9 9 9             .           . . . . ",
"9 9 8 9 9 9 9 8 9 9 9 9 9 9 9 9           .           . . . . . 9 9 8 9 9 9 9 8 9 9 9 9 9 9 9 9           .           . . . . . ",
"9 8 9 9 9 9 8 9 9 9 9 9 9 9 9 9         .           . . . . . b+9 8 9 9 9 9 8 9 9 9 9 9 9 9 9 9         .           . . . . . b+",
"8 9 9 9 9 8 9 9 9 9 9 9 9 9 9 9       .           . . . . . b+b+8 9 9 9 9 8 9 9 9 9 9 9 9 9 9 9       .           . . . . . b+b+",
"9 9 9 9 8 9 9 9 9 9 9 9 9 9 9 9     .           . . . . . b+b+. 9 9 9 9 8 9 9 9 9 9 9 9 9 9 9 9     .           . . . . . b+b+. ",
"9 9 9 8 9 9 9 9 9 9 9 9 9 9 9 9   .           . . . . . b+b+. b+9 9 9 8 9 9 9 9 9 9 9 9 9 9 9 9   .           . . . . . b+b+. b+",
"9 9 8 9 9 9 9 9 9 9 9 9 9 9 9 9 .           . . . . . b+b+. b+b+9 9 8 9 9 9 9 9 9 9 9 9 9 9 9 9 .           . . . . . b+b+. b+b+",
"9 8 9 9 9 9 9 9 9 9 9 9 9 9 9 8           . . . . . b+b+. b+b+b+9 8 9 9 9 9 9 9 9 9 9 9 9 9 9 8           . . . . . b+b+. b+b+b+",
"8 9 9 9 9 9 9 9 9 9 9 9 9 9 8 9         . . . . . b+b+. b+b+b+b+8 9 9 9 9 9 9 9 9 9 9 9 9 9 8 9         . . . . . b+b+. b+b+b+b+"};
