/* XPM */
static char *result[] = {
/* columns rows colors chars-per-pixel */
"64 64 157 2 ",
"   c #000101",
".  c #090604",
"X  c #0B0905",
"o  c #00000D",
"O  c #020B0B",
"+  c #0B0B0B",
"@  c #130D07",
"#  c #14100D",
"$  c #1B120A",
"%  c #000111",
"&  c #000A1C",
"*  c #041818",
"=  c #0A1F1F",
"-  c #101010",
";  c #191819",
":  c #22180F",
">  c #2C1C0D",
",  c #211F1F",
"<  c #251B10",
"1  c #22201F",
"2  c #382612",
"3  c #020929",
"4  c #001435",
"5  c #08292A",
"6  c #0E393A",
"7  c #1D3738",
"8  c #143C3D",
"9  c #242223",
"0  c #292627",
"q  c #27262C",
"w  c #2A2729",
"e  c #3C342F",
"r  c #262532",
"t  c #2E2E30",
"y  c #2C3535",
"u  c #323234",
"i  c #363638",
"p  c #3B3B3C",
"a  c #40301C",
"s  c #4A3218",
"d  c #52371B",
"f  c #553B1C",
"g  c #463520",
"h  c #4E3B25",
"j  c #5C462D",
"k  c #57422A",
"l  c #7C572F",
"z  c #654C31",
"x  c #6E5336",
"c  c #020A4E",
"v  c #001C44",
"b  c #020B53",
"n  c #0A1257",
"m  c #000F69",
"M  c #0D176A",
"N  c #051268",
"B  c #02137A",
"V  c #222660",
"C  c #044141",
"Z  c #124445",
"A  c #165455",
"S  c #086768",
"D  c #026C6D",
"F  c #027B7C",
"G  c #007475",
"H  c #287677",
"J  c #444444",
"K  c #4A4A4C",
"L  c #505052",
"P  c #5B5C5D",
"I  c #4A4B57",
"U  c #414363",
"Y  c gray47",
"T  c #72727A",
"R  c #8F6637",
"E  c #9D6F3C",
"W  c #94714B",
"Q  c #8E6E4B",
"!  c #A87742",
"~  c #A97942",
"^  c #A68055",
"/  c #AF875A",
"(  c #B38A5D",
")  c #BB9061",
"_  c #C79A67",
"`  c #D1A26E",
"'  c #DBA973",
"]  c #E1AD75",
"[  c #E6B27B",
"{  c #EBB67C",
"}  c #EEB87D",
"|  c #021586",
" . c #01178D",
".. c #0F1F84",
"X. c #011A98",
"o. c #003E88",
"O. c #2F379F",
"+. c #021FAD",
"@. c #021FB0",
"#. c #0321B5",
"$. c #0825B8",
"%. c #0E2BBA",
"&. c #2C39B9",
"*. c #00479B",
"=. c #027F80",
"-. c #0428D4",
";. c #062ADA",
":. c #0426CA",
">. c #032FEE",
",. c #0333FF",
"<. c #0834FE",
"1. c #005BC4",
"2. c #005FCB",
"3. c #0060CD",
"4. c #0067DA",
"5. c #0069DE",
"6. c #006FE9",
"7. c #006BE3",
"8. c #0073F3",
"9. c #0077FB",
"0. c #007AFF",
"q. c #038283",
"w. c #07898A",
"e. c #0C8A8C",
"r. c #1F9596",
"t. c #239899",
"y. c #239798",
"u. c #319A9C",
"i. c #2F9FA0",
"p. c #2FA0A1",
"a. c #33A2A3",
"s. c #3DA8A9",
"d. c #3BA4A5",
"f. c gray53",
"g. c #8E8E8E",
"h. c #959595",
"j. c #9D9D9D",
"k. c #A7A7A7",
"l. c gray67",
"z. c #BEBEBF",
"x. c #B4B4B5",
"c. c #E4B081",
"v. c #C3C3C3",
"b. c #C7C7C9",
"n. c #CFCFD1",
"m. c #D0CFD1",
"M. c #D0D0D2",
"N. c #D9DADB",
"B. c #DCDCE2",
"V. c #E4E4E4",
"C. c #E6E6E8",
"Z. c #EBEBED",
"A. c #E5E6FF",
"S. c #ECEEF6",
"D. c gray97",
"F. c #FFFFFF",
"G. c #F3F3FB",
/* pixels */
"0 0 0 0 0 0 0 0 0 0 0 0 0 u 0 0 M.M.M.Z.Z.Z.Z.Z.F.F.Z.F.F.F.F.Z.0 0 0 0 0 0 0 0 0 0 0 0 0 u 0 0 M.M.M.Z.Z.Z.Z.Z.F.F.Z.F.F.F.F.Z.",
"0 0 0 0 0 0 0 0 0 0 0 0 u 0 0 0 M.M.Z.Z.Z.Z.Z.F.F.Z.F.F.F.F.Z.F.0 0 0 0 0 0 0 0 0 0 0 0 u 0 0 0 M.M.Z.Z.Z.Z.Z.F.F.Z.F.F.F.F.Z.F.",
"0 0 0 0 0 0 0 0 0 0 0 u 0 0 0 0 M.Z.Z.Z.Z.Z.F.F.Z.F.F.F.F.Z.F.F.0 0 0 0 0 0 0 0 0 0 0 u 0 0 0 0 M.Z.Z.Z.Z.Z.F.F.Z.F.F.F.F.Z.F.F.",
"0 0 0 0 0 0 0 0 0 0 u 0 0 0 0 0 Z.Z.Z.Z.Z.F.F.Z.F.F.F.F.Z.F.F.F.0 0 0 0 0 0 0 0 0 0 u 0 0 0 0 0 Z.Z.Z.Z.Z.F.F.Z.F.F.F.F.Z.F.F.F.",
"0 0 0 0 0 0 0 0 0 u 0 0 0 0 0 u Z.Z.Z.Z.F.F.Z.F.F.F.F.Z.F.F.F.F.0 0 0 0 0 0 0 0 0 u 0 0 0 0 0 u Z.Z.Z.Z.F.F.Z.F.F.F.F.Z.F.F.F.F.",
"0 0 0 0 0 0 0 0 u 0 0 0 0 0 u u Z.Z.Z.F.F.Z.F.F.F.F.Z.F.F.F.F.F.0 0 0 0 0 0 0 0 u 0 0 0 0 0 u u Z.Z.Z.F.F.Z.F.F.F.F.Z.F.F.F.F.F.",
"0 0 0 0 0 0 0 u 0 0 0 0 0 u u u Z.Z.F.F.Z.F.F.F.F.Z.F.F.F.F.F.F.0 0 0 0 0 0 0 u 0 0 0 0 0 u u u Z.Z.F.F.Z.F.F.F.F.Z.F.F.F.F.F.F.",
"0 0 0 0 0 0 u 0 0 0 0 0 u u u u Z.F.F.Z.F.F.F.F.Z.F.F.F.F.F.F.F.0 0 0 0 0 0 u 0 0 0 0 0 u u u u Z.F.F.Z.F.F.F.F.Z.F.F.F.F.F.F.F.",
"0 0 0 0 0 u 0 0 0 0 0 u u u u u F.F.Z.F.F.F.F.Z.F.F.F.F.F.F.F.F.0 0 0 0 0 u 0 0 0 0 0 u u u u u F.F.Z.F.F.F.F.Z.F.F.F.F.F.F.F.F.",
"0 0 0 0 u 0 0 0 0 0 u u u u u J F.Z.F.F.F.F.Z.F.F.F.F.F.F.F.F.F.0 0 0 0 u 0 0 0 0 0 u u u u u J F.Z.F.F.F.F.Z.F.F.F.F.F.F.F.F.F.",
"0 0 0 u 0 0 0 0 0 u u u u u J J Z.F.F.F.F.Z.F.F.F.F.F.F.F.F.F.F.0 0 0 u 0 0 0 0 0 u u u u u J J Z.F.F.F.F.Z.F.F.F.F.F.F.F.F.F.F.",
"0 0 u 0 0 0 0 0 u u u u u J J u F.F.F.F.Z.F.F.F.F.D.C.  o.o.4 & & & & & 3 v *.  t u u u u J J t F.F.F.F.Z.F.F.F.F.F.F.F.F.F.F.F.",
"0 u 0 0 0 0 0 u u u u u J J u J F.F.F.Z.F.F.B.V.    v 4.0.0.8.8.8.8.8.8.8.6.7.5.4 4     p J t J F.F.F.Z.F.F.F.F.F.F.F.F.F.F.F.F.",
"u 0 0 0 0 0 u u u u u J J u J J F.F.Z.F.F.| o o 6.9.9.0.0.0.0.0.0.0.0.0.0.0.0.0.6.6.9.1.  + J J F.F.Z.F.F.F.F.F.F.F.F.F.F.F.F.F.",
"0 0 0 0 w u u u u u J J u J J J F.Z.F.F.F.| o o 6.9.9.0.0.0.0.0.0.0.0.0.0.0.0.0.6.6.0.1.  # J J F.Z.F.F.F.F.F.F.F.F.F.F.F.F.F.Z.",
"0 0 0 0 u u u u u J J u J J J J Z.F.F.F.c 1.8.8.0.0.0.0.8.8.0.0.0.0.0.0.0.0.0.0.0.0.0.0.8.3.i i Z.F.F.F.F.F.F.F.F.F.F.F.F.F.Z.F.",
"M.M.M.Z.Z.Z.Z.Z.F.F.Z.F.F.F.F.Z.0 0 w     9.0.0.0.0.0.0.0.0.0.0.0.0.0.0.0.0.0.0.0.0.0.0.0.0.>.>.+ 0 0 0 0 0 0 0 0 0 0 0 0 u 0 0 ",
"M.M.Z.Z.Z.Z.Z.F.F.Z.F.F.F.F.Z.F.0 0 9   b.O.0.0.0.9.0.0.0.0.0.0.0.0.0.0.0.0.0.0.0.0.0.0.0.,.,.,.  9 0 0 0 0 0 0 0 0 0 0 u 0 0 0 ",
"M.Z.Z.Z.Z.Z.F.F.Z.F.F.F.F.Z.F.F.0 0 m B.F.I ;.;.,.,.,.8.9.0.0.0.0.0.0.0.0.0.0.0.,.,.,.,.,.,.>.,.>.  0 0 0 0 0 0 0 0 0 u 0 0 0 0 ",
"Z.Z.Z.Z.Z.F.F.Z.F.F.F.F.Z.F.F.F., , c h.Z.A.M M <.,.,.,.,.,.,.,.,.,.,.,.,.,.,.,.,.,.,.,.,.,.,.,.,.b 0 0 0 0 0 0 0 0 u 0 0 0 0 0 ",
"Z.Z.Z.Z.F.F.Z.F.F.F.F.Z.F.F.F.F., , b h.Z.A.M M <.,.,.,.,.,.,.,.,.,.,.,.,.,.,.,.,.,.,.,.,.,.,.,.>.b 0 0 0 0 0 0 0 u 0 0 0 0 0 u ",
"Z.Z.Z.F.F.Z.F.F.F.F.Z.F.F.F.F.F.r r 3 P k.V.    ,.,.,.,.,.,.,.,.,.,.,.,.,.,.,.,.,.,.,.,.,.,.,.,.,.B 0 0 0 0 0 0 u 0 0 0 0 0 u u ",
"Z.Z.F.F.Z.F.F.F.F.Z.F.F.F.F.D.S.q q % Y F.x.G.G.  ,.,.,.,.,.,.,.,.,.,.,.,.,.,.,.,.,.,.,.,.,.,.,.,. .w 0 0 0 0 u 0 0 0 0 0 u u u ",
"Z.F.F.Z.F.F.F.F.Z.F.F.F.F.F.z...b b   h.j.F.v.v.  ,.,.,.,.,.,.,.,.,.,.,.,.,.,.,.,.,.,.,.,.,.,.,.9.| w w 0 0 u 0 0 0 0 0 u u u u ",
"F.F.Z.F.F.F.F.Z.F.F.F.F.F.F.p +.@.#.#.V F.j.F.F.  <.,.,.,.,.,.,.,.,.,.,.,.,.,.,.,.,.,.,.,.,.,.,.0.| 0 0 0 u 0 0 0 0 0 u u u u u ",
"F.Z.F.F.F.F.Z.F.F.F.F.F.F.F.  @.#.#.#.o   F.j.j.U ,.,.,.,.,.,.,.,.,.,.,.,.,.,.,.,.,.,.,.,.,.,.,.,.| 0 0 u 0 0 0 0 0 u u u u u J ",
"Z.F.F.F.F.Z.F.F.F.F.F.F.F.F.  @.#.#.#.o   F.j.j.U ,.,.,.,.,.,.,.,.,.,.,.,.,.,.,.,.,.,.,.,.,.,.,.,.| 0 u 0 0 0 0 0 u u u u u J J ",
"F.F.F.F.Z.F.F.F.F.F.F.F.F.F.f.| #.#.@.#.N T Z.Z.  ,.,.,.,.,.,.,.,.,.,.,.,.,.,.,.,.,.,.,.,.,.#.#.#.B u 0 0 0 0 0 u u u u u J J u ",
"F.F.F.Z.F.F.F.F.F.F.F.F.F.F.h.  #.@.#.#.#.      ,.,.,.,.,.,.,.,.,.,.,.,.,.,.,.,.,.,.,.,.#.#.      >.w 0 0 0 0 u u u u u J J u J ",
"F.F.Z.F.F.F.F.F.F.F.F.F.F.F.F.g.    @.+.#.#.#.#.#.,.,.,.,.,.,.,.,.,.,.,.,.,.,.#.#.#.#.#.#.#.      e 0 0 0 0 u u u u u J J u J J ",
"F.Z.F.F.F.F.F.F.F.F.F.F.F.F.F.Z.w w           o #.#.#.#.#.#.#.#.#.#.#.#.  %.%.%.%.%.%.$.#.      # 0 0 0 w u u u u u J J u J J J ",
"Z.F.F.F.F.F.F.F.F.F.F.F.F.F.Z.F.0 0 w ,   } [ [ }     { } { [ [           O 0 i X X         + + w 0 0 0 u u u u u J J u J J J J ",
"0 0 0 0 0 0 0 0 0 0 0 0 0 u 0 0 M.M.n.z.  } [ [ }     } c.[ [ [             . + . X             M.M.M.Z.Z.Z.Z.Z.F.F.Z.F.F.F.F.Z.",
"0 0 0 0 0 0 0 w 0 0 0 0 u 0 0 0 M.M.C.V.k [ } } }     } } } } } h :       W } } ` ` $       + + M.M.Z.Z.Z.Z.Z.F.F.Z.F.F.F.F.Z.F.",
"0 0 0 0 0 0 0 0 0 0 0 u 0 0 0 0 M.Z.Z.Z.  ` } } } k x } } } [ ] ) z       / } } ( / :       + + m.Z.Z.Z.Z.Z.F.F.Z.F.F.F.F.Z.F.F.",
"0 0 0 0 0 0 0 0 0 0 u 0 0 0 0 0 Z.Z.Z.Z.N.W } { } } } } } } } } ' W : : } } _ Q . . .     + 9 9 Z.Z.Z.Z.Z.F.F.Z.F.F.F.F.Z.F.F.F.",
"0 0 0 0 0 0 0 0 0 u 0 0 0 0 0 u Z.Z.Z.Z.Z.+ ' ' { c.} } } } } } } } { } } [ } } } } .     0 9 t Z.Z.Z.Z.F.F.Z.F.F.F.F.Z.F.F.F.F.",
"0 0 0 0 0 0 0 0 u 0 0 0 0 w u u Z.Z.C.F.F.Z.+ + a ^ } } } } } } } } } } } } } } { } j ; 9 0 u u Z.Z.Z.F.F.Z.F.F.F.F.Z.F.F.F.F.F.",
"0 0 0 0 0 0 0 u 0 0 0 0 w t u u Z.Z.F.F.C.F.+ + d ^ } } } } } } } } } } } } } } } { z ; 1 u u u Z.C.F.F.Z.F.F.F.F.Z.F.F.F.F.F.F.",
"0 0 0 0 0 0 u 0 0 0 0 0 u u u u C.F.F.C.F.F.F.F.N.    _ ] ] { [ } } } } } [ z a     y J u u u u Z.F.F.Z.F.F.F.F.Z.F.F.F.F.F.F.F.",
"0 0 0 0 0 u 0 0 w 0 0 u u u u u F.F.Z.F.F.F.F.C.F.l.        O O O O     * = Z D q.q.8 P i u u u F.F.Z.F.F.F.F.Z.F.F.F.F.F.F.F.F.",
"0 0 0 0 u 0 0 0 w q u u u u u J D.V.F.F.F.F.Z.F.F.  F a.s.s.e.G 8 Z * * 5 i.d.e.F F Z u u u u J F.Z.F.F.F.F.Z.F.F.F.F.F.F.F.F.F.",
"0 0 0 u 0 0 0 0 q u u u u u J J Z.F.D.F.F.Z.F.F.F.5 G y.s.s.y.  r.s.y.y.F   s.t.D D O L u u J J Z.F.F.F.F.Z.F.F.F.F.F.F.F.F.F.F.",
"0 0 u 0 0 0 0 0 u u u u u J J u F.F.F.F.C.F.F.F.F.7 q.w.s.s.a.O w.s.a.a.=.  H a.D D   K u J J u F.F.F.F.Z.F.F.F.F.F.F.F.F.F.F.F.",
"0 u 0 0 0 0 0 u u u u u J J y J F.F.F.Z.F.F.F.F.F.7 q.w.s.s.i.O w.s.a.a.=.  H a.D D O K J J u J F.F.F.Z.F.F.F.F.F.F.F.F.F.F.F.F.",
"u 0 0 0 0 0 u u u u u J J y J J F.F.Z.F.F.F.F.F.F.+ C q.u.u.8 ( [ } [ [ ' _ A d.S S   J J u J J D.F.Z.F.F.F.F.F.F.F.F.F.F.F.F.F.",
"0 0 0 0 0 u u u u u J J y J J J F.Z.F.F.F.F.F.F.F.v.o #.-.-.n [ } } } } _ ^ N &.b b w J u J J J F.Z.F.F.F.F.F.F.F.F.F.F.F.F.F.Z.",
"0 0 0 0 u u u u u J J u J J J k Z.F.F.F.F.F.F.D.F.N.  m X.X.:.c ' [ } } }       ; 9 J u J J J J Z.F.F.F.F.F.F.F.F.F.F.F.F.F.Z.F.",
"m.m.m.Z.Z.Z.Z.Z.F.F.Z.F.F.F.F.Z.0 0 0 0 0 0 0 0 0 0 @ R E E ! ~ s 2 d f 2 l + N.F.F.Z.F.F.F.F.Z.0 0 0 0 0 0 0 0 0 0 0 0 0 u 0 0 ",
"m.m.Z.Z.Z.Z.Z.F.F.Z.F.F.F.F.Z.F.0 0 0 0 0 0 0 0 0 0 . ! ! ! ! ~ ! ! ! ! ! f   F.F.Z.F.F.D.F.Z.F.0 0 0 0 0 0 0 0 0 0 0 0 u 0 0 0 ",
"m.Z.Z.Z.Z.Z.F.F.Z.F.F.F.F.Z.F.F.0 0 0 0 0 0 0 0 0 0 X ! ! ! ! ! ~ ~ ! ! ! f   F.C.F.F.F.D.Z.F.F.0 0 0 0 0 0 0 0 0 0 0 u 0 0 0 0 ",
"Z.Z.Z.Z.Z.F.F.Z.F.F.F.F.Z.F.F.F.0 0 0 0 0 0 0 0 0 0 ; > f f $   @ $ > > p . F.Z.F.F.F.F.Z.F.F.F.0 0 0 0 0 0 0 0 0 0 u 0 0 0 0 0 ",
"Z.Z.Z.Z.F.F.Z.F.F.F.F.Z.F.F.F.F.0 0 0 0 0 0 0 0 0 u 0 0 0 0 0 u Z.Z.Z.Z.F.F.Z.F.F.F.F.Z.F.F.F.F.0 0 0 0 0 0 0 0 0 u 0 0 0 0 0 u ",
"Z.Z.Z.F.F.Z.F.F.F.F.Z.F.F.F.F.F.0 0 0 0 0 0 0 0 u 0 0 0 0 0 u u Z.Z.Z.F.F.Z.F.F.F.F.Z.F.F.F.F.F.0 0 0 0 0 0 0 0 u 0 0 0 0 0 u u ",
"Z.Z.F.F.Z.F.F.F.F.Z.F.F.F.F.F.F.0 0 0 0 0 0 0 u 0 0 0 0 0 u u u Z.Z.F.F.Z.F.F.F.F.Z.F.F.F.F.F.F.0 0 0 0 0 0 0 u 0 0 0 0 0 u u u ",
"Z.F.F.Z.F.F.F.F.Z.F.F.F.F.F.F.F.0 0 0 0 0 0 u 0 0 0 0 0 u u u u Z.F.F.Z.F.F.F.F.Z.F.F.F.F.F.F.F.0 0 0 0 0 0 u 0 0 0 0 0 u u u u ",
"F.F.Z.F.F.F.F.Z.F.F.F.F.F.F.F.F.0 0 0 0 0 u 0 0 0 0 w u u u u u F.F.Z.F.F.F.F.Z.F.F.F.F.F.F.F.F.0 0 0 0 0 u 0 0 0 0 0 u u u u u ",
"F.Z.F.F.F.F.Z.F.F.F.F.F.F.F.F.F.0 0 0 0 u 0 0 0 0 0 u u u u u J F.Z.F.F.F.F.Z.F.F.F.F.F.F.F.F.F.0 0 0 0 u 0 0 0 0 0 u u u u u J ",
"Z.F.F.F.F.Z.F.F.F.F.F.F.F.F.F.F.0 0 0 u 0 0 0 0 0 u u u u u J J Z.F.F.F.F.Z.F.F.F.F.F.F.F.F.F.F.0 0 0 u 0 0 0 0 0 u u u u u J J ",
"F.F.F.F.Z.F.F.F.F.F.F.F.F.F.F.F.0 0 u 0 0 0 0 0 u u u u u J J u F.F.F.F.Z.F.F.F.F.F.F.F.F.F.F.F.0 0 u 0 0 0 0 0 u u u u u J J u ",
"F.F.F.Z.F.F.F.F.F.F.F.F.F.F.F.F.0 u 0 0 0 0 0 u u u u u J J u J F.F.F.Z.F.F.F.F.F.F.F.F.F.F.F.F.0 u 0 0 0 0 0 u u u u u J J u J ",
"F.F.Z.F.F.F.F.F.F.F.F.F.F.F.F.F.u 0 0 0 0 0 u u u u u J J u J J F.F.Z.F.F.F.F.F.F.F.F.F.F.F.F.F.u 0 0 0 0 0 u u u u u J J u J J ",
"F.Z.F.F.F.F.F.F.F.F.F.F.F.F.F.Z.0 0 0 0 0 u u u u u J J u J J J F.Z.F.F.F.F.F.F.F.F.F.F.F.F.F.Z.0 0 0 0 w u u u u u J J u J J J ",
"Z.F.F.F.F.F.F.F.F.F.F.F.F.F.Z.F.0 0 0 0 u u u u u J J u J J J J Z.F.F.F.F.F.F.F.F.F.F.F.F.F.Z.F.0 0 0 0 u u u u u J J u J J J J "
};
