/* XPM */
static char *result[] = {
/* columns rows colors chars-per-pixel */
"64 64 161 2 ",
"   c #000001",
".  c #00000E",
"X  c #0C0C0C",
"o  c #191008",
"O  c #000112",
"+  c #000A1C",
"@  c #04041F",
"#  c #061111",
"$  c #131213",
"%  c #1C1B1B",
"&  c #181717",
"*  c #23160C",
"=  c #21180F",
"-  c #211F1F",
";  c #332413",
":  c #3F2C18",
">  c #010228",
",  c #010825",
"<  c #000539",
"1  c #010433",
"2  c #001435",
"3  c #00193F",
"4  c #221F20",
"5  c #022E2E",
"6  c #252324",
"7  c #292627",
"8  c #2D2D2E",
"9  c #2E2E30",
"0  c #323234",
"q  c #3C3C3C",
"w  c #402B13",
"e  c #4E351A",
"r  c #473116",
"t  c #543A1C",
"y  c #4F3B25",
"u  c #5D4020",
"i  c #624322",
"p  c #75522A",
"a  c #6E5336",
"s  c #725738",
"d  c #000742",
"f  c #000849",
"g  c #001B44",
"h  c #000A55",
"j  c #000C5A",
"k  c #0B135A",
"l  c #00275B",
"z  c #000E64",
"x  c #000F69",
"c  c #01106E",
"v  c #011275",
"b  c #01137B",
"n  c #002F6B",
"m  c #044E4F",
"M  c #094748",
"N  c #134344",
"B  c #055758",
"V  c #125C5D",
"C  c #026364",
"Z  c #096465",
"A  c #036D6E",
"S  c #0A6768",
"D  c #186F70",
"F  c #027273",
"G  c #027C7D",
"H  c #1E7172",
"J  c #206C6D",
"K  c #2A7D7E",
"L  c #257A7B",
"P  c #444444",
"I  c #4B4B4C",
"U  c #575757",
"Y  c #646464",
"T  c #6F6F70",
"R  c #767676",
"E  c #805A2F",
"W  c #845D31",
"Q  c #8B6334",
"!  c #996C3A",
"~  c #A3733E",
"^  c #896945",
"/  c #94724B",
"(  c #9A774F",
")  c #AA7942",
"_  c #A37D53",
"`  c #B38A5D",
"'  c #B98F60",
"]  c #BD9161",
"[  c #C59865",
"{  c #CD9E6B",
"}  c #D8A771",
"|  c #DEAC74",
" . c #D6A570",
".. c #E2AF77",
"X. c #E6B279",
"o. c #ECB77C",
"O. c #EEB87D",
"+. c #021483",
"@. c #01178D",
"#. c #021993",
"$. c #003E88",
"%. c #021CA1",
"&. c #021FAB",
"*. c #0321B6",
"=. c #0322BA",
"-. c #00479B",
";. c #157F80",
":. c #004BA3",
">. c #0057B9",
",. c #0325C7",
"<. c #0426CC",
"1. c #0528D5",
"2. c #0427D1",
"3. c #132BC9",
"4. c #2237D8",
"5. c #032EEC",
"6. c #0430F4",
"7. c #0333FE",
"8. c #263CEB",
"9. c #005BC4",
"0. c #0067DA",
"q. c #0069DE",
"w. c #006BE3",
"e. c #006FE9",
"r. c #0073F3",
"t. c #0077FB",
"y. c #007AFF",
"u. c #048081",
"i. c #09898A",
"p. c #1E9596",
"a. c #1A8687",
"s. c #2F8586",
"d. c #2F8788",
"f. c #2A8A8B",
"g. c #239899",
"h. c #299798",
"j. c #369698",
"k. c #329FA0",
"l. c #2FA0A1",
"z. c #3DA8A9",
"x. c #33A2A3",
"c. c gray59",
"v. c #9D9D9D",
"b. c #979798",
"n. c #89898A",
"m. c #A5A5A5",
"M. c #ABABAB",
"N. c #A7A7A8",
"B. c #B3B3B3",
"V. c #BCBCBC",
"C. c #C3C3C3",
"Z. c gray79",
"A. c #C7C7C9",
"S. c #D1D1D2",
"D. c #DBDBDB",
"F. c #DFDFE1",
"G. c #E3E3E3",
"H. c #EBEBED",
"J. c #E7E7E9",
"K. c #F4F4F4",
"L. c #FFFFFF",
/* pixels */
"7 7 7 7 7 7 7 7 7 7 7 7 7 0 7 7 S.S.S.H.H.H.H.H.L.L.H.L.L.L.L.H.7 7 7 7 7 7 7 7 7 7 7 7 7 0 7 7 S.S.S.H.H.H.H.H.L.L.H.L.L.L.L.H.",
"7 7 7 7 7 7 7 7 7 7 7 7 0 7 7 7 S.S.H.H.H.H.H.L.L.H.L.L.L.L.H.L.7 7 7 7 7 7 7 7 7 7 7 7 0 7 7 7 S.S.H.H.H.H.H.L.L.H.L.L.L.L.H.L.",
"7 7 7 7 7 7 7 7 7 7 7 0 7 7 7 7 S.H.H.H.H.H.L.L.H.L.L.L.L.H.L.L.7 7 7 7 7 7 7 7 7 7 7 0 7 7 7 7 S.H.H.H.H.H.L.L.H.L.L.L.L.H.L.L.",
"7 7 7 7 7 7 7 7 7 7 0 7 7 7 7 7 H.H.H.H.H.L.L.H.L.L.L.L.H.L.L.L.7 7 7 7 7 7 7 7 7 7 0 7 7 7 7 7 H.H.H.H.H.L.L.H.L.L.L.L.H.L.L.L.",
"7 7 7 7 7 7 7 7 7 0 7 7 7 7 7 0 H.H.H.H.L.L.H.L.L.L.L.H.L.L.L.L.7 7 7 7 7 7 7 7 7 0 7 7 7 7 7 0 H.H.H.H.L.L.H.L.L.L.L.H.L.L.L.L.",
"7 7 7 7 7 7 7 7 0 7 7 7 7 7 0 0 H.H.H.L.L.H.L.L.L.L.H.L.L.L.L.L.7 7 7 7 7 7 7 7 0 7 7 7 7 7 0 0 H.H.H.L.L.H.L.L.L.L.H.L.L.L.L.L.",
"7 7 7 7 7 7 7 0 7 7 7 7 7 0 0 0 H.H.L.L.H.L.L.L.L.H.L.L.L.L.L.L.7 7 7 7 7 7 7 0 7 7 7 7 7 0 0 0 H.H.L.L.H.L.L.L.L.H.L.L.L.L.L.L.",
"7 7 7 7 7 7 0 7 7 7 7 7 0 0 0 0 H.L.L.H.L.L.L.L.H.L.L.L.L.L.L.L.7 7 7 7 7 7 0 7 7 7 7 7 0 0 0 0 H.L.L.H.L.L.L.L.H.L.L.L.L.L.L.L.",
"7 7 7 7 7 0 7 7 7 7 7 0 0 0 0 0 L.L.H.L.L.L.L.H.L.L.L.L.L.L.L.L.7 7 7 7 7 0 7 7 7 7 7 0 0 0 0 0 L.L.H.L.L.L.L.H.L.L.L.L.L.L.L.L.",
"7 7 7 7 0 7 7 7 7 7 0 0 0 0 0 P L.H.L.L.L.L.H.L.L.L.L.L.L.L.L.L.7 7 7 7 0 7 7 7 7 7 0 0 0 0 0 P L.H.L.L.L.L.H.L.L.L.L.L.L.L.L.L.",
"7 7 7 0 7 7 7 7 7 0 0 0 0 0 P P H.L.L.L.L.H.L.L.L.L.L.L.L.L.L.L.7 7 7 0 7 7 7 7 7 0 0 0 0 0 P P H.L.L.L.L.H.L.L.L.L.L.L.L.L.L.L.",
"7 7 0 7 7 7 7 7 0 0 0 0 0 P P 0 L.L.L.L.H.L.L.K.J.    $.2 + + + + + , g -.    7 0 0 0 0 0 P P 0 L.L.L.L.H.L.L.L.L.L.L.L.L.L.L.L.",
"7 0 7 7 7 7 7 0 0 0 0 0 P P 0 P L.L.L.H.H.H.    g 0.0.y.r.r.r.t.r.r.r.r.q.q.q.2     9 9 P P 0 P L.L.L.H.L.L.L.L.L.L.L.L.L.L.L.L.",
"0 7 7 7 7 7 0 0 0 0 0 P P 0 P P L.L.H.L.H.H.    g 0.0.y.r.r.r.r.r.r.r.r.w.q.q.2     9 q P 0 P P L.L.H.L.L.L.L.L.L.L.L.L.L.L.L.L.",
"7 7 7 7 7 0 0 0 0 0 P P 0 P P P L.H.L.v . . w.t.t.y.y.y.y.y.y.y.y.y.y.y.y.y.y.e.y.9.    X P P P L.H.L.L.L.L.L.L.L.L.L.L.L.L.L.H.",
"7 7 7 7 0 0 0 0 0 P P 0 P P P P H.L.f <.r.r.y.y.y.y.y.r.y.y.y.y.y.y.y.y.y.y.y.y.y.y.r.r.<.0 P P H.L.L.L.L.L.L.L.L.L.L.L.L.L.H.L.",
"S.S.S.H.H.H.H.H.L.L.H.L.L.L.L.H.7 @ <.7.y.y.y.y.y.y.y.y.y.y.y.y.y.y.y.y.y.y.y.y.y.y.y.y.7.6.U H.7 7 7 7 7 7 7 7 7 7 7 7 7 0 7 7 ",
"S.S.H.H.H.H.H.L.L.H.L.L.L.L.H.L.6   6.7.7.7.y.y.y.y.y.r.y.y.y.y.y.y.y.y.y.y.y.y.y.y.7.7.7.7.  D.7 7 7 7 7 7 7 7 7 7 7 7 0 7 7 7 ",
"S.H.H.H.H.H.L.L.H.L.L.L.L.H.L.L.#.5.7.7.7.7.7.7.7.>.>.:.n     g g 3 l g -.=.=.7.7.7.7.7.7.7.6.  6 7 7 7 7 7 7 7 7 7 7 0 7 7 7 7 ",
"H.H.H.H.H.L.L.H.L.L.L.L.H.L.L.L.#.5.7.7.7.7.7.7.7.>.>.:.n     g g 3 l g -.=.=.7.7.7.7.7.7.6.5.X 7 7 7 7 7 7 7 7 7 7 0 7 7 7 7 7 ",
"H.H.H.H.L.L.H.L.L.L.L.H.L.L.K.L.c 7.7.7.7.7.7.7.#.1 1 N.L.L.L.B.B.S.L.L.G.0 0 U 6.7.7.7.7.7.6.h 6 7 7 7 7 7 7 7 7 0 7 7 7 7 7 0 ",
"H.H.H.L.L.H.L.L.L.L.H.L.L.L.L.K.+.7.7.7.7.7.=.#.v L.L.H.v.K.L.L.L.C.Z.L.L.K.K.    @.7.7.7.7.7.v 6 6 7 7 7 7 7 7 0 7 7 7 7 7 0 0 ",
"H.H.L.L.H.L.L.L.L.H.L.L.L.L.K.L.#.7.7.7.,.,.+.A.C.L.L.L.K.v.H.L.L.L.Z.V.L.L.L.L.m.$ &.&.7.7.7.@.7 6 7 7 7 7 7 0 7 7 7 7 7 0 0 0 ",
"H.L.L.H.L.L.L.L.H.L.L.L.L.L.L.K.@.7.7.7.+.+.L.L.S.B.B.L.L.L.N.D.F.L.K.D.M.L.L.L.L.B.6 7 7.7.5.+.6 7 7 7 7 7 0 7 7 7 7 7 0 0 0 0 ",
"L.L.H.L.L.L.L.H.L.L.L.L.L.L.K.L.@.7.7.7.+.+.L.L.S.B.B.L.L.L.N.G.F.L.K.D.M.L.L.L.L.B.7 6 7.7.5.+.6 6 7 7 7 0 7 7 7 7 7 0 0 0 0 0 ",
"L.H.L.L.L.L.H.L.L.L.L.L.L.L.K.K.c 7.7.O M.M.D.L.L.G.G.m.L.L.L.B.B.S.L.L.G.b.b.L.L.L.V.V.I 7.6.v 7 7 7 7 0 7 7 7 7 7 0 0 0 0 0 P ",
"H.L.L.L.L.H.L.L.L.L.L.L.L.L.K.K.j     % L.K.V.Z.L.L.L.J.b.K.L.L.L.C.C.L.L.H.H.c.H.L.L.L.0 @.> c 6 6 7 0 7 7 7 7 7 0 0 0 0 0 P P ",
"L.L.L.L.H.L.L.L.L.L.L.L.L.L.L.K.h 5.$ 0                                             > > &.*.&.z 6 6 0 7 7 7 7 7 0 0 0 0 0 P P 0 ",
"L.L.L.H.L.L.L.L.L.L.L.L.L.L.L.K.    +.*.*.*.#.b v h h h j h h h h h h j z z x > b %.*.*.=.j ; f 6 0 6 7 7 7 7 0 0 0 0 0 P P 0 P ",
"L.L.H.L.L.L.L.L.L.L.L.L.L.L.K.K.      h *.*.*.*.*.=.=.*.=.*.*.*.*.*.*.*.*.*.=.*.*.*.=.*.*.      0 6 7 7 7 7 0 0 0 0 0 P P 0 P P ",
"L.H.L.L.L.L.L.L.L.L.L.L.L.L.K.J.X     h *.*.*.*.*.*.*.=.*.*.*.*.=.*.*.*.*.*.*.*.*.*.*.*.*.      7 7 7 7 7 0 0 0 0 0 P P 0 P P P ",
"H.L.L.L.L.L.L.L.L.L.L.L.L.L.n.b.[       *.*.*.*.=.*.*.*.=.*.=.*.*.*.*.*.=.*.*.*.*.*.*.*.    w [ $ $ 7 7 0 0 0 0 0 P P 0 P P P P ",
"7 7 7 7 7 7 7 7 7 7 7 7 7 0 % & |       z z .     &.&.*.%.&.*.*.*.*.*.&.*.*.*.      = =       } T T S.H.H.H.H.H.L.L.H.L.L.L.L.H.",
"7 7 7 7 7 7 7 7 7 7 7 7 0 7 7 7 b.  s   o.O.O.O.O.                            o.O.O.          X S.S.H.H.H.H.H.L.L.H.L.L.L.L.H.L.",
"7 7 7 7 7 7 7 7 7 7 7 0 7 7 7 7 S.F.  ] O.O.O.O.O.O.O.    O.O.O.O.O.O.    O.O.O.O.O.    `   6 7 S.H.H.H.H.H.L.L.H.L.L.L.L.H.L.L.",
"7 7 7 7 7 7 7 7 7 7 0 7 7 7 7 7 H.H.C.  ` ` O.O.O.O.O.- 6 O.O.O.O.O.O.6 6 O.O.O.O.o.` `   6 7 7 H.H.H.H.H.L.L.H.L.L.L.L.H.L.L.L.",
"7 7 7 7 7 7 7 7 7 0 7 7 7 7 7 0 H.H.C.  ` ` O.O.O.O.O.6 - O.O.O.O.O.o.6 - O.O.O.O.O.` `   6 7 0 H.H.H.H.L.L.H.L.L.L.L.H.L.L.L.L.",
"7 7 7 7 7 7 7 7 0 7 7 7 7 7 0 0 H.H.S.=       X.O.O.O.O.O.O.X.O.O.o.o.O.O.O.O.O..._     = 6 0 0 H.H.H.L.L.H.L.L.L.L.H.L.L.L.L.L.",
"7 7 7 7 7 7 7 0 7 7 7 7 7 0 0 0 J.B.% X d.d.m   ] o.o.O.O.O.o.o.O.O.O.O.X.X.X.{     C C     6 0 H.J.L.L.H.L.L.L.L.H.L.L.L.L.L.L.",
"7 7 7 7 7 7 0 7 7 7 7 7 0 0 8 8 P a _ /     V B         ] | o.o.O.O.X.}         s.D y y / _ . $ A.D.L.H.L.L.L.L.H.L.L.L.L.L.L.L.",
"7 7 7 7 7 0 7 7 7 7 7 0 0 0 $ $ / | O.O.[ [   A u.s.d.J     # X         N A A u.j.  ] ] O.O.X.( U U H.L.L.L.L.H.L.L.L.L.L.L.L.L.",
"7 7 7 7 0 7 7 7 7 7 0 0 0 0 $ & / | O.O.[ [   F u.s.s.J     # . .       N F A u.j.  ` ] O.O.X.( U I L.L.L.L.H.L.L.L.L.L.L.L.L.L.",
"7 7 7 0 7 7 7 7 7 0 0 0 0 0 X X X.O.O.O.O.O.  S G l.l.z.i.F h.j.j.i.F h.z.i.i.G J   O.O.O.O.O.O.% % L.L.L.H.L.L.L.L.L.L.L.L.L.L.",
"7 7 0 7 7 7 7 7 0 0 0 0 0 P & $ ^ | O.o.` ` N a.A p.p.z.g.F p.z.z.g.G p.z.g.g.A a.N ] ] O.O.X.s Y Y L.L.H.L.L.L.L.L.L.L.L.L.L.L.",
"7 0 7 7 7 7 7 0 0 0 0 0 P P 9 q R       q q   f.F G G z.x.G i.z.z.x.u.i.z.l.j.A B           O % K.K.L.H.L.L.L.L.L.L.L.L.L.L.L.L.",
"0 7 7 7 7 7 0 0 0 0 0 P P 0 P P L.H.S.J.I I   3.M m m K j.Z C L K K S C L K L Z 5   X $ 8 8 P P L.L.H.L.L.L.L.L.L.L.L.L.L.L.L.L.",
"7 7 7 7 7 0 0 0 0 0 P P 0 P P P L.H.L.L.v.v.  k d h h h 4.< v 1.1.8.c v 2.8.8.h b   $ $ 9 P P P L.H.L.L.L.L.L.L.L.L.L.L.L.L.L.H.",
"7 7 7 7 0 0 0 0 0 P P 0 P P P P H.L.L.L.m.m.  k d h h h 4.< v 1.1.8.c b 2.8.8.h +.  X X u P P P H.L.L.L.L.L.L.L.L.L.L.L.L.L.H.L.",
"S.S.S.H.H.H.H.H.L.L.H.L.L.L.L.H.7 7 7 6 o o ! ) ) ) ) ) ) ~ w w w o u ) ) ) ) ) ) ) i i   L.L.H.7 7 7 7 7 7 7 7 7 7 7 7 7 0 7 7 ",
"S.S.H.H.H.H.H.L.L.H.L.L.L.L.H.L.7 7 7 6 * * p ) ) ) ) ) ) ! ; - v.t e ) ) ) ) ) ) ) t t   L.H.L.7 7 7 7 7 7 7 7 7 7 7 7 0 7 7 7 ",
"S.H.H.H.H.H.L.L.H.L.L.L.L.H.L.L.7 7 7 7 % %     E Q Q W     & 7 S.S.    p Q Q Q p r r e H.H.L.L.7 7 7 7 7 7 7 7 7 7 7 0 7 7 7 7 ",
"J.H.H.H.H.L.L.H.L.L.L.L.H.L.L.L.7 7 7 7 7 7 6 &         & - 7 7 H.H.G.N.          M.K.K.H.L.L.L.7 7 7 7 7 7 7 7 7 7 0 7 7 7 7 7 ",
"H.H.H.H.L.L.H.L.L.L.L.H.L.L.L.L.7 7 7 7 7 7 7 7 7 0 7 7 7 7 7 0 H.H.H.H.L.L.H.L.L.L.L.H.L.L.L.L.7 7 7 7 7 7 7 7 7 0 7 7 7 7 7 0 ",
"H.H.H.L.L.H.L.L.L.L.H.L.L.L.L.L.7 7 7 7 7 7 7 7 0 7 7 7 7 7 0 0 H.H.H.L.L.H.L.L.L.L.H.L.L.L.L.L.7 7 7 7 7 7 7 7 0 7 7 7 7 7 0 0 ",
"H.H.L.L.H.L.L.L.L.H.L.L.L.L.L.L.7 7 7 7 7 7 7 0 7 7 7 7 7 0 0 0 H.H.L.L.H.L.L.L.L.H.L.L.L.L.L.L.7 7 7 7 7 7 7 0 7 7 7 7 7 0 0 0 ",
"H.L.L.H.L.L.L.L.H.L.L.L.L.L.L.L.7 7 7 7 7 7 0 7 7 7 7 7 0 0 0 0 H.L.L.H.L.L.L.L.H.L.L.L.L.L.L.L.7 7 7 7 7 7 0 7 7 7 7 7 0 0 0 0 ",
"L.L.H.L.L.L.L.H.L.L.L.L.L.L.L.L.7 7 7 7 7 0 7 7 7 7 7 0 0 0 0 0 L.L.H.L.L.L.L.H.L.L.L.L.L.L.L.L.7 7 7 7 7 0 7 7 7 7 7 0 0 0 0 0 ",
"L.H.L.L.L.L.H.L.L.L.L.L.L.L.L.L.7 7 7 7 0 7 7 7 7 7 0 0 0 0 0 P L.H.L.L.L.L.H.L.L.L.L.L.L.L.L.L.7 7 7 7 0 7 7 7 7 7 0 0 0 0 0 P ",
"H.L.L.L.L.H.L.L.L.L.L.L.L.L.L.L.7 7 7 0 7 7 7 7 7 0 0 0 0 0 P P H.L.L.L.L.H.L.L.L.L.L.L.L.L.L.L.7 7 7 0 7 7 7 7 7 0 0 0 0 0 P P ",
"L.L.L.L.H.L.L.L.L.L.L.L.L.L.L.L.7 7 0 7 7 7 7 7 0 0 0 0 0 P P 0 L.L.L.L.H.L.L.L.L.L.L.L.L.L.L.L.7 7 0 7 7 7 7 7 0 0 0 0 0 P P 0 ",
"L.L.L.H.L.L.L.L.L.L.L.L.L.L.L.L.7 0 7 7 7 7 7 0 0 0 0 0 P P 0 P L.L.L.H.L.L.L.L.L.L.L.L.L.L.L.L.7 0 7 7 7 7 7 0 0 0 0 0 P P 0 P ",
"L.L.H.L.L.L.L.L.L.L.L.L.L.L.L.L.0 7 7 7 7 7 0 0 0 0 0 P P 0 P P L.L.H.L.L.L.L.L.L.L.L.L.L.L.L.L.0 7 7 7 7 7 0 0 0 0 0 P P 0 P P ",
"L.H.L.L.L.L.L.L.L.L.L.L.L.L.L.H.7 7 7 7 7 0 0 0 0 0 P P 0 P P P L.H.L.L.L.L.L.L.L.L.L.L.L.L.L.H.7 7 7 7 7 0 0 0 0 0 P P 0 P P P ",
"H.L.L.L.L.L.L.L.L.L.L.L.L.L.H.L.7 7 7 7 0 0 0 0 0 P P 0 P P P P H.L.L.L.L.L.L.L.L.L.L.L.L.L.H.L.7 7 7 7 0 0 0 0 0 P P 0 P P P P "
};
