/* XPM */
static char *result[] = {
/* columns rows colors chars-per-pixel */
"64 64 165 2 ",
"   c #010101",
".  c #090604",
"X  c #00000C",
"o  c #0A0C0C",
"O  c #0F0B06",
"+  c #110D08",
"@  c #1B120B",
"#  c #000113",
"$  c #01021B",
"%  c #000A1C",
"&  c #061111",
"*  c #131313",
"=  c #1D1C1C",
"-  c #1A1917",
";  c #23160D",
":  c #22180F",
">  c #281C11",
",  c #352513",
"<  c #382918",
"1  c #332719",
"2  c #010625",
"3  c #00053B",
"4  c #010431",
"5  c #001435",
"6  c #221F20",
"7  c #022E2E",
"8  c #113C3C",
"9  c #252324",
"0  c #292627",
"q  c #282828",
"w  c #2E2E30",
"e  c #323234",
"r  c #3C3C3C",
"t  c #373739",
"y  c #473116",
"u  c #4F361A",
"i  c #44321F",
"p  c #543A1C",
"a  c #463520",
"s  c #58422A",
"d  c #564129",
"f  c #624628",
"g  c #76522B",
"h  c #624A30",
"j  c #6C5235",
"k  c #775C3E",
"l  c #000742",
"z  c #00094E",
"x  c #010843",
"c  c #001C44",
"v  c #000A54",
"b  c #0A1153",
"n  c #0B135A",
"m  c #292B52",
"M  c #000D61",
"N  c #02116D",
"B  c #011175",
"V  c #011279",
"C  c #101D77",
"Z  c #17226A",
"A  c #024546",
"S  c #0A4546",
"D  c #044E4F",
"F  c #134444",
"G  c #184E4F",
"H  c #075657",
"J  c #195252",
"K  c #096465",
"L  c #026C6D",
"P  c #046364",
"I  c #156364",
"U  c #027475",
"Y  c #027C7D",
"T  c #157E7F",
"R  c #206C6D",
"E  c #257374",
"W  c #267B7C",
"Q  c #2B7D7E",
"!  c #444444",
"~  c #4E4E4E",
"^  c #565657",
"/  c #745B41",
"(  c #7A6041",
")  c #626262",
"_  c #6F6F70",
"`  c gray46",
"'  c #805A2F",
"]  c #845D31",
"[  c #8B6234",
"{  c #956A38",
"}  c #9C6E3C",
"|  c #8A6A45",
" . c #856642",
".. c #9A774F",
"X. c #93714B",
"o. c #AA7942",
"O. c #A37D53",
"+. c #AF875A",
"@. c #BC9162",
"#. c #C69966",
"$. c #C69967",
"%. c #D6A570",
"&. c #D8A771",
"*. c #DDAC74",
"=. c #E1AF77",
"-. c #E6B279",
";. c #EBB67C",
":. c #EEB87D",
">. c #021685",
",. c #01178C",
"<. c #02188C",
"1. c #011891",
"2. c #031C9A",
"3. c #003E88",
"4. c #0D2499",
"5. c #011CA2",
"6. c #021FAC",
"7. c #0321B6",
"8. c #00479B",
"9. c #474E85",
"0. c #0528D5",
"q. c #0427D1",
"w. c #132BC9",
"e. c #2034CF",
"r. c #2237D8",
"t. c #032BE1",
"y. c #022EEA",
"u. c #0333FF",
"i. c #263CEB",
"p. c #005BC4",
"a. c #005FCB",
"s. c #0060CD",
"d. c #0068DC",
"f. c #006BE3",
"g. c #006EE9",
"h. c #0074F4",
"j. c #0077FB",
"k. c #007AFF",
"l. c #048081",
"z. c #098283",
"x. c #068A8B",
"c. c #0B8A8B",
"v. c #1E9596",
"b. c #1A8687",
"n. c #2C8788",
"m. c #239899",
"M. c #299596",
"N. c #379A9B",
"B. c #329FA0",
"V. c #2FA0A1",
"C. c #3DA8A9",
"Z. c #34A2A3",
"A. c #518586",
"S. c #9D9D9E",
"D. c #89898A",
"F. c #ABABAB",
"G. c #C2C2C3",
"H. c #D0D0D2",
"J. c #D9D9DA",
"K. c #DFDFE1",
"L. c #E3E3E4",
"P. c #E7E7E9",
"I. c #EBEBED",
"U. c #F4F4F4",
"Y. c #FFFFFF",
/* pixels */
"0 0 0 0 0 0 0 0 0 0 0 0 0 e 0 0 H.H.H.I.I.I.I.I.Y.Y.I.Y.Y.Y.Y.I.0 0 0 0 0 0 0 0 0 0 0 0 0 e 0 0 H.H.H.I.I.I.I.I.Y.Y.I.Y.Y.Y.Y.I.",
"0 0 0 0 0 0 0 0 0 0 0 0 e 0 0 0 H.H.I.I.I.I.I.Y.Y.I.Y.Y.Y.Y.I.Y.0 0 0 0 0 0 0 0 0 0 0 0 e 0 0 0 H.H.I.I.I.I.I.Y.Y.I.Y.Y.Y.Y.I.Y.",
"0 0 0 0 0 0 0 0 0 0 0 e 0 0 0 0 H.I.I.I.I.I.Y.Y.I.Y.Y.Y.Y.I.Y.Y.0 0 0 0 0 0 0 0 0 0 0 e 0 0 0 0 H.I.I.I.I.I.Y.Y.I.Y.Y.Y.Y.I.Y.Y.",
"0 0 0 0 0 0 0 0 0 0 e 0 0 0 0 0 I.I.I.I.I.Y.Y.I.Y.Y.Y.Y.I.Y.Y.Y.0 0 0 0 0 0 0 0 0 0 e 0 0 0 0 0 I.I.I.I.I.Y.Y.I.Y.Y.Y.Y.I.Y.Y.Y.",
"0 0 0 0 0 0 0 0 0 e 0 0 0 0 0 e I.I.I.I.Y.Y.I.Y.Y.Y.Y.I.Y.Y.Y.Y.0 0 0 0 0 0 0 0 0 e 0 0 0 0 0 e I.I.I.I.Y.Y.I.Y.Y.Y.Y.I.Y.Y.Y.Y.",
"0 0 0 0 0 0 0 0 e 0 0 0 0 0 e e I.I.I.Y.Y.I.Y.Y.Y.Y.I.Y.Y.Y.Y.Y.0 0 0 0 0 0 0 0 e 0 0 0 0 0 e e I.I.I.Y.Y.I.Y.Y.Y.Y.I.Y.Y.Y.Y.Y.",
"0 0 0 0 0 0 0 e 0 0 0 0 0 e e e I.I.Y.Y.I.Y.Y.Y.Y.I.Y.Y.Y.Y.Y.Y.0 0 0 0 0 0 0 e 0 0 0 0 0 e e e I.I.Y.Y.I.Y.Y.Y.Y.I.Y.Y.Y.Y.Y.Y.",
"0 0 0 0 0 0 e 0 0 0 0 0 e e e e I.Y.Y.I.Y.Y.Y.Y.I.Y.Y.Y.Y.Y.Y.Y.0 0 0 0 0 0 e 0 0 0 0 0 e e e e I.Y.Y.I.Y.Y.Y.Y.I.Y.Y.Y.Y.Y.Y.Y.",
"0 0 0 0 0 e 0 0 0 0 0 e e e e e Y.Y.I.Y.Y.Y.Y.I.Y.Y.Y.Y.Y.Y.Y.Y.0 0 0 0 0 e 0 0 0 0 0 e e e e e Y.Y.I.Y.Y.Y.Y.I.Y.Y.Y.Y.Y.Y.Y.Y.",
"0 0 0 q e 0 0 0 0 0 e e e e e ! Y.I.Y.Y.Y.Y.I.Y.Y.Y.Y.Y.Y.Y.Y.Y.0 0 0 0 e 0 0 0 0 0 e e e e e ! Y.I.Y.Y.Y.Y.I.Y.Y.Y.Y.Y.Y.Y.Y.Y.",
"0 0 0 e 0 0 0 0 0 e e e e e ! ! I.Y.Y.Y.Y.I.Y.Y.Y.Y.Y.Y.Y.Y.Y.Y.q q 0 e 0 0 0 0 0 e e e e e ! ! I.Y.Y.Y.Y.I.Y.Y.Y.Y.Y.Y.Y.Y.Y.Y.",
"0 0 e 0 0 0 0 0 e e e e e ! ! e Y.Y.Y.Y.I.Y.Y.U.P.  3.3.5 % % % % % 2 c 8.8.  q e e e e e ! ! e Y.Y.Y.Y.I.Y.Y.Y.Y.Y.Y.Y.Y.Y.Y.Y.",
"0 e 0 0 0 0 0 e e e e e ! ! e ! Y.Y.Y.P.L.      5 d.k.k.h.h.h.h.h.h.h.h.f.f.d.5       e ! ! e ! Y.Y.Y.I.Y.Y.Y.Y.Y.Y.Y.Y.Y.Y.Y.Y.",
"e 0 0 0 0 0 e e e e e ! ! e ! ! Y.Y.I.B X g.g.j.k.k.k.k.k.k.k.k.k.k.k.k.k.k.k.g.j.p.p.  * e ! ! Y.Y.I.Y.Y.Y.Y.Y.Y.Y.Y.Y.Y.Y.Y.Y.",
"0 0 0 0 0 e e e e e ! ! e ! ! ! Y.I.Y.B X g.g.j.j.k.k.k.k.k.k.k.k.k.k.k.k.k.k.g.j.p.p.  o ! ! ! Y.I.Y.Y.Y.Y.Y.Y.Y.Y.Y.Y.Y.Y.Y.I.",
"0 0 0 0 e e e e e ! ! e ! ! ! ! P.Y.z a.h.k.k.k.k.k.h.h.k.k.k.k.k.k.k.k.k.k.k.k.k.k.k.h.a.t ! ! I.Y.Y.Y.Y.Y.Y.Y.Y.Y.Y.Y.Y.Y.I.Y.",
"H.H.H.I.I.I.I.I.Y.Y.I.Y.Y.Y.Y.I.$ $ 0.k.k.k.k.k.k.k.k.k.k.k.k.k.k.k.k.k.k.k.k.k.k.k.k.j.k.y.) P.0 0 0 0 0 0 0 0 0 0 0 0 0 e 0 0 ",
"H.H.I.I.I.I.I.Y.Y.I.Y.Y.Y.Y.I.U.    y.u.k.k.k.k.k.k.k.k.k.k.k.k.k.k.k.k.k.k.k.k.k.k.k.j.u.u.  J.9 0 0 0 0 0 0 0 0 0 0 0 e 0 0 0 ",
"H.I.I.I.I.I.Y.Y.I.Y.Y.Y.Y.I.Y.4.y.y.u.u.u.u.u.u.u.h.k.k.k.k.k.k.k.k.k.k.k.k.k.u.u.u.u.u.u.u.y.o   9 0 0 0 0 0 0 0 0 0 e 0 0 0 0 ",
"I.I.I.I.I.Y.Y.I.Y.Y.Y.Y.I.Y.Y.4.y.y.u.u.u.u.u.u.u.h.k.k.k.k.k.k.k.k.k.k.k.k.k.u.u.u.u.u.u.u.y..   9 0 0 0 0 0 0 0 0 e 0 0 0 0 0 ",
"I.I.I.I.Y.Y.I.Y.Y.Y.Y.I.Y.Y.Y.C u.u.u.u.u.u.u.u.u.u.u.u.u.u.u.u.u.u.u.u.u.u.u.u.u.u.u.u.u.u.u.v v 9 0 0 0 0 0 0 0 e 0 0 0 0 0 e ",
"I.I.I.Y.Y.I.Y.Y.Y.Y.I.Y.Y.Y.U.>.u.u.u.u.u.u.u.u.u.u.u.u.u.u.u.u.u.u.u.u.u.u.u.u.u.u.u.u.u.u.u.B V 0 0 0 0 0 0 0 e 0 0 0 0 0 e e ",
"I.I.Y.Y.I.Y.Y.Y.Y.I.Y.Y.Y.Y.U.4.u.u.u.u.u.u.u.u.u.u.u.u.u.u.u.u.u.u.u.u.u.u.u.u.u.u.u.u.u.u.u.,.,.9 0 0 0 0 0 e 0 0 0 0 0 e e e ",
"I.Y.Y.I.Y.Y.Y.Y.P.Y.Y.Y.Y.Y.U.,.u.u.u.u.u.u.u.u.u.u.u.u.u.u.u.u.u.u.u.u.u.u.u.u.u.u.u.u.u.u.u.>.,.9 0 0 0 0 e 0 0 0 0 0 e e e e ",
"Y.Y.I.Y.Y.Y.Y.I.Y.Y.Y.Y.Y.Y.U.,.u.u.u.u.u.u.u.u.u.u.u.u.u.u.u.u.u.u.u.u.u.u.u.u.u.u.u.u.u.u.u.>.>.9 0 0 0 e 0 0 0 0 0 e e e e e ",
"Y.I.Y.Y.Y.Y.I.Y.Y.Y.Y.Y.Y.Y.Y.N u.u.u.u.u.u.u.u.u.u.u.u.u.u.u.u.u.u.u.u.u.u.u.u.u.u.u.u.u.u.u.<.,.0 0 0 e 0 0 0 0 0 e e e e e ! ",
"I.Y.Y.Y.Y.I.Y.Y.Y.Y.Y.Y.Y.Y.Y.Z y.t.u.u.u.u.u.u.u.u.u.u.u.u.u.u.u.u.u.u.u.u.u.u.u.u.u.u.u.u.u.>.>.0 0 e 0 0 0 0 0 e e e e e ! ! ",
"Y.Y.Y.Y.I.Y.Y.Y.Y.Y.Y.Y.Y.Y.Y.9.u.u.u.u.u.u.u.u.u.u.u.u.u.u.u.u.u.u.u.u.u.u.u.u.u.u.u.u.u.7.7.B B 9 e 0 0 0 0 0 e e e e e ! ! e ",
"Y.Y.Y.I.Y.Y.Y.Y.Y.Y.Y.Y.Y.Y.U.  0.t.u.u.u.u.u.u.u.u.u.u.u.k.k.k.k.k.k.k.u.u.u.u.u.u.u.7.7.7.  z z w 0 0 0 0 0 e e e e e ! ! e ! ",
"Y.Y.I.Y.Y.Y.Y.Y.Y.Y.Y.Y.Y.Y.U.. t.t.u.u.u.u.u.u.u.u.u.u.u.k.k.k.k.k.k.k.u.u.u.u.u.u.u.7.7.7.  z z 9 0 0 0 0 e e e e e ! ! e ! ! ",
"Y.I.Y.Y.Y.Y.Y.Y.Y.Y.Y.Y.Y.Y.U..       V 5.7.7.u.u.u.u.u.u.k.k.k.k.k.k.k.u.u.7.7.7.7.7.6.<.        0 0 0 0 e e e e e ! ! e ! ! ! ",
"I.Y.Y.Y.Y.Y.Y.Y.Y.Y.Y.Y.Y.Y.D.#.: :     $ X # l M >.<.1.2.6.6.7.7.6.5.1.,.,.V M l $ $ X     i @.@.* 0 0 e e e e e ! ! e ! ! ! ! ",
"0 0 0 0 0 0 0 0 0 0 0 0 0 e - %.  .               m 3 3 2 $ X     # 2 4 3 3 v                 %.%._ H.I.I.I.I.I.Y.Y.I.Y.Y.Y.Y.I.",
"0 0 0 0 0 0 0 0 0 0 0 0 e 0 0 = .         .                                                   & ^ H.I.I.I.I.I.Y.Y.I.Y.Y.Y.Y.I.Y.",
"0 0 0 0 0 0 0 0 0 0 0 e 0 0 0 =   .                                                           * ^ I.I.I.I.I.Y.Y.I.Y.Y.Y.Y.I.Y.Y.",
"0 0 0 0 0 0 0 0 0 0 e 0 0 0 0 0 K.K.  @.:.h h <                                   > > | .   > q I.I.I.I.I.Y.Y.I.Y.Y.Y.Y.I.Y.Y.Y.",
"0 0 0 0 0 0 0 0 0 e 0 0 0 0 0 e I.I.G.  $.:.:.:.j < k k +                     < h :.:.;.O 9 q e I.I.I.I.Y.Y.I.Y.Y.Y.Y.I.Y.Y.Y.Y.",
"0 0 0 0 0 0 0 0 e 0 0 0 0 0 e e I.I.J.@     . ;.:.:.:.:.| s +       . , i i :.:.:.$.$.1 : 9 e e I.I.I.Y.Y.I.Y.Y.Y.Y.I.Y.Y.Y.Y.Y.",
"0 0 0 0 0 0 0 e 0 0 0 0 q e e e P.P.q o G S S   #.:.:.:.:.:.:.:.:.:.:.:.;.;.:.-.s . . A     w e I.I.Y.Y.I.Y.Y.Y.Y.I.Y.Y.Y.Y.Y.Y.",
"0 0 0 0 0 0 e 0 0 0 0 0 e e e e P.Y.q o G S S   @.:.:.:.:.:.:.:.:.:.:.:.;.;.:.-.s . . A     w e I.Y.Y.I.Y.Y.Y.Y.I.Y.Y.Y.Y.Y.Y.Y.",
"0 0 0 0 0 e 0 0 0 0 0 e e e e * k k O.j   I I H o .     #.:.:.:.:.:.-.&.. .     n.I I   h O.  * ) I.I.Y.Y.Y.Y.I.Y.Y.Y.Y.Y.Y.Y.Y.",
"0 0 0 0 e 0 0 0 0 0 e e e e * X.*.&.:.*.- E E l.l.n.R R   . &           F F L l.N.A.A.. @.:.-.....^ Y.Y.Y.Y.I.Y.Y.Y.Y.Y.Y.Y.Y.Y.",
"0 0 0 e 0 0 0 0 0 e e e e e o ;.:.:.:.:./ 8 8 l.l.V.C.C.x.U M.N.N.z.U M.C.C.c.Y M.J J 1 -.:.:.;.;.= Y.Y.Y.I.Y.Y.Y.Y.Y.Y.Y.Y.Y.Y.",
"0 0 e 0 0 0 0 0 e e e e e ! - | &.*.:.:.+.F F b.U m.C.C.m.Y v.C.C.m.Y v.C.C.m.L T o & ( :.:.*. . .) Y.Y.I.Y.Y.Y.Y.Y.Y.Y.Y.Y.Y.Y.",
"0 e 0 0 0 0 0 e e e e e ! ! q =         r o   n.U 8.C.C.Z.Y x.C.C.Z.x.x.C.C.B.L H             = ` U.Y.I.Y.Y.Y.Y.Y.Y.Y.Y.Y.Y.Y.Y.",
"e 0 0 0 0 0 e e e e e ! ! e ! =         t     M.U Y C.C.Z.Y x.C.C.Z.8.x.C.C.Z.L H             = ` U.I.Y.Y.Y.Y.Y.Y.Y.Y.Y.Y.Y.Y.Y.",
"0 0 0 0 0 e e e e e ! ! e ! ! ! I.J.I.L.~     w.S D W W N.K P W W n.K P W T Q K 7     * 9 r ! ! Y.I.Y.Y.Y.Y.Y.Y.Y.Y.Y.Y.Y.Y.Y.I.",
"0 0 0 0 e e e e e ! ! e ! ! ! ! I.Y.Y.Y.S.  . n 3 v v v r.3 B 0.0.i.N B w.q.r.c V     o ! ! ! ! I.Y.Y.Y.Y.Y.Y.Y.Y.Y.Y.Y.Y.Y.I.Y.",
"H.H.H.I.I.I.I.I.Y.Y.I.Y.Y.Y.Y.I.0 0 0 0 @ { { r.r.r.r.r.r.e.b b b @ C r.r.r.r.r.r.r.r.f o Y.Y.I.0 0 0 0 0 0 0 0 0 0 0 0 0 e 0 0 ",
"H.H.I.I.I.I.I.Y.Y.I.Y.Y.Y.Y.I.Y.0 0 0 0 ; g g o.o.o.o.o.o.} , = S.p u o.o.o.o.o.o.o.o.p   Y.I.Y.0 0 0 0 0 0 0 0 0 0 0 0 e 0 0 0 ",
"H.I.I.I.I.I.Y.Y.I.Y.Y.Y.Y.I.Y.Y.0 0 0 9 ; g g o.o.o.o.o.o.} , = S.u u o.o.o.o.o.o.o.o.p   I.Y.Y.0 0 0 0 0 0 0 0 0 0 0 e 0 0 0 0 ",
"I.I.I.I.I.Y.Y.I.Y.Y.Y.Y.I.Y.Y.Y.0 0 0 0 0       ' [ ] ]     - 0 I.H.    g g [ ] g y y u J.Y.Y.Y.0 0 0 0 0 0 0 0 0 0 e 0 0 0 0 0 ",
"I.I.I.I.Y.Y.I.Y.Y.Y.Y.I.Y.Y.Y.Y.0 0 0 0 0 9 9 -         - 6 0 e I.I.L.F.          F.F.K.Y.Y.Y.Y.0 0 0 0 0 0 0 0 0 e 0 0 0 0 0 e ",
"I.I.I.Y.Y.I.Y.Y.Y.Y.I.Y.Y.Y.Y.Y.0 0 0 0 0 0 0 0 e 0 0 0 0 0 e e I.I.P.Y.Y.I.Y.Y.Y.Y.I.Y.Y.Y.Y.Y.0 0 0 0 0 0 0 0 e 0 0 0 0 0 e e ",
"I.I.Y.Y.I.Y.Y.Y.Y.I.Y.Y.Y.Y.Y.Y.0 0 0 0 0 0 0 e 0 0 0 0 0 e e e I.I.Y.Y.I.Y.Y.Y.Y.I.Y.Y.Y.Y.Y.Y.0 0 0 0 0 0 0 e 0 0 0 0 0 e e e ",
"I.Y.Y.I.Y.Y.Y.Y.I.Y.Y.Y.Y.Y.Y.Y.0 0 0 0 0 0 e 0 0 0 0 0 e e e e I.Y.Y.I.Y.Y.Y.Y.I.Y.Y.Y.Y.Y.Y.Y.0 0 0 0 0 0 e 0 0 0 0 0 e e e e ",
"Y.Y.I.Y.Y.Y.Y.I.Y.Y.Y.Y.Y.Y.Y.Y.0 0 0 0 0 e 0 0 0 0 0 e e e e e Y.Y.I.Y.Y.Y.Y.I.Y.Y.Y.Y.Y.Y.Y.Y.0 0 0 0 0 e 0 0 0 0 0 e e e e e ",
"Y.I.Y.Y.Y.Y.I.Y.Y.Y.Y.Y.Y.Y.Y.Y.0 0 0 0 e 0 0 0 0 0 e e e e e ! Y.I.Y.Y.Y.Y.I.Y.Y.Y.Y.Y.Y.Y.Y.Y.0 0 0 0 e 0 0 0 0 0 e e e e e ! ",
"I.Y.Y.Y.Y.I.Y.Y.Y.Y.Y.Y.Y.Y.Y.Y.0 0 0 e 0 0 0 0 0 e e e e e ! ! I.Y.Y.Y.Y.I.Y.Y.Y.Y.Y.Y.Y.Y.Y.Y.0 0 0 e 0 0 0 0 0 e e e e e ! ! ",
"Y.Y.Y.Y.I.Y.Y.Y.Y.Y.Y.Y.Y.Y.Y.Y.0 0 e 0 0 0 0 0 e e e e e ! ! e Y.Y.Y.Y.I.Y.Y.Y.Y.Y.Y.Y.Y.Y.Y.Y.0 0 e 0 0 0 0 0 e e e e e ! ! e ",
"Y.Y.Y.I.Y.Y.Y.Y.Y.Y.Y.Y.Y.Y.Y.Y.0 e 0 0 0 0 0 e e e e e ! ! e ! Y.Y.Y.I.Y.Y.Y.Y.Y.Y.Y.Y.Y.Y.Y.Y.0 e 0 0 0 0 0 e e e e e ! ! e ! ",
"Y.Y.I.Y.Y.Y.Y.Y.Y.Y.Y.Y.Y.Y.Y.Y.e 0 0 0 0 0 e e e e e ! ! e ! ! Y.Y.I.Y.Y.Y.Y.Y.Y.Y.Y.Y.Y.Y.Y.Y.e 0 0 0 0 0 e e e e e ! ! e ! ! ",
"Y.I.Y.Y.Y.Y.Y.Y.Y.Y.Y.Y.Y.Y.Y.I.0 0 0 0 0 e e e e e ! ! e ! ! ! Y.I.Y.Y.Y.Y.Y.Y.Y.Y.Y.Y.Y.Y.Y.I.0 0 0 0 0 e e e e e ! ! e ! ! ! ",
"I.Y.Y.Y.Y.Y.Y.Y.Y.Y.Y.Y.Y.Y.I.Y.0 0 0 0 e e e e e ! ! e ! ! ! ! I.Y.Y.Y.Y.Y.Y.Y.Y.Y.Y.Y.Y.Y.I.Y.0 0 0 0 e e e e e ! ! e ! ! ! ! "
};
