/* XPM */
static char *_07d39c5c7f4417de6413fbb65eefd6aHoWGJG8ORVK91skc[] = {
/* columns rows colors chars-per-pixel */
"64 64 149 2 ",
"   c None",
".  c #000000",
"X  c #00000E",
"o  c gray6",
"O  c #191008",
"+  c #000112",
"@  c #000A1C",
"#  c #01011E",
"$  c #061111",
"%  c #191919",
"&  c #23160C",
"*  c #21180F",
"=  c #332413",
"-  c #3F2C18",
";  c #010228",
":  c #010825",
">  c #010433",
",  c #000539",
"<  c #001435",
"1  c #00193F",
"2  c #022E2E",
"3  c #222222",
"4  c #333433",
"5  c #402B13",
"6  c #4E351A",
"7  c #473116",
"8  c #543A1C",
"9  c #4F3B25",
"0  c #5D4020",
"q  c #624322",
"w  c #75522A",
"e  c #6E5336",
"r  c #725738",
"t  c #000742",
"y  c #00084B",
"u  c #001B44",
"i  c #000A55",
"p  c #000C5A",
"a  c #0B135A",
"s  c #00275B",
"d  c #000E64",
"f  c #000F69",
"g  c #01106E",
"h  c #011275",
"j  c #01137B",
"k  c #002F6B",
"l  c #044E4F",
"z  c #094748",
"x  c #134344",
"c  c #055758",
"v  c #125C5D",
"b  c #026364",
"n  c #096465",
"m  c #036D6E",
"M  c #0A6768",
"N  c #186F70",
"B  c #027273",
"V  c #027C7D",
"C  c #1E7172",
"Z  c #206C6D",
"A  c #267B7C",
"S  c #2A7D7E",
"D  c #237677",
"F  c gray36",
"G  c gray29",
"H  c #805A2F",
"J  c #845D31",
"K  c #8B6334",
"L  c #996C3A",
"P  c #A3733E",
"I  c #896945",
"U  c #94724B",
"Y  c #9A774F",
"T  c #AA7942",
"R  c #A37D53",
"E  c #B38A5D",
"W  c #B98F60",
"Q  c #BD9161",
"!  c #C59865",
"~  c #CD9E6B",
"^  c #D8A771",
"/  c #DEAC74",
"(  c #D6A570",
")  c #E2AF77",
"_  c #E6B279",
"`  c #ECB77C",
"'  c #EEB87D",
"]  c #021483",
"[  c #01178D",
"{  c #011994",
"}  c #003E88",
"|  c #021CA1",
" . c #021FAB",
".. c #0321B6",
"X. c #0322BA",
"o. c #00479B",
"O. c #157F80",
"+. c #004BA3",
"@. c #0057B9",
"#. c #0325C7",
"$. c #0426CC",
"%. c #132BC9",
"&. c #0528D5",
"*. c #0427D1",
"=. c #2237D8",
"-. c #032EEC",
";. c #0430F4",
":. c #0333FE",
">. c #263CEB",
",. c #005BC4",
"<. c #0067DA",
"1. c #0069DE",
"2. c #006BE3",
"3. c #006FE9",
"4. c #0073F3",
"5. c #0077FB",
"6. c #007AFF",
"7. c #048081",
"8. c #068A8B",
"9. c #0C8C8E",
"0. c #0A8586",
"q. c #1E9596",
"w. c #1A8687",
"e. c #2F8586",
"r. c #2F8788",
"t. c #2A8A8B",
"y. c #239899",
"u. c #299798",
"i. c #349192",
"p. c #379B9D",
"a. c #369798",
"s. c #329FA0",
"d. c #2FA0A1",
"f. c #3DA8A9",
"g. c #33A2A3",
"h. c #969696",
"j. c gray60",
"k. c #A5A5A5",
"l. c #AAAAAA",
"z. c gray70",
"x. c #BCBCBC",
"c. c #C3C3C3",
"v. c gray79",
"b. c #D4D4D4",
"n. c #DCDCDB",
"m. c #E1E1E1",
"M. c #ECECEC",
"N. c #F3F3F3",
"B. c #FEFEFE",
/* pixels */
"                                                                                                                                ",
"                                                                                                                                ",
"                                                                                                                                ",
"                                                                                                                                ",
"                                                                                                                                ",
"                                                                                                                                ",
"                                                                                                                                ",
"                                                                                                                                ",
"                                                                                                                                ",
"                                                                                                                                ",
"                                                                                                                                ",
"                                                  . . o.< @ @ @ @ @ : u o.. .                                                   ",
"                                            . . u <.<.6.4.4.4.4.5.4.4.3.2.1.1.< . .                                             ",
"                                            . . u <.<.6.4.4.4.5.4.4.4.4.2.1.1.< . .                                             ",
"                                      h X X 3.5.5.6.6.6.6.6.6.6.6.6.6.6.6.6.6.3.6.,.. . .                                       ",
"                                    y $.4.4.6.6.6.6.6.4.6.6.6.6.6.6.6.6.6.6.6.6.6.6.4.4.$.                                      ",
"                                  # $.:.6.6.6.6.6.6.6.6.6.6.6.6.6.6.6.6.6.6.6.6.6.6.6.6.:.-..                                   ",
"                                  . :.:.:.:.6.6.6.6.6.4.6.6.6.6.6.6.6.6.6.6.6.6.6.6.:.:.:.:..                                   ",
"                                { -.:.:.:.:.:.:.:.@.@.+.k . . u u 1 s u o.....:.:.:.:.:.:.:.-..                                 ",
"                                { -.:.:.:.:.:.:.:.@.@.+.k . . u u 1 s u o.X...:.:.:.:.:.:.;.;..                                 ",
"                                h :.:.:.:.:.:.:.{ > > l.B.B.B.z.z.b.B.B.M.4 4 F ;.:.:.:.:.:.;.i                                 ",
"                                ] :.:.:.:.:.X.{ h B.B.M.j.B.B.B.B.c.v.B.B.N.N.. . [ :.:.:.:.:.h                                 ",
"                                { :.:.:.#.#.] v.c.B.B.B.B.h.M.B.B.B.v.x.B.B.B.B.k.%  . .:.:.:.[                                 ",
"                                [ :.:.:.] ] B.B.b.z.z.B.B.B.l.m.m.B.N.n.l.B.B.B.B.z.3 3 :.:.-.]                                 ",
"                                [ :.:.:.] ] B.B.b.z.z.B.B.B.k.m.m.B.B.n.l.B.B.B.B.z.3 3 :.:.-.]                                 ",
"                                g :.:.+ l.l.n.B.B.m.m.k.B.B.B.z.z.b.B.B.n.h.h.B.B.B.x.x.G :.;.h                                 ",
"                                p . . % B.B.x.v.B.B.B.M.h.N.B.B.B.c.c.B.B.M.M.h.N.B.B.B.4 [ ; g                                 ",
"                                i -.o 4 . . . . . . . . . . . . . . . . . . . . . . ; ;  ... .f                                 ",
"                                . . ] ......{ j h p p i p i p i i i i p d f f ; j | ......p = y                                 ",
"                                . . . i ..........................X........................ . .                                 ",
"                                o . . i ............X...X.......X...................X...... . .                                 ",
"                                ! . . . ............X.................................... . 7 Q                                 ",
"                                ^ . . . d d + . .  . ...|  ........... ........ . . * * . . . (                                 ",
"                                  . r . ` ' ' ' ' . . . . . . . . . . . . . . ` ' ' . . . . . .                                 ",
"                                    . Q ` ' ' ' ' ' ' . . ' ' ' ' ' ' . . ' ' ' ' ' . . W .                                     ",
"                                      . E E ` ' ' ' ' 3 3 ' ' ' ' ' ' 3 3 ' ' ' ` ` E E .                                       ",
"                                      . E W ' ' ' ' ' 3 3 ' ' ' ' ' ' 3 3 ' ' ' ' ' E E .                                       ",
"                                      & . . . _ ' ' ' ' ' ' _ ' ' ' ' ' ` ` ' ' ) R . . *                                       ",
"                                    . . r.r.z . Q ' ` ' ' ' ' ' ' ` ' ` _ _ _ ~ . . b b . .                                     ",
"                                . e R U . . v c . . . . Q / ' ' ' ` _ ^ . . . . e.N 9 9 U R . .                                 ",
"                            . . U ) ' ' ! ! . B 7.e.e.Z . . $ X . . . . x m m 7.i.. Q Q ' ' _ Y . .                             ",
"                            . . U ^ ' ' ! ! . m 7.t.e.Z . . $ . X . . . x m m 7.i.. Q Q ` ' _ Y . .                             ",
"                            . . ` ' ' ' ' ' . M V p.d.f.0.B u.a.p.0.B d.f.9.9.B C . ` ' ' ' ' _ . .                             ",
"                            . . I / ' ' E E x w.m y.q.f.y.V q.f.f.y.B q.f.y.y.m O.x W W ` ` ) I . .                             ",
"                                . . . . . . . t.B V V f.g.V 8.f.f.g.7.8.f.s.s.m c . . . . . . .                                 ",
"                                        . . . %.z l l S a.n b S A S M b D S S n 2 . . .                                         ",
"                                            . a t i i i =., h &.&.>.h h &.>.>.i j . . .                                         ",
"                                            . a t i i i =., h &.&.>.g h &.>.>.i ] . . .                                         ",
"                                        O O L T T T T T T P 5 5 5 O 0 T T T T T T T q q .                                       ",
"                                        & & w T T T T T T L =     8 6 T T T T T T T 8 8 .                                       ",
"                                            . . H K K J . .         . . w K K K w 7 6 6                                         ",
"                                                . . . .                 . . . . .                                               ",
"                                                                                                                                ",
"                                                                                                                                ",
"                                                                                                                                ",
"                                                                                                                                ",
"                                                                                                                                ",
"                                                                                                                                ",
"                                                                                                                                ",
"                                                                                                                                ",
"                                                                                                                                ",
"                                                                                                                                ",
"                                                                                                                                ",
"                                                                                                                                "
};
