/* XPM */
static char *result[] = {
/* columns rows colors chars-per-pixel */
"64 64 156 2 ",
"   c #010101",
".  c #090604",
"X  c #0C0A06",
"o  c #01010D",
"O  c #030C0C",
"+  c #0A0B0B",
"@  c #140F09",
"#  c #17100A",
"$  c #1B120A",
"%  c #000A1C",
"&  c #020313",
"*  c #041A1B",
"=  c #0A1F1F",
"-  c #161A1A",
";  c #1D1D1D",
":  c #151417",
">  c #22180F",
",  c #2C1C0D",
"<  c #251B10",
"1  c #22201F",
"2  c #342412",
"3  c #3A2612",
"4  c #010D24",
"5  c #001435",
"6  c #080A33",
"7  c #022324",
"8  c #0E393A",
"9  c #103C3C",
"0  c #242223",
"q  c #292627",
"w  c #292728",
"e  c #2C2A2B",
"r  c #26252F",
"t  c #2F2F30",
"y  c #323234",
"u  c #3C3C3D",
"i  c #40301C",
"p  c #4A3218",
"a  c #52371B",
"s  c #553B1C",
"d  c #463520",
"f  c #4E3B25",
"g  c #58422A",
"h  c #7C572F",
"j  c #654C31",
"k  c #675138",
"l  c #6B5338",
"z  c #00084B",
"x  c #001C44",
"c  c #000A54",
"v  c #0B155A",
"b  c #0A1257",
"n  c #023F40",
"m  c #000F69",
"M  c #04136C",
"N  c #0D176A",
"B  c #151E64",
"V  c #02137A",
"C  c #1F2B7C",
"Z  c #222660",
"A  c #134545",
"S  c #165455",
"D  c #254A4B",
"F  c #086768",
"G  c #026C6D",
"H  c #017B7C",
"J  c #007475",
"K  c #287677",
"L  c #444444",
"P  c #575757",
"I  c #5D5D5D",
"U  c #4A4B57",
"Y  c #414363",
"T  c #6F7878",
"R  c #7B7B7B",
"E  c #757477",
"W  c #8F6637",
"Q  c #9D6F3C",
"!  c #896946",
"~  c #94714B",
"^  c #A87742",
"/  c #A97942",
"(  c #A68055",
")  c #AF875A",
"_  c #B38A5D",
"`  c #BB9061",
"'  c #C79A67",
"]  c #D1A26E",
"[  c #DBA973",
"{  c #E1AD75",
"}  c #E6B27B",
"|  c #EBB67C",
" . c #EEB87D",
".. c #021586",
"X. c #01178D",
"o. c #011A98",
"O. c #003E88",
"+. c #2F379F",
"@. c #021FAD",
"#. c #021FB0",
"$. c #0422AE",
"%. c #0321B5",
"&. c #0E2BBA",
"*. c #0926B9",
"=. c #00479B",
"-. c #027F80",
";. c #0428D4",
":. c #062ADA",
">. c #0426CA",
",. c #032FEE",
"<. c #0333FF",
"1. c #0834FE",
"2. c #005BC4",
"3. c #005FCB",
"4. c #3D4BCB",
"5. c #0060CD",
"6. c #0067DA",
"7. c #0069DE",
"8. c #006FE9",
"9. c #006BE3",
"0. c #0073F3",
"q. c #0077FB",
"w. c #007AFF",
"e. c #087EFE",
"r. c #028283",
"t. c #07898A",
"y. c #0C8A8C",
"u. c #1F9596",
"i. c #239899",
"p. c #239798",
"a. c #319A9C",
"s. c #2F9FA0",
"d. c #2FA0A1",
"f. c #33A2A3",
"g. c #3DA8A9",
"h. c #3BA4A5",
"j. c #8B898F",
"k. c #969696",
"l. c #9D9D9D",
"z. c #B5B5B6",
"x. c #BCBCBF",
"c. c #A8A8A8",
"v. c #E4B081",
"b. c #C7C7C9",
"n. c #CDCDCD",
"m. c #C3C3C3",
"M. c #D0D0D2",
"N. c #DADADC",
"B. c #DCDCE2",
"V. c #E4E3E4",
"C. c #EBEBED",
"Z. c #E5E6FF",
"A. c #EAEDF8",
"S. c #FDFAF5",
"D. c #FFFFFF",
"F. c #F4F4F8",
/* pixels */
"q q q q q q q q q q q q q y q q M.n.M.C.C.C.C.C.D.D.C.D.D.D.D.C.q q q q q q q q q q q q q y q q M.M.M.C.C.C.C.C.D.D.C.D.D.D.D.C.",
"q q q q q q q q q q q q y q q q M.M.C.C.C.C.C.D.D.C.D.D.D.D.C.D.q q q q q q q q q q q q y q q q M.M.C.C.C.C.C.D.D.C.D.D.D.D.C.D.",
"q q q q q q q q q q q y q q q q M.C.C.C.C.C.D.D.C.D.D.D.D.C.D.D.q q q q q q q q q q q y q q q q M.C.C.C.C.C.D.D.C.D.D.D.D.C.D.D.",
"q q q q q q q q q q y q q q q q C.C.C.C.C.D.D.C.D.D.D.D.C.D.D.D.q q q q q q q q q q y q q q q q C.C.C.C.C.D.D.C.D.D.D.D.C.D.D.D.",
"q q q q q q q q q y q q q q q y C.C.C.C.D.D.C.D.D.D.D.C.D.D.D.D.q q q q q q q q q y q q q q q y C.C.C.C.D.D.C.D.D.D.D.C.D.D.D.D.",
"q q q q q q q q y q q q q q y y C.C.C.D.D.C.D.D.D.D.C.D.D.D.D.D.q q q q q q q q y q q q q q y y C.C.C.D.D.C.D.D.D.D.C.D.D.D.D.D.",
"q q q q q q q y q q q q q y y y C.C.D.D.C.D.D.D.D.C.D.D.D.D.D.D.q q q q q q q y q q q q q y y y C.C.D.D.C.D.D.D.D.C.D.D.D.D.D.D.",
"q q q q q q y q q q q q y y y y C.D.D.C.D.D.D.D.C.D.D.D.D.D.D.D.q q q q q q y q q q q q y y y y C.D.D.C.D.D.D.D.C.D.D.D.D.D.D.D.",
"q q q q q y q q q q q y y y y y D.D.C.D.D.D.D.C.D.D.D.D.D.D.D.D.q q q q q y q q q q q y y y y y D.D.C.D.D.D.D.C.D.D.D.D.D.D.D.D.",
"q q q q y q q q q q y y y y y L D.C.D.D.D.D.C.D.D.D.D.D.D.D.D.D.q q q q y q q q q q y y y y y L D.C.D.D.D.D.C.D.D.D.D.D.D.D.D.D.",
"q q q y q q q q q y y y y y L L C.D.D.D.D.C.D.D.D.D.D.D.D.D.D.D.q q q y q q q q q y y y y y L L C.D.D.D.D.C.D.D.D.D.D.D.D.D.D.D.",
"q q y q q q q q y y y y y L L y D.D.D.D.C.D.F.F.  =.x 4 % % % % % 5 O.O.  0 q q y y y y y L L y D.D.D.D.C.D.D.D.D.D.D.D.D.D.D.D.",
"q y q q q q q y y y y y L L y L D.D.D.n.  . 5 5 7.9.0.0.0.0.0.0.0.0.w.w.6.x     e e y y L L y L D.D.D.C.D.D.D.D.D.D.D.D.D.D.D.D.",
"y q q q q q y y y y y L L y L L D.F.y   2.q.8.8.w.w.w.w.w.w.w.w.w.w.w.w.w.q.q.8.o o ..L L y L L D.D.C.D.D.D.D.D.D.D.D.D.D.D.D.D.",
"q q q q q y y y y y L L y L L L S.V.u   2.q.8.8.w.w.w.w.w.w.w.w.w.w.w.w.w.q.q.8.o o ..L y L L L D.C.D.D.D.D.D.D.D.D.D.D.D.D.D.C.",
"q q q q y y y y y L L y L L L L x.n.3.0.w.w.w.w.w.w.w.w.w.w.w.w.w.w.0.0.w.w.w.w.0.0.3.z L L L L C.D.D.D.D.D.D.D.D.D.D.D.D.D.C.D.",
"M.M.M.C.C.C.C.C.D.D.C.D.D.D.S.P ,.,.w.w.w.w.w.w.w.w.w.w.w.w.w.w.w.w.w.w.w.w.w.w.w.w.e.  : D.D.C.q q q q q q q q q q q q q y q q ",
"M.M.C.C.C.C.C.D.D.C.D.D.D.D.b.  <.<.<.w.w.w.w.w.w.w.w.w.w.w.w.w.w.w.w.w.w.w.w.w.w.w.+.b.  N.C.D.q q q q q q q q q q q q y q q q ",
"M.C.C.C.C.C.D.D.C.D.D.D.D.C.. ,.<.,.<.<.<.<.<.<.w.w.w.w.w.w.w.w.w.w.q.q.0.<.<.<.:.:.U D.B.M D.D.q q q q q q q q q q q y q q q q ",
"C.C.C.C.C.D.D.C.D.D.D.D.C.D.c <.<.<.<.<.<.<.<.<.<.<.<.<.<.<.<.<.<.<.<.<.<.<.<.1.N N Z.C.k.b n.n.q q q q q q q q q q y q q q q q ",
"C.C.C.C.D.D.C.D.D.D.D.C.D.D.c ,.<.<.<.<.<.<.<.<.<.<.<.<.<.<.<.<.<.<.<.<.<.<.<.1.N N Z.C.k.v n.n.q q q q q q q q q y q q q q q y ",
"C.C.C.D.D.C.D.D.D.D.C.D.D.D.V <.<.<.<.<.<.<.<.<.<.<.<.<.<.<.<.<.<.<.<.<.<.<.<.<.    N.c.I 6 A.A.q q q q q q q q y q q q q q y y ",
"C.C.D.D.C.D.D.D.D.C.D.D.D.D.X.<.<.<.<.<.<.<.<.<.<.<.<.<.<.<.<.<.<.<.<.<.<.<.<.  F.F.z.D.E & F.F.r r w q q q q y q q q q q y y y ",
"C.D.D.C.D.D.D.D.C.D.D.D.D.D.X.q.<.<.<.<.<.<.<.<.<.<.<.<.<.<.<.<.<.<.<.<.<.<.<.  m.m.D.l.k.  N v V < w q q q y q q q q q y y y y ",
"D.D.C.D.D.D.D.C.D.D.D.D.D.D.X.w.<.<.<.<.<.<.<.<.<.<.<.<.<.<.<.<.<.<.<.<.<.<.1.  D.D.l.D.Z #.%.%.@.. q q q y q q q q q y y y y y ",
"D.C.D.D.D.D.C.D.D.D.D.D.D.D...<.<.<.<.<.<.<.<.<.<.<.<.<.<.<.<.<.<.<.<.<.<.<.<.Y l.l.D.  o #.%.%.$.  q q y q q q q q y y y y y L ",
"C.D.D.D.D.C.D.D.D.D.D.D.D.D...<.<.<.<.<.<.<.<.<.<.<.<.<.<.<.<.<.<.<.<.<.<.<.1.Y l.l.D.  o %.%.%.@.  q y q q q q q y y y y y L L ",
"D.D.D.D.C.D.D.D.D.D.D.D.D.D.V %.%.#.<.<.<.<.<.<.<.<.<.<.<.<.<.<.<.<.<.<.<.<.<.  C.C.E M %.%.%.%...: y q q q q q y y y y y L L y ",
"D.D.D.C.D.D.D.D.D.D.D.D.D.D.,.      %.%.<.<.<.<.<.<.<.<.<.<.<.<.<.<.<.<.<.<.<.<.      %.%.#.%.#.o ; q q q q q y y y y y L L y L ",
"D.D.C.D.D.D.D.D.D.D.D.D.D.D.S..     %.%.%.%.%.%.%.<.<.<.<.<.<.<.<.<.<.<.<.<.<.%.%.%.%.%.#.@.    ; q q q q q y y y y y L L y L L ",
"D.C.D.D.D.D.D.D.D.D.D.D.D.D.D.P       %.#.%.%.$.%.%.%.  %.%.%.%.%.*.&.&.&.*.%.%.  o       o S.C.q q q q q y y y y y L L y L L L ",
"C.D.D.D.D.D.D.D.D.D.D.D.D.D.C.D.            X X + +             v.}  .v.|      .} }  .  n.D.C.D.q q q q y y y y y L L y L L L L ",
"q q q q q q q q q q q q q y q q + +         X X u w             v.v.| | }     | } }  .  < y q q M.M.M.C.C.C.C.C.D.D.C.D.D.D.D.C.",
"q q q q q q q q q q q q y q q q g u       # ] ]  . .~       , f  . . . .v..    . . .| g y r q q M.M.C.C.C.C.C.D.D.C.D.D.D.D.C.D.",
"q q q q q q q q q q q y q q q q r u ;     > ) )  . .)       j _ [ |  . . .l g  . . .]   w q q q M.C.C.C.C.C.D.D.C.D.D.D.D.C.D.D.",
"q q q q q q q q q q y q q q q q B.B.u     . . X ! ]  . .> > ~ [  . . . . . . . . . .! 0 q q q q C.C.C.C.C.D.D.C.D.D.D.D.C.D.D.D.",
"q q q q q q q q q y q q q q q y M.B.M.;   X  . .|  .| | | |  . . . . . . . . .| [ [   0 q q q y C.C.C.C.D.D.C.D.D.D.D.C.D.D.D.D.",
"q q q q q q q q y q q q q q y y C.V.C.N.z.k | |  . . .|  . . . . . . . . .| ( p     q q q q y y C.C.C.D.D.C.D.D.D.D.C.D.D.D.D.D.",
"q q q q q q q y q q q q w y y y V.C.D.M.c.k |  . .|  . . . . . . . . . .| | ( d . . q q q y y y C.C.D.D.C.D.D.D.D.C.D.D.D.D.D.D.",
"q q q q q q y q q q q q y y y y C.D.S.B.S.T     i j |  . . . .|  .| { [ ]     L q q q w y y y y C.D.D.C.D.D.D.D.C.D.D.D.D.D.D.D.",
"q q q q q y q q q q q y y y y y D.D.C.D.S.D -.r.G A 7 *     O O O           0 q q q q y y y y y D.D.C.D.D.D.D.C.D.D.D.D.D.D.D.D.",
"q q q q y q q q q q y y y y y L D.C.D.D.D.A H H y.g.a.7 * * A 8 H t.g.g.s.H   q q q y y y y y L D.C.D.D.D.D.C.D.D.D.D.D.D.D.D.D.",
"q q q y q q q q q y y y y y L L C.D.D.D.F.O G G i.g.  H p.p.g.p.  i.g.g.p.J 7 q q y y y y y L L C.D.D.D.D.C.D.D.D.D.D.D.D.D.D.D.",
"q q y q q q q q y y y y y L L y D.D.D.D.C.- G G f.K   -.f.f.g.t.  f.g.g.t.r.* q y y y y y L L y D.D.D.D.C.D.D.D.D.D.D.D.D.D.D.D.",
"q y q q q q q y y y y y L L t L D.D.D.C.D.- G G f.K   H f.f.g.t.O f.g.g.t.r.7 y y y y y L L y L D.D.D.C.D.D.D.D.D.D.D.D.D.D.D.D.",
"y q q q q q y y y y y L L y L L D.D.C.D.D.+ F F h.S ' [ } |  .} _ 9 a.a.-.n   y y y y L L y L L D.D.C.D.D.D.D.D.D.D.D.D.D.D.D.D.",
"q q q q q y y y y y L L y L L L D.C.D.D.D.j.B B 4.C ( '  . . .| } v ;.;.%.o e y y y L L y L L L D.C.D.D.D.D.D.D.D.D.D.D.D.D.D.C.",
"q q q q y y y y y L L y L L L L C.D.D.D.D.D.R R + .    .|  .| [ z >.o.o.m   e y y L L y L L L L C.D.D.D.D.D.D.D.D.D.D.D.D.D.C.D.",
"M.M.M.C.C.C.C.C.D.D.C.D.D.D.D.C.q q q q q q q q q   h 3 s a 3 p / ^ Q Q W # V.C.D.D.C.D.D.D.D.C.q q q q q q q q q q q q q y q q ",
"M.M.C.C.C.C.C.D.D.C.D.D.D.D.C.D.q q q w q q q q q   s ^ ^ ^ / / / ^ ^ ^ ^ X C.D.D.C.D.D.D.D.C.D.q q q q q q q q q q q q y q q q ",
"M.C.C.C.C.C.D.D.C.D.D.D.D.C.D.D.q q q e w q q q q   s ^ ^ ^ ^ ^ / / ^ ^ ^ X D.D.C.S.D.D.D.C.D.D.q q q q q q q q q q q y q q q q ",
"C.C.C.C.C.D.D.C.D.D.D.D.C.D.D.D.q q q q q q q q q q   X , , $ @   $ s s 2 E F.C.D.D.D.D.C.D.D.D.q q q q q q q q q q y q q q q q ",
"C.C.C.C.D.D.C.D.D.D.D.C.D.D.D.D.q q q q q q q q q y q q q q q y C.C.C.C.D.D.C.D.D.D.D.C.D.D.D.D.q q q q q q q q q y q q q q q y ",
"C.C.C.D.D.C.D.D.D.D.C.D.D.D.D.D.q q q q q q q q y q q q q q y y C.C.C.D.D.C.D.D.D.D.C.D.D.D.D.D.q q q q q q q q y q q q q q y y ",
"C.C.D.D.C.D.D.D.D.C.D.D.D.D.D.D.q q q q q q q y q q q q q y y y C.C.D.D.C.D.D.D.D.C.D.D.D.D.D.D.q q q q q q q y q q q q q y y y ",
"C.D.D.C.D.D.D.D.C.D.D.D.D.D.D.D.q q q q q q y q q q q q y y y y C.D.D.C.D.D.D.D.C.D.D.D.D.D.D.D.q q q q q q y q q q q q y y y y ",
"D.D.C.D.D.D.D.C.D.D.D.D.D.D.D.D.q q q q q y q q q q q y y y y y D.D.C.D.D.D.D.C.D.D.D.D.D.D.D.D.q q q q q y q q q q q y y y y y ",
"D.C.D.D.D.D.C.D.D.D.D.D.D.D.D.D.q q q q y q q q q q y y y y y L D.C.D.D.D.D.C.D.D.D.D.D.D.D.D.D.q q q q y q q q q q y y y y y L ",
"C.D.D.D.D.C.D.D.D.D.D.D.D.D.D.D.q q q y q q q q q y y y y y L L C.D.D.D.D.C.D.D.D.D.D.D.D.D.D.D.q q q y q q q q q y y y y y L L ",
"D.D.D.D.C.D.D.D.D.D.D.D.D.D.D.D.q q y q q q q q y y y y y L L y D.D.D.D.C.D.D.D.D.D.D.D.D.D.D.D.q q y q q q q q y y y y y L L y ",
"D.D.D.C.D.D.D.D.D.D.D.D.D.D.D.D.q y q q q q q y y y y y L L y L D.D.D.C.D.D.D.D.D.D.D.D.D.D.D.D.q y q q q q q y y y y y L L y L ",
"D.D.C.D.D.D.D.D.D.D.D.D.D.D.D.D.y q q q q q y y y y y L L y L L D.D.C.D.D.D.D.D.D.D.D.D.D.D.D.D.y q q q q q y y y y y L L y L L ",
"D.C.D.D.D.D.D.D.D.D.D.D.D.D.D.C.q q q q q y y y y y L L y L L L D.C.D.D.D.D.D.D.D.D.D.D.D.D.D.C.q q q q q y y y y y L L y L L L ",
"C.D.D.D.D.D.D.D.D.D.D.D.D.D.C.D.q q q q y y y y y L L y L L L L C.D.D.D.D.D.D.D.D.D.D.D.D.D.C.D.q q q q y y y y y L L y L L L L "
};
