/* XPM */
static char *result[] = {
/* columns rows colors chars-per-pixel */
"64 64 54 1 ",
"  c #290C0C",
". c #491515",
"X c #4F2718",
"o c #7C92A3",
"O c #7EA0AF",
"+ c #AEB9C2",
"@ c #A75223",
"# c #B55C2A",
"$ c #BF782C",
"% c #B5C5CD",
"& c #CC8F4E",
"* c #2E1313",
"= c #2F1414",
"- c #2E1314",
"; c #301515",
": c #301516",
"> c #311617",
", c #321818",
"< c #321819",
"1 c #341A1B",
"2 c #351C1C",
"3 c #361C1D",
"4 c #331A1A",
"5 c #2C1011",
"6 c #321A1C",
"7 c #431B12",
"8 c #37140F",
"9 c #38170F",
"0 c #3A1913",
"q c #351511",
"w c #331410",
"e c #31120E",
"r c #30110E",
"t c #33130E",
"y c #35150F",
"u c #34120E",
"i c #31110E",
"p c #2E0F0D",
"a c #30100D",
"s c #2E100E",
"d c #32120E",
"f c #2F110D",
"g c #2F0F0D",
"h c #421A11",
"j c #39150F",
"k c #36150F",
"l c #321310",
"z c #2F110F",
"x c #2F110E",
"c c #2F100D",
"v c #32130E",
"b c #34140E",
"n c #35130F",
"m c #33110E",
/* pixels */
"          ..XXX   .X.    .XXX..           ..XXX   .X.    .XXX.. ",
"oooooooooooooooooooooooooooooooooooooooooooooooooooooooooooooooo",
"oooooooooooooooooooooooooooooooooooooooooooooooooooooooooooooooo",
"oooooooooooooooooooooooooooooooooooooooooooooooooooooooooooooooo",
"oooooooooooooooooooooooooooooooooooooooooooooooooooooooooooooooo",
"oooooooooooooooooooooooooooooooooooooooooooooooooooooooooooooooo",
"OOOOOOOOOOOOOOOOOOOOOOOOOOOOOOOOOOOOOOOOOOOOOOOOOOOOOOOOOOOOOOOO",
"++++++++++++++++++++++++++++++++++++++++++++++++++++++++++++++++",
"  ..     ...XX     ..     .XXX.   ..     ...XX     ..     .XXX. ",
"oooooooooooooooo @@@@@@@@@@@@@@@ @@@@@@@@@@@@@@@ @@@@@@@@@@@@@@@",
"oooooooooooooooo.@@@@@@@@@@@@@@@.@@@@@@@@@@@@@@@.@@@@@@@@@@@@@@@",
"ooooOOOOoooooooo.@@@@@@@@@@@@@@@.@@@@@@@@@@@@@@@.@@@@@@@@@@@@@@@",
"oOOOOOOOOOOOOooo.#####@@@@@@@@@@.@@@@@@@@@@@@@@@.#####@@@@@@@@@@",
"+++++++OOOOOoooo.@@####$$$######.@####@@##@@@@@@.@@####$$$######",
"+++++++++++++ooo ##$$$$$$$$$####.$$$$$$$$##@@@## ##$$$$$$$$$####",
"++%%%+++++++oooo $$&&&&$$$$#@@@@ #$&&&&$$$$$###@ $$&&&&$$$$#@@@@",
"    ..      ...           .X.       ..      ...           .X.   ",
"oooooooooo @@@@@@@@@@@@ @@@@@@@@@@@@@@@ @@@@@@@@@@@@@@@ @@@@@@@@",
"oooooooooo @@@@@@@@@@@@.@@@@@@@@@@@@@@@.@@@@@@@@@@@@@@@.@@@@@@@@",
"oooooooooo.@@@@@@@@@@@@X@@@@@@@@@@@@@@@.@@@@@@@@@@@@@@@X@@@@@@@@",
"ooOOOOoooo.#####@@@@@@@X@@@@@@@@@@@@@@@.@@######@@@@@@@X@@@@@@@@",
"OOOOOOOOoo.#######@@@@@X@#######@@@@@@@.##########@@@@@X@#######",
"+++++++OOo.$$$$$#######.###$$$$$##@@@@@.#$$$$$$$#######.###$$$$$",
"+%%++++++o.&&$$$$###### $$&&&&$$$$$$### $&&&&$$$$###### $$&&&&$$",
"  XX.       ...   ..      ..XX.   XX.       ...   ..      ..XX. ",
"oooooooooooooooo @@@@@@@@@@@@@@@ @@@@@@@@@@@@@@@ @@@@@@@@@@@@@@@",
"oooooooooooooooo.@@@###@@@@@@@@@.@@@@@@@@@@@@@@@.@@@###@@@@@@@@@",
"oooOOOOOOOoooooo.@#######@@@@@@@.@@@@@@@@@@@@@@@.@#######@@@@@@@",
"OOOOOOOOOOOOOOoo.@#######@@@@@@@X@###@@@@@@@@@@@.@#######@@@@@@@",
"++++++++++OOOOOo.########@@@@@@@.#########@@@@@@.########@@@@@@@",
"++++++++++++OOoo.#$$$$$$$$#@@@@@.#$$$$$$$$$$$$#@.#$$$$$$$$#@@@@@",
"+%%%+++++++++ooo ##$&&&$$$$$###@ $&&&$$$$$$$$### ##$&&&$$$$$###@",
"    ..     .XXX   .X.    .XXX..           ..XXX   .X.    .XXX.. ",
"oooooooooo @@@@@@@@@@@@ @@@@@@@@@@@@@@@ @@@@@@@@@@@@@@@ @@@@@@@@",
"oooooooooo @@@@@@@@@@@@.@@@@@@@@@@@@@@@.@@@@@@@@@@@@@@@.@@@@@@@@",
"oooooooooo.@@@@@@@@@@@@.@@###@@@@@@@@@@.@@@@@@@@@@@@@@@.@@###@@@",
"ooOOOOoooo.##@@@@@@@@@@X@#######@@@@@@@X@@@##@@@@@@@@@@X@#######",
"OOOOOOOOoo.###$$$$##@@@X@###########@@@X@@####$$$$##@@@X@#######",
"+++++++OOo.$$$$$$$$$#@@.$$$$$$$$$$@@@@@.#$$$$$$$$$$$#@@.$$$$$$$$",
"+%%++++++o.&&&&$$$#@@@@ @$&&$##@@##@@@@ $&&&&&&$$$#@@@@ @$&&$##@",
"  XX.      .XX     ..     .XXX.   ..     ...XX     ..     .XXX. ",
"oooooooooooooooo @@@@@@@@@@@@@@@ @@@@@@@@@@@@@@@ @@@@@@@@@@@@@@@",
"oooooooooooooooo.@@@@@@@@@@@@@@@.@@@@@@@@@@@@@@@.@@@@@@@@@@@@@@@",
"ooooOOOOoooooooo.@@@@@@@@@@@@@@@.@@@@@@@@@@@@@@@.@@@@@@@@@@@@@@@",
"oOOOOOOOOOOOOooo.#####@@@@@@@@@@.@@@@@@@@@@@@@@@.#####@@@@@@@@@@",
"+++++++OOOOOoooo.@@####$$$######.@####@@##@@@@@@.@@####$$$######",
"+++++++++++++ooo ##$$$$$$$$$####.$$$$$$$$##@@@## ##$$$$$$$$$####",
"++%%%+++++++oooo $$&&&&$$$$#@@@@ #$&&&&$$$$$###@ $$&&&&$$$$#@@@@",
"    ..      ...           .X.       ..      ...           .X.   ",
"oooooooooo @@@@@@@@@@@@ @@@@@@@@@@@@@@@ @@@@@@@@@@@@@@@ @@@@@@@@",
"oooooooooo @@@@@@@@@@@@.@@@@@@@@@@@@@@@.@@@@@@@@@@@@@@@.@@@@@@@@",
"oooooooooo.@@@@@@@@@@@@X@@@@@@@@@@@@@@@.@@@@@@@@@@@@@@@X@@@@@@@@",
"ooOOOOoooo.#####@@@@@@@X@@@@@@@@@@@@@@@.@@######@@@@@@@X@@@@@@@@",
"OOOOOOOOoo.#######@@@@@X@#######@@@@@@@.##########@@@@@X@#######",
"+++++++OOo.$$$$$#######.###$$$$$##@@@@@.#$$$$$$$#######.###$$$$$",
"+%%++++++o.&&$$$$###### $$&&&&$$$$$$### $&&&&$$$$###### $$&&&&$$",
"  XX.       ...   ..      ..XX.   XX.       ...   ..      ..XX. ",
"oooooooooooooooo @@@@@@@@@@@@@@@ @@@@@@@@@@@@@@@ @@@@@@@@@@@@@@@",
"oooooooooooooooo.@@@###@@@@@@@@@.@@@@@@@@@@@@@@@.@@@###@@@@@@@@@",
"oooOOOOOOOoooooo.@#######@@@@@@@.@@@@@@@@@@@@@@@.@#######@@@@@@@",
"OOOOOOOOOOOOOOoo.@#######@@@@@@@X@###@@@@@@@@@@@.@#######@@@@@@@",
"++++++++++OOOOOo.########@@@@@@@.#########@@@@@@.########@@@@@@@",
"++++++++++++OOoo.#$$$$$$$$#@@@@@.#$$$$$$$$$$$$#@.#$$$$$$$$#@@@@@",
"*=-;:>,<12334-56 7890qwerrtyuipa rsssprdderffgah jgklzxccdvb8num"
};
