/* XPM */
static char *result[] = {
/* columns rows colors chars-per-pixel */
"64 64 11 1 ",
"  c #290C0C",
". c #491515",
"X c #4F2718",
"o c #7C92A3",
"O c #7EA0AF",
"+ c #AEB9C2",
"@ c #A75223",
"# c #B55C2A",
"$ c #BF782C",
"% c #CC8F4E",
"& c #B5C5CD",
/* pixels */
"          ..XXX   .X.    .XXX..           ..XXX   .X.    .XXX.. ",
"oooooooooooooooooooooooooooooooooooooooooooooooooooooooooooooooo",
"oooooooooooooooooooooooooooooooooooooooooooooooooooooooooooooooo",
"oooooooooooooooooooooooooooooooooooooooooooooooooooooooooooooooo",
"oooooooooooooooooooooooooooooooooooooooooooooooooooooooooooooooo",
"oooooooooooooooooooooooooooooooooooooooooooooooooooooooooooooooo",
"OOOOOOOOOOOOOOOOOOOOOOOOOOOOOOOOOOOOOOOOOOOOOOOOOOOOOOOOOOOOOOOO",
"++++++++++++++++++++++++++++++++++++++++++++++++++++++++++++++++",
"  ..     ...XX     ..     .XXX.   ..     ...XX     ..     .XXX. ",
" @@@@@@@@@@@@@@@ @@@@@@@@@@@@@@@ @@@@@@@@@@@@@@@ ooooooooooooooo",
".@@@@@@@@@@@@@@@.@@@@@@@@@@@@@@@.@@@@@@@@@@@@@@@.ooooooooooooooo",
".@@@@@@@@@@@@@@@.@@@@@@@@@@@@@@@.@@@@@@@@@@@@@@@.ooooooooooooooo",
".@@@@@@@@@@@@@@@.#####@@@@@@@@@@.@@@@@@@@@@@@@@@.oooOOOOOOOOOOoo",
".@####@@##@@@@@@.@@####$$$######.@####@@##@@@@@@.ooOOOOOO+++++++",
".$$$$$$$$##@@@## ##$$$$$$$$$####.$$$$$$$$##@@@## oo+++++++++++++",
" #$%%%%$$$$$###@ $$%%%%$$$$#@@@@ #$%%%%$$$$$###@ ooo++++++++&&&+",
"    ..      ...           .X.       ..      ...           .X.   ",
"@@@@@@@ @@@@@@@@@@@@@@@ @@@@@@@@@@@@@@@ @@@@@@@@@@@@@ oooooooooo",
"@@@@@@@.@@@@@@@@@@@@@@@.@@@@@@@@@@@@@@@.@@@@@@@@@@@@@ oooooooooo",
"@@@@@@@.@@@@@@@@@@@@@@@X@@@@@@@@@@@@@@@.@@@@@@@@@@@@@.oooooooooo",
"@@@@@@@.@@######@@@@@@@X@@@@@@@@@@@@@@@.@@######@@@@@.oooOOOOOOO",
"@@@@@@@.##########@@@@@X@#######@@@@@@@.##########@@@.ooOOOOOOOO",
"##@@@@@.#$$$$$$$#######.###$$$$$##@@@@@.#$$$$$$$#####.oOO+++++++",
"$$$$### $%%%%$$$$###### $$%%%%$$$$$$### $%%%%$$$$####.o+++++&&++",
"  XX.       ...   ..      ..XX.   XX.       ...   ..      ..XX. ",
" @@@@@@@@@@@@@@@ @@@@@@@@@@@@@@@ @@@@@@@@@@@@@@@ ooooooooooooooo",
".@@@@@@@@@@@@@@@.@@@###@@@@@@@@@.@@@@@@@@@@@@@@@.ooooooooooooooo",
".@@@@@@@@@@@@@@@.@#######@@@@@@@.@@@@@@@@@@@@@@@.ooooooooooooooo",
"X@###@@@@@@@@@@@.@#######@@@@@@@X@###@@@@@@@@@@@.oooOOOOOOOOOOOo",
".#########@@@@@@.########@@@@@@@.#########@@@@@@.ooOOO+++++OOOOo",
".#$$$$$$$$$$$$#@.#$$$$$$$$#@@@@@.#$$$$$$$$$$$$#@.oOO++++++++++++",
" $%%%$$$$$$$$### ##$%%%$$$$$###@ $%%%$$$$$$$$### oO+++++++&&&+++",
" ..XXX.    .X.   XXX..           ..XXX.    .X.   XXX.     ..    ",
"@@@@@@@@ @@@@@@@@@@@@@@@ @@@@@@@@@@@@@@@ @@@@@@@@@@@@ oooooooooo",
"@@@@@@@@.@@@@@@@@@@@@@@@.@@@@@@@@@@@@@@@.@@@@@@@@@@@@ oooooooooo",
"@@@###@@.@@@@@@@@@@@@@@@.@@@@@@@@@@###@@.@@@@@@@@@@@@.oooooooooo",
"#######@X@@@@@@@@@@##@@@X@@@@@@@#######@X@@@@@@@@@@##.ooooOOOOoo",
"#######@X@@@##$$$$####@@X@@@###########@X@@@##$$$$###.ooOOOOOOOO",
"$$$$$$$$.@@#$$$$$$$$$$$#.@@@@@$$$$$$$$$$.@@#$$$$$$$$$.oOO+++++++",
"@##$%%$@ @@@@#$$$%%%%%%$ @@@@##@@##$%%$@ @@@@#$$$%%%%.o++++++&&+",
" .XXX.     ..     XX...     ..   .XXX.     ..     XX.      .XX  ",
"@@@@@@@@@@@@@@@ @@@@@@@@@@@@@@@ @@@@@@@@@@@@@@@ oooooooooooooooo",
"@@@@@@@@@@@@@@@.@@@@@@@@@@@@@@@.@@@@@@@@@@@@@@@.oooooooooooooooo",
"@@@@@@@@@@@@@@@.@@@@@@@@@@@@@@@.@@@@@@@@@@@@@@@.ooooooooOOOOoooo",
"@@@@@@@@@@#####.@@@@@@@@@@@@@@@.@@@@@@@@@@#####.oooOOOOOOOOOOOOo",
"######$$$####@@.@@@@@@##@@####@.######$$$####@@.ooooOOOOO+++++++",
"####$$$$$$$$$## ##@@@##$$$$$$$$.####$$$$$$$$$## ooo+++++++++++++",
"@@@@#$$$$%%%%$$ @###$$$$$%%%%$# @@@@#$$$$%%%%$$ oooo+++++++&&&++",
"   .X.           ...      ..       .X.           ...      ..    ",
"@@@@@@@@ @@@@@@@@@@@@@@@ @@@@@@@@@@@@@@@ @@@@@@@@@@@@ oooooooooo",
"@@@@@@@@.@@@@@@@@@@@@@@@.@@@@@@@@@@@@@@@.@@@@@@@@@@@@ oooooooooo",
"@@@@@@@@X@@@@@@@@@@@@@@@.@@@@@@@@@@@@@@@X@@@@@@@@@@@@.oooooooooo",
"@@@@@@@@X@@@@@@@######@@.@@@@@@@@@@@@@@@X@@@@@@@#####.ooooOOOOoo",
"#######@X@@@@@##########.@@@@@@@#######@X@@@@@#######.ooOOOOOOOO",
"$$$$$###.#######$$$$$$$#.@@@@@##$$$$$###.#######$$$$$.oOO+++++++",
"$$%%%%$$ ######$$$$%%%%$ ###$$$$$$%%%%$$ ######$$$$%%.o++++++&&+",
" .XX..      ..   ...       .XX   .XX..      ..   ...       .XX  ",
"@@@@@@@@@@@@@@@ @@@@@@@@@@@@@@@ @@@@@@@@@@@@@@@ oooooooooooooooo",
"@@@@@@@@@###@@@.@@@@@@@@@@@@@@@.@@@@@@@@@###@@@.oooooooooooooooo",
"@@@@@@@#######@.@@@@@@@@@@@@@@@.@@@@@@@#######@.ooooooOOOOOOOooo",
"@@@@@@@#######@.@@@@@@@@@@@###@X@@@@@@@#######@.ooOOOOOOOOOOOOOO",
"@@@@@@@########.@@@@@@#########.@@@@@@@########.oOOOOO++++++++++",
"@@@@@#$$$$$$$$#.@#$$$$$$$$$$$$#.@@@@@#$$$$$$$$#.ooOO++++++++++++",
"@###$$$$$%%%$## ###$$$$$$$$%%%$ @###$$$$$%%%$## ooo+++++++++&&&+"
};
