/* XPM */
static char *result[] = {
/* columns rows colors chars-per-pixel */
"64 64 10 1 ",
"  c #290C0C",
". c #491515",
"X c #4F2718",
"o c #7C92A3",
"O c #7EA0AF",
"+ c #AEB9C2",
"@ c #A75223",
"# c #B55C2A",
"$ c #BF782C",
"% c #CC8F4E",
/* pixels */
"          ..XXX   .X.    .XXX..           ..XXX   .X.    .XXX.. ",
"oooooooooooooooooooooooooooooooooooooooooooooooooooooooooooooooo",
"oooooooooooooooooooooooooooooooooooooooooooooooooooooooooooooooo",
"oooooooooooooooooooooooooooooooooooooooooooooooooooooooooooooooo",
"oooooooooooooooooooooooooooooooooooooooooooooooooooooooooooooooo",
"oooooooooooooooooooooooooooooooooooooooooooooooooooooooooooooooo",
"OOOOOOOOOOOOOOOOOOOOOOOOOOOOOOOOOOOOOOOOOOOOOOOOOOOOOOOOOOOOOOOO",
"++++++++++++++++++++++++++++++++++++++++++++++++++++++++++++++++",
"  ..     ...XX     ..     .XXX.   ..     ...XX     ..     .XXX. ",
" @@@@@@@@@@@@@@@ @@@@@@@@@@@@@@@ @@@@@@@@@@@@@@@ @@@@@@@@@@@@@@@",
".@@@@@@@@@@@@@@@.@@@@@@@@@@@@@@@.@@@@@@@@@@@@@@@.@@@@@@@@@@@@@@@",
".@@@@@@@@@@@@@@@.@@@@@@@@@@@@@@@.@@@@@@@@@@@@@@@.@@@@@@@@@@@@@@@",
".@@@@@@@@@@@@@@@.#####@@@@@@@@@@.@@@@@@@@@@@@@@@.#####@@@@@@@@@@",
".@####@@##@@@@@@.@@####$$$######.@####@@##@@@@@@.@@####$$$######",
".$$$$$$$$##@@@## ##$$$$$$$$$####.$$$$$$$$##@@@## ##$$$$$$$$$####",
" #$%%%%$$$$$###@ $$%%%%$$$$#@@@@ #$%%%%$$$$$###@ $$%%%%$$$$#@@@@",
"    ..      ...           .X.       ..      ...           .X.   ",
"@@@@@@@ @@@@@@@@@@@@@@@ @@@@@@@@@@@@@@@ @@@@@@@@@@@@@@@ @@@@@@@@",
"@@@@@@@.@@@@@@@@@@@@@@@.@@@@@@@@@@@@@@@.@@@@@@@@@@@@@@@.@@@@@@@@",
"@@@@@@@.@@@@@@@@@@@@@@@X@@@@@@@@@@@@@@@.@@@@@@@@@@@@@@@X@@@@@@@@",
"@@@@@@@.@@######@@@@@@@X@@@@@@@@@@@@@@@.@@######@@@@@@@X@@@@@@@@",
"@@@@@@@.##########@@@@@X@#######@@@@@@@.##########@@@@@X@#######",
"##@@@@@.#$$$$$$$#######.###$$$$$##@@@@@.#$$$$$$$#######.###$$$$$",
"$$$$### $%%%%$$$$###### $$%%%%$$$$$$### $%%%%$$$$###### $$%%%%$$",
"  XX.       ...   ..      ..XX.   XX.       ...   ..      ..XX. ",
" @@@@@@@@@@@@@@@ @@@@@@@@@@@@@@@ @@@@@@@@@@@@@@@ @@@@@@@@@@@@@@@",
".@@@@@@@@@@@@@@@.@@@###@@@@@@@@@.@@@@@@@@@@@@@@@.@@@###@@@@@@@@@",
".@@@@@@@@@@@@@@@.@#######@@@@@@@.@@@@@@@@@@@@@@@.@#######@@@@@@@",
"X@###@@@@@@@@@@@.@#######@@@@@@@X@###@@@@@@@@@@@.@#######@@@@@@@",
".#########@@@@@@.########@@@@@@@.#########@@@@@@.########@@@@@@@",
".#$$$$$$$$$$$$#@.#$$$$$$$$#@@@@@.#$$$$$$$$$$$$#@.#$$$$$$$$#@@@@@",
" $%%%$$$$$$$$### ##$%%%$$$$$###@ $%%%$$$$$$$$### ##$%%%$$$$$###@",
"          ..XXX   .X.    .XXX..           ..XXX   .X.    .XXX.. ",
"@@@@@@@ @@@@@@@@@@@@@@@ @@@@@@@@@@@@@@@ @@@@@@@@@@@@@@@ @@@@@@@@",
"@@@@@@@.@@@@@@@@@@@@@@@.@@@@@@@@@@@@@@@.@@@@@@@@@@@@@@@.@@@@@@@@",
"@@@@@@@.@@@@@@@@@@@@@@@.@@###@@@@@@@@@@.@@@@@@@@@@@@@@@.@@###@@@",
"@@@@@@@X@@@##@@@@@@@@@@X@#######@@@@@@@X@@@##@@@@@@@@@@X@#######",
"####@@@X@@####$$$$##@@@X@###########@@@X@@####$$$$##@@@X@#######",
"$$@@@@@.#$$$$$$$$$$$#@@.$$$$$$$$$$@@@@@.#$$$$$$$$$$$#@@.$$$$$$$$",
"@##@@@@ $%%%%%%$$$#@@@@ @$%%$##@@##@@@@ $%%%%%%$$$#@@@@ @$%%$##@",
"  ..     ...XX     ..     .XXX.   ..     ...XX     ..     .XXX. ",
" @@@@@@@@@@@@@@@ @@@@@@@@@@@@@@@ @@@@@@@@@@@@@@@ @@@@@@@@@@@@@@@",
".@@@@@@@@@@@@@@@.@@@@@@@@@@@@@@@.@@@@@@@@@@@@@@@.@@@@@@@@@@@@@@@",
".@@@@@@@@@@@@@@@.@@@@@@@@@@@@@@@.@@@@@@@@@@@@@@@.@@@@@@@@@@@@@@@",
".@@@@@@@@@@@@@@@.#####@@@@@@@@@@.@@@@@@@@@@@@@@@.#####@@@@@@@@@@",
".@####@@##@@@@@@.@@####$$$######.@####@@##@@@@@@.@@####$$$######",
".$$$$$$$$##@@@## ##$$$$$$$$$####.$$$$$$$$##@@@## ##$$$$$$$$$####",
" #$%%%%$$$$$###@ $$%%%%$$$$#@@@@ #$%%%%$$$$$###@ $$%%%%$$$$#@@@@",
"    ..      ...           .X.       ..      ...           .X.   ",
"@@@@@@@ @@@@@@@@@@@@@@@ @@@@@@@@@@@@@@@ @@@@@@@@@@@@@@@ @@@@@@@@",
"@@@@@@@.@@@@@@@@@@@@@@@.@@@@@@@@@@@@@@@.@@@@@@@@@@@@@@@.@@@@@@@@",
"@@@@@@@.@@@@@@@@@@@@@@@X@@@@@@@@@@@@@@@.@@@@@@@@@@@@@@@X@@@@@@@@",
"@@@@@@@.@@######@@@@@@@X@@@@@@@@@@@@@@@.@@######@@@@@@@X@@@@@@@@",
"@@@@@@@.##########@@@@@X@#######@@@@@@@.##########@@@@@X@#######",
"##@@@@@.#$$$$$$$#######.###$$$$$##@@@@@.#$$$$$$$#######.###$$$$$",
"$$$$### $%%%%$$$$###### $$%%%%$$$$$$### $%%%%$$$$###### $$%%%%$$",
"  XX.       ...   ..      ..XX.   XX.       ...   ..      ..XX. ",
" @@@@@@@@@@@@@@@ @@@@@@@@@@@@@@@ @@@@@@@@@@@@@@@ @@@@@@@@@@@@@@@",
".@@@@@@@@@@@@@@@.@@@###@@@@@@@@@.@@@@@@@@@@@@@@@.@@@###@@@@@@@@@",
".@@@@@@@@@@@@@@@.@#######@@@@@@@.@@@@@@@@@@@@@@@.@#######@@@@@@@",
"X@###@@@@@@@@@@@.@#######@@@@@@@X@###@@@@@@@@@@@.@#######@@@@@@@",
".#########@@@@@@.########@@@@@@@.#########@@@@@@.########@@@@@@@",
".#$$$$$$$$$$$$#@.#$$$$$$$$#@@@@@.#$$$$$$$$$$$$#@.#$$$$$$$$#@@@@@",
" $%%%$$$$$$$$### ##$%%%$$$$$###@ $%%%$$$$$$$$### ##$%%%$$$$$###@"
};
