/* XPM */
static char *result[] = {
/* columns rows colors chars-per-pixel */
"64 64 11 1 ",
"  c #290C0C",
". c #BF782C",
"X c #CC8F4E",
"o c #B55C2A",
"O c #A75223",
"+ c #7C92A3",
"@ c #7EA0AF",
"# c #AEB9C2",
"$ c #B5C5CD",
"% c #491515",
"& c #4F2718",
/* pixels */
" .XXX........ooo oo.XXX.....oooO .XXX........ooo +@#######$$$###",
"%o............oO%o........oOOOOO%o............oO%+@@############",
"%oooooooooOOOOOO%ooooooooOOOOOOO%oooooooooOOOOOO%++@@@#####@@@@+",
"&OoooOOOOOOOOOOO%OoooooooOOOOOOO&OoooOOOOOOOOOOO%+++@@@@@@@@@@@+",
"%OOOOOOOOOOOOOOO%OoooooooOOOOOOO%OOOOOOOOOOOOOOO%+++++++++++++++",
"%OOOOOOOOOOOOOOO%OOOoooOOOOOOOOO%OOOOOOOOOOOOOOO%+++++++++++++++",
" OOOOOOOOOOOOOOO OOOOOOOOOOOOOOO OOOOOOOOOOOOOOO +++++++++++++++",
"  &&%       %%%   %%      %%&&%   &&%       %%%   %%      %%&&% ",
"....ooo .XXXX....oooooo ..XXXX......ooo .XXXX....oooo%+#####$$##",
"ooOOOOO%o.......ooooooo%ooo.....ooOOOOO%o.......ooooo%+@@#######",
"OOOOOOO%ooooooooooOOOOO&OoooooooOOOOOOO%ooooooooooOOO%++@@@@@@@@",
"OOOOOOO%OOooooooOOOOOOO&OOOOOOOOOOOOOOO%OOooooooOOOOO%+++@@@@@@@",
"OOOOOOO%OOOOOOOOOOOOOOO&OOOOOOOOOOOOOOO%OOOOOOOOOOOOO%++++++++++",
"OOOOOOO%OOOOOOOOOOOOOOO%OOOOOOOOOOOOOOO%OOOOOOOOOOOOO ++++++++++",
"OOOOOOO OOOOOOOOOOOOOOO OOOOOOOOOOOOOOO OOOOOOOOOOOOO ++++++++++",
"    %%      %%%           %&%       %%      %%%           %&%   ",
" o.XXXX.....oooO ..XXXX....oOOOO o.XXXX.....oooO +++########$$$#",
"%........ooOOOoo oo.........oooo%........ooOOOoo ++#############",
"%OooooOOooOOOOOO%OOoooo...oooooo%OooooOOooOOOOOO%++@@@@@@#######",
"%OOOOOOOOOOOOOOO%oooooOOOOOOOOOO%OOOOOOOOOOOOOOO%+++@@@@@@@@@@++",
"%OOOOOOOOOOOOOOO%OOOOOOOOOOOOOOO%OOOOOOOOOOOOOOO%+++++++++++++++",
"%OOOOOOOOOOOOOOO%OOOOOOOOOOOOOOO%OOOOOOOOOOOOOOO%+++++++++++++++",
" OOOOOOOOOOOOOOO OOOOOOOOOOOOOOO OOOOOOOOOOOOOOO +++++++++++++++",
"  %%     %%%&&     %%     %&&&%   %%     %%%&&     %%     %&&&% ",
"OooOOOO .XXXXXX...oOOOO O.XX.ooOOooOOOO .XXXXXX...oOO%+#####$$##",
"..OOOOO%o...........oOO%..........OOOOO%o...........o%+@@#######",
"ooooOOO&OOoooo....ooOOO&OoooooooooooOOO&OOoooo....ooO%++@@@@@@@@",
"OOOOOOO&OOOooOOOOOOOOOO&OoooooooOOOOOOO&OOOooOOOOOOOO%+++@@@@@@@",
"OOOOOOO%OOOOOOOOOOOOOOO%OOoooOOOOOOOOOO%OOOOOOOOOOOOO%++++++++++",
"OOOOOOO%OOOOOOOOOOOOOOO%OOOOOOOOOOOOOOO%OOOOOOOOOOOOO ++++++++++",
"OOOOOOO OOOOOOOOOOOOOOO OOOOOOOOOOOOOOO OOOOOOOOOOOOO ++++++++++",
"          %%&&&   %&%    %&&&%%           %%&&&   %&%     %&%   ",
" .XXX........ooo oo.XXX.....oooO .XXX........ooo +@#######$$$###",
"%o............oO%o........oOOOOO%o............oO%+@@############",
"%oooooooooOOOOOO%ooooooooOOOOOOO%oooooooooOOOOOO%++@@@#####@@@@+",
"&OoooOOOOOOOOOOO%OoooooooOOOOOOO&OoooOOOOOOOOOOO%+++@@@@@@@@@@@+",
"%OOOOOOOOOOOOOOO%OoooooooOOOOOOO%OOOOOOOOOOOOOOO%+++++++++++++++",
"%OOOOOOOOOOOOOOO%OOOoooOOOOOOOOO%OOOOOOOOOOOOOOO%+++++++++++++++",
" OOOOOOOOOOOOOOO OOOOOOOOOOOOOOO OOOOOOOOOOOOOOO +++++++++++++++",
"  &&%       %%%   %%      %%&&%   &&%       %%%   %%      %%&&% ",
"....ooo .XXXX....oooooo ..XXXX......ooo .XXXX....oooo%+#####$$##",
"ooOOOOO%o.......ooooooo%ooo.....ooOOOOO%o.......ooooo%+@@#######",
"OOOOOOO%ooooooooooOOOOO&OoooooooOOOOOOO%ooooooooooOOO%++@@@@@@@@",
"OOOOOOO%OOooooooOOOOOOO&OOOOOOOOOOOOOOO%OOooooooOOOOO%+++@@@@@@@",
"OOOOOOO%OOOOOOOOOOOOOOO&OOOOOOOOOOOOOOO%OOOOOOOOOOOOO%++++++++++",
"OOOOOOO%OOOOOOOOOOOOOOO%OOOOOOOOOOOOOOO%OOOOOOOOOOOOO ++++++++++",
"OOOOOOO OOOOOOOOOOOOOOO OOOOOOOOOOOOOOO OOOOOOOOOOOOO ++++++++++",
"    %%      %%%           %&%       %%      %%%           %&%   ",
" o.XXXX.....oooO ..XXXX....oOOOO o.XXXX.....oooO +++########$$$#",
"%........ooOOOoo oo.........oooo%........ooOOOoo ++#############",
"%OooooOOooOOOOOO%OOoooo...oooooo%OooooOOooOOOOOO%++@@@@@@#######",
"%OOOOOOOOOOOOOOO%oooooOOOOOOOOOO%OOOOOOOOOOOOOOO%+++@@@@@@@@@@++",
"%OOOOOOOOOOOOOOO%OOOOOOOOOOOOOOO%OOOOOOOOOOOOOOO%+++++++++++++++",
"%OOOOOOOOOOOOOOO%OOOOOOOOOOOOOOO%OOOOOOOOOOOOOOO%+++++++++++++++",
" OOOOOOOOOOOOOOO OOOOOOOOOOOOOOO OOOOOOOOOOOOOOO +++++++++++++++",
"  %%     %%%&&     %%     %&&&%   %%     %%%&&     %%     %&&&% ",
"OooOOOO .XXXXXX...oOOOO O.XX.ooOOooOOOO .XXXXXX...oOO%+#####$$##",
"..OOOOO%o...........oOO%..........OOOOO%o...........o%+@@#######",
"ooooOOO&OOoooo....ooOOO&OoooooooooooOOO&OOoooo....ooO%++@@@@@@@@",
"OOOOOOO&OOOooOOOOOOOOOO&OoooooooOOOOOOO&OOOooOOOOOOOO%+++@@@@@@@",
"OOOOOOO%OOOOOOOOOOOOOOO%OOoooOOOOOOOOOO%OOOOOOOOOOOOO%++++++++++",
"OOOOOOO%OOOOOOOOOOOOOOO%OOOOOOOOOOOOOOO%OOOOOOOOOOOOO ++++++++++",
"OOOOOOO OOOOOOOOOOOOOOO OOOOOOOOOOOOOOO OOOOOOOOOOOOO ++++++++++",
"          %%&&&   %&%    %&&&%%           %%&&&   %&%     %&%   "
};
