/* XPM */
static char *result[] = {
/* columns rows colors chars-per-pixel */
"64 64 11 1 ",
"  c #AEB9C2",
". c #B5C5CD",
"X c #7C92A3",
"o c #290C0C",
"O c #B55C2A",
"+ c #BF782C",
"@ c #CC8F4E",
"# c #A75223",
"$ c #7EA0AF",
"% c #491515",
"& c #4F2718",
/* pixels */
" ...         XXXoOO+@@@+++++OOO#o+@@@++++++++OOOoOO+@@@+++++OOO#",
"            $$XX%O++++++++O#####%O++++++++++++O#%O++++++++O#####",
"          $$$$$X%OOOOOOOO#######%OOOOOOOOO######%OOOOOOOO#######",
"$$$$$$$$$$$$$$XX%#OOOOOOO#######&#OOO###########%#OOOOOOO#######",
"XXX$$$$$$$XXXXXX%#OOOOOOO#######%###############%#OOOOOOO#######",
"XXXXXXXXXXXXXXXX%###OOO#########%###############%###OOO#########",
"XXXXXXXXXXXXXXXXo###############o###############o###############",
"oo&&%ooooooo%%%ooo%%oooooo%%&&%ooo&&%ooooooo%%%ooo%%oooooo%%&&%o",
" ..      X%@@++++OOOOOOo++@@@@++++++OOOo+@@@@++++OOOOOOo++@@@@++",
"       $$X%+++++OOOOOOO%OOO+++++OO#####%O+++++++OOOOOOO%OOO+++++",
"$$$$$$$$XX%OOOOOOO#####&#OOOOOOO#######%OOOOOOOOOO#####&#OOOOOOO",
"XX$$$$XXXX%OOOOO#######&###############%##OOOOOO#######&########",
"XXXXXXXXXX%############&###############%###############&########",
"XXXXXXXXXXo############%###############%###############%########",
"XXXXXXXXXXo############o###############o###############o########",
"oooo%%oooooo%%%ooooooooooo%&%ooooooo%%oooooo%%%ooooooooooo%&%ooo",
"  ...       XXXXo++@@@@++++O####oO+@@@@+++++OOO#o++@@@@++++O####",
"             XXXoOO+++++++++OOOO%++++++++OO###OOoOO+++++++++OOOO",
"       $$$$$XXXX%##OOOO+++OOOOOO%#OOOO##OO######%##OOOO+++OOOOOO",
"X$$$$$$$$$$$$XXX%OOOOO##########%###############%OOOOO##########",
"XXXX$$$$XXXXXXXX%###############%###############%###############",
"XXXXXXXXXXXXXXXX%###############%###############%###############",
"XXXXXXXXXXXXXXXXo###############o###############o###############",
"oo&&%oooooo%&&ooooo%%ooooo%&&&%ooo%%ooooo%%%&&ooooo%%ooooo%&&&%o",
" ..      X%@@@@+++O####o#+@@+OO##OO####o+@@@@@@+++O####o#+@@+OO#",
"       $$X%+++++++++O##%++++++++++#####%O+++++++++++O##%++++++++",
"$$$$$$$$XX%OOO++++OO###&#OOOOOOOOOOO###&##OOOO++++OO###&#OOOOOOO",
"XX$$$$XXXX%OO##########&#OOOOOOO#######&###OO##########&#OOOOOOO",
"XXXXXXXXXX%############%##OOO##########%###############%##OOO###",
"XXXXXXXXXXo############%###############%###############%########",
"XXXXXXXXXXo############o###############o###############o########",
"oooo%%ooooo%&&&ooo%&%oooo%&&&%%ooooooooooo%%&&&ooo%&%oooo%&&&%%o",
" ...         XXXoOO+@@@+++++OOO#o+@@@++++++++OOOoOO+@@@+++++OOO#",
"            $$XX%O++++++++O#####%O++++++++++++O#%O++++++++O#####",
"          $$$$$X%OOOOOOOO#######%OOOOOOOOO######%OOOOOOOO#######",
"$$$$$$$$$$$$$$XX%#OOOOOOO#######&#OOO###########%#OOOOOOO#######",
"XXX$$$$$$$XXXXXX%#OOOOOOO#######%###############%#OOOOOOO#######",
"XXXXXXXXXXXXXXXX%###OOO#########%###############%###OOO#########",
"XXXXXXXXXXXXXXXXo###############o###############o###############",
"oo&&%ooooooo%%%ooo%%oooooo%%&&%ooo&&%ooooooo%%%ooo%%oooooo%%&&%o",
" ..      X%@@++++OOOOOOo++@@@@++++++OOOo+@@@@++++OOOOOOo++@@@@++",
"       $$X%+++++OOOOOOO%OOO+++++OO#####%O+++++++OOOOOOO%OOO+++++",
"$$$$$$$$XX%OOOOOOO#####&#OOOOOOO#######%OOOOOOOOOO#####&#OOOOOOO",
"XX$$$$XXXX%OOOOO#######&###############%##OOOOOO#######&########",
"XXXXXXXXXX%############&###############%###############&########",
"XXXXXXXXXXo############%###############%###############%########",
"XXXXXXXXXXo############o###############o###############o########",
"oooo%%oooooo%%%ooooooooooo%&%ooooooo%%oooooo%%%ooooooooooo%&%ooo",
"  ...       XXXXo++@@@@++++O####oO+@@@@+++++OOO#o++@@@@++++O####",
"             XXXoOO+++++++++OOOO%++++++++OO###OOoOO+++++++++OOOO",
"       $$$$$XXXX%##OOOO+++OOOOOO%#OOOO##OO######%##OOOO+++OOOOOO",
"X$$$$$$$$$$$$XXX%OOOOO##########%###############%OOOOO##########",
"XXXX$$$$XXXXXXXX%###############%###############%###############",
"XXXXXXXXXXXXXXXX%###############%###############%###############",
"XXXXXXXXXXXXXXXXo###############o###############o###############",
"oo&&%oooooo%&&ooooo%%ooooo%&&&%ooo%%ooooo%%%&&ooooo%%ooooo%&&&%o",
" ..      X%@@@@+++O####o#+@@+OO##OO####o+@@@@@@+++O####o#+@@+OO#",
"       $$X%+++++++++O##%++++++++++#####%O+++++++++++O##%++++++++",
"$$$$$$$$XX%OOO++++OO###&#OOOOOOOOOOO###&##OOOO++++OO###&#OOOOOOO",
"XX$$$$XXXX%OO##########&#OOOOOOO#######&###OO##########&#OOOOOOO",
"XXXXXXXXXX%############%##OOO##########%###############%##OOO###",
"XXXXXXXXXXo############%###############%###############%########",
"XXXXXXXXXXo############o###############o###############o########",
"oooo%%ooooo%&&&ooo%&%oooo%&&&%%ooooooooooo%%&&&ooo%&%oooo%&&&%%o"
};
