/* XPM */
static char *result[] = {
/* columns rows colors chars-per-pixel */
"64 64 10 1 ",
"  c #290C0C",
". c #BF782C",
"X c #CC8F4E",
"o c #B55C2A",
"O c #A75223",
"+ c #491515",
"@ c #4F2718",
"# c #AEB9C2",
"$ c #7EA0AF",
"% c #7C92A3",
/* pixels */
" .XXX........ooo oo.XXX.....oooO .XXX........ooo oo.XXX.....oooO",
"+o............oO+o........oOOOOO+o............oO+o........oOOOOO",
"+oooooooooOOOOOO+ooooooooOOOOOOO+oooooooooOOOOOO+ooooooooOOOOOOO",
"@OoooOOOOOOOOOOO+OoooooooOOOOOOO@OoooOOOOOOOOOOO+OoooooooOOOOOOO",
"+OOOOOOOOOOOOOOO+OoooooooOOOOOOO+OOOOOOOOOOOOOOO+OoooooooOOOOOOO",
"+OOOOOOOOOOOOOOO+OOOoooOOOOOOOOO+OOOOOOOOOOOOOOO+OOOoooOOOOOOOOO",
" OOOOOOOOOOOOOOO OOOOOOOOOOOOOOO OOOOOOOOOOOOOOO OOOOOOOOOOOOOOO",
"  @@+       +++   ++      ++@@+   @@+       +++   ++      ++@@+ ",
"....ooo .XXXX....oooooo ..XXXX......ooo .XXXX....oooooo ..XXXX..",
"ooOOOOO+o.......ooooooo+ooo.....ooOOOOO+o.......ooooooo+ooo.....",
"OOOOOOO+ooooooooooOOOOO@OoooooooOOOOOOO+ooooooooooOOOOO@Oooooooo",
"OOOOOOO+OOooooooOOOOOOO@OOOOOOOOOOOOOOO+OOooooooOOOOOOO@OOOOOOOO",
"OOOOOOO+OOOOOOOOOOOOOOO@OOOOOOOOOOOOOOO+OOOOOOOOOOOOOOO@OOOOOOOO",
"OOOOOOO+OOOOOOOOOOOOOOO+OOOOOOOOOOOOOOO+OOOOOOOOOOOOOOO+OOOOOOOO",
"OOOOOOO OOOOOOOOOOOOOOO OOOOOOOOOOOOOOO OOOOOOOOOOOOOOO OOOOOOOO",
"    ++      +++           +@+       ++      +++           +@+   ",
" o.XXXX.....oooO ..XXXX....oOOOO o.XXXX.....oooO ..XXXX....oOOOO",
"+........ooOOOoo oo.........oooo+........ooOOOoo oo.........oooo",
"+OooooOOooOOOOOO+OOoooo...oooooo+OooooOOooOOOOOO+OOoooo...oooooo",
"+OOOOOOOOOOOOOOO+oooooOOOOOOOOOO+OOOOOOOOOOOOOOO+oooooOOOOOOOOOO",
"+OOOOOOOOOOOOOOO+OOOOOOOOOOOOOOO+OOOOOOOOOOOOOOO+OOOOOOOOOOOOOOO",
"+OOOOOOOOOOOOOOO+OOOOOOOOOOOOOOO+OOOOOOOOOOOOOOO+OOOOOOOOOOOOOOO",
" OOOOOOOOOOOOOOO OOOOOOOOOOOOOOO OOOOOOOOOOOOOOO OOOOOOOOOOOOOOO",
"  ++     +++@@     ++     +@@@+   ++     +++@@     ++     +@@@+ ",
"OooOOOO .XXXXXX...oOOOO O.XX.ooOOooOOOO .XXXXXX...oOOOO O.XX.ooO",
"..OOOOO+o...........oOO+..........OOOOO+o...........oOO+........",
"ooooOOO@OOoooo....ooOOO@OoooooooooooOOO@OOoooo....ooOOO@Oooooooo",
"OOOOOOO@OOOooOOOOOOOOOO@OoooooooOOOOOOO@OOOooOOOOOOOOOO@Oooooooo",
"OOOOOOO+OOOOOOOOOOOOOOO+OOoooOOOOOOOOOO+OOOOOOOOOOOOOOO+OOoooOOO",
"OOOOOOO+OOOOOOOOOOOOOOO+OOOOOOOOOOOOOOO+OOOOOOOOOOOOOOO+OOOOOOOO",
"OOOOOOO OOOOOOOOOOOOOOO OOOOOOOOOOOOOOO OOOOOOOOOOOOOOO OOOOOOOO",
"          ++@@@   +@+    +@@@++           ++@@@   +@+    +@@@++ ",
" .XXX........ooo oo.XXX.....oooO .XXX........ooo oo.XXX.....oooO",
"+o............oO+o........oOOOOO+o............oO+o........oOOOOO",
"+oooooooooOOOOOO+ooooooooOOOOOOO+oooooooooOOOOOO+ooooooooOOOOOOO",
"@OoooOOOOOOOOOOO+OoooooooOOOOOOO@OoooOOOOOOOOOOO+OoooooooOOOOOOO",
"+OOOOOOOOOOOOOOO+OoooooooOOOOOOO+OOOOOOOOOOOOOOO+OoooooooOOOOOOO",
"+OOOOOOOOOOOOOOO+OOOoooOOOOOOOOO+OOOOOOOOOOOOOOO+OOOoooOOOOOOOOO",
" OOOOOOOOOOOOOOO OOOOOOOOOOOOOOO OOOOOOOOOOOOOOO OOOOOOOOOOOOOOO",
"  @@+       +++   ++      ++@@+   @@+       +++   ++      ++@@+ ",
"....ooo .XXXX....oooooo ..XXXX......ooo .XXXX....oooooo ..XXXX..",
"ooOOOOO+o.......ooooooo+ooo.....ooOOOOO+o.......ooooooo+ooo.....",
"OOOOOOO+ooooooooooOOOOO@OoooooooOOOOOOO+ooooooooooOOOOO@Oooooooo",
"OOOOOOO+OOooooooOOOOOOO@OOOOOOOOOOOOOOO+OOooooooOOOOOOO@OOOOOOOO",
"OOOOOOO+OOOOOOOOOOOOOOO@OOOOOOOOOOOOOOO+OOOOOOOOOOOOOOO@OOOOOOOO",
"OOOOOOO+OOOOOOOOOOOOOOO+OOOOOOOOOOOOOOO+OOOOOOOOOOOOOOO+OOOOOOOO",
"OOOOOOO OOOOOOOOOOOOOOO OOOOOOOOOOOOOOO OOOOOOOOOOOOOOO OOOOOOOO",
"    ++      +++           +@+       ++      +++           +@+   ",
" o.XXXX.....oooO ..XXXX....oOOOO o.XXXX.....oooO ..XXXX....oOOOO",
"+........ooOOOoo oo.........oooo+........ooOOOoo oo.........oooo",
"+OooooOOooOOOOOO+OOoooo...oooooo+OooooOOooOOOOOO+OOoooo...oooooo",
"+OOOOOOOOOOOOOOO+oooooOOOOOOOOOO+OOOOOOOOOOOOOOO+oooooOOOOOOOOOO",
"+OOOOOOOOOOOOOOO+OOOOOOOOOOOOOOO+OOOOOOOOOOOOOOO+OOOOOOOOOOOOOOO",
"+OOOOOOOOOOOOOOO+OOOOOOOOOOOOOOO+OOOOOOOOOOOOOOO+OOOOOOOOOOOOOOO",
" OOOOOOOOOOOOOOO OOOOOOOOOOOOOOO OOOOOOOOOOOOOOO OOOOOOOOOOOOOOO",
"  ++     +++@@     ++     +@@@+   ++     +++@@     ++     +@@@+ ",
"################################################################",
"$$$$$$$$$$$$$$$$$$$$$$$$$$$$$$$$$$$$$$$$$$$$$$$$$$$$$$$$$$$$$$$$",
"%%%%%%%%%%%%%%%%%%%%%%%%%%%%%%%%%%%%%%%%%%%%%%%%%%%%%%%%%%%%%%%%",
"%%%%%%%%%%%%%%%%%%%%%%%%%%%%%%%%%%%%%%%%%%%%%%%%%%%%%%%%%%%%%%%%",
"%%%%%%%%%%%%%%%%%%%%%%%%%%%%%%%%%%%%%%%%%%%%%%%%%%%%%%%%%%%%%%%%",
"%%%%%%%%%%%%%%%%%%%%%%%%%%%%%%%%%%%%%%%%%%%%%%%%%%%%%%%%%%%%%%%%",
"%%%%%%%%%%%%%%%%%%%%%%%%%%%%%%%%%%%%%%%%%%%%%%%%%%%%%%%%%%%%%%%%",
"          ++@@@   +@+    +@@@++           ++@@@   +@+    +@@@++ "
};
