/* XPM */
static char *_4b71687986c440fd6e888712b2ea81enYXNXkWAUYQE9iv0[] = {
/* columns rows colors chars-per-pixel */
"64 64 5 1 ",
"  c #BF4830",
". c #C28569",
"X c #B9704F",
"o c #733D3B",
"O c #D77643",
/* pixels */
"              ..                XX..            ..            ..",
"              ..                XX..            ..            ..",
"oo      oo    OOoo  XX            ..XX        XXOO            OO",
"oo      oo    OOoo  XX            ..XX        XXOO            OO",
"            XXOOXX    oo      XXXX..XX    oo  XX..XX  oooo    OO",
"            XXOOXX    oo      XXXX..XX    oo  XX..XX  oooo    OO",
"......OOOO....OOOOOO....OOOOOO....OOOOOO............OOOOOO....OO",
"......OOOO....OOOOOO....OOOOOO....OOOOOO............OOOOOO....OO",
"  ..XXXX        oo..XX                ..XX            ..        ",
"  ..XXXX        oo..XX                ..XX            ..        ",
"  ..XX            ..XX          XXXX  ..            XX..        ",
"  ..XX            ..XX          XXXX  ..            XX..        ",
"  ..            OO..XXoooo  OO        ..XX            ..oo      ",
"  ..            OO..XXoooo  OO        ..XX            ..oo      ",
"..........OOOO........................OO........OOOO..OO....OOOO",
"..........OOOO........................OO........OOOO..OO....OOOO",
"          ..oo    XXXX..ooXX              ..XXoo          ..    ",
"          ..oo    XXXX..ooXX              ..XXoo          ..    ",
"          ..          ..oo              XX..XX          XX..    ",
"          ..          ..oo              XX..XX          XX..    ",
"    XX    ..          ..ooXX            OO..oo        XX  OOoo  ",
"    XX    ..          ..ooXX            OO..oo        XX  OOoo  ",
"..OOOOOO....OOOOOOOO..OO............................OOOOOOOO....",
"..OOOOOO....OOOOOOOO..OO............................OOOOOOOO....",
"    ..oo      XX  ..            ..XXXX        ..XX    ..        ",
"    ..oo      XX  ..            ..XXXX        ..XX    ..        ",
"    ..      oo    ..oo        oo..            ..      ..        ",
"    ..      oo    ..oo        oo..            ..      ..        ",
"    ..oo          ..oo          ..OO          ..XX    ..oo      ",
"    ..oo          ..oo          ..OO          ..XX    ..oo      ",
"....OO....OO..OO......................................OO........",
"....OO....OO..OO......................................OO........",
"      XXXX..          ..    XX        ..XX              ..      ",
"      XXXX..          ..    XX        ..XX              ..      ",
"  oo  oo  ..        XX..XXXXoo        ..oo    XX        OO      ",
"  oo  oo  ..        XX..XXXXoo        ..oo    XX        OO      ",
"          ..OO    XXXX..oo          oo..XX              OOoooo  ",
"          ..OO    XXXX..oo          oo..XX              OOoooo  ",
"..OO......OO............................................OOOOOO..",
"..OO......OO............................................OOOOOO..",
"  ..            ..oo          XX  ..XXoo            ..          ",
"  ..            ..oo          XX  ..XXoo            ..          ",
"  ..            OOXX              ..                ..        oo",
"  ..            OOXX              ..                ..        oo",
"  ..XX  XX    XX..oo  oo      oo  ..oo            XXOOoo      oo",
"  ..XX  XX    XX..oo  oo      oo  ..oo            XXOOoo      oo",
"..OO....OOOO....OO......OOOOOOOO..........OO..OO..........OO....",
"..OO....OOOO....OO......OOOOOOOO..........OO..OO..........OO....",
"oo        ..oo            ..XX          XXOO              ..  oo",
"oo        ..oo            ..XX          XXOO              ..  oo",
"          ..  XX          OO            XXOOXX            ..  oo",
"          ..  XX          OO            XXOOXX            ..  oo",
"    ooXXXX..oo          XX..oooo          ..oooo  XXOO  oo..  oo",
"    ooXXXX..oo          XX..oooo          ..oooo  XXOO  oo..  oo",
"......OO..................OO..........OO....OOOO........OO......",
"......OO..................OO..........OO....OOOO........OO......",
"      OO      XX    XX..oo          XX..XX          XX..      oo",
"      OO      XX    XX..oo          XX..XX          XX..      oo",
"      ..              ..              ..            XX..        ",
"      ..              ..              ..            XX..        ",
"  ooooOO              ..oo            ..XX  oo        ..        ",
"  ooooOO              ..oo            ..XX  oo        ..        ",
"......OOOO......OO....OO............OO........OOOOOO............",
"......OOOO......OO....OO............OO........OOOOOO............"
};
