/* XPM */
static char *result[] = {
/* columns rows colors chars-per-pixel */
"64 64 58 1 ",
"  c #290C0C",
". c #491515",
"X c #4F2718",
"o c #7C92A3",
"O c #7EA0AF",
"+ c #AEB9C2",
"@ c #461C11",
"# c #A75223",
"$ c #31100D",
"% c #2E0F0D",
"& c #B55C2A",
"* c #2D0F0D",
"= c #BF782C",
"- c #34120E",
"; c #3B160F",
": c #CC8F4E",
"> c #B5C5CD",
", c #37140F",
"< c #31110E",
"1 c #30100D",
"2 c #36130E",
"3 c #39150F",
"4 c #3B1910",
"5 c #361611",
"6 c #331410",
"7 c #341510",
"8 c #33130E",
"9 c #32130E",
"0 c #31120E",
"q c #38170F",
"w c #391810",
"e c #38150F",
"r c #3D1810",
"t c #3C1710",
"y c #33120E",
"u c #34140E",
"i c #351611",
"p c #371712",
"a c #3D1A10",
"s c #3C1A10",
"d c #401911",
"f c #35140F",
"g c #3B1A13",
"h c #3C1B14",
"j c #3A1810",
"k c #3E1B11",
"l c #39170F",
"z c #32110E",
"x c #2D1213",
"c c #311B1C",
"v c #2F1414",
"b c #2C1010",
"n c #2C1011",
"m c #321819",
"M c #311617",
"N c #301516",
"B c #2F1415",
"V c #2F1314",
/* pixels */
" ..XXX.    .X.   XXX..           ..XXX.    .X.   XXX..          ",
"oooooooooooooooooooooooooooooooooooooooooooooooooooooooooooooooo",
"oooooooooooooooooooooooooooooooooooooooooooooooooooooooooooooooo",
"oooooooooooooooooooooooooooooooooooooooooooooooooooooooooooooooo",
"oooooooooooooooooooooooooooooooooooooooooooooooooooooooooooooooo",
"oooooooooooooooooooooooooooooooooooooooooooooooooooooooooooooooo",
"OOOOOOOOOOOOOOOOOOOOOOOOOOOOOOOOOOOOOOOOOOOOOOOOOOOOOOOOOOOOOOOO",
"++++++++++++++++++++++++++++++++++++++++++++++++++++++++++++++++",
" .XXX.     ..     XX...     ..   .XXX.     ..     XX...     ..  ",
"@############## ############### ############### oooooooooooooooo",
"$##############.###############.###############.oooooooooooooooo",
"%##############.###############.###############.ooooooooOOOOoooo",
"%#########&&&&&.###############.##########&&&&&.oooOOOOOOOOOOOOo",
"*&&&&&===&&&&##.######&&##&&&&#.&&&&&&===&&&&##.ooooOOOOO+++++++",
"-&&&=========&& &&###&&========.&&&&=========&& ooo+++++++++++++",
";###&====::::== #&&&=====::::=& ####&====::::== oooo+++++++>>>++",
"   .X.           ...      ..       .X.           ...      ..    ",
"######## ############### ############### ############ oooooooooo",
"########.###############.###############.############ oooooooooo",
"########X###############.###############X############.oooooooooo",
"########X#######&&&&&&##.###############X#######&&&&&.ooooOOOOoo",
"&&&&&&&#X#####&&&&&&&&&&.#######&&&&&&&#X#####&&&&&&&.ooOOOOOOOO",
"=====&&&.&&&&&&&=======&.#####&&=====&&&.&&&&&&&=====.oOO+++++++",
"==::::== &&&&&&====::::= &&&======::::== &&&&&&====::.o++++++>>+",
" .XX..      ..   ...       .XX   .XX..      ..   ...       .XX  ",
",############## ############### ############### oooooooooooooooo",
"<########&&&###.###############.#########&&&###.oooooooooooooooo",
"1######&&&&&&&#.###############.#######&&&&&&&#.ooooooOOOOOOOooo",
"2######&&&&&&&#.###########&&&#X#######&&&&&&&#.ooOOOOOOOOOOOOOO",
"3######&&&&&&&&.######&&&&&&&&&.#######&&&&&&&&.oOOOOO++++++++++",
"2####&========&.#&============&.#####&========&.ooOO++++++++++++",
"2&&&=====:::=&& &&&========:::= #&&&=====:::=&& ooo+++++++++>>>+",
"          ..XXX   .X.    .XXX..           ..XXX   .X.     .X.   ",
"####### ############### ############### ############# oooooooooo",
"#######.###############.###############.############# oooooooooo",
"#######.###############.##&&&##########.#############.oooooooooo",
"#######X###&&##########X#&&&&&&&#######X###&&########.oooOOOOOOO",
"&&&&###X##&&&&====&&###X#&&&&&&&&&&&###X##&&&&====&&#.ooOOOOOOOO",
"==#####.&===========&##.==========#####.&===========&.oOO+++++++",
"#&&#### =::::::===&#### #=::=&&##&&#### =::::::===&##.o+++++>>++",
"  ..     ...XX     ..     .XXX.   ..     ...XX     ..     .XXX. ",
" ############### ############### ############### ooooooooooooooo",
".###############.###############.###############.ooooooooooooooo",
".###############.###############.###############.ooooooooooooooo",
".###############.&&&&&##########.###############.oooOOOOOOOOOOoo",
".#&&&&##&&######.##&&&&===&&&&&&.#&&&&##&&######.ooOOOOOO+++++++",
".========&&###&& &&=========&&&&.========&&###&& oo+++++++++++++",
" &=::::=====&&&# ==::::====&#### &=::::=====&&&# ooo++++++++>>>+",
"    ..      ...           .X.       ..      ...           .X.   ",
"####### ############### ############### ############# oooooooooo",
"#######.###############.###############.############# oooooooooo",
"#######.###############X###############.#############.oooooooooo",
"#######.##&&&&&&#######X###############.##&&&&&&#####.oooOOOOOOO",
"#######.&&&&&&&&&&#####X#&&&&&&&#######.&&&&&&&&&&###.ooOOOOOOOO",
"&&#####.&=======&&&&&&&.&&&=====&&#####.&=======&&&&&.oOO+++++++",
"====&&& =::::====&&&&&& ==::::======&&& =::::====&&&&.o+++++>>++",
"  XX.       ...   ..      ..XX.   XX.       ...   ..      ..XX. ",
" ############### ############### ############### ooooooooooooooo",
".###############.###&&&#########.###############.ooooooooooooooo",
".###############.#&&&&&&&#######.###############.ooooooooooooooo",
"X#&&&###########.#&&&&&&&#######X#&&&###########.oooOOOOOOOOOOOo",
".&&&&&&&&&######.&&&&&&&&#######.&&&&&&&&&######.ooOOO+++++OOOOo",
".&============&#.&========&#####.&============&#.oOO++++++++++++",
" 4567888900qwe-r tyui7pwaaasdty, fghpu9qjkqlq-z- xcvbbbbnmMNvBVv"
};
